<svg width="16" height="16" viewBox="0 0 16 16" fill="none" xmlns="http://www.w3.org/2000/svg">
<path d="M6.79895 1.13957C7.0983 0.218262 8.40171 0.218265 8.70106 1.13958L9.81072 4.55476C9.9446 4.96678 10.3286 5.24574 10.7618 5.24574H14.3527C15.3214 5.24574 15.7242 6.48536 14.9405 7.05476L12.0354 9.16546C11.6849 9.42011 11.5382 9.87147 11.6721 10.2835L12.7818 13.6987C13.0811 14.62 12.0266 15.3861 11.2429 14.8167L8.33779 12.706C7.9873 12.4514 7.51271 12.4514 7.16222 12.706L4.25709 14.8167C3.47338 15.3861 2.4189 14.62 2.71825 13.6987L3.82791 10.2835C3.96178 9.87148 3.81512 9.42011 3.46464 9.16546L0.559505 7.05476C-0.224209 6.48536 0.178569 5.24574 1.14729 5.24574H4.73823C5.17146 5.24574 5.55541 4.96678 5.68929 4.55476L6.79895 1.13957Z" fill="#D9D9D9"/>
</svg>
