<svg width="22" height="22" viewBox="0 0 22 22" fill="none" xmlns="http://www.w3.org/2000/svg">
<path d="M10.219 15.081C10.3236 15.1811 10.447 15.2596 10.582 15.312C10.8498 15.422 11.1502 15.422 11.418 15.312C11.553 15.2596 11.6764 15.1811 11.781 15.081L15.081 11.781C15.2881 11.5739 15.4045 11.2929 15.4045 11C15.4045 10.7071 15.2881 10.4261 15.081 10.219C14.8739 10.0119 14.5929 9.8955 14.3 9.8955C14.0071 9.8955 13.7261 10.0119 13.519 10.219L12.1 11.649V7.7C12.1 7.40827 11.9841 7.12848 11.7778 6.92219C11.5715 6.7159 11.2917 6.6 11 6.6C10.7083 6.6 10.4285 6.7159 10.2222 6.92219C10.0159 7.12848 9.9 7.40827 9.9 7.7V11.649L8.481 10.219C8.37874 10.1159 8.25708 10.0341 8.12303 9.97822C7.98899 9.92238 7.84521 9.89363 7.7 9.89363C7.55478 9.89363 7.41101 9.92238 7.27696 9.97822C7.14292 10.0341 7.02126 10.1159 6.919 10.219C6.8159 10.3213 6.73406 10.4429 6.67822 10.577C6.62237 10.711 6.59362 10.8548 6.59362 11C6.59362 11.1452 6.62237 11.289 6.67822 11.423C6.73406 11.5571 6.8159 11.6787 6.919 11.781L10.219 15.081ZM11 22C13.1756 22 15.3023 21.3549 17.1113 20.1462C18.9202 18.9375 20.3301 17.2195 21.1627 15.2095C21.9952 13.1995 22.2131 10.9878 21.7886 8.85401C21.3642 6.72022 20.3165 4.76021 18.7782 3.22183C17.2398 1.68345 15.2798 0.635805 13.146 0.211367C11.0122 -0.21307 8.80047 0.00476646 6.79048 0.83733C4.78049 1.6699 3.06253 3.07979 1.85383 4.88873C0.64514 6.69767 0 8.82441 0 11C0 12.4445 0.284523 13.8749 0.837324 15.2095C1.39013 16.5441 2.20038 17.7567 3.22182 18.7782C4.24327 19.7996 5.4559 20.6099 6.79048 21.1627C8.12506 21.7155 9.55546 22 11 22ZM11 2.20001C12.7405 2.20001 14.4419 2.71612 15.889 3.68307C17.3362 4.65003 18.4641 6.0244 19.1301 7.63239C19.7962 9.24038 19.9705 11.0098 19.6309 12.7168C19.2914 14.4238 18.4532 15.9918 17.2225 17.2225C15.9918 18.4532 14.4238 19.2914 12.7168 19.6309C11.0098 19.9705 9.24037 19.7962 7.63238 19.1301C6.02439 18.4641 4.65002 17.3362 3.68307 15.889C2.71611 14.4419 2.2 12.7405 2.2 11C2.2 8.6661 3.12714 6.42778 4.77746 4.77747C6.42778 3.12715 8.66609 2.20001 11 2.20001Z" fill="white"/>
</svg>
