<svg width="29" height="28" viewBox="0 0 29 28" fill="none" xmlns="http://www.w3.org/2000/svg">
<path d="M27 11.9757C27.2652 11.9757 27.5196 11.8704 27.7071 11.6828C27.8946 11.4953 28 11.2409 28 10.9757V7.97571C28 7.7105 27.8946 7.45614 27.7071 7.26861C27.5196 7.08107 27.2652 6.97571 27 6.97571H21.15L23.88 4.24571C24.3478 3.7754 24.6103 3.13904 24.6103 2.47571C24.6103 1.81239 24.3478 1.17603 23.88 0.705714C23.404 0.252674 22.7721 0 22.115 0C21.4579 0 20.826 0.252674 20.35 0.705714L14 6.97571H7C6.73478 6.97571 6.48043 7.08107 6.29289 7.26861C6.10536 7.45614 6 7.7105 6 7.97571C6 8.24093 6.10536 8.49529 6.29289 8.68282C6.48043 8.87036 6.73478 8.97571 7 8.97571H12L11 9.97571H2V8.97571H4C4.26522 8.97571 4.51957 8.87036 4.70711 8.68282C4.89464 8.49529 5 8.24093 5 7.97571C5 7.7105 4.89464 7.45614 4.70711 7.26861C4.51957 7.08107 4.26522 6.97571 4 6.97571H1C0.734784 6.97571 0.48043 7.08107 0.292893 7.26861C0.105357 7.45614 0 7.7105 0 7.97571V10.9757C0 11.2409 0.105357 11.4953 0.292893 11.6828C0.48043 11.8704 0.734784 11.9757 1 11.9757H2.19L4.68 23.6057C4.82435 24.2778 5.19514 24.8799 5.73031 25.3113C6.26549 25.7428 6.93259 25.9773 7.62 25.9757H17.54C18.1236 26.6354 18.8453 27.1584 19.6538 27.5078C20.4623 27.8571 21.3378 28.0242 22.2182 27.9971C23.0985 27.9701 23.9621 27.7495 24.7476 27.3511C25.5331 26.9527 26.2213 26.3863 26.7632 25.692C27.3052 24.9978 27.6877 24.1927 27.8835 23.334C28.0793 22.4753 28.0837 21.584 27.8963 20.7234C27.709 19.8628 27.3344 19.054 26.7993 18.3545C26.2641 17.6549 25.5816 17.0818 24.8 16.6757L25.8 11.9757H27ZM26 8.97571V9.97571H18.15L19.15 8.97571H26ZM21.76 2.12571C21.803 2.06841 21.8578 2.021 21.9207 1.98671C21.9836 1.95242 22.0531 1.93205 22.1246 1.92697C22.196 1.92189 22.2677 1.93223 22.3348 1.95728C22.402 1.98233 22.4629 2.02151 22.5136 2.07216C22.5642 2.12282 22.6034 2.18376 22.6284 2.25088C22.6535 2.31799 22.6638 2.3897 22.6587 2.46116C22.6537 2.53261 22.6333 2.60214 22.599 2.66504C22.5647 2.72794 22.5173 2.78273 22.46 2.82571L15.32 9.97571H13.81L21.76 2.12571ZM26 21.9757C26 22.7668 25.7654 23.5402 25.3259 24.198C24.8864 24.8558 24.2616 25.3685 23.5307 25.6712C22.7998 25.974 21.9956 26.0532 21.2196 25.8989C20.4437 25.7445 19.731 25.3636 19.1716 24.8041C18.6122 24.2447 18.2312 23.532 18.0769 22.7561C17.9225 21.9802 18.0017 21.1759 18.3045 20.445C18.6072 19.7141 19.1199 19.0894 19.7777 18.6498C20.4355 18.2103 21.2089 17.9757 22 17.9757C23.0609 17.9757 24.0783 18.3971 24.8284 19.1473C25.5786 19.8974 26 20.9148 26 21.9757ZM22.89 16.0457C22.5953 16.0021 22.2979 15.9787 22 15.9757C21.0407 15.9768 20.0956 16.2079 19.2441 16.6496C18.3925 17.0914 17.6593 17.7308 17.1059 18.5144C16.5525 19.298 16.195 20.2029 16.0635 21.1531C15.932 22.1033 16.0302 23.0713 16.35 23.9757H7.62C7.38745 23.9809 7.16038 23.9048 6.97786 23.7606C6.79534 23.6165 6.66879 23.4131 6.62 23.1857L4.24 11.9757H23.76L22.89 16.0457Z" fill="white"/>
<path d="M20.66 21.4257C20.5661 21.3338 20.455 21.2613 20.3331 21.2123C20.2112 21.1633 20.0808 21.1388 19.9494 21.1402C19.684 21.143 19.4307 21.2511 19.245 21.4407C19.0593 21.6303 18.9566 21.8859 18.9594 22.1513C18.9623 22.4167 19.0704 22.6701 19.26 22.8557L20.83 24.3957C21.0163 24.5805 21.2677 24.6846 21.53 24.6857C21.6623 24.6852 21.7932 24.6584 21.9151 24.6069C22.0369 24.5554 22.1474 24.4802 22.24 24.3857L24.75 21.8057C24.9343 21.6148 25.0352 21.3584 25.0306 21.093C25.0259 20.8277 24.916 20.575 24.725 20.3907C24.534 20.2064 24.2777 20.1055 24.0123 20.1102C23.747 20.1148 23.4943 20.2248 23.31 20.4157L21.51 22.2657L20.66 21.4257ZM9 13.9757H8C7.73478 13.9757 7.48043 14.0811 7.29289 14.2686C7.10536 14.4561 7 14.7105 7 14.9757C7 15.2409 7.10536 15.4953 7.29289 15.6828C7.48043 15.8704 7.73478 15.9757 8 15.9757H9C9.26522 15.9757 9.51957 15.8704 9.70711 15.6828C9.89464 15.4953 10 15.2409 10 14.9757C10 14.7105 9.89464 14.4561 9.70711 14.2686C9.51957 14.0811 9.26522 13.9757 9 13.9757ZM13 13.9757H12C11.7348 13.9757 11.4804 14.0811 11.2929 14.2686C11.1054 14.4561 11 14.7105 11 14.9757C11 15.2409 11.1054 15.4953 11.2929 15.6828C11.4804 15.8704 11.7348 15.9757 12 15.9757H13C13.2652 15.9757 13.5196 15.8704 13.7071 15.6828C13.8946 15.4953 14 15.2409 14 14.9757C14 14.7105 13.8946 14.4561 13.7071 14.2686C13.5196 14.0811 13.2652 13.9757 13 13.9757ZM15 14.9757C15 15.2409 15.1054 15.4953 15.2929 15.6828C15.4804 15.8704 15.7348 15.9757 16 15.9757H17C17.2652 15.9757 17.5196 15.8704 17.7071 15.6828C17.8946 15.4953 18 15.2409 18 14.9757C18 14.7105 17.8946 14.4561 17.7071 14.2686C17.5196 14.0811 17.2652 13.9757 17 13.9757H16C15.7348 13.9757 15.4804 14.0811 15.2929 14.2686C15.1054 14.4561 15 14.7105 15 14.9757ZM9 16.9757H8C7.73478 16.9757 7.48043 17.0811 7.29289 17.2686C7.10536 17.4561 7 17.7105 7 17.9757C7 18.2409 7.10536 18.4953 7.29289 18.6828C7.48043 18.8704 7.73478 18.9757 8 18.9757H9C9.26522 18.9757 9.51957 18.8704 9.70711 18.6828C9.89464 18.4953 10 18.2409 10 17.9757C10 17.7105 9.89464 17.4561 9.70711 17.2686C9.51957 17.0811 9.26522 16.9757 9 16.9757ZM13 16.9757H12C11.7348 16.9757 11.4804 17.0811 11.2929 17.2686C11.1054 17.4561 11 17.7105 11 17.9757C11 18.2409 11.1054 18.4953 11.2929 18.6828C11.4804 18.8704 11.7348 18.9757 12 18.9757H13C13.2652 18.9757 13.5196 18.8704 13.7071 18.6828C13.8946 18.4953 14 18.2409 14 17.9757C14 17.7105 13.8946 17.4561 13.7071 17.2686C13.5196 17.0811 13.2652 16.9757 13 16.9757Z" fill="white"/>
</svg>
