<svg width="25" height="24" viewBox="0 0 25 24" fill="none" xmlns="http://www.w3.org/2000/svg">
<path d="M16.5658 19.845C16.6655 19.9483 16.8149 20 16.9146 20C17.0641 20 17.1637 19.9483 17.2633 19.845L20.8505 16.124C21.0498 15.9173 21.0498 15.6072 20.8505 15.4005C20.6512 15.1938 20.3523 15.1938 20.153 15.4005L16.9146 18.7597L15.4698 17.261C15.2705 17.0543 14.9715 17.0543 14.7722 17.261C14.573 17.4677 14.573 17.7778 14.7722 17.9845L16.5658 19.845ZM15.7687 4.59948C15.7687 1.86046 13.9751 0 11.3843 0C8.74377 0 7 1.86046 7 4.59948C7 7.3385 8.79359 10.3876 11.3843 10.3876C13.9751 10.3876 15.7687 7.3385 15.7687 4.59948ZM7.99644 4.59948C7.99644 2.42894 9.29182 1.03359 11.3843 1.03359C13.4769 1.03359 14.7722 2.42894 14.7722 4.59948C14.7722 7.0801 13.1779 9.35401 11.3843 9.35401C9.59075 9.35401 7.99644 7.13178 7.99644 4.59948Z" fill="white"/>
<path d="M16.5658 19.845C16.6655 19.9483 16.8149 20 16.9146 20C17.0641 20 17.1637 19.9483 17.2633 19.845L20.8505 16.124C21.0498 15.9173 21.0498 15.6072 20.8505 15.4005C20.6512 15.1938 20.3523 15.1938 20.153 15.4005L16.9146 18.7597L15.4698 17.261C15.2705 17.0543 14.9715 17.0543 14.7722 17.261C14.573 17.4677 14.573 17.7778 14.7722 17.9845L16.5658 19.845ZM15.7687 4.59948C15.7687 1.86046 13.9751 0 11.3843 0C8.74377 0 7 1.86046 7 4.59948C7 7.3385 8.79359 10.3876 11.3843 10.3876C13.9751 10.3876 15.7687 7.3385 15.7687 4.59948ZM7.99644 4.59948C7.99644 2.42894 9.29182 1.03359 11.3843 1.03359C13.4769 1.03359 14.7722 2.42894 14.7722 4.59948C14.7722 7.0801 13.1779 9.35401 11.3843 9.35401C9.59075 9.35401 7.99644 7.13178 7.99644 4.59948Z" stroke="white"/>
<path d="M2.13079 20.3237H11.4864C12.7338 22.4892 15.0727 24 17.8274 24C21.7775 24 25 20.8777 25 17C25 13.1223 21.7775 10 17.7754 10C16.1122 10 14.5529 10.554 13.3055 11.5108L13.3055 11.5108C12.7338 11.4604 12.1621 11.4101 11.4864 11.4101C10.6548 11.4101 9.82316 11.4101 9.04353 11.4604C6.91253 11.6115 5.09339 12.0647 3.69005 12.8705C1.71499 13.9281 0.519549 15.5396 0.05177 17.705C-0.104156 18.3597 0.103745 19.0647 0.519549 19.5683C0.935353 20.0719 1.50708 20.3237 2.13079 20.3237ZM23.9605 17C23.9605 20.3237 21.2058 22.9928 17.7754 22.9928C14.345 22.9928 11.5903 20.3237 11.5903 17C11.5903 13.6763 14.345 11.0072 17.7754 11.0072C21.2058 11.0072 23.9605 13.7266 23.9605 17ZM1.14326 17.9568C1.55906 15.9928 2.65054 14.7338 4.00191 13.9281C5.76907 12.8705 8.05599 12.5683 10.135 12.4676H11.4864C11.7463 12.4676 12.0581 12.4676 12.318 12.518C11.2265 13.7266 10.6028 15.3381 10.6028 17.0504C10.6028 17.8561 10.7587 18.6619 11.0186 19.3669H2.13079C1.87091 19.3669 1.55906 19.2662 1.35116 19.0144C1.14326 18.7122 1.0393 18.3094 1.14326 17.9568Z" fill="white"/>
<path d="M2.13079 20.3237H11.4864C12.7338 22.4892 15.0727 24 17.8274 24C21.7775 24 25 20.8777 25 17C25 13.1223 21.7775 10 17.7754 10C16.1122 10 14.5529 10.554 13.3055 11.5108L13.3055 11.5108C12.7338 11.4604 12.1621 11.4101 11.4864 11.4101C10.6548 11.4101 9.82316 11.4101 9.04353 11.4604C6.91253 11.6115 5.09339 12.0647 3.69005 12.8705C1.71499 13.9281 0.519549 15.5396 0.05177 17.705C-0.104156 18.3597 0.103745 19.0647 0.519549 19.5683C0.935353 20.0719 1.50708 20.3237 2.13079 20.3237ZM23.9605 17C23.9605 20.3237 21.2058 22.9928 17.7754 22.9928C14.345 22.9928 11.5903 20.3237 11.5903 17C11.5903 13.6763 14.345 11.0072 17.7754 11.0072C21.2058 11.0072 23.9605 13.7266 23.9605 17ZM1.14326 17.9568C1.55906 15.9928 2.65054 14.7338 4.00191 13.9281C5.76907 12.8705 8.05599 12.5683 10.135 12.4676H11.4864C11.7463 12.4676 12.0581 12.4676 12.318 12.518C11.2265 13.7266 10.6028 15.3381 10.6028 17.0504C10.6028 17.8561 10.7587 18.6619 11.0186 19.3669H2.13079C1.87091 19.3669 1.55906 19.2662 1.35116 19.0144C1.14326 18.7122 1.0393 18.3094 1.14326 17.9568Z" stroke="white"/>
</svg>
