<svg width="31" height="30" viewBox="0 0 31 30" fill="none" xmlns="http://www.w3.org/2000/svg">
<path opacity="0.6" d="M27.125 7.12369H2.90625V6.17051L24.2188 4.49291V6.17051H27.125V3.31097C27.125 1.21397 25.3987 -0.257735 23.2907 0.0377511L3.83625 2.77147C1.72631 3.06886 0 5.02669 0 7.12369V26.1873C0 27.1985 0.408258 28.1683 1.13496 28.8833C1.86166 29.5983 2.84729 30 3.875 30H27.125C28.1527 30 29.1383 29.5983 29.865 28.8833C30.5917 28.1683 31 27.1985 31 26.1873V10.9364C31 9.92521 30.5917 8.95543 29.865 8.24041C29.1383 7.52538 28.1527 7.12369 27.125 7.12369ZM24.2188 20.4796C23.837 20.4795 23.459 20.4054 23.1063 20.2615C22.7536 20.1177 22.4332 19.9069 22.1633 19.6411C21.8934 19.3754 21.6794 19.06 21.5334 18.7129C21.3874 18.3658 21.3124 17.9938 21.3125 17.6182C21.3126 17.2426 21.388 16.8706 21.5342 16.5236C21.6804 16.1766 21.8946 15.8613 22.1647 15.5958C22.4347 15.3303 22.7553 15.1197 23.1081 14.976C23.4608 14.8324 23.8389 14.7585 24.2207 14.7587C24.9917 14.7589 25.7311 15.0605 26.2761 15.5971C26.8211 16.1338 27.1272 16.8615 27.1269 17.6201C27.1267 18.3788 26.8201 19.1062 26.2747 19.6425C25.7294 20.1788 24.9898 20.4799 24.2188 20.4796Z" fill="#D9D9D9"/>
</svg>
