<svg width="194" height="194" viewBox="0 0 194 194" fill="none" xmlns="http://www.w3.org/2000/svg">
<circle cx="97" cy="97" r="87" stroke="white" stroke-width="2"/>
<circle cx="97" cy="97" r="96" stroke="#FFBA01" stroke-width="2"/>
<path fill-rule="evenodd" clip-rule="evenodd" d="M118.923 76.4474C120.146 76.1198 121.404 76.8463 121.732 78.0693C122.06 79.2923 123.318 80.0189 124.541 79.6912C125.764 79.3635 126.491 78.105 126.163 76.882C125.18 73.2131 121.404 71.0333 117.736 72.0164C116.513 72.3441 115.786 73.6026 116.114 74.8256C116.441 76.0485 117.7 76.7751 118.923 76.4474Z" fill="white"/>
<path fill-rule="evenodd" clip-rule="evenodd" d="M116.547 67.5866C122.662 65.9481 128.954 69.5811 130.593 75.6959C130.921 76.9189 132.179 77.6455 133.402 77.3178C134.625 76.9901 135.352 75.7316 135.024 74.5086C132.73 65.9479 123.921 60.8617 115.36 63.1555C114.137 63.4832 113.41 64.7417 113.738 65.9647C114.066 67.1876 115.324 67.9142 116.547 67.5866Z" fill="white"/>
<path fill-rule="evenodd" clip-rule="evenodd" d="M115.034 122.236C111.237 122.236 108.154 125.319 108.154 129.117C108.154 132.917 111.237 136 115.034 136C118.834 136 121.917 132.917 121.917 129.117C121.917 125.319 118.834 122.236 115.034 122.236ZM115.034 126.825C116.3 126.825 117.328 127.853 117.328 129.117C117.328 130.383 116.3 131.411 115.034 131.411C113.77 131.411 112.742 130.383 112.742 129.117C112.742 127.853 113.77 126.825 115.034 126.825Z" fill="white"/>
<path fill-rule="evenodd" clip-rule="evenodd" d="M85.2142 122.236C81.4171 122.236 78.3341 125.319 78.3341 129.117C78.3341 132.917 81.4171 136 85.2142 136C89.0143 136 92.0973 132.917 92.0973 129.117C92.0973 125.319 89.0143 122.236 85.2142 122.236ZM85.2142 126.825C86.4809 126.825 87.5086 127.853 87.5086 129.117C87.5086 130.383 86.4809 131.411 85.2142 131.411C83.9505 131.411 82.9228 130.383 82.9228 129.117C82.9228 127.853 83.9505 126.825 85.2142 126.825Z" fill="white"/>
<path fill-rule="evenodd" clip-rule="evenodd" d="M123.602 90.9148C123.827 88.9658 123.21 87.0141 121.905 85.5477C120.597 84.0839 118.728 83.2463 116.767 83.2463C104.785 83.2463 76.0411 83.2463 76.0411 83.2463C75.3714 83.2463 74.736 83.539 74.3002 84.0459C73.8644 84.5528 73.6718 85.2278 73.775 85.8892L78.3622 115.707C78.5343 116.824 79.4953 117.65 80.6284 117.65H114.384C117.879 117.65 120.82 115.032 121.221 111.56L123.602 90.9148ZM78.7155 87.8327L82.5963 113.064H114.384C115.549 113.064 116.531 112.191 116.664 111.034L119.044 90.389C119.12 89.7411 118.914 89.0878 118.478 88.5999C118.044 88.112 117.421 87.8327 116.767 87.8327H78.7155Z" fill="white"/>
<path fill-rule="evenodd" clip-rule="evenodd" d="M78.8717 88.5692C78.8717 88.5692 77.9382 83.4383 77.2616 79.7202C76.6675 76.4495 73.8188 74.0709 70.4931 74.0709C69.4426 74.0709 68.5871 74.0709 68.5871 74.0709V78.6583C68.5871 78.6583 69.4426 78.6583 70.4931 78.6583C71.6009 78.6583 72.5505 79.4519 72.75 80.5414C73.4244 84.2594 74.3579 89.3903 74.3579 89.3903C74.5849 90.6358 75.7799 91.4638 77.0254 91.2367C78.2708 91.0096 79.0988 89.8147 78.8717 88.5692Z" fill="white"/>
<path fill-rule="evenodd" clip-rule="evenodd" d="M85.2159 113.063H80.6286C78.8029 113.063 77.0528 113.788 75.7638 115.079C74.4725 116.369 73.7477 118.119 73.7477 119.944H76.0413H73.7477C73.7477 121.77 74.4725 123.52 75.7638 124.809C77.0528 126.101 78.8029 126.825 80.6286 126.825C90.9362 126.825 115.033 126.825 115.033 126.825C116.299 126.825 117.327 125.798 117.327 124.532C117.327 123.266 116.299 122.238 115.033 122.238C115.033 122.238 90.9362 122.238 80.6286 122.238C80.0208 122.238 79.4359 121.997 79.007 121.566C78.5758 121.137 78.335 120.552 78.335 119.944H76.0413H78.335C78.335 119.337 78.5758 118.752 79.007 118.323C79.4359 117.892 80.0208 117.651 80.6286 117.651H85.2159C86.482 117.651 87.5095 116.623 87.5095 115.357C87.5095 114.091 86.482 113.063 85.2159 113.063Z" fill="white"/>
<path fill-rule="evenodd" clip-rule="evenodd" d="M96.6841 85.5393V115.357C96.6841 116.623 97.7116 117.651 98.9777 117.651C100.244 117.651 101.271 116.623 101.271 115.357V85.5393C101.271 84.2732 100.244 83.2456 98.9777 83.2456C97.7116 83.2456 96.6841 84.2732 96.6841 85.5393Z" fill="white"/>
<path fill-rule="evenodd" clip-rule="evenodd" d="M84.0833 85.8031L87.5238 115.621C87.6683 116.878 88.8059 117.781 90.0652 117.635C91.3221 117.49 92.2257 116.352 92.0789 115.093L88.6385 85.2755C88.494 84.0186 87.3563 83.1149 86.0971 83.2617C84.8402 83.4062 83.9366 84.5438 84.0833 85.8031Z" fill="white"/>
<path fill-rule="evenodd" clip-rule="evenodd" d="M110.43 115.619L113.87 85.801C114.017 84.5418 113.113 83.4041 111.856 83.2596C110.597 83.1128 109.46 84.0165 109.315 85.2735L105.875 115.091C105.728 116.35 106.631 117.488 107.888 117.633C109.148 117.779 110.285 116.876 110.43 115.619Z" fill="white"/>
<path fill-rule="evenodd" clip-rule="evenodd" d="M79.483 108.476H118.475C119.74 108.476 120.769 107.448 120.769 106.182C120.769 104.916 119.74 103.889 118.475 103.889H79.483C78.218 103.889 77.189 104.916 77.189 106.182C77.189 107.448 78.218 108.476 79.483 108.476Z" fill="white"/>
<path fill-rule="evenodd" clip-rule="evenodd" d="M78.3347 97.0096H119.62C120.886 97.0096 121.914 95.9821 121.914 94.716C121.914 93.4499 120.886 92.4223 119.62 92.4223H78.3347C77.0686 92.4223 76.041 93.4499 76.041 94.716C76.041 95.9821 77.0686 97.0096 78.3347 97.0096Z" fill="white"/>
<path fill-rule="evenodd" clip-rule="evenodd" d="M70.1619 74.0709H68.5874C67.3214 74.0709 66.2932 75.0985 66.2932 76.3646C66.2932 77.6307 67.3214 78.6583 68.5874 78.6583H70.1619C71.4279 78.6583 72.4561 77.6307 72.4561 76.3646C72.4561 75.0985 71.4279 74.0709 70.1619 74.0709Z" fill="white"/>
</svg>
