<svg width="194" height="194" viewBox="0 0 194 194" fill="none" xmlns="http://www.w3.org/2000/svg">
<path d="M67.6371 89.5V98H42.3371V62.5H67.1871V71H52.0871V76H64.9871V83.9H52.0871V89.5H67.6371ZM72.1711 98V62.5H87.4711C89.2044 62.5 90.8044 62.85 92.2711 63.55C93.7378 64.25 95.0044 65.2 96.0711 66.4C97.1378 67.5667 97.9544 68.8833 98.5211 70.35C99.1211 71.8167 99.4211 73.3 99.4211 74.8C99.4211 76.9 98.9211 78.8833 97.9211 80.75C96.9544 82.6167 95.5878 84.15 93.8211 85.35C92.0878 86.5167 90.0544 87.1 87.7211 87.1H81.9211V98H72.1711ZM81.9211 78.6H87.0711C87.4711 78.6 87.8544 78.4833 88.2211 78.25C88.5878 78.0167 88.8878 77.6167 89.1211 77.05C89.3878 76.4833 89.5211 75.7333 89.5211 74.8C89.5211 73.8 89.3711 73.0333 89.0711 72.5C88.8044 71.9333 88.4544 71.55 88.0211 71.35C87.6211 71.1167 87.2211 71 86.8211 71H81.9211V78.6ZM103.323 98V62.5H113.073V98H103.323ZM117.243 79.95C117.243 77.7833 117.643 75.6667 118.443 73.6C119.276 71.5 120.476 69.6 122.043 67.9C123.609 66.2 125.509 64.85 127.743 63.85C130.009 62.8167 132.559 62.3 135.393 62.3C138.793 62.3 141.759 63.0167 144.293 64.45C146.826 65.85 148.709 67.7167 149.943 70.05L142.493 75.35C142.059 74.1833 141.426 73.2833 140.593 72.65C139.793 72.0167 138.909 71.5833 137.943 71.35C137.009 71.0833 136.093 70.95 135.193 70.95C133.793 70.95 132.576 71.2333 131.543 71.8C130.543 72.3333 129.709 73.05 129.043 73.95C128.409 74.85 127.926 75.85 127.593 76.95C127.293 78.05 127.143 79.15 127.143 80.25C127.143 81.4833 127.326 82.6667 127.693 83.8C128.059 84.9333 128.593 85.95 129.293 86.85C129.993 87.7167 130.843 88.4 131.843 88.9C132.876 89.4 134.026 89.65 135.293 89.65C136.193 89.65 137.109 89.5167 138.043 89.25C138.976 88.95 139.826 88.4833 140.593 87.85C141.359 87.2167 141.943 86.3667 142.343 85.3L150.293 90.05C149.593 91.7833 148.426 93.2667 146.793 94.5C145.159 95.7333 143.309 96.6833 141.243 97.35C139.176 97.9833 137.126 98.3 135.093 98.3C132.459 98.3 130.043 97.7833 127.843 96.75C125.676 95.6833 123.793 94.2833 122.193 92.55C120.626 90.7833 119.409 88.8167 118.543 86.65C117.676 84.45 117.243 82.2167 117.243 79.95Z" fill="white"/>
<path d="M52.5667 130.155C51.1407 130.155 49.7767 129.907 48.4747 129.411C47.1934 128.894 46.0567 128.15 45.0647 127.179C44.0727 126.187 43.2874 124.999 42.7087 123.614C42.1507 122.209 41.8717 120.607 41.8717 118.809C41.8717 117.259 42.161 115.823 42.7397 114.5C43.3184 113.177 44.114 112.02 45.1267 111.028C46.16 110.015 47.3587 109.23 48.7227 108.672C50.0867 108.114 51.5644 107.835 53.1557 107.835C55.1397 107.835 56.9377 108.269 58.5497 109.137C60.1617 109.984 61.3604 111.152 62.1457 112.64L57.6507 116.081C57.2167 115.213 56.5657 114.521 55.6977 114.004C54.8297 113.467 53.91 113.198 52.9387 113.198C52.2154 113.198 51.554 113.343 50.9547 113.632C50.3554 113.921 49.8284 114.324 49.3737 114.841C48.9397 115.358 48.5987 115.978 48.3507 116.701C48.1234 117.404 48.0097 118.179 48.0097 119.026C48.0097 119.894 48.1337 120.679 48.3817 121.382C48.6297 122.085 48.9707 122.694 49.4047 123.211C49.8594 123.707 50.3967 124.1 51.0167 124.389C51.6367 124.658 52.329 124.792 53.0937 124.792C54.065 124.792 54.995 124.554 55.8837 124.079C56.7724 123.583 57.5784 122.891 58.3017 122.002V127.892C56.6484 129.401 54.7367 130.155 52.5667 130.155ZM57.9917 122.622H53.9307V118.282H62.9827V130H57.9917V122.622ZM71.0507 107.99H77.8087L84.8147 130H78.6767L77.3437 125.691H71.4847L70.1827 130H64.0137L71.0507 107.99ZM76.3827 121.661L74.4297 113.911L72.3837 121.661H76.3827ZM103.29 130V118.406L99.6014 126.559H96.3774L92.6884 118.406V130H86.6434V107.99H93.2464L97.9894 118.344L102.763 107.99H109.335V130H103.29ZM128.788 124.73V130H113.102V107.99H128.509V113.26H119.147V116.36H127.145V121.258H119.147V124.73H128.788ZM144.929 115.182C144.929 115.182 144.754 115.079 144.402 114.872C144.051 114.665 143.586 114.438 143.007 114.19C142.429 113.921 141.798 113.684 141.116 113.477C140.434 113.27 139.763 113.167 139.101 113.167C138.585 113.167 138.161 113.25 137.83 113.415C137.5 113.58 137.334 113.859 137.334 114.252C137.334 114.624 137.5 114.924 137.83 115.151C138.161 115.378 138.626 115.585 139.225 115.771C139.845 115.957 140.579 116.184 141.426 116.453C142.79 116.866 143.968 117.342 144.96 117.879C145.952 118.416 146.717 119.109 147.254 119.956C147.792 120.783 148.06 121.888 148.06 123.273C148.06 124.596 147.823 125.712 147.347 126.621C146.872 127.51 146.231 128.223 145.425 128.76C144.619 129.297 143.72 129.69 142.728 129.938C141.736 130.165 140.724 130.279 139.69 130.279C138.636 130.279 137.531 130.176 136.373 129.969C135.237 129.742 134.131 129.442 133.056 129.07C131.982 128.677 131 128.223 130.111 127.706L132.715 122.405C132.715 122.405 132.922 122.529 133.335 122.777C133.749 123.025 134.296 123.304 134.978 123.614C135.66 123.924 136.415 124.203 137.241 124.451C138.089 124.699 138.936 124.823 139.783 124.823C140.445 124.823 140.899 124.74 141.147 124.575C141.416 124.389 141.55 124.151 141.55 123.862C141.55 123.428 141.323 123.097 140.868 122.87C140.414 122.622 139.814 122.395 139.07 122.188C138.347 121.961 137.541 121.702 136.652 121.413C135.371 120.979 134.317 120.493 133.49 119.956C132.664 119.398 132.054 118.747 131.661 118.003C131.269 117.238 131.072 116.319 131.072 115.244C131.072 113.611 131.455 112.247 132.219 111.152C132.984 110.057 133.986 109.23 135.226 108.672C136.487 108.093 137.841 107.804 139.287 107.804C140.362 107.804 141.395 107.938 142.387 108.207C143.4 108.455 144.34 108.765 145.208 109.137C146.097 109.509 146.872 109.86 147.533 110.191L144.929 115.182Z" fill="white"/>
<circle cx="97" cy="97" r="96" stroke="#FFBA01" stroke-width="2"/>
<circle cx="97" cy="97" r="87" stroke="white" stroke-width="2"/>
</svg>
