<svg width="22" height="22" viewBox="0 0 22 22" fill="none" xmlns="http://www.w3.org/2000/svg">
<path d="M11 15.375C10.8274 15.375 10.6875 15.2351 10.6875 15.0625C10.6875 14.8899 10.8274 14.75 11 14.75" stroke="#9F7223" stroke-width="1.5"/>
<path d="M11 15.375C11.1726 15.375 11.3125 15.2351 11.3125 15.0625C11.3125 14.8899 11.1726 14.75 11 14.75" stroke="#9F7223" stroke-width="1.5"/>
<path d="M11 12.25V6" stroke="#9F7223" stroke-width="1.5" stroke-miterlimit="10" stroke-linecap="round"/>
<path d="M2.06663 12.0675C1.78384 11.7843 1.625 11.4006 1.625 11.0004C1.625 10.6002 1.78384 10.2164 2.06663 9.93331L9.93325 2.06746C10.0733 1.92717 10.2395 1.81586 10.4225 1.73992C10.6056 1.66397 10.8018 1.62488 10.9999 1.62488C11.1981 1.62488 11.3943 1.66397 11.5774 1.73992C11.7604 1.81586 11.9267 1.92717 12.0666 2.06746L19.9333 9.93331C20.2161 10.2164 20.3749 10.6002 20.3749 11.0004C20.3749 11.4006 20.2161 11.7843 19.9333 12.0675L12.0666 19.9333C11.7837 20.2161 11.4 20.3748 10.9999 20.3748C10.5999 20.3748 10.2163 20.2161 9.93325 19.9333L2.06663 12.0675Z" stroke="#9F7223" stroke-width="1.5" stroke-linecap="round" strokeLinejoin="round"/>
</svg>
