<svg width="30" height="30" viewBox="0 0 30 30" fill="none" xmlns="http://www.w3.org/2000/svg">
<path fill-rule="evenodd" clip-rule="evenodd" d="M12.8222 20.9778C13.2411 20.9778 13.6504 20.8141 13.9588 20.5136L22.6791 11.7933C23.3108 11.1616 23.3123 10.1367 22.6836 9.50319C22.0502 8.86165 21.0215 8.86159 20.3876 9.49556L12.8225 17.0606L9.61555 13.8511C8.98236 13.2179 7.95408 13.2179 7.32089 13.8511C6.6877 14.4843 6.6877 15.5126 7.32089 16.1458L11.6764 20.5013C11.9877 20.8126 12.4018 20.9778 12.8222 20.9778ZM15 0C6.72905 0 0 6.72905 0 15C0 23.271 6.72905 30 15 30C23.271 30 30 23.271 30 15C30 6.72905 23.271 0 15 0ZM15 26.7556C8.51806 26.7556 3.24444 21.4819 3.24444 15C3.24444 8.51806 8.51806 3.24444 15 3.24444C21.4819 3.24444 26.7556 8.51806 26.7556 15C26.7556 21.4819 21.4819 26.7556 15 26.7556Z" fill="white"/>
</svg>
