<svg width="24" height="24" viewBox="0 0 24 24" fill="none" xmlns="http://www.w3.org/2000/svg">
<path opacity="0.2" d="M21.9993 12C21.9993 17.5228 17.5221 22 11.9993 22C6.47642 22 1.99927 17.5228 1.99927 12C1.99927 6.47715 6.47642 2 11.9993 2C17.5221 2 21.9993 6.47715 21.9993 12ZM4.64565 12C4.64565 16.0613 7.93798 19.3536 11.9993 19.3536C16.0606 19.3536 19.3529 16.0613 19.3529 12C19.3529 7.93871 16.0606 4.64638 11.9993 4.64638C7.93798 4.64638 4.64565 7.93871 4.64565 12Z" fill="black"/>
<path d="M20.6761 12C21.4069 12 22.0083 12.595 21.9119 13.3193C21.7818 14.2964 21.5077 15.2514 21.0964 16.1525C20.5014 17.456 19.6332 18.6164 18.5507 19.5551C17.4681 20.4938 16.1965 21.1889 14.8219 21.5934C13.8716 21.873 12.8875 22.0091 11.9019 21.9995C11.1711 21.9924 10.6673 21.3128 10.7708 20.5894V20.5894C10.8742 19.866 11.5475 19.376 12.2777 19.3483C12.885 19.3253 13.4887 19.2271 14.0749 19.0546C15.0857 18.7572 16.0209 18.246 16.8169 17.5557C17.613 16.8654 18.2514 16.0121 18.6889 15.0536C18.9427 14.4977 19.1254 13.9139 19.2342 13.3161C19.3649 12.5971 19.9453 12 20.6761 12V12Z" fill="black"/>
</svg>
