<svg width="190" height="40" viewBox="0 0 190 40" fill="none" xmlns="http://www.w3.org/2000/svg">
<circle cx="20" cy="20" r="20" fill="#DF4037"/>
<path d="M9.96494 23.9415L9.63379 25.1378L16.0247 31.5308L16.7169 27.6876L9.96494 23.9415ZM27.2701 13.5347L24.504 14.834L24.6276 16.6588L18.3597 16.017C18.3597 16.017 17.3768 20.1124 17.3768 19.8645C17.3768 19.6166 17.769 13.6848 17.769 13.6848L13.0137 12.9141L10.4845 22.0599L16.946 26.4098L17.2532 24.7047L24.7356 25.5475L24.6279 26.9386L29.1138 32.1513L31.326 25.7595L27.2701 13.5347ZM16.2964 21.2307L14.4724 20.9316L14.2537 22.6751L12.9789 21.7853L13.6822 20.4531C13.6822 20.4531 12.2528 19.9863 12.2528 19.921C12.2528 19.8558 12.3848 18.8999 12.4505 18.9891C12.5161 19.0782 14.121 19.7658 14.121 19.7658L14.187 17.8793L15.5493 17.9679L15 19.9654L16.5384 20.2981L16.2964 21.2307ZM18.9178 19.9442L22.6041 20.231L22.7363 17.4791C22.7363 17.4791 22.9118 20.6304 22.9118 20.697C22.9118 20.7636 19.0888 19.9795 18.9178 19.9442ZM25.1755 21.6744L23.9231 21.0738L24.714 20.1864L25.4393 20.7005L25.1755 21.6744ZM26.9777 18.2566L26.8681 19.5437H25.813L25.5271 18.5005L26.9777 18.2566ZM26.8899 23.5609C26.8681 23.6275 25.7253 22.8064 25.7253 22.8064L26.0106 21.7853H26.8453L27.2416 22.8953C27.2416 22.8953 26.912 23.4935 26.8899 23.5609ZM27.4822 21.2307L27.3506 20.1875L27.5267 19.8101L28.428 19.6772L28.6477 20.7103L27.4822 21.2307Z" fill="white"/>
<path d="M25.4399 28.8145L26.5992 30.0732L25.6706 32.3594L21.8325 29.7918L25.2299 31.3404L25.4399 28.8145Z" fill="white"/>
<path d="M31.9997 8.83984L29.4146 18.6112L28.7323 17.0904L30.2193 11.1869L19.3403 15.4812L31.9997 8.83984Z" fill="white"/>
<path d="M6.92866 20.452L10.5385 20.6997L11.2086 18.7539L4 20.2753L20.4797 29.2129L6.92866 20.452Z" fill="white"/>
<path d="M61.68 29V12.2H67.56C69.736 12.2 71.336 12.672 72.36 13.616C73.4 14.56 73.92 15.84 73.92 17.456C73.92 18.56 73.664 19.52 73.152 20.336C72.64 21.136 71.864 21.744 70.824 22.16L74.4 29H71.184L68.112 22.688C67.936 22.704 67.824 22.712 67.776 22.712C67.728 22.712 67.656 22.712 67.56 22.712H64.56V29H61.68ZM64.56 20.072H67.44C68.672 20.072 69.552 19.84 70.08 19.376C70.624 18.912 70.896 18.272 70.896 17.456C70.896 16.688 70.616 16.064 70.056 15.584C69.496 15.088 68.624 14.84 67.44 14.84H64.56V20.072ZM80.5284 29.24C79.2164 29.24 78.1444 28.8 77.3124 27.92C76.4964 27.024 76.0884 25.704 76.0884 23.96V17H78.8724V23.96C78.8724 24.872 79.0804 25.56 79.4964 26.024C79.9124 26.472 80.4564 26.696 81.1284 26.696C81.9604 26.696 82.6244 26.448 83.1204 25.952C83.6164 25.456 83.8644 24.792 83.8644 23.96V17H86.6484V29H84.4884L84.2484 27.68H84.2004C83.7364 28.208 83.2004 28.6 82.5924 28.856C82.0004 29.112 81.3124 29.24 80.5284 29.24ZM142.091 29.24C139.963 29.24 138.363 28.736 137.291 27.728C136.219 26.72 135.619 25.304 135.491 23.48H138.563C138.643 24.536 138.963 25.32 139.523 25.832C140.083 26.344 140.939 26.6 142.091 26.6C143.195 26.6 143.987 26.4 144.467 26C144.947 25.6 145.187 25.064 145.187 24.392C145.187 23.768 144.955 23.296 144.491 22.976C144.027 22.656 143.443 22.392 142.739 22.184C142.035 21.96 141.275 21.752 140.459 21.56C139.643 21.352 138.883 21.064 138.179 20.696C137.475 20.328 136.891 19.832 136.427 19.208C135.963 18.584 135.731 17.736 135.731 16.664C135.731 15.992 135.859 15.376 136.115 14.816C136.371 14.24 136.747 13.744 137.243 13.328C137.755 12.896 138.379 12.56 139.115 12.32C139.867 12.08 140.739 11.96 141.731 11.96C143.795 11.96 145.339 12.44 146.363 13.4C147.387 14.36 147.963 15.72 148.091 17.48H145.019C144.939 16.52 144.643 15.8 144.131 15.32C143.619 14.84 142.819 14.6 141.731 14.6C141.203 14.6 140.747 14.656 140.363 14.768C139.995 14.864 139.691 15.008 139.451 15.2C139.211 15.376 139.035 15.592 138.923 15.848C138.811 16.104 138.755 16.384 138.755 16.688C138.755 17.344 138.987 17.84 139.451 18.176C139.915 18.496 140.499 18.76 141.203 18.968C141.907 19.176 142.667 19.376 143.483 19.568C144.299 19.744 145.059 20.008 145.763 20.36C146.467 20.712 147.051 21.2 147.515 21.824C147.979 22.448 148.211 23.312 148.211 24.416C148.211 25.12 148.083 25.768 147.827 26.36C147.587 26.952 147.211 27.464 146.699 27.896C146.187 28.312 145.547 28.64 144.779 28.88C144.027 29.12 143.131 29.24 142.091 29.24ZM150.74 29V12.2H153.524V18.08H153.572C153.988 17.648 154.468 17.32 155.012 17.096C155.572 16.872 156.188 16.76 156.86 16.76C158.316 16.76 159.46 17.2 160.292 18.08C161.124 18.944 161.54 20.224 161.54 21.92V29H158.756V22.04C158.756 21.128 158.54 20.448 158.108 20C157.676 19.536 157.06 19.304 156.26 19.304C155.428 19.304 154.764 19.552 154.268 20.048C153.772 20.544 153.524 21.208 153.524 22.04V29H150.74ZM169.584 29.24C167.792 29.24 166.384 28.72 165.36 27.68C164.336 26.64 163.824 25.168 163.824 23.264V22.736C163.824 21.792 163.952 20.952 164.208 20.216C164.48 19.48 164.864 18.856 165.36 18.344C165.872 17.832 166.48 17.44 167.184 17.168C167.904 16.896 168.704 16.76 169.584 16.76C171.392 16.76 172.8 17.28 173.808 18.32C174.832 19.36 175.344 20.832 175.344 22.736V23.264C175.344 24.208 175.208 25.048 174.936 25.784C174.68 26.52 174.296 27.144 173.784 27.656C173.288 28.168 172.688 28.56 171.984 28.832C171.28 29.104 170.48 29.24 169.584 29.24ZM169.584 26.696C170.464 26.696 171.152 26.424 171.648 25.88C172.16 25.32 172.416 24.448 172.416 23.264V22.736C172.416 21.584 172.16 20.728 171.648 20.168C171.136 19.592 170.448 19.304 169.584 19.304C168.704 19.304 168.008 19.584 167.496 20.144C167 20.688 166.752 21.552 166.752 22.736V23.264C166.752 24.416 167.008 25.28 167.52 25.856C168.032 26.416 168.72 26.696 169.584 26.696ZM177.74 33.8V17H179.9L180.14 18.44H180.188C180.684 17.88 181.244 17.464 181.868 17.192C182.492 16.904 183.212 16.76 184.028 16.76C184.78 16.76 185.46 16.888 186.068 17.144C186.692 17.384 187.22 17.752 187.652 18.248C188.084 18.744 188.42 19.368 188.66 20.12C188.9 20.856 189.02 21.728 189.02 22.736V23.264C189.02 24.256 188.9 25.128 188.66 25.88C188.42 26.616 188.076 27.24 187.628 27.752C187.196 28.248 186.676 28.624 186.068 28.88C185.46 29.12 184.78 29.24 184.028 29.24C183.34 29.24 182.684 29.112 182.06 28.856C181.452 28.6 180.956 28.248 180.572 27.8H180.524V33.8H177.74ZM183.308 26.696C184.172 26.696 184.852 26.424 185.348 25.88C185.844 25.336 186.092 24.464 186.092 23.264V22.736C186.092 21.568 185.836 20.704 185.324 20.144C184.828 19.584 184.156 19.304 183.308 19.304C182.444 19.304 181.764 19.584 181.268 20.144C180.772 20.688 180.524 21.56 180.524 22.76V23.288C180.524 24.44 180.772 25.296 181.268 25.856C181.78 26.416 182.46 26.696 183.308 26.696Z" fill="#191B22"/>
<path d="M89.8988 29V12.2H95.7788C97.9708 12.2 99.5788 12.68 100.603 13.64C101.627 14.6 102.139 15.968 102.139 17.744C102.139 19.488 101.611 20.856 100.555 21.848C99.5148 22.84 97.9228 23.336 95.7788 23.336H92.7788V29H89.8988ZM95.6588 14.84H92.7788V20.696H95.6588C96.8908 20.696 97.7708 20.448 98.2988 19.952C98.8428 19.456 99.1148 18.72 99.1148 17.744C99.1148 16.832 98.8348 16.12 98.2748 15.608C97.7148 15.096 96.8428 14.84 95.6588 14.84ZM108.105 29C107.129 29 106.369 28.832 105.825 28.496C105.297 28.144 104.905 27.744 104.649 27.296C104.409 26.848 104.265 26.408 104.217 25.976C104.185 25.528 104.169 25.216 104.169 25.04V12.2H106.953V24.752C106.953 25.328 107.089 25.76 107.361 26.048C107.633 26.32 108.049 26.456 108.609 26.456H109.209V29H108.105ZM114.725 29.24C113.301 29.24 112.245 28.92 111.557 28.28C110.869 27.64 110.525 26.752 110.525 25.616C110.525 25.008 110.621 24.464 110.813 23.984C111.005 23.504 111.317 23.096 111.749 22.76C112.181 22.424 112.741 22.168 113.429 21.992C114.117 21.816 114.949 21.728 115.925 21.728H118.301V21.08C118.301 20.456 118.117 19.976 117.749 19.64C117.381 19.288 116.813 19.112 116.045 19.112C115.277 19.112 114.725 19.256 114.389 19.544C114.053 19.816 113.853 20.168 113.789 20.6H111.005C111.037 20.056 111.165 19.552 111.389 19.088C111.613 18.608 111.933 18.2 112.349 17.864C112.765 17.512 113.277 17.24 113.885 17.048C114.509 16.856 115.229 16.76 116.045 16.76C117.757 16.76 119.021 17.152 119.837 17.936C120.669 18.72 121.085 19.848 121.085 21.32V29H118.925L118.661 27.44H118.613C118.149 28.016 117.581 28.464 116.909 28.784C116.237 29.088 115.509 29.24 114.725 29.24ZM115.205 26.888C115.653 26.888 116.061 26.816 116.429 26.672C116.813 26.528 117.141 26.328 117.413 26.072C117.701 25.816 117.917 25.52 118.061 25.184C118.221 24.848 118.301 24.48 118.301 24.08V23.792H116.045C115.085 23.792 114.413 23.952 114.029 24.272C113.645 24.576 113.453 24.992 113.453 25.52C113.453 25.92 113.589 26.248 113.861 26.504C114.149 26.76 114.597 26.888 115.205 26.888ZM125.23 33.8L127.055 29L122.183 17H125.207L128.495 25.544H128.543L131.591 17H134.423L128.062 33.8H125.23Z" fill="#DF4037"/>
</svg>
