<svg width="194" height="194" viewBox="0 0 194 194" fill="none" xmlns="http://www.w3.org/2000/svg">
<circle cx="97" cy="97" r="96" stroke="#FFBA01" stroke-width="2"/>
<circle cx="97" cy="97" r="87" stroke="white" stroke-width="2"/>
<path d="M79.4 97C79.4 98.167 79.8636 99.2861 80.6887 100.111C81.5139 100.936 82.633 101.4 83.8 101.4H110.2C111.367 101.4 112.486 100.936 113.311 100.111C114.136 99.2861 114.6 98.167 114.6 97C114.6 95.833 114.136 94.7139 113.311 93.8887C112.486 93.0636 111.367 92.6 110.2 92.6H83.8C82.633 92.6 81.5139 93.0636 80.6887 93.8887C79.8636 94.7139 79.4 95.833 79.4 97ZM88.2 110.2H75C71.4991 110.2 68.1417 108.809 65.6662 106.334C63.1907 103.858 61.8 100.501 61.8 97C61.8 93.4991 63.1907 90.1417 65.6662 87.6662C68.1417 85.1907 71.4991 83.8 75 83.8H88.2C89.367 83.8 90.4861 83.3364 91.3113 82.5113C92.1364 81.6861 92.6 80.567 92.6 79.4C92.6 78.233 92.1364 77.1139 91.3113 76.2887C90.4861 75.4636 89.367 75 88.2 75H75C69.1652 75 63.5695 77.3179 59.4437 81.4437C55.3179 85.5695 53 91.1652 53 97C53 102.835 55.3179 108.431 59.4437 112.556C63.5695 116.682 69.1652 119 75 119H88.2C89.367 119 90.4861 118.536 91.3113 117.711C92.1364 116.886 92.6 115.767 92.6 114.6C92.6 113.433 92.1364 112.314 91.3113 111.489C90.4861 110.664 89.367 110.2 88.2 110.2ZM119 75H105.8C104.633 75 103.514 75.4636 102.689 76.2887C101.864 77.1139 101.4 78.233 101.4 79.4C101.4 80.567 101.864 81.6861 102.689 82.5113C103.514 83.3364 104.633 83.8 105.8 83.8H119C122.501 83.8 125.858 85.1907 128.334 87.6662C130.809 90.1417 132.2 93.4991 132.2 97C132.2 100.501 130.809 103.858 128.334 106.334C125.858 108.809 122.501 110.2 119 110.2H105.8C104.633 110.2 103.514 110.664 102.689 111.489C101.864 112.314 101.4 113.433 101.4 114.6C101.4 115.767 101.864 116.886 102.689 117.711C103.514 118.536 104.633 119 105.8 119H119C124.835 119 130.431 116.682 134.556 112.556C138.682 108.431 141 102.835 141 97C141 91.1652 138.682 85.5695 134.556 81.4437C130.431 77.3179 124.835 75 119 75Z" fill="white"/>
</svg>
