<svg width="194" height="194" viewBox="0 0 194 194" fill="none" xmlns="http://www.w3.org/2000/svg">
<circle cx="97" cy="97" r="87" stroke="white" stroke-width="2"/>
<circle cx="97" cy="97" r="96" stroke="#FFBA01" stroke-width="2"/>
<path d="M67.5246 128.868L67.5246 128.868L67.5243 128.871C67.4383 129.973 67.5811 131.082 67.9438 132.126C68.3066 133.17 68.8815 134.128 69.6322 134.939C70.3829 135.75 71.2933 136.396 72.3058 136.837C73.3184 137.277 74.4111 137.503 75.5152 137.5H119.484C120.589 137.504 121.683 137.277 122.697 136.835C123.711 136.394 124.622 135.746 125.373 134.933C126.124 134.121 126.698 133.161 127.06 132.115C127.422 131.069 127.563 129.959 127.474 128.855L127.474 128.853L123.924 86.8417C123.755 84.8377 122.839 82.9704 121.359 81.6117C119.878 80.2531 117.941 79.5025 115.933 79.5094H112.981C112.854 75.5778 111.24 71.8335 108.454 69.0429C105.551 66.1342 101.613 64.5 97.5069 64.5C93.4006 64.5 89.4626 66.1342 86.5593 69.0429C83.7739 71.8335 82.1597 75.5778 82.0332 79.5094H79.0503C77.0424 79.5025 75.1055 80.2531 73.6251 81.6117C72.1445 82.9704 71.2289 84.8377 71.0603 86.8417L67.5246 128.868ZM119.487 133.543H119.485H75.5287H75.5272C74.976 133.545 74.4304 133.432 73.9247 133.212C73.419 132.992 72.9642 132.67 72.5889 132.265C72.2136 131.86 71.926 131.382 71.7442 130.86C71.5626 130.339 71.4905 129.785 71.5326 129.235C71.5326 129.234 71.5326 129.234 71.5327 129.233L75.0531 87.2106L75.0531 87.2104C75.1369 86.2074 75.5946 85.2729 76.3349 84.5931C77.0752 83.9132 78.0437 83.5378 79.0476 83.5413H79.0494H82.0252V91.5469H81.027C80.4967 91.5469 79.9884 91.7579 79.6137 92.1333C79.2391 92.5086 79.0288 93.0174 79.0288 93.5478C79.0288 94.0782 79.2391 94.5871 79.6137 94.9624C79.9884 95.3377 80.4967 95.5488 81.027 95.5488H87.0197C87.5499 95.5488 88.0583 95.3377 88.4329 94.9624C88.8076 94.5871 89.0179 94.0782 89.0179 93.5478C89.0179 93.0174 88.8076 92.5086 88.4329 92.1333C88.0583 91.7579 87.5499 91.5469 87.0197 91.5469H86.0215V83.5112H108.992V91.5169H107.994C107.464 91.5169 106.956 91.7279 106.581 92.1033C106.206 92.4786 105.996 92.9874 105.996 93.5178C105.996 94.0482 106.206 94.557 106.581 94.9324L106.935 94.5791L106.581 94.9324C106.956 95.3077 107.464 95.5187 107.994 95.5187H113.987C114.517 95.5187 115.025 95.3077 115.4 94.9324C115.775 94.557 115.985 94.0482 115.985 93.5178C115.985 92.9874 115.775 92.4786 115.4 92.1033C115.025 91.7279 114.517 91.5169 113.987 91.5169H112.989V83.5112L115.964 83.5112L115.966 83.5112C116.97 83.5077 117.939 83.8832 118.679 84.563C119.419 85.2429 119.877 86.1774 119.961 87.1804L119.961 87.1806L123.481 129.207C123.528 129.76 123.458 130.317 123.278 130.841C123.098 131.366 122.811 131.848 122.436 132.256C122.06 132.663 121.604 132.988 121.096 133.21C120.589 133.432 120.041 133.545 119.487 133.543ZM97.5069 68.5019C100.553 68.5019 103.474 69.714 105.628 71.872C107.664 73.9119 108.857 76.639 108.981 79.5094H86.0323C86.1568 76.639 87.3497 73.9119 89.3858 71.872C91.5398 69.714 94.4611 68.5019 97.5069 68.5019Z" fill="white" stroke="white"/>
</svg>
