<svg width="194" height="194" viewBox="0 0 194 194" fill="none" xmlns="http://www.w3.org/2000/svg">
<circle cx="97" cy="97" r="96" stroke="#FFBA01" stroke-width="2"/>
<circle cx="97" cy="97" r="87" stroke="white" stroke-width="2"/>
<path d="M120.478 117.253L120.436 117.212C114.861 104.896 106.895 93.8111 97.0002 84.6C87.1053 93.8111 79.139 104.896 73.5642 117.212L73.5228 117.253M107.458 67.86C104.192 66.62 100.679 66 97.0002 66C93.3215 66 89.8082 66.62 86.5428 67.86C90.2215 69.3067 93.7348 71.208 97.0002 73.4813C100.266 71.208 103.779 69.3067 107.458 67.86Z" stroke="white" stroke-width="4" stroke-miterlimit="10" stroke-linecap="round" stroke-linejoin="round"/>
<path d="M73.5227 117.253V117.171C73.812 102.704 79.8053 88.8987 90.304 78.896C86.8733 76.168 83.236 73.688 79.4333 71.4973C75.292 74.3382 71.9048 78.1448 69.5643 82.5882C67.2238 87.0315 66.0004 91.9779 66 97C66 104.688 68.8107 111.756 73.5227 117.171L73.564 117.212C79.1853 123.825 87.6173 128 97 128C106.383 128 114.815 123.825 120.436 117.212L120.477 117.171C125.343 111.579 128.016 104.412 128 97C128 86.4187 122.668 77.0773 114.567 71.4973C110.764 73.688 107.127 76.168 103.696 78.896C114.195 88.8987 120.188 102.704 120.477 117.171V117.253" stroke="white" stroke-width="4" stroke-miterlimit="10" stroke-linecap="round" stroke-linejoin="round"/>
<path d="M113.764 110.833C112.94 112.067 112.5 113.517 112.5 115C112.5 116.989 113.29 118.897 114.697 120.303C115.167 120.773 115.692 121.174 116.258 121.5H116C113.215 121.5 110.545 122.606 108.575 124.575C106.606 126.545 105.5 129.215 105.5 132C105.5 133.193 105.974 134.338 106.818 135.182C107.662 136.026 108.807 136.5 110 136.5H130C131.193 136.5 132.338 136.026 133.182 135.182C134.026 134.338 134.5 133.193 134.5 132C134.5 129.215 133.394 126.545 131.425 124.575C129.455 122.606 126.785 121.5 124 121.5H123.742C123.886 121.417 124.028 121.329 124.167 121.236C125.4 120.412 126.361 119.241 126.929 117.87C127.497 116.5 127.645 114.992 127.356 113.537C127.066 112.082 126.352 110.746 125.303 109.697C124.254 108.648 122.918 107.934 121.463 107.644C120.008 107.355 118.5 107.503 117.13 108.071C115.759 108.639 114.588 109.6 113.764 110.833Z" fill="white" stroke="#07090E" stroke-width="3"/>
</svg>
