<svg width="41" height="40" viewBox="0 0 41 40" fill="none" xmlns="http://www.w3.org/2000/svg">
<rect x="0.333374" width="40" height="40" rx="10" fill="#03A9F4"/>
<path d="M31.6739 18.2213C31.6739 18.2213 34.1436 18.3468 34.1436 16.8945C34.1436 14.9986 30.8534 13.291 30.8534 13.291C30.8534 13.291 31.3683 12.1987 31.6906 11.5876C32.0129 10.9766 32.9171 8.59933 32.9967 8.05525C33.0971 7.36886 32.9422 7.15541 32.9422 7.15541C32.7204 8.62026 30.3343 12.839 30.1418 12.9813C27.8143 11.8931 24.6162 11.5876 24.6162 11.5876C24.6162 11.5876 21.485 5 18.538 5C15.6162 5 15.6329 10.6417 15.6329 10.6417C15.6329 10.6417 14.8083 9.04297 13.7701 9.04297C12.2548 9.04297 11.7567 11.3281 11.7567 13.81C8.76781 13.81 6.252 14.4796 6.02595 14.5424C5.80409 14.6052 5.09665 15.12 5.41479 15.0572C6.072 14.8479 9.14456 14.3708 11.832 14.6052C11.9827 16.9615 13.3599 20.0335 13.3599 20.0335C13.3599 20.0335 10.4046 24.3108 10.4046 27.3619C10.4046 28.1655 10.7562 29.6345 12.8743 29.6345C14.6534 29.6345 16.6501 28.5672 17.0227 28.3538C16.6962 28.8184 16.4534 29.7098 16.4534 30.12C16.4534 30.4548 16.6543 31.4049 18.0232 31.4049C19.7813 31.4049 21.7487 30.0572 21.7487 30.0572C21.7487 30.0572 23.6073 33.1376 25.1939 34.548C25.6208 34.9288 26.0311 35 26.0311 35C26.0311 35 24.4529 33.4849 22.3766 29.5759C24.3064 28.3873 26.3157 25.5748 26.3157 25.5748C26.3157 25.5748 26.5543 25.5831 28.3878 25.5831C31.2594 25.5831 35.3367 24.9805 35.3367 22.6995C35.3408 20.3474 31.6739 18.2213 31.6739 18.2213ZM31.992 16.8025C31.992 17.6353 31.2008 17.627 31.2008 17.627L30.598 17.6646C30.598 17.6646 29.4553 17.0661 28.7604 16.7815C28.7604 16.7815 29.8362 15.1283 30.0873 14.668C30.2757 14.781 31.992 15.8524 31.992 16.8025ZM19.9739 8.31892C21.326 8.31892 23.2515 11.4997 23.2515 11.4997C23.2515 11.4997 20.246 11.2319 17.772 12.6842C17.839 10.3948 18.6092 8.31892 19.9739 8.31892ZM14.6283 10.897C15.0553 10.897 15.4739 11.4202 15.6497 11.8597C15.6497 12.1526 15.8004 13.8602 15.8004 13.8602L13.3222 13.764C13.3222 11.5332 14.1971 10.897 14.6283 10.897ZM14.3687 26.4035C13.0125 26.4035 12.7362 25.6501 12.7362 24.9721C12.7362 23.4361 13.9627 21.2849 13.9627 21.2849C13.9627 21.2849 15.3399 24.1769 17.7385 25.3948C16.5497 26.0937 15.566 26.4035 14.3687 26.4035ZM18.7683 29.4294C17.818 29.4294 17.7008 28.8142 17.7008 28.6719C17.7008 28.2324 18.0483 27.7093 18.0483 27.7093C18.0483 27.7093 19.6432 26.6336 19.7436 26.5165L20.9241 28.7179C20.9241 28.7179 19.7185 29.4294 18.7683 29.4294ZM21.732 28.2324C21.1543 27.2238 20.7273 26.1691 20.7273 26.1691C20.7273 26.1691 23.1008 26.3198 24.3776 25.0056C23.5822 25.3613 22.3139 25.8133 20.8404 25.6752C23.9213 22.9632 25.7213 20.9961 27.2408 18.9662C27.1111 18.8072 26.4162 18.3217 26.2446 18.2422C25.3278 19.3471 21.7571 23.1599 18.4501 25.0474C14.2641 22.7665 13.385 16.0575 13.2971 14.6638L15.5827 14.8814C15.5827 14.8814 14.7246 16.4049 14.7246 17.5265C14.7246 18.644 14.8585 18.7026 14.8585 18.7026C14.8585 18.7026 14.8292 16.7522 16.0348 15.2455C16.9557 20.1339 17.9143 22.6367 18.6594 24.1309C19.0404 23.9718 19.7478 23.6579 19.7478 23.6579C19.7478 23.6579 17.638 17.5767 17.7553 13.4626C18.7139 12.952 20.1329 12.4247 21.732 12.4247C25.9432 12.4247 29.3297 14.2327 29.3297 14.2327L28.0069 16.0826C28.0069 16.0826 26.8264 13.9481 25.1562 13.5672C26.0353 14.2201 27.0232 15.0865 27.5339 16.3295C24.0427 14.9693 19.8315 14.2494 18.4794 14.0904C18.3622 14.5884 18.379 15.2999 18.379 15.2999C18.379 15.2999 24.026 16.3421 28.1367 18.69C28.1073 23.8295 22.5064 27.7762 21.732 28.2324ZM27.0818 24.3903C27.0818 24.3903 28.8357 22.0926 28.8064 19.0458C28.8064 19.0458 31.6404 20.7994 31.6404 22.5112C31.6404 24.4196 27.0818 24.3903 27.0818 24.3903Z" fill="white"/>
</svg>
