<svg width="36" height="40" viewBox="0 0 36 40" fill="none" xmlns="http://www.w3.org/2000/svg">
<path d="M32.3557 19.9898L34.8786 11.3985L34.9986 10.9903C35.2024 10.2966 34.7868 9.57295 34.0857 9.40094L33.6724 9.29946L24.9243 7.15113L18.7773 0.700443L18.4837 0.392425C17.9878 -0.128236 17.159 -0.131184 16.6593 0.385899L16.3599 0.695811L10.0973 7.17682L1.37711 9.30746L0.966301 9.40768C0.264243 9.57906 -0.152243 10.3035 0.0520076 10.9979L0.172414 11.4074L2.70453 20.0169L0.194269 28.6254L0.0747024 29.0358C-0.127867 29.7303 0.28988 30.4535 0.991728 30.6236L1.40296 30.7232L10.1309 32.8377L16.3601 39.3033L16.6581 39.6126C17.1576 40.1311 17.9874 40.1288 18.4839 39.6075L18.7775 39.2995L24.9542 32.8153L33.6724 30.6799L34.0851 30.5788C34.7863 30.407 35.2022 29.6832 34.9986 28.9894L34.8786 28.5808L32.3557 19.9898ZM17.569 21.3941L16.3599 22.0924V20.6986L15.1419 19.9994L16.3599 19.2967V17.9025L17.5682 18.5992L18.7773 17.9008V19.2946L19.9948 19.9933L19.9952 19.9938L19.9912 19.9963L18.7773 20.6968V22.0909L17.569 21.3941Z" fill="#2B0117"/>
<path d="M19.9948 19.9933L19.9904 19.9959L18.7772 20.6965L17.5707 21.3934H17.5702L17.569 21.3941L16.3599 22.0924V17.9025L17.5681 18.5992L18.7772 17.9008V19.2946L19.9948 19.9933Z" fill="#FFE25B"/>
<path d="M17.5687 1.18573V19.9967L33.8558 10.5911L24.2936 8.24319L17.5687 1.18573Z" fill="#FFE25B"/>
<path d="M19.9952 19.9938L19.9912 19.9963L18.7772 20.6965V22.0909L17.5689 21.3941L16.9303 21.026L16.9228 21.0216L16.3598 20.697L15.1467 19.9973L16.3598 19.2971V19.2967L17.5671 18.6L17.5681 18.5992L18.7772 17.9008V19.2946L19.9947 19.9933L19.9952 19.9938Z" fill="#FFB820"/>
<path d="M33.8558 10.5911L17.5687 19.9967L33.8558 29.3886L31.0959 19.99L33.8558 10.5911Z" fill="#FFB820"/>
<path d="M19.9912 19.9963L18.7772 20.6965V22.0909L17.569 21.3941L16.3599 22.0924V17.9025L17.5681 18.5992L18.1523 18.9358L18.2305 18.9811L18.7772 19.2962L19.9904 19.9959L19.9912 19.9963Z" fill="#C85E40"/>
<path d="M33.8558 29.3886L17.5687 19.9967V38.8144L24.3239 31.7233L33.8558 29.3886Z" fill="#C85E40"/>
<path d="M18.7773 17.9016V22.0909L17.569 21.3941L16.3599 22.0924V20.6986L15.142 19.9994L16.3599 19.2967L17.5671 18.6L17.5682 18.5992L18.7773 17.9016Z" fill="#FFB820"/>
<path d="M17.5688 38.8144V19.9967L1.21802 29.4324L10.7564 31.7435L17.5688 38.8144Z" fill="#FFB820"/>
<path d="M19.9952 19.9938L19.9912 19.9963L18.7773 20.6965L17.5707 21.3934H17.5703L17.569 21.3941L16.3599 22.0918V20.6987L15.142 19.9995L16.3599 19.2967V17.9073L17.5671 18.6L18.1523 18.9358L18.2305 18.9811L18.7773 19.2946L19.9948 19.9933L19.9952 19.9938Z" fill="#FFE25B"/>
<path d="M1.21799 29.4324L17.5687 19.9967L1.19446 10.5979L3.96424 20.015L1.21799 29.4324Z" fill="#FFE25B"/>
<path d="M18.7773 17.9008V22.0861L17.5707 21.3934H17.5703L16.9304 21.026L16.9229 21.0216L16.3599 20.6986L15.142 19.9994L16.3599 19.2967V17.9025L17.5682 18.5992L18.7773 17.9008Z" fill="white"/>
<path d="M17.5687 1.18573V19.9967L1.19446 10.5979L10.7228 8.26993L17.5687 1.18573Z" fill="white"/>
<path d="M17.5654 31.9452C11.3261 31.9452 5.48328 26.5529 6.24733 19.7055C6.24859 19.695 6.24985 19.6841 6.2509 19.6737C6.5079 17.429 7.13536 15.3141 8.08075 13.4831C10.1008 10.3808 13.5959 8.33057 17.5685 8.33057C21.5886 8.33057 25.1195 10.4301 27.1279 13.594C28.0405 15.3992 28.6424 17.4736 28.8798 19.6737C28.883 19.7049 28.8863 19.7363 28.8895 19.7674C29.5598 26.5057 23.9419 31.9452 17.5654 31.9452Z" fill="#FFE25B"/>
<path d="M28.89 19.6738C28.89 19.7049 28.89 19.7363 28.8896 19.7674C28.8391 25.9889 23.7904 31.0169 17.5686 31.0169C11.3266 31.0169 6.26463 25.9558 6.24719 19.7058V19.674C6.24719 17.3896 6.92088 15.2634 8.08082 13.4833C10.1008 10.381 13.596 8.33078 17.5686 8.33078C21.5887 8.33078 25.1195 10.4303 27.128 13.5942C28.2438 15.3512 28.89 17.4366 28.89 19.6738Z" fill="#A22222"/>
<path d="M17.525 29.1465C22.6132 29.1465 26.738 25.0138 26.738 19.9159C26.738 14.8179 22.6132 10.6852 17.525 10.6852C12.4369 10.6852 8.31213 14.8179 8.31213 19.9159C8.31213 25.0138 12.4369 29.1465 17.525 29.1465Z" fill="#55161F"/>
<path d="M25.3485 18.7398C25.4458 19.451 25.4034 20.1729 25.226 20.8685C24.3571 24.2757 21.5081 25.6682 17.5387 25.6682C13.5869 25.7621 10.6597 24.386 9.80954 20.6814C9.67611 20.1001 9.63954 19.4996 9.70783 18.9072C10.1603 14.9758 13.4938 11.9234 17.5389 11.9234C21.526 11.9232 24.8219 14.8895 25.3485 18.7398Z" fill="#FFBE20"/>
<path d="M21.1228 26.8388H13.9274C13.6836 26.8388 13.4861 26.6409 13.4861 26.3966V24.6791H21.5641V26.3966C21.5641 26.6409 21.3665 26.8388 21.1228 26.8388Z" fill="#FFBE20"/>
<path d="M17.5688 21.904L16.4347 23.8719H18.7027L17.5688 21.904Z" fill="#55161F"/>
<path d="M21.1613 23.458C22.4185 23.458 23.4377 22.3962 23.4377 21.0865C23.4377 19.7767 22.4185 18.715 21.1613 18.715C19.9041 18.715 18.8849 19.7767 18.8849 21.0865C18.8849 22.3962 19.9041 23.458 21.1613 23.458Z" fill="#55161F"/>
<path d="M14.0703 23.458C15.3275 23.458 16.3467 22.3962 16.3467 21.0865C16.3467 19.7767 15.3275 18.715 14.0703 18.715C12.8131 18.715 11.7939 19.7767 11.7939 21.0865C11.7939 22.3962 12.8131 23.458 14.0703 23.458Z" fill="#55161F"/>
<path d="M17.1947 19.2327L16.8179 19.6099C16.7091 19.719 16.5328 19.719 16.4239 19.6099L15.0351 18.2185C14.9263 18.1094 14.9263 17.9328 15.0351 17.8237L15.4117 17.4464C15.5205 17.3374 15.6968 17.3374 15.8057 17.4464L17.1945 18.8379C17.3035 18.947 17.3035 19.1236 17.1947 19.2327Z" fill="#55161F"/>
<path d="M20.0856 17.8239L19.709 17.4467C19.6002 17.3376 19.4239 17.3376 19.315 17.4467L17.9262 18.8381C17.8174 18.9472 17.8174 19.1238 17.9262 19.2329L18.303 19.6102C18.4119 19.7192 18.5882 19.7192 18.697 19.6102L20.0858 18.2187C20.1942 18.1096 20.1942 17.9328 20.0856 17.8239Z" fill="#55161F"/>
<path d="M15.1888 16.9908C16.4897 16.1657 17.1041 14.8 16.561 13.9406C16.018 13.0812 14.5232 13.0534 13.2223 13.8786C11.9214 14.7037 11.3071 16.0694 11.8501 16.9288C12.3932 17.7882 13.888 17.816 15.1888 16.9908Z" fill="white"/>
</svg>
