<svg width="41" height="40" viewBox="0 0 41 40" fill="none" xmlns="http://www.w3.org/2000/svg">
<g clip-path="url(#clip0_1404_6202)">
<path d="M3.2833 29.4614C3.30491 29.4766 3.35644 29.495 3.3758 29.5308C3.40471 29.5842 3.35666 29.6227 3.31378 29.6486C3.2371 29.6949 3.15963 29.7408 3.07908 29.78C2.7919 29.9196 2.51578 30.0775 2.25565 30.2634C2.21636 30.2915 2.17056 30.3149 2.12425 30.3275C2.05234 30.3471 1.98318 30.3158 1.9481 30.26C1.91195 30.2025 1.91773 30.1351 1.96724 30.0724C1.98374 30.0516 2.00423 30.0331 2.02562 30.0171C2.36085 29.7663 2.73874 29.6048 3.1369 29.4865C3.17529 29.4751 3.21633 29.4725 3.2833 29.4614Z" fill="white"/>
<path d="M21.7317 4.86023C21.7133 5.02016 21.7069 5.142 21.6835 5.26047C21.6605 5.37681 21.5994 5.4379 21.5356 5.42479C21.4422 5.40567 21.4285 5.32438 21.4186 5.24844C21.4081 5.16844 21.4077 5.0871 21.4007 5.0066C21.3801 4.76943 21.3573 4.53244 21.3381 4.29516C21.333 4.23311 21.3283 4.16814 21.3407 4.10806C21.3645 3.99178 21.4723 3.9627 21.5488 4.05355C21.5907 4.10322 21.6269 4.16819 21.6382 4.2312C21.6776 4.45177 21.705 4.67448 21.7317 4.86023Z" fill="white"/>
<path d="M1.56973 17.1579C1.67622 17.163 1.79752 17.1649 1.91788 17.1766C1.9648 17.1813 2.01443 17.201 2.05417 17.227C2.1098 17.2635 2.10918 17.3222 2.0549 17.3598C2.01892 17.3848 1.97552 17.404 1.93275 17.4131C1.82761 17.4353 1.72141 17.4548 1.6147 17.4668C1.4363 17.4868 1.25729 17.5016 1.07828 17.5154C1.00688 17.521 0.934637 17.5221 0.863122 17.5184C0.747375 17.5124 0.679004 17.4705 0.668058 17.4065C0.656494 17.3391 0.715266 17.2766 0.833877 17.2404C0.893547 17.2221 0.955799 17.2084 1.01783 17.2025C1.19656 17.1853 1.37568 17.1732 1.56973 17.1579Z" fill="white"/>
<path d="M38.4579 29.4514C38.4851 29.4599 38.5295 29.4689 38.5698 29.4871C38.8853 29.6295 39.1818 29.8057 39.4655 30.0035C39.4906 30.021 39.5133 30.0452 39.5303 30.0708C39.5965 30.1704 39.5406 30.2901 39.4206 30.295C39.3705 30.297 39.3112 30.2823 39.2699 30.2544C39.0062 30.0763 38.7453 29.8937 38.4859 29.7093C38.4393 29.6762 38.3961 29.6329 38.3647 29.5854C38.3163 29.5119 38.3538 29.4523 38.4579 29.4514Z" fill="white"/>
<path d="M2.456 5.53124C2.45953 5.44472 2.53543 5.37323 2.62822 5.37947C2.67105 5.38239 2.71898 5.39595 2.75345 5.42042C2.95834 5.56589 3.16345 5.71221 3.32573 5.90769C3.36845 5.95917 3.40881 6.01491 3.43761 6.07477C3.45271 6.1061 3.45585 6.16646 3.43665 6.18531C3.41111 6.21045 3.35666 6.2199 3.31793 6.21411C3.27123 6.20719 3.22329 6.18384 3.18388 6.15617C2.97456 6.0094 2.76715 5.85988 2.56052 5.70929C2.50135 5.66614 2.45308 5.61281 2.456 5.53124Z" fill="white"/>
<path d="M38.2931 5.99857C38.1813 5.99464 38.1377 5.9228 38.1848 5.85051C38.2111 5.81012 38.2482 5.77485 38.2862 5.74453C38.5144 5.56238 38.7641 5.41455 39.0258 5.28651C39.0418 5.27869 39.0583 5.27121 39.0754 5.2666C39.1791 5.23847 39.2705 5.27391 39.3033 5.35407C39.3341 5.4294 39.2989 5.50641 39.1985 5.55889C38.9491 5.68929 38.6984 5.81721 38.4467 5.94311C38.3916 5.97062 38.3301 5.98547 38.2931 5.99857Z" fill="white"/>
<path d="M39.9608 17.2288C40.1254 17.2461 40.2904 17.2601 40.4543 17.2826C40.5055 17.2896 40.5571 17.3137 40.6022 17.3405C40.6634 17.3769 40.6751 17.4395 40.6616 17.5062C40.6487 17.5708 40.594 17.5939 40.5416 17.5951C40.4529 17.597 40.3636 17.5868 40.2752 17.5761C40.0663 17.551 39.8576 17.5244 39.6493 17.4946C39.588 17.4857 39.524 17.4725 39.4699 17.4444C39.4372 17.4276 39.4049 17.3788 39.4034 17.3432C39.4023 17.3173 39.4478 17.2744 39.48 17.2652C39.5479 17.2458 39.6205 17.2388 39.6916 17.235C39.781 17.2303 39.8707 17.2339 39.9602 17.2339C39.9604 17.2322 39.9606 17.2305 39.9608 17.2288Z" fill="white"/>
<path d="M30.677 7.15986L27.3472 12.1787L24.1772 7.02638L23.5645 7.05308C23.4313 7.07977 23.2981 7.21325 23.2981 7.34673L21.2735 19.2798L20.6608 17.4111L12.6425 7.23995C12.6425 7.23995 12.5626 7.18656 12.5093 7.21325L10.2983 8.49466L6.83524 10.5769L6.99508 23.0706L7.95408 26.5144L6.14263 27.6623C6.14263 27.6623 5.26355 30.4387 5.3701 30.6255C5.47666 30.7857 6.14263 33.8824 6.27583 34.0426C6.38238 34.2028 9.23274 35.2706 9.23274 35.2706L12.2163 35.4575L13.7347 32.8146L16.5318 35.0037L18.8494 34.8435L21.46 31.0527C21.4866 30.9993 21.5665 30.9993 21.6198 31.0527L25.6157 35.8846C25.6423 35.938 26.4148 35.8312 26.4415 35.7512L28.173 31.1595C28.1996 31.1061 28.2795 31.1061 28.3328 31.1595L31.3697 35.0838L34.5397 35.1372C34.5397 35.1372 37.5499 32.8413 37.1237 31.8269C36.6974 30.8391 35.0725 30.1717 34.4065 29.7446C33.8471 29.3708 33.5807 29.2374 33.8471 28.57C34.0069 28.1962 34.6462 28.2229 35.2856 28.2496C35.845 28.2763 36.4044 28.2763 36.6175 28.0627C37.0437 27.5555 36.7241 27.3153 36.7241 27.3153C36.2179 26.9148 34.8594 26.5678 34.8594 26.5678L37.3101 23.738L37.1237 22.777C37.1237 22.7236 37.1503 22.5901 37.0704 22.5901L34.2999 22.3231L31.6627 7.13317L30.9701 7.02638C30.8369 7.02638 30.757 7.07977 30.677 7.15986Z" fill="url(#paint0_linear_1404_6202)"/>
<path d="M31.1967 26.5984C30.9267 26.5984 30.7067 26.3782 30.7063 26.1077L30.68 7.47576C30.6797 7.20484 30.8993 6.9841 31.1696 6.98371L34.1858 6.97943C34.4562 6.97943 34.6764 7.19955 34.6768 7.47013L34.6976 22.1761C34.6979 22.4477 34.9188 22.6686 35.1897 22.6686L37.0097 22.666C37.2801 22.666 37.5004 22.8862 37.5008 23.1567L37.505 26.0979C37.5051 26.2292 37.4543 26.3527 37.3618 26.4456C37.2694 26.5386 37.1463 26.5899 37.0153 26.5901L31.1974 26.5984H31.1967Z" fill="#30D8DE"/>
<path d="M34.1859 6.88452H34.1856L31.1695 6.8888C30.847 6.8893 30.585 7.15268 30.5854 7.47586L30.6117 26.1078C30.6122 26.4305 30.8746 26.6931 31.1967 26.6931L37.0154 26.6849C37.1717 26.6846 37.3186 26.6234 37.4289 26.5125C37.5391 26.4017 37.5997 26.2545 37.5996 26.0979L37.5954 23.1566C37.5949 22.8338 37.3323 22.5712 37.0098 22.5712L35.1895 22.5738C34.9708 22.5738 34.7926 22.3953 34.7923 22.176L34.7715 7.46996C34.771 7.14712 34.5083 6.88452 34.1859 6.88452ZM34.1859 7.07421C34.4043 7.07421 34.5818 7.25186 34.5822 7.47024L34.6029 22.1762C34.6033 22.5 34.8666 22.7635 35.1897 22.7635L37.0098 22.7609C37.2283 22.7609 37.4058 22.9385 37.4061 23.1569L37.4102 26.098C37.4104 26.204 37.3694 26.3036 37.2948 26.3786C37.2202 26.4537 37.1208 26.495 37.0151 26.4952L31.1973 26.5035H31.1967C30.9788 26.5035 30.8013 26.3258 30.801 26.1075L30.7747 7.47558C30.7744 7.25698 30.9517 7.07888 31.1698 7.07854L34.1859 7.07421Z" fill="#08AFBB"/>
<path d="M5.08577 26.6317C4.76575 26.6317 4.50501 26.3707 4.50456 26.05L4.47852 7.59602C4.47829 7.44048 4.53852 7.29411 4.64815 7.18396C4.75778 7.07376 4.90367 7.013 5.05888 7.01278L12.0688 7.00282C12.2251 7.00282 12.3713 7.06358 12.4811 7.17395C12.591 7.28437 12.6512 7.43103 12.6508 7.58696L12.6472 10.3871C12.6463 10.707 12.3859 10.9675 12.0667 10.9679L9.02484 10.9723C8.92021 10.9724 8.82186 11.0134 8.74788 11.0877C8.67401 11.162 8.63337 11.2606 8.63354 11.3655L8.63623 13.2784C8.63651 13.4946 8.81232 13.6706 9.0281 13.6706L11.7616 13.6667C12.0824 13.6667 12.3431 13.9276 12.3436 14.2483L12.3476 17.0485C12.348 17.3697 12.0877 17.6313 11.7671 17.6318L9.03427 17.6357C8.92964 17.6358 8.8313 17.6768 8.75731 17.7511C8.68344 17.8254 8.6428 17.9241 8.64297 18.029L8.6543 26.0441C8.6547 26.3653 8.39429 26.6269 8.07383 26.6274L5.08577 26.6317Z" fill="#30D8DE"/>
<path d="M12.0696 6.90793H12.0688L5.05869 6.91789C4.87822 6.91811 4.70858 6.98882 4.5811 7.11691C4.45362 7.24506 4.38357 7.41522 4.38385 7.59614L4.4099 26.0502C4.41046 26.4231 4.71364 26.7264 5.08575 26.7264L8.07403 26.7222C8.25455 26.7219 8.42413 26.6512 8.55161 26.5232C8.67909 26.3951 8.74915 26.2249 8.74892 26.044L8.73758 18.0288C8.73747 17.9492 8.76829 17.8744 8.82431 17.818C8.88039 17.7617 8.95499 17.7306 9.03442 17.7305L11.7673 17.7266C11.9479 17.7263 12.1175 17.6557 12.2449 17.5276C12.3724 17.3994 12.4425 17.2293 12.4422 17.0484L12.4383 14.2482C12.4378 13.8752 12.1346 13.5718 11.7624 13.5718L9.02852 13.5757C8.86445 13.5757 8.73107 13.4423 8.73085 13.2782L8.72815 11.3654C8.72804 11.2858 8.75886 11.211 8.81494 11.1546C8.87101 11.0983 8.94562 11.0672 9.02499 11.0671L12.0669 11.0627C12.4379 11.0622 12.7407 10.7593 12.7418 10.3875L12.7454 7.58691C12.7459 7.40594 12.6759 7.23538 12.5481 7.10701C12.4204 6.97864 12.2504 6.90793 12.0696 6.90793ZM12.0696 7.09762C12.3388 7.09762 12.5569 7.31678 12.5561 7.58663L12.5525 10.3869C12.5517 10.6554 12.3345 10.8726 12.0667 10.873L9.02471 10.8774C8.756 10.8778 8.53848 11.0964 8.53887 11.3657L8.54156 13.2785C8.54196 13.5476 8.7597 13.7654 9.02808 13.7654H9.02881L11.7617 13.7615H11.7624C12.0308 13.7615 12.2486 13.9794 12.249 14.2484L12.2529 17.0486C12.2533 17.3179 12.0358 17.5365 11.7671 17.5369L9.03414 17.5408C8.76543 17.5411 8.54791 17.7598 8.5483 18.0291L8.55958 26.0443C8.55998 26.3135 8.34246 26.5321 8.07375 26.5325L5.08648 26.5368H5.08575C4.81737 26.5368 4.59957 26.3189 4.59918 26.0499L4.57313 7.59586C4.57274 7.32657 4.79026 7.10797 5.05897 7.10757L12.0688 7.09762H12.0696Z" fill="#08AFBB"/>
<path d="M11.7747 26.6183C11.6206 26.6183 11.4785 26.5478 11.385 26.4251C11.2915 26.3024 11.2611 26.1465 11.3016 25.9975L14.5927 7.36064L14.594 7.35603C14.6535 7.14609 14.8471 6.99921 15.065 6.99893L18.9774 6.99336C19.1968 6.99336 19.3912 7.14086 19.4502 7.35204L19.4516 7.35659L22.7181 25.9844C22.7574 26.1363 22.7265 26.2896 22.6341 26.4106C22.5408 26.5329 22.3991 26.6031 22.2453 26.6033L19.3743 26.6075C19.1482 26.6075 18.9522 26.4542 18.8978 26.2347L17.9796 23.1157C17.9245 22.8938 17.7285 22.7416 17.502 22.7416L16.341 22.7433C16.1153 22.7436 15.9193 22.8971 15.8643 23.1164L15.0358 26.2425C14.9812 26.4605 14.7858 26.6139 14.561 26.6143L11.7754 26.6183H11.7747Z" fill="#30D8DE"/>
<path d="M18.9775 6.89848H18.9772L15.0647 6.90405C14.8049 6.90439 14.5738 7.07962 14.5029 7.33006L14.5002 7.33934L14.4986 7.34885L11.209 25.9771C11.1623 26.1527 11.1988 26.3371 11.3097 26.4826C11.4213 26.6291 11.5908 26.7131 11.7746 26.7131L14.561 26.7091C14.8293 26.7087 15.0624 26.5258 15.1278 26.2643L15.9555 23.142C16.0004 22.9623 16.1588 22.8384 16.3411 22.8381L17.5023 22.8364C17.6849 22.8364 17.8431 22.959 17.8866 23.1346L17.8876 23.1386L17.8888 23.1425L18.8069 26.2619C18.8735 26.5215 19.1061 26.7023 19.3741 26.7023L22.2454 26.6982C22.4287 26.6979 22.5978 26.6141 22.7092 26.4681C22.8197 26.3234 22.8565 26.1397 22.8105 25.9637L19.5455 7.3448L19.5439 7.33552L19.5413 7.32641C19.4708 7.07445 19.239 6.89848 18.9775 6.89848ZM18.9775 7.08817C19.1552 7.08817 19.3113 7.20698 19.3591 7.37765L22.6255 26.0047L22.6266 26.0088C22.6589 26.1288 22.6342 26.2542 22.5589 26.3529C22.4835 26.4516 22.3691 26.5083 22.2451 26.5085L19.3741 26.5126C19.1915 26.5126 19.0336 26.3889 18.9895 26.2118L18.0704 23.0889C18.0062 22.8301 17.7721 22.6467 17.502 22.6467L16.3408 22.6484C16.0717 22.6488 15.838 22.8318 15.7725 23.0933L14.9443 26.2181C14.8997 26.3957 14.7422 26.5192 14.5607 26.5194L11.7752 26.5234H11.7746C11.6503 26.5234 11.5357 26.4666 11.4602 26.3675C11.3847 26.2685 11.3601 26.1427 11.3929 26.0224L11.394 26.0182L14.685 7.38187C14.733 7.21227 14.8887 7.09402 15.065 7.09374L18.9775 7.08817Z" fill="#08AFBB"/>
<path d="M23.887 26.5869C23.6169 26.5869 23.397 26.3668 23.3966 26.0962L23.3702 7.46435C23.3699 7.19343 23.5896 6.97269 23.8599 6.97229L26.876 6.96802C27.1464 6.96802 27.3666 7.18814 27.3671 7.45872L27.3878 22.1647C27.3882 22.4363 27.609 22.6572 27.88 22.6572L29.7 22.6546C29.9704 22.6546 30.1906 22.8748 30.1911 23.1453L30.1952 26.0865C30.1953 26.2178 30.1445 26.3413 30.0521 26.4342C29.9596 26.5271 29.8365 26.5785 29.7056 26.5787L23.8876 26.5869H23.887Z" fill="#30D8DE"/>
<path d="M26.8762 6.87317H26.8759L23.8598 6.87744C23.5373 6.87789 23.2752 7.14127 23.2756 7.46451L23.302 26.0964C23.3025 26.4192 23.5649 26.6818 23.8869 26.6818L29.7056 26.6735C29.862 26.6733 30.0088 26.6121 30.1191 26.5012C30.2294 26.3904 30.29 26.2431 30.2898 26.0865L30.2857 23.1452C30.2852 22.8224 30.0225 22.5598 29.7001 22.5598L27.8797 22.5624C27.6611 22.5624 27.4828 22.3839 27.4825 22.1646L27.4618 7.4586C27.4612 7.13576 27.1985 6.87317 26.8762 6.87317ZM26.8762 7.06291C27.0946 7.06291 27.2721 7.24051 27.2724 7.45883L27.2932 22.1649C27.2936 22.4887 27.5568 22.7521 27.8799 22.7521L29.7001 22.7495C29.9186 22.7495 30.0961 22.9271 30.0964 23.1455L30.1005 26.0867C30.1007 26.1927 30.0597 26.2923 29.985 26.3673C29.9104 26.4423 29.8111 26.4836 29.7054 26.4838L23.8875 26.4921H23.8869C23.6691 26.4921 23.4916 26.3144 23.4912 26.0961L23.4649 7.46423C23.4646 7.24563 23.6419 7.06747 23.8601 7.06713L26.8762 7.06291Z" fill="#08AFBB"/>
<path d="M9.08762 36.0087C7.43168 36.0087 6.14464 35.4357 5.64954 34.9033C4.96505 34.1677 4.61719 32.9981 4.61573 31.4271C4.61309 28.5079 6.31473 26.8319 9.28431 26.8289C9.6603 26.8289 10.0515 26.8947 10.5244 26.9936C10.9805 27.089 11.3714 27.2844 11.6568 27.4271L11.7172 27.4572C12.0557 27.6257 12.2385 27.8403 12.2386 27.9568C12.2387 28.0455 12.077 28.4731 11.9674 28.6959C11.8248 28.9853 11.6335 29.3382 11.5246 29.4603C11.4102 29.5884 11.2828 29.6342 11.2018 29.6343C11.2009 29.6342 11.1498 29.6302 10.9428 29.5465C10.8812 29.5216 10.79 29.4742 10.6845 29.4193C10.4765 29.3113 10.2178 29.1768 10.0241 29.1343C9.98694 29.1261 9.94894 29.1173 9.90992 29.1082C9.72429 29.0649 9.51384 29.0158 9.27073 29.0158C9.17429 29.0158 9.07763 29.0237 8.98349 29.0394C8.48985 29.122 7.84959 29.4093 7.58093 29.7986C7.22729 30.3111 7.08381 30.559 7.08381 31.5605C7.08381 32.2779 7.29022 32.8667 7.6808 33.2633C8.05375 33.642 8.58685 33.8421 9.22245 33.8421C9.57419 33.8417 9.79889 33.8116 10.1421 33.7486L10.2206 33.7341L10.2191 32.561L9.09273 32.5621C8.95324 32.5621 8.90064 32.5001 8.87319 32.4535C8.82099 32.365 8.79438 32.2151 8.79415 32.0081L8.79359 31.1428C8.79337 30.9358 8.81969 30.7858 8.87173 30.6973C8.89924 30.6504 8.95178 30.5883 9.0911 30.5881L11.8238 30.5855C11.981 30.5855 12.0926 30.6177 12.1571 30.6812C12.2208 30.7444 12.2533 30.8549 12.2535 31.0093L12.257 35.0729C12.2573 35.415 11.9601 35.6484 11.3483 35.7864C10.7784 35.9149 10.0839 35.9871 9.22498 36.0072C9.17957 36.0082 9.13376 36.0087 9.08762 36.0087Z" fill="#F73CA3"/>
<path d="M9.28742 26.7332H9.28416C6.36262 26.7362 4.51734 28.3418 4.52014 31.4272C4.52166 33.0306 4.87474 34.2112 5.57961 34.9686C6.25956 35.6998 7.79796 36.1045 9.08747 36.1045C9.13445 36.1045 9.18093 36.104 9.22718 36.1029C9.95288 36.0861 10.7134 36.0278 11.3692 35.8799C12.0251 35.7319 12.3529 35.4629 12.3525 35.0729L12.349 31.0093C12.3488 30.8272 12.3071 30.6953 12.2239 30.6129C12.1409 30.5309 12.0079 30.4898 11.8249 30.4898H11.8237L9.09095 30.4924C8.95095 30.4925 8.85036 30.5447 8.78934 30.6487C8.72821 30.7528 8.69779 30.9176 8.69796 31.1429L8.69857 32.0083C8.6988 32.2337 8.7295 32.3982 8.79086 32.5022C8.85199 32.606 8.95247 32.6579 9.09218 32.6579H9.0928L10.1236 32.6569L10.1248 33.6544C9.7924 33.7155 9.5751 33.746 9.22539 33.7464H9.22236C8.01672 33.7464 7.17931 33.0075 7.17931 31.5605C7.17931 30.5812 7.31229 30.3562 7.65954 29.8531C7.90512 29.4972 8.51081 29.2156 8.99911 29.134C9.09392 29.1181 9.18441 29.1115 9.2708 29.1115C9.5531 29.1115 9.79262 29.1817 10.0036 29.2279C10.2792 29.2883 10.7144 29.5576 10.907 29.6354C11.0992 29.7131 11.1755 29.73 11.2018 29.73C11.3068 29.7299 11.4601 29.676 11.5957 29.5242C11.7311 29.3725 11.9569 28.9334 12.0531 28.7384C12.1491 28.5432 12.3342 28.0782 12.3341 27.9568C12.334 27.7834 12.1066 27.5441 11.7596 27.3715C11.4655 27.2252 11.0452 27.0047 10.5439 26.8999C10.1098 26.8092 9.68866 26.7332 9.28742 26.7332ZM9.28742 26.9247C9.65206 26.9247 10.0378 26.9898 10.5048 27.0874C10.9488 27.1802 11.3333 27.3725 11.614 27.5128L11.6746 27.543C12.0239 27.7168 12.1405 27.9065 12.143 27.9555C12.1355 28.0428 11.9874 28.4385 11.8817 28.6535C11.7482 28.9244 11.5559 29.2815 11.4533 29.3965C11.3635 29.497 11.2673 29.5354 11.2089 29.5383C11.1934 29.5351 11.1331 29.5202 10.9784 29.4577C10.9211 29.4346 10.8276 29.3859 10.7286 29.3345C10.5156 29.2237 10.2506 29.0859 10.0444 29.0408C10.0077 29.0327 9.97006 29.024 9.93149 29.015C9.74086 28.9705 9.52481 28.9201 9.2708 28.9201C9.16903 28.9201 9.06703 28.9284 8.96768 28.9451C8.45433 29.0309 7.78612 29.3329 7.50231 29.7441C7.13665 30.2741 6.98823 30.5302 6.98823 31.5605C6.98823 32.3036 7.20418 32.9158 7.61272 33.3306C8.00397 33.7279 8.5606 33.9379 9.22236 33.9379L9.22556 33.9378C9.58133 33.9375 9.81013 33.9069 10.1593 33.8428L10.3162 33.814L10.316 33.6542L10.3147 32.6567L10.3144 32.4652L10.1234 32.4653L9.09218 32.4664C8.9917 32.4664 8.96813 32.4264 8.95538 32.4047C8.93091 32.3634 8.88993 32.2568 8.88971 32.0082L8.88909 31.1427C8.88887 30.8941 8.92968 30.7873 8.95415 30.7458C8.96678 30.7242 8.99036 30.684 9.09117 30.6839L11.8249 30.6814C11.9531 30.6814 12.0448 30.7049 12.0896 30.749C12.1341 30.7933 12.1578 30.8833 12.1579 31.0095L12.1614 35.073C12.1615 35.1798 12.1618 35.5048 11.3273 35.693C10.7635 35.8202 10.0751 35.8917 9.22275 35.9115C9.17796 35.9125 9.13299 35.913 9.08747 35.913C7.91051 35.913 6.37565 35.5438 5.71939 34.8381C5.05184 34.1207 4.71268 32.973 4.71128 31.427C4.70993 29.9715 5.1224 28.8397 5.93724 28.0631C6.717 27.3198 7.87447 26.9262 9.28444 26.9247H9.28742Z" fill="#E81A87"/>
<path d="M17.6555 36.0176C16.4267 36.0176 15.3754 35.73 14.7712 35.2286C14.0674 34.645 13.6792 33.8412 13.6784 32.9652L13.6728 27.2556C13.6727 27.1779 13.6725 26.9413 14.3498 26.9407L15.4946 26.94C16.1719 26.94 16.1721 27.176 16.1723 27.2536L16.1776 32.1842C16.1781 32.7066 16.3287 33.0834 16.6516 33.37C17.0232 33.7002 17.4432 33.7495 17.6604 33.7495C17.9863 33.7491 18.3321 33.7233 18.6773 33.4195C18.9954 33.1395 19.1565 32.7229 19.1559 32.1812L19.1505 27.2505C19.1505 27.1728 19.1503 26.9362 19.8275 26.9356L20.9595 26.9349C21.6368 26.9349 21.637 27.1709 21.6372 27.2484L21.6428 32.9581C21.6436 33.8336 21.257 34.6381 20.5541 35.2234C19.9496 35.7268 18.896 36.0163 17.6633 36.0176H17.6555Z" fill="#F73CA3"/>
<path d="M20.9624 26.8392H20.9594L19.8274 26.8398C19.3122 26.8404 19.0547 26.9773 19.055 27.2506L19.0604 32.1813C19.0608 32.6342 18.9444 33.0569 18.6142 33.3475C18.2839 33.6383 17.9516 33.6534 17.6616 33.6537H17.6602C17.4148 33.6537 17.0409 33.5879 16.7149 33.2984C16.3882 33.0084 16.2736 32.637 16.2731 32.1841L16.2678 27.2534C16.2675 26.9808 16.0107 26.8442 15.4975 26.8442H15.4945L14.3497 26.845C13.8345 26.8454 13.577 26.9825 13.5772 27.2557L13.5828 32.9653C13.5838 33.9477 14.057 34.7607 14.7102 35.3024C15.3618 35.8431 16.4734 36.1133 17.6556 36.1133H17.6634C18.8485 36.1121 19.9629 35.8402 20.6151 35.2971C21.2672 34.754 21.7392 33.9403 21.7383 32.958L21.7327 27.2483C21.7324 26.9756 21.4756 26.8392 20.9624 26.8392ZM20.9624 27.0307C21.2412 27.0307 21.3817 27.0742 21.4504 27.1107C21.5262 27.151 21.5415 27.1933 21.5415 27.2485L21.5471 32.9582C21.548 33.8046 21.1736 34.583 20.493 35.1497C19.9053 35.6392 18.8739 35.9206 17.6632 35.9218H17.6556C16.4486 35.9218 15.4195 35.6422 14.8321 35.1548C14.1505 34.5897 13.7747 33.8121 13.774 32.9652L13.7683 27.2555C13.7683 27.2002 13.7836 27.1577 13.8597 27.1172C13.9287 27.0806 14.0697 27.0367 14.3498 27.0365L15.4946 27.0358H15.4975C15.7763 27.0358 15.9168 27.0793 15.9855 27.1158C16.0613 27.1561 16.0766 27.1984 16.0766 27.2537L16.0821 32.1844C16.0826 32.7361 16.2434 33.1357 16.5882 33.4416C16.9834 33.7928 17.4294 33.8453 17.6618 33.8453C17.9151 33.845 18.3391 33.8445 18.7403 33.4914C19.0801 33.1924 19.252 32.7516 19.2515 32.1811L19.2461 27.2504C19.246 27.1951 19.2613 27.1526 19.3375 27.1122C19.4065 27.0754 19.5475 27.0317 19.8275 27.0313L20.9598 27.0307H20.9624Z" fill="#E81A87"/>
<path d="M26.3274 35.9741C25.6543 35.9741 25.6541 35.7407 25.654 35.664L25.6498 31.4619L22.9301 27.3624C22.8286 27.1918 22.8173 27.1204 22.8173 27.0979C22.8173 27.0817 22.8376 26.9395 23.5447 26.9388L24.951 26.9381C25.4273 26.9381 25.5885 27.0434 25.6405 27.1317L27.1001 29.4124L28.5657 27.1313C28.6197 27.0393 28.7814 26.9335 29.2569 26.933L30.5732 26.9325C31.2681 26.9325 31.2881 27.0739 31.2881 27.0901C31.2881 27.1358 31.2706 27.2194 31.1865 27.358L28.4763 31.4982L28.4805 35.662C28.4807 35.8683 28.2534 35.973 27.8047 35.9734L26.3274 35.9741Z" fill="#F73CA3"/>
<path d="M30.5785 26.8367H30.5732L29.2568 26.8373C28.8367 26.8377 28.5796 26.9185 28.4854 27.0794L27.1003 29.2353L25.7228 27.083C25.6285 26.9227 25.3723 26.8424 24.9543 26.8424H24.9509L23.5445 26.843C22.9958 26.8436 22.7216 26.9287 22.7217 27.098C22.7218 27.1658 22.7649 27.2716 22.8506 27.4154L25.5543 31.4909L25.5585 35.6642C25.5587 35.9347 25.8151 36.0699 26.3275 36.0699H26.3305L27.8048 36.0693C28.3192 36.0687 28.5763 35.9331 28.5761 35.6619L28.5719 31.5268L31.2682 27.4077C31.3452 27.2806 31.3838 27.1747 31.3837 27.09C31.3835 26.9212 31.1151 26.8367 30.5785 26.8367ZM30.5785 27.0282C31.0165 27.0282 31.154 27.0873 31.1908 27.1102C31.1858 27.1426 31.1676 27.2042 31.1065 27.3055L28.4121 31.4217L28.3808 31.4696L28.3809 31.5269L28.385 35.6621C28.385 35.7162 28.3699 35.7577 28.2944 35.7976C28.2254 35.8339 28.0845 35.8774 27.8047 35.8777L26.3304 35.8783H26.3275C26.0488 35.8783 25.9086 35.8352 25.8399 35.799C25.7648 35.7594 25.7497 35.7179 25.7497 35.6639L25.7454 31.4907L25.7453 31.433L25.7134 31.3849L23.0123 27.3134C22.9479 27.2047 22.9252 27.1449 22.9172 27.1172C22.9586 27.0928 23.1033 27.035 23.5447 27.0345L24.9512 27.0339H24.9543C25.4347 27.0339 25.538 27.146 25.5582 27.1803L25.56 27.1834L25.5619 27.1864L26.9394 29.3387L27.0999 29.5896L27.2609 29.339L28.6461 27.1831L28.6482 27.1798L28.6503 27.1764C28.6705 27.1419 28.7739 27.0293 29.2569 27.0288L30.5736 27.0282H30.5785Z" fill="#E81A87"/>
<path d="M34.3969 35.9456C33.8098 35.9456 33.2874 35.8871 32.8442 35.7717C32.3867 35.6526 32.0343 35.5011 31.7667 35.3085C31.4781 35.1139 31.3329 34.9014 31.3326 34.675C31.3325 34.5177 31.3842 34.3435 31.4905 34.1423C31.5879 33.9577 31.7054 33.792 31.8398 33.6498C31.9458 33.5377 32.1093 33.3886 32.3035 33.3884C32.383 33.3884 32.4842 33.4164 32.7441 33.556C32.9941 33.6795 33.2205 33.7758 33.42 33.8439C33.6054 33.9072 33.8294 33.9393 34.0856 33.9393C34.3642 33.939 34.5993 33.8856 34.7871 33.7805C34.939 33.6955 35.0096 33.547 35.0093 33.3132C35.0092 33.126 34.9393 32.9887 34.7895 32.8812C34.5986 32.7444 34.2772 32.5856 33.8344 32.4091L33.2607 32.1627C32.7261 31.9112 32.2958 31.5905 31.9848 31.2105C31.6623 30.8168 31.4985 30.2599 31.4978 29.5553C31.4974 28.9661 31.6479 28.4641 31.9455 28.0631C32.2395 27.6669 32.6287 27.371 33.1023 27.1838C33.5632 27.0016 34.0644 26.9089 34.5917 26.9084H34.5978C35.0242 26.9084 35.4181 26.9527 35.7686 27.04C36.1344 27.1314 36.4186 27.2502 36.6371 27.4031C36.8753 27.5743 36.9967 27.7631 36.9969 27.9634C36.997 28.1064 36.9557 28.2717 36.8706 28.4688C36.79 28.6556 36.6891 28.8213 36.5708 28.9614C36.4225 29.1367 36.2679 29.2257 36.111 29.2259C36.0365 29.2259 35.9477 29.2018 35.8225 29.1479C35.7354 29.1106 35.6613 29.0806 35.6023 29.0584C35.3334 28.9706 35.0534 28.9268 34.7661 28.9268C34.2834 28.9273 34.0941 29.0241 34.0241 29.0817C33.9098 29.1757 33.8543 29.2748 33.8544 29.3846C33.8546 29.5431 33.894 29.6673 33.9749 29.7642C34.0702 29.8787 34.1832 29.9691 34.3206 30.0402C34.4771 30.1214 34.7134 30.2301 35.0228 30.3633C35.49 30.5575 35.878 30.7452 36.177 30.9214C36.496 31.1098 36.7754 31.383 37.0074 31.7331C37.2447 32.0918 37.3653 32.5498 37.3659 33.0945C37.3664 33.7515 37.222 34.3012 36.9366 34.7282C36.6511 35.1551 36.2782 35.4692 35.8279 35.6619C35.3896 35.8496 34.9111 35.945 34.4057 35.9456H34.3969Z" fill="#F73CA3"/>
<path d="M34.598 26.8127H34.5916C34.0523 26.8133 33.5395 26.9082 33.0672 27.0948C32.5768 27.2888 32.1736 27.5954 31.8689 28.0061C31.5588 28.4239 31.4018 28.9451 31.4024 29.5555C31.4031 30.2828 31.5742 30.8601 31.911 31.2714C32.2312 31.6624 32.6726 31.9919 33.2231 32.2508L33.7916 32.495L33.7992 32.4981C34.2349 32.6718 34.5495 32.8269 34.7339 32.9591C34.8582 33.0483 34.9137 33.1575 34.9139 33.3134C34.9141 33.5673 34.8214 33.6518 34.7407 33.6969C34.5672 33.794 34.3478 33.8433 34.0884 33.8436H34.0854C33.8397 33.8436 33.6264 33.8132 33.4508 33.7533C33.2549 33.6863 33.0323 33.5916 32.7894 33.4717C32.5109 33.3222 32.4002 33.2926 32.304 33.2926H32.3035C32.0726 33.2929 31.8888 33.459 31.7705 33.584C31.6301 33.7326 31.5075 33.9055 31.4063 34.0975C31.2923 34.3129 31.2371 34.5019 31.2372 34.6752C31.2375 34.9353 31.3969 35.1745 31.7111 35.3863C31.9883 35.5859 32.3512 35.7423 32.8203 35.8644C33.2713 35.9818 33.8017 36.0414 34.3968 36.0414H34.4059C34.9242 36.0409 35.4152 35.9429 35.8656 35.7501C36.3331 35.5499 36.7202 35.2241 37.0161 34.7816C37.3123 34.3384 37.4621 33.7709 37.4615 33.0945C37.461 32.5307 37.3351 32.0549 37.0871 31.6803C36.847 31.3178 36.5572 31.0348 36.2256 30.839C35.9227 30.6604 35.5296 30.4703 35.0606 30.2753C34.7536 30.1432 34.5196 30.0356 34.3646 29.9552C34.2389 29.8902 34.1356 29.8077 34.0483 29.7028C33.9823 29.6237 33.9502 29.5197 33.9501 29.3846C33.95 29.334 33.9639 29.2553 34.0849 29.1558C34.1334 29.1159 34.2965 29.0231 34.7636 29.0226H34.7663C35.0435 29.0226 35.3135 29.0649 35.5689 29.1482C35.627 29.1699 35.6998 29.1995 35.7849 29.2359C35.9225 29.2953 36.0231 29.3218 36.1108 29.3218H36.1113C36.2974 29.3216 36.4765 29.2212 36.6438 29.0234C36.7681 28.8762 36.874 28.7024 36.9585 28.5069C37.0489 28.2975 37.0927 28.1195 37.0926 27.9633C37.0924 27.7305 36.9587 27.5164 36.6919 27.3246C36.4635 27.1648 36.1691 27.0414 35.7918 26.9472C35.4339 26.858 35.0322 26.8127 34.598 26.8127ZM34.598 27.0042C35.0167 27.0042 35.4029 27.0476 35.7456 27.133C36.0998 27.2215 36.3737 27.3355 36.5805 27.4802C36.7933 27.6332 36.9013 27.7958 36.9015 27.9635C36.9016 28.0931 36.8629 28.246 36.7831 28.4308C36.7061 28.609 36.6102 28.7667 36.498 28.8996C36.3687 29.0524 36.2385 29.1301 36.1108 29.1302C36.0511 29.1302 35.9715 29.1079 35.8599 29.0597C35.7718 29.0221 35.6964 28.9915 35.6358 28.9688L35.632 28.9673L35.628 28.966C35.3534 28.8765 35.0635 28.8311 34.7663 28.8311H34.7633C34.279 28.8316 34.0611 28.9276 33.9636 29.0078C33.8257 29.1212 33.7588 29.2445 33.7589 29.3848C33.7591 29.564 33.8072 29.7124 33.9015 29.8254C34.0052 29.9501 34.128 30.0483 34.2767 30.1253C34.4354 30.2076 34.6738 30.3173 34.9874 30.4523C35.4491 30.6441 35.8331 30.8298 36.1286 31.0041C36.4351 31.185 36.704 31.4482 36.9278 31.7861C37.1546 32.1288 37.2699 32.5691 37.2704 33.0947C37.2709 33.7324 37.132 34.264 36.8574 34.675C36.5824 35.0862 36.2234 35.3886 35.7905 35.5739C35.364 35.7565 34.898 35.8494 34.4058 35.8499H34.3968C33.8179 35.8499 33.3037 35.7924 32.8683 35.679C32.4223 35.563 32.0803 35.4163 31.8226 35.2308L31.8202 35.2291L31.8178 35.2274C31.5595 35.0533 31.4285 34.8675 31.4283 34.675C31.4282 34.5338 31.4762 34.3742 31.5752 34.187C31.6685 34.0103 31.7808 33.8517 31.9093 33.7158C32.0032 33.6164 32.1463 33.4843 32.304 33.4842C32.3581 33.4842 32.4433 33.5031 32.6991 33.6406L32.705 33.6436C32.9556 33.7672 33.1858 33.8651 33.3892 33.9346C33.5846 34.0013 33.8188 34.0352 34.0854 34.0352H34.0886C34.381 34.0348 34.6317 33.9773 34.8337 33.8642C35.0165 33.762 35.1053 33.5818 35.105 33.3132C35.1047 33.0955 35.0198 32.9287 34.8451 32.8033C34.648 32.6621 34.3198 32.4996 33.8721 32.3211L33.8669 32.319L33.3015 32.076C32.7783 31.8296 32.3602 31.518 32.0588 31.1499C31.7507 30.7737 31.5942 30.2372 31.5936 29.5553C31.5931 28.9871 31.7373 28.5044 32.0223 28.1203C32.3054 27.7387 32.6806 27.4536 33.1373 27.273C33.5872 27.0952 34.0765 27.0048 34.5919 27.0042H34.598Z" fill="#E81A87"/>
<g opacity="0.5">
<path d="M4.74782 20.6023C4.73143 19.7506 4.72531 18.8989 4.71392 18.0472L4.69691 15.4921C4.68927 14.6404 4.69146 13.7887 4.69057 12.937L4.68933 10.3819L4.70146 7.82695L4.70325 7.5072C4.70466 7.44876 4.70887 7.37849 4.75546 7.31082C4.77858 7.27791 4.81249 7.25181 4.84645 7.23645C4.88069 7.22037 4.91432 7.21378 4.94614 7.21001C5.01238 7.20416 5.05931 7.20726 5.11393 7.20591L5.27323 7.20495L5.59196 7.20293C6.01684 7.20023 6.44171 7.19685 6.86665 7.19798L9.41624 7.19809L10.6911 7.20557C11.116 7.20737 11.5411 7.21103 11.9661 7.2166C11.5412 7.23021 11.1164 7.24185 10.6915 7.25164L9.41686 7.28314L6.86743 7.33119C6.44256 7.34035 6.01762 7.34497 5.59269 7.35026L5.27402 7.35425L5.11466 7.35622C5.06313 7.35751 5.00346 7.35605 4.96399 7.36032C4.92055 7.36511 4.89287 7.37928 4.87923 7.39937C4.86385 7.42001 4.85616 7.46147 4.85644 7.5081L4.85655 7.82712L4.85616 10.3822L4.84246 12.9373C4.83747 13.789 4.83545 14.6406 4.82372 15.4923L4.79419 18.0474C4.77864 18.899 4.76842 19.7507 4.74782 20.6023Z" fill="white"/>
</g>
<g opacity="0.5">
<path d="M12.5187 20.6447L12.8689 18.523L13.2261 16.4026L13.9518 12.1641C14.1998 10.7524 14.443 9.33996 14.7094 7.93125L14.7589 7.66703L14.7836 7.53494L14.796 7.4689C14.8 7.44291 14.8083 7.41197 14.8204 7.3852C14.8443 7.33052 14.8878 7.27961 14.9443 7.2499C14.9723 7.23477 15.0025 7.22611 15.032 7.22122C15.0622 7.21593 15.0913 7.21733 15.1113 7.21722L15.3795 7.21958L16.466 7.19635C17.1813 7.20648 17.9263 7.16474 18.6418 7.18881C17.9267 7.22077 17.1817 7.29474 16.4665 7.31268L15.38 7.36674L15.1117 7.37209C15.0871 7.37282 15.0713 7.3722 15.0573 7.37524C15.0429 7.37805 15.0295 7.38193 15.0183 7.38857C14.9958 7.40123 14.9778 7.42176 14.9661 7.44921C14.9602 7.46344 14.9567 7.4761 14.9541 7.49444L14.9428 7.56071L14.875 7.95814C14.6361 9.37163 14.3741 10.7814 14.1169 12.1919L13.327 16.4201L12.9264 18.5331L12.5187 20.6447Z" fill="white"/>
</g>
<g opacity="0.5">
<path d="M23.6749 20.9561L23.6368 16.7489L23.6029 12.5417C23.592 11.1393 23.5758 9.73699 23.5779 8.33453L23.5788 7.80861L23.5793 7.54568L23.5795 7.47992L23.5796 7.44707L23.5797 7.43008L23.5809 7.40684C23.5872 7.34474 23.6187 7.28562 23.6667 7.24652C23.6906 7.22678 23.7184 7.2117 23.748 7.20253C23.7628 7.19809 23.7781 7.19488 23.7934 7.19314C23.8093 7.19167 23.8248 7.19156 23.8339 7.19179L23.9651 7.19274L24.2275 7.1946L24.7523 7.20062C25.452 7.2099 26.1518 7.227 26.8515 7.25732C26.1518 7.28967 25.4522 7.30868 24.7525 7.31993L24.2277 7.32741L23.9653 7.33L23.8341 7.3313C23.8214 7.3313 23.815 7.33186 23.8092 7.33236C23.8028 7.33326 23.7966 7.33473 23.7905 7.33658C23.7784 7.34058 23.7671 7.34705 23.7574 7.35543C23.7379 7.37219 23.7251 7.39604 23.7228 7.42136L23.7224 7.43098V7.44684L23.7226 7.47975L23.7229 7.54545L23.7243 7.80838L23.7273 8.3343C23.7342 9.73671 23.7229 11.1391 23.7171 12.5415L23.6981 16.7488L23.6749 20.9561Z" fill="white"/>
</g>
<g opacity="0.5">
<path d="M8.47327 13.7492C8.59839 13.8385 8.74967 13.8925 8.89915 13.8904L9.36153 13.8755C9.66987 13.8668 9.97827 13.8611 10.2866 13.857C10.595 13.8523 10.9034 13.8504 11.2118 13.8492L11.6743 13.849C11.6948 13.8495 11.7103 13.8481 11.7347 13.8501C11.7578 13.8513 11.7809 13.8551 11.8027 13.8627C11.8464 13.8771 11.8875 13.8999 11.919 13.9325C11.9842 13.9952 12.0103 14.091 11.9879 14.1685C11.966 14.0909 11.9181 14.0349 11.8639 13.9997C11.8359 13.983 11.8064 13.9706 11.7757 13.9651C11.7604 13.9628 11.7451 13.9601 11.7296 13.9603C11.7157 13.9597 11.6926 13.9603 11.6745 13.9603L11.2119 13.9615C10.9035 13.9613 10.5951 13.9604 10.2868 13.9567C9.97838 13.9534 9.66998 13.9487 9.36158 13.941C9.20733 13.9379 9.05341 13.9325 8.89882 13.9271C8.7394 13.9185 8.58918 13.8511 8.47327 13.7492Z" fill="white"/>
</g>
<path d="M4.86401 7.45473C4.88484 7.43054 4.89972 7.43177 4.92402 7.41749C4.93525 7.4109 4.94676 7.40432 4.95776 7.3974C4.97651 7.3857 4.98465 7.37102 4.99559 7.35336C5.01041 7.3295 5.00255 7.28911 4.97555 7.27668C4.94979 7.26487 4.92638 7.25716 4.89803 7.26543C4.87603 7.2719 4.84931 7.29007 4.83381 7.30672C4.80575 7.33699 4.79654 7.38885 4.8012 7.42868C4.80451 7.45698 4.84089 7.48156 4.86401 7.45473Z" fill="white"/>
<path d="M14.9464 7.48878C14.9672 7.46459 14.9821 7.46583 15.0064 7.45154C15.0176 7.44496 15.0292 7.43838 15.0402 7.43146C15.0589 7.41976 15.067 7.40513 15.078 7.38741C15.0928 7.36356 15.0849 7.32317 15.0579 7.31074C15.0322 7.29893 15.0088 7.29122 14.9804 7.29949C14.9584 7.30596 14.9317 7.32413 14.9163 7.34078C14.8881 7.37104 14.8789 7.42291 14.8836 7.46274C14.887 7.49103 14.9233 7.51562 14.9464 7.48878Z" fill="white"/>
<path d="M23.7526 7.49806C23.7734 7.47387 23.7883 7.47511 23.8126 7.46082C23.8239 7.45424 23.8354 7.44766 23.8464 7.44074C23.8652 7.42904 23.8733 7.41441 23.8843 7.39669C23.899 7.37284 23.8912 7.33245 23.8642 7.32002C23.8384 7.30826 23.815 7.3005 23.7866 7.30882C23.7646 7.31524 23.7379 7.33341 23.7225 7.35006C23.6944 7.38032 23.6851 7.43219 23.6898 7.47202C23.6931 7.50031 23.7295 7.52489 23.7526 7.49806Z" fill="white"/>
<g opacity="0.5">
<path d="M30.9948 20.9747L30.9566 16.7675L30.9227 12.5603C30.9118 11.1579 30.8956 9.75555 30.8977 8.35309L30.8987 7.82723L30.8992 7.56424L30.8994 7.46563L30.8995 7.44864L30.9007 7.42541C30.907 7.3633 30.9386 7.30424 30.9866 7.26508C31.0104 7.24534 31.0382 7.23026 31.0678 7.22109C31.0827 7.21665 31.0979 7.21344 31.1132 7.2117C31.1291 7.21029 31.1446 7.21012 31.1537 7.21035L31.285 7.2113L31.5473 7.21322L32.0721 7.21918C32.7718 7.22846 33.4716 7.24556 34.1714 7.27594C33.4717 7.30823 32.772 7.3273 32.0723 7.33849L31.5476 7.34598L31.2851 7.34856L31.154 7.34991C31.1413 7.34986 31.1349 7.35042 31.129 7.35093C31.1226 7.35183 31.1164 7.35329 31.1103 7.35515C31.0982 7.3592 31.0869 7.36561 31.0772 7.37399C31.0577 7.39075 31.0449 7.41466 31.0426 7.43992L31.0422 7.44954V7.4654L31.0424 7.49831L31.0427 7.56402L31.0442 7.82695L31.0471 8.35286C31.054 9.75527 31.0428 11.1577 31.0369 12.5601L31.0179 16.7674L30.9948 20.9747Z" fill="white"/>
</g>
<path d="M31.0727 7.51663C31.0935 7.49244 31.1084 7.49373 31.1326 7.47939C31.1439 7.47281 31.1555 7.46623 31.1664 7.45936C31.1852 7.44761 31.1933 7.43298 31.2043 7.41532C31.2191 7.39146 31.2113 7.35102 31.1842 7.33864C31.1584 7.32683 31.135 7.31907 31.1067 7.32739C31.0847 7.3338 31.0579 7.35203 31.0425 7.36868C31.0144 7.39895 31.0052 7.45076 31.0099 7.49058C31.0132 7.51888 31.0496 7.54346 31.0727 7.51663Z" fill="white"/>
<g opacity="0.3">
<path d="M11.7595 27.672C11.575 27.5928 11.3911 27.5125 11.2034 27.4442C11.0156 27.3765 10.8239 27.3208 10.6291 27.2854C10.2363 27.2151 9.83991 27.15 9.44641 27.1481C9.05022 27.1526 8.65223 27.1829 8.26328 27.254C7.87349 27.3214 7.49228 27.4324 7.13174 27.5893C6.95278 27.6703 6.77669 27.7583 6.6111 27.8638C6.44634 27.97 6.28676 28.0849 6.14103 28.2163C5.84611 28.475 5.59962 28.7874 5.40613 29.131C5.3098 29.303 5.22572 29.4827 5.15678 29.6685C5.08415 29.853 5.02958 30.0447 4.98226 30.2381C4.88751 30.6257 4.84345 31.0255 4.82363 31.4272C4.80477 31.0252 4.83211 30.6204 4.90042 30.2208C4.93854 30.0218 4.98591 29.8237 5.05148 29.6308C5.11339 29.4368 5.19568 29.2492 5.28904 29.0674C5.47557 28.7032 5.73098 28.3737 6.03314 28.0958C6.18347 27.9554 6.35075 27.835 6.52201 27.7226C6.69451 27.6113 6.87728 27.5179 7.06337 27.4328C7.43974 27.2725 7.83453 27.1586 8.23606 27.095C8.63792 27.0311 9.04298 27.0039 9.44871 27.0151C9.85849 27.0292 10.2547 27.1136 10.6467 27.204C11.0423 27.3027 11.4088 27.4782 11.7595 27.672Z" fill="white"/>
</g>
<g opacity="0.3">
<path d="M15.519 27.1117C15.2403 27.1494 14.9615 27.181 14.6824 27.2063C14.5427 27.2211 14.4024 27.2277 14.2675 27.2488C14.2007 27.2582 14.1321 27.2691 14.0784 27.2886C14.0516 27.298 14.0318 27.3108 14.0264 27.3194C14.0211 27.3267 14.0158 27.3397 14.0142 27.3684L14.0133 27.5729C14.0126 27.6432 14.0127 27.7134 14.0108 27.7837L14.0011 28.2051L13.9772 29.0477L13.935 30.733L13.8848 32.4181C13.8846 32.4228 13.8807 32.4264 13.8761 32.4263C13.8716 32.4261 13.868 32.4224 13.8679 32.4179L13.8521 30.7322L13.8444 29.0467L13.8379 28.2041L13.8367 27.7827C13.8362 27.7125 13.8379 27.6423 13.8386 27.5721L13.8402 27.4667C13.8415 27.431 13.8407 27.3991 13.8439 27.3553C13.8459 27.334 13.8491 27.3104 13.8575 27.2846C13.8656 27.259 13.8802 27.2312 13.9002 27.2092C13.9415 27.1644 13.9882 27.1471 14.0273 27.1345C14.1072 27.1109 14.1788 27.105 14.251 27.0981C14.3947 27.0875 14.5351 27.0876 14.6752 27.0862C14.956 27.0828 15.237 27.0858 15.5182 27.0948C15.5228 27.095 15.5265 27.0988 15.5263 27.1035C15.5262 27.1078 15.5231 27.1111 15.519 27.1117Z" fill="white"/>
</g>
<g opacity="0.3">
<path d="M20.9883 27.1117C20.762 27.1425 20.5356 27.1683 20.309 27.1913C20.0838 27.2162 19.8513 27.2254 19.6383 27.2648C19.5873 27.2747 19.5337 27.2894 19.5079 27.308C19.4952 27.3176 19.4933 27.3219 19.4891 27.3324C19.4852 27.3432 19.4829 27.3645 19.4828 27.3891C19.4832 27.5 19.4827 27.6164 19.4789 27.7297C19.4741 27.9577 19.4614 28.1858 19.4542 28.4138L19.4081 29.782L19.354 31.1499C19.3538 31.1546 19.3499 31.1582 19.3452 31.1581C19.3407 31.1579 19.3372 31.1541 19.3372 31.1497L19.3206 29.781L19.3119 28.4125C19.3109 28.1845 19.3045 27.9564 19.306 27.7284C19.3053 27.6137 19.3079 27.5019 19.3114 27.3847C19.313 27.3525 19.3148 27.3161 19.3307 27.2732C19.3458 27.2296 19.3834 27.1889 19.4189 27.1684C19.491 27.1272 19.5521 27.1204 19.6123 27.11C19.6722 27.1015 19.7302 27.0966 19.7882 27.0937L19.8754 27.0898L19.9609 27.0884C20.0748 27.0858 20.1889 27.0862 20.3029 27.0851C20.531 27.0847 20.7591 27.0872 20.9874 27.0948C20.992 27.095 20.9957 27.0988 20.9956 27.1036C20.9954 27.1078 20.9923 27.1111 20.9883 27.1117Z" fill="white"/>
</g>
<g opacity="0.5">
<path d="M12.0789 30.8747C12.0583 30.8443 12.0376 30.8197 12.0104 30.8084C11.9839 30.7961 11.9526 30.7922 11.9202 30.7922L11.7108 30.8014L11.2856 30.8203L10.4348 30.8574L9.58368 30.8897L9.37088 30.8977L9.26445 30.9017C9.22426 30.9029 9.20551 30.9039 9.18278 30.9112C9.16145 30.9185 9.14562 30.9287 9.1322 30.9397C9.12558 30.9455 9.11912 30.9518 9.11356 30.9602C9.10593 30.9714 9.09672 30.9864 9.08903 31.0003C9.05704 31.0574 9.02773 31.1212 8.99905 31.1901L8.99888 31.1905C8.99697 31.1952 8.99158 31.1974 8.98693 31.1955C8.98451 31.1945 8.98266 31.1924 8.98187 31.1901C8.95577 31.1169 8.94926 31.039 8.95802 30.9601C8.96094 30.94 8.96324 30.9214 8.96902 30.8997C8.97676 30.8751 8.98934 30.8509 9.00601 30.8299C9.0393 30.7871 9.08707 30.7603 9.13349 30.747C9.17885 30.7327 9.23206 30.7341 9.26254 30.7339L9.3688 30.7332L9.58138 30.7318L10.4318 30.726L11.2825 30.7251L11.708 30.7251H11.8144C11.8497 30.7257 11.8848 30.7236 11.924 30.727C11.962 30.7309 12.0027 30.7414 12.0367 30.7667C12.0716 30.7925 12.0874 30.8333 12.0942 30.8677L12.0943 30.8682C12.0953 30.8728 12.0922 30.8773 12.0876 30.8782C12.0842 30.8789 12.0807 30.8774 12.0789 30.8747Z" fill="white"/>
</g>
<g opacity="0.3">
<path d="M30.8972 27.1607C30.7067 27.174 30.5162 27.1858 30.3256 27.1957C30.1349 27.2048 29.9443 27.2163 29.7537 27.2234L29.1824 27.2459C29.0909 27.2499 29.0016 27.2584 28.9191 27.2795C28.8368 27.3003 28.7624 27.3325 28.7159 27.3892L28.7135 27.3922C28.6929 27.4172 28.6561 27.4208 28.6312 27.4003C28.6101 27.3829 28.6042 27.3539 28.6153 27.3302C28.6405 27.2764 28.6829 27.2314 28.7291 27.1995C28.7756 27.1671 28.8262 27.1456 28.8765 27.1296C28.9778 27.0987 29.0802 27.0901 29.179 27.0905L29.7516 27.0881C29.9422 27.0869 30.133 27.0899 30.3236 27.0906C30.5143 27.0921 30.705 27.0955 30.8959 27.1004C30.9125 27.1009 30.9256 27.1148 30.9252 27.1314C30.9248 27.147 30.9124 27.1595 30.8972 27.1607Z" fill="white"/>
</g>
<g opacity="0.3">
<path d="M36.4122 27.5931C36.1954 27.4572 35.955 27.3646 35.7088 27.3012C35.4622 27.2375 35.2091 27.2028 34.9554 27.1883C34.7016 27.1732 34.4464 27.1747 34.1954 27.2016C33.944 27.229 33.696 27.2815 33.457 27.3599C33.2177 27.4392 32.9893 27.5438 32.785 27.6847C32.682 27.7535 32.5854 27.8313 32.4946 27.9151C32.4037 27.9985 32.3176 28.0877 32.2393 28.1839C32.0805 28.3733 31.9592 28.5914 31.8745 28.8271C31.7908 29.063 31.743 29.3143 31.7201 29.5704C31.7197 29.575 31.7156 29.5785 31.711 29.5781C31.7069 29.5777 31.7036 29.5744 31.7033 29.5704C31.6805 29.3131 31.6945 29.0483 31.7613 28.7924C31.826 28.5365 31.9454 28.2908 32.1074 28.079C32.2677 27.8668 32.4698 27.6863 32.6941 27.5447C32.9199 27.4045 33.1669 27.3038 33.4171 27.231C33.668 27.1577 33.9261 27.112 34.1854 27.0925C34.4452 27.0732 34.7046 27.0804 34.962 27.1042C35.2193 27.1303 35.4751 27.1768 35.7224 27.2524C35.9693 27.3276 36.209 27.4325 36.4215 27.5789C36.4253 27.5816 36.4263 27.5868 36.4236 27.5906C36.4211 27.5943 36.416 27.5954 36.4122 27.5931Z" fill="white"/>
</g>
<g opacity="0.3">
<path d="M34.7962 33.9677C34.7447 34.0264 34.6775 34.0719 34.6074 34.1081C34.537 34.1446 34.4624 34.1724 34.3861 34.1954C34.3095 34.2171 34.2309 34.2327 34.1496 34.2402C34.1092 34.2444 34.0674 34.2439 34.0257 34.242L33.911 34.236C33.8341 34.2326 33.7564 34.2295 33.6771 34.2214C33.5979 34.2133 33.5167 34.2024 33.4346 34.1774C33.2886 34.1308 33.1391 34.0873 32.9902 34.0304C32.9167 34.0008 32.8431 33.9686 32.7714 33.9302C32.703 33.8927 32.6362 33.858 32.5687 33.8238C32.5021 33.7901 32.4332 33.7573 32.37 33.7389C32.3547 33.7346 32.3393 33.7312 32.328 33.7307C32.3151 33.7306 32.2973 33.73 32.2829 33.7321C32.2523 33.7346 32.223 33.7424 32.1948 33.7563C32.1379 33.7833 32.0875 33.834 32.0354 33.8895C32.0093 33.9173 31.9827 33.9468 31.9528 33.9753C31.925 34.0015 31.8985 34.028 31.872 34.0554C31.7656 34.164 31.6713 34.2856 31.5827 34.4136C31.6385 34.2679 31.7162 34.1302 31.8089 34.002C31.8323 33.9702 31.8574 33.9392 31.8825 33.909C31.9056 33.8811 31.9275 33.8502 31.9509 33.8187C31.9975 33.756 32.0525 33.6889 32.1319 33.6409C32.1712 33.617 32.2165 33.6002 32.2624 33.5922C32.2859 33.5871 32.3072 33.5869 32.3326 33.586C32.3602 33.5863 32.3829 33.5907 32.405 33.5954C32.4915 33.6161 32.5641 33.6478 32.6371 33.6797C32.7093 33.7119 32.7794 33.7489 32.8474 33.784C32.9125 33.8176 32.9813 33.8463 33.0515 33.8732C33.1904 33.9298 33.3376 33.9736 33.4843 34.0257C33.6151 34.0729 33.7694 34.0827 33.9226 34.1047L34.0386 34.1207C34.0739 34.1255 34.1093 34.1284 34.146 34.1294C34.2193 34.1315 34.2942 34.1255 34.3685 34.1143C34.443 34.1041 34.5169 34.0871 34.5895 34.0648C34.6617 34.0417 34.7328 34.0129 34.7962 33.9677Z" fill="white"/>
</g>
<g opacity="0.3">
<path d="M25.9467 31.5524L25.8985 35.5841C25.8983 35.5981 25.8869 35.6094 25.8728 35.6092C25.859 35.609 25.8479 35.5979 25.8477 35.5841L25.7935 31.5525C25.793 31.5101 25.8268 31.4753 25.8691 31.4747C25.9113 31.4742 25.946 31.508 25.9467 31.5504V31.5524Z" fill="white"/>
</g>
<g opacity="0.3">
<path d="M25.3287 27.1801C25.1349 27.1938 24.9411 27.2034 24.7473 27.2124C24.5534 27.221 24.3596 27.2272 24.1657 27.2324C23.9719 27.2376 23.778 27.2415 23.5841 27.2437C23.4877 27.2452 23.3891 27.248 23.2947 27.2425C23.2482 27.2411 23.2001 27.2384 23.165 27.24C23.1571 27.2402 23.1494 27.2417 23.1485 27.2405C23.1457 27.2404 23.1515 27.231 23.1493 27.2265C23.1441 27.2197 23.1442 27.2452 23.1498 27.2652L23.1511 27.2699C23.157 27.2909 23.1448 27.3128 23.1238 27.3187C23.1081 27.3232 23.092 27.3174 23.0823 27.3055C23.0732 27.2943 23.0628 27.2849 23.055 27.2694C23.0507 27.2628 23.0468 27.2543 23.044 27.2438C23.0403 27.2349 23.039 27.2218 23.0401 27.2079C23.0401 27.195 23.0472 27.1781 23.0542 27.1658C23.0619 27.1549 23.073 27.142 23.0814 27.1368C23.0906 27.1297 23.1006 27.1238 23.1081 27.1206C23.1163 27.1168 23.1252 27.1126 23.1321 27.1105C23.1917 27.0905 23.2412 27.0861 23.2915 27.0821C23.3909 27.0743 23.4861 27.0781 23.5836 27.0774C23.7774 27.0771 23.9712 27.0783 24.1651 27.0811C24.3589 27.0838 24.5527 27.0874 24.7466 27.0934C24.9404 27.0999 25.1343 27.1069 25.3283 27.1181C25.3453 27.1192 25.3584 27.1338 25.3574 27.1509C25.3565 27.1667 25.3439 27.179 25.3287 27.1801Z" fill="white"/>
</g>
<path d="M6.01411 28.2925C6.25385 28.0852 6.5041 27.9135 6.76734 27.7392C6.79457 27.7211 6.77796 27.67 6.74371 27.683C6.44695 27.7949 6.20042 28.0411 6.00633 28.2847C6.00197 28.2902 6.00866 28.2972 6.01411 28.2925Z" fill="white"/>
<path d="M14.001 27.3733C14.053 27.3477 14.1131 27.3349 14.1683 27.3181C14.2057 27.3067 14.2294 27.2673 14.2188 27.2289C14.2073 27.187 14.1687 27.173 14.1298 27.1782C14.0435 27.1899 13.9753 27.2502 13.9462 27.3311C13.9344 27.3643 13.9743 27.3864 14.001 27.3733Z" fill="white"/>
<path d="M19.4057 27.3957C19.482 27.3733 19.5639 27.3642 19.633 27.3237C19.6935 27.2881 19.6612 27.2075 19.5998 27.2008C19.5028 27.1904 19.4257 27.2623 19.3694 27.3333C19.348 27.3604 19.3667 27.4071 19.4057 27.3957Z" fill="white"/>
<path d="M23.456 27.1212C23.3493 27.1071 23.2173 27.0536 23.1268 27.1412C23.0963 27.1708 23.1213 27.217 23.1593 27.2199C23.2593 27.2276 23.3565 27.159 23.456 27.1519C23.4762 27.1505 23.4753 27.1237 23.456 27.1212Z" fill="white"/>
<path d="M29.0952 27.1621C29.0014 27.1354 28.9137 27.1305 28.8347 27.1946C28.7873 27.2332 28.8479 27.2924 28.8944 27.2723C28.962 27.2431 29.0233 27.2039 29.0953 27.1854C29.107 27.1824 29.1065 27.1654 29.0952 27.1621Z" fill="white"/>
<path d="M32.621 27.7242C32.8666 27.5424 33.1543 27.4399 33.4454 27.359C33.5176 27.339 33.486 27.2374 33.4151 27.2489C33.0962 27.3006 32.8323 27.4836 32.6051 27.7035C32.5946 27.7137 32.6088 27.7333 32.621 27.7242Z" fill="white"/>
<path d="M33.6783 27.2736C33.7009 27.2643 33.7262 27.2561 33.7511 27.2583C33.7641 27.2594 33.7764 27.2637 33.7898 27.263C33.8039 27.2622 33.8179 27.2576 33.8318 27.2556C33.8515 27.2526 33.8656 27.2295 33.8656 27.2111C33.8656 27.1895 33.851 27.1738 33.8318 27.1666C33.7929 27.1517 33.7653 27.1567 33.7283 27.1742C33.6995 27.1877 33.6744 27.2063 33.6527 27.2296C33.6363 27.247 33.6523 27.2842 33.6783 27.2736Z" fill="white"/>
<path d="M32.0862 33.8531C32.1533 33.7966 32.2287 33.7651 32.3148 33.7513C32.3788 33.7411 32.3645 33.6294 32.2993 33.637C32.1862 33.65 32.0822 33.7219 32.0641 33.8403C32.0622 33.8534 32.0757 33.862 32.0862 33.8531Z" fill="white"/>
<path d="M7.07549 27.5912C7.10412 27.564 7.13646 27.5414 7.17429 27.529C7.21072 27.517 7.24811 27.5147 7.28454 27.5024C7.33006 27.4869 7.33691 27.415 7.28454 27.4027C7.17541 27.3772 7.07392 27.4588 7.01521 27.5446C6.98989 27.5816 7.04485 27.6205 7.07549 27.5912Z" fill="white"/>
<g opacity="0.5">
<path d="M14.7866 18.3438C15.1334 18.6503 15.5357 18.8868 15.9703 19.0339C16.4047 19.18 16.869 19.2383 17.3267 19.2005C17.5558 19.1835 17.7827 19.1416 18.0028 19.0776C18.2239 19.016 18.4363 18.9271 18.64 18.822C19.046 18.6083 19.4061 18.3115 19.7007 17.9543C19.4736 18.3543 19.1278 18.6986 18.7164 18.946C18.5116 19.0717 18.2881 19.1691 18.0572 19.2444C17.8253 19.3176 17.5843 19.3636 17.3413 19.3847C17.0981 19.4019 16.8528 19.3948 16.6123 19.3587C16.3725 19.3208 16.1365 19.2596 15.9145 19.1678C15.4694 18.9883 15.0739 18.7029 14.7866 18.3438Z" fill="white"/>
</g>
<g opacity="0.6">
<path d="M13.9199 16.1875C13.7846 14.4765 15.0896 12.9768 16.8348 12.8378C18.58 12.6988 20.1044 13.973 20.2397 15.684C20.375 17.395 19.0701 18.8284 17.3249 18.9675C15.5797 19.1064 14.0553 17.8984 13.9199 16.1875Z" fill="#08AFBB"/>
</g>
<path d="M16.8609 13.1528C15.2026 13.2856 13.9747 14.7086 14.0917 16.3324C14.2204 18.067 15.669 19.0981 17.3245 18.9686C18.9797 18.8361 20.2041 17.5604 20.0926 15.8539C19.9878 14.3115 18.6606 13.1414 17.1061 13.1425C17.0251 13.1429 16.9414 13.1465 16.8609 13.1528Z" fill="url(#paint1_radial_1404_6202)"/>
<path d="M16.887 13.4896C15.318 13.6124 14.165 14.9422 14.2659 16.4565C14.374 18.0634 15.7519 19.0313 17.3208 18.9053C18.8863 18.7795 20.0371 17.6361 19.9405 16.0058C19.8552 14.5642 18.5911 13.4782 17.1223 13.4808C17.0459 13.4803 16.9663 13.4833 16.887 13.4896Z" fill="url(#paint2_radial_1404_6202)"/>
<path d="M15.9275 17.4023C15.7121 17.4164 15.524 17.2641 15.5095 17.0639L15.4568 16.3358C15.4423 16.1356 15.6066 15.9602 15.822 15.9462C16.0374 15.9321 16.2255 16.0843 16.24 16.2845L16.2927 17.0126C16.3072 17.2128 16.1429 17.3882 15.9275 17.4023Z" fill="#222326"/>
<path d="M15.8262 16.0084C15.6576 16.0181 15.5279 16.1573 15.5376 16.3156L15.5795 16.8884C15.5918 17.0468 15.7387 17.1663 15.9099 17.1566C16.0785 17.1443 16.2082 17.0051 16.1984 16.8494L16.1566 16.2739C16.1442 16.1235 16.0079 16.0067 15.8472 16.0059C15.842 16.0058 15.8341 16.0084 15.8262 16.0084Z" fill="url(#paint3_linear_1404_6202)"/>
<path d="M15.7277 16.1409C15.7236 16.1595 15.7278 16.179 15.7231 16.198C15.7168 16.2227 15.7092 16.242 15.6912 16.2614C15.6649 16.2899 15.625 16.2849 15.6056 16.254C15.587 16.2244 15.5905 16.1901 15.6083 16.1602C15.6259 16.1307 15.6493 16.1215 15.6804 16.1089C15.7026 16.0999 15.7332 16.1162 15.7277 16.1409Z" fill="white"/>
<path d="M18.4398 17.2616C18.2244 17.2756 18.0363 17.1233 18.0218 16.9231L17.969 16.1951C17.9545 15.9948 18.1189 15.8195 18.3343 15.8054C18.5497 15.7913 18.7378 15.9436 18.7523 16.1438L18.805 16.8719C18.8195 17.0721 18.6552 17.2475 18.4398 17.2616Z" fill="#222326"/>
<path d="M18.3379 15.8786C18.1694 15.8883 18.0397 16.0275 18.0494 16.1859L18.0913 16.7587C18.1036 16.917 18.2505 17.0365 18.4217 17.0268C18.5903 17.0145 18.72 16.8753 18.7102 16.7196L18.6684 16.1441C18.656 15.9937 18.5196 15.8769 18.359 15.8761C18.3538 15.876 18.3458 15.8786 18.3379 15.8786Z" fill="url(#paint4_linear_1404_6202)"/>
<path d="M18.2533 15.9921C18.2492 16.0108 18.2534 16.0302 18.2487 16.0493C18.2424 16.0739 18.2348 16.0932 18.2168 16.1127C18.1905 16.1412 18.1505 16.1362 18.1312 16.1053C18.1125 16.0756 18.1161 16.0414 18.1339 16.0115C18.1514 15.982 18.1749 15.9728 18.2059 15.9602C18.2282 15.9512 18.2588 15.9675 18.2533 15.9921Z" fill="white"/>
</g>
<defs>
<linearGradient id="paint0_linear_1404_6202" x1="21.3322" y1="6.78612" x2="21.3322" y2="33.482" gradientUnits="userSpaceOnUse">
<stop stop-color="#257EA5"/>
<stop offset="0.23" stop-color="#257EA5"/>
<stop offset="0.94" stop-color="#B5097A"/>
<stop offset="1" stop-color="#B5097A"/>
</linearGradient>
<radialGradient id="paint1_radial_1404_6202" cx="0" cy="0" r="1" gradientUnits="userSpaceOnUse" gradientTransform="translate(17.0896 16.0603) rotate(175.525) scale(2.99199 2.93323)">
<stop stop-color="#D6D6D6"/>
<stop offset="0.14" stop-color="#D6D6D6"/>
<stop offset="0.94" stop-color="#E5E5E5"/>
<stop offset="1" stop-color="#E5E5E5"/>
</radialGradient>
<radialGradient id="paint2_radial_1404_6202" cx="0" cy="0" r="1" gradientUnits="userSpaceOnUse" gradientTransform="translate(17.1814 17.3829) rotate(-164.679) scale(3.50884 4.40877)">
<stop stop-color="white"/>
<stop offset="0.14" stop-color="white"/>
<stop offset="0.94" stop-color="white"/>
<stop offset="1" stop-color="white"/>
</radialGradient>
<linearGradient id="paint3_linear_1404_6202" x1="15.8723" y1="15.7527" x2="15.8589" y2="18.3912" gradientUnits="userSpaceOnUse">
<stop stop-color="#4D4D4D"/>
<stop offset="0.11" stop-color="#4D4D4D"/>
<stop offset="1" stop-color="#222326"/>
</linearGradient>
<linearGradient id="paint4_linear_1404_6202" x1="18.384" y1="15.6229" x2="18.3706" y2="18.2615" gradientUnits="userSpaceOnUse">
<stop stop-color="#4D4D4D"/>
<stop offset="0.11" stop-color="#4D4D4D"/>
<stop offset="1" stop-color="#222326"/>
</linearGradient>
<clipPath id="clip0_1404_6202">
<rect width="40" height="40" fill="white" transform="translate(0.666626)"/>
</clipPath>
</defs>
</svg>
