<svg width="40" height="40" viewBox="0 0 40 40" fill="none" xmlns="http://www.w3.org/2000/svg">
<g clip-path="url(#clip0_1404_1073)">
<path d="M40 0H0V40H40V0Z" fill="url(#paint0_linear_1404_1073)"/>
<path d="M20.3041 14.53L20.3294 13.2631C21.08 13.2468 23.9819 13.2315 24.2643 13.2557C24.2643 13.2557 24.711 8.43211 24.7352 8.05911C23.2501 8.09963 21.9184 8.05094 20.7318 8.0672C19.5454 8.09145 18.5203 8.01042 17.6487 8.01042C16.6397 8.03477 15.7438 8.03477 14.9529 8.01042C15.0093 11.0269 15.0578 13.9622 15.09 16.476C15.1223 18.9896 15.1465 21.1546 15.1627 22.9874C15.1789 25.1117 15.195 31.8906 15.195 31.8906L20.5301 30.7636C20.4897 29.6526 20.4655 26.5713 20.4574 25.574C20.4494 24.5766 20.4331 23.0279 20.4089 22.1358C21.1031 22.1195 21.4501 22.1035 21.9425 22.1035C21.9425 22.1035 23.3613 22.0484 23.6195 22.0727C23.5954 21.3186 23.706 17.1202 23.706 17.1202C22.5599 17.1606 22.2896 17.1329 21.6117 17.1329H20.3202C20.3041 16.4761 20.2961 16.3544 20.3041 15.8354V14.53Z" fill="white"/>
</g>
<defs>
<linearGradient id="paint0_linear_1404_1073" x1="5.66929e-07" y1="5.66929e-07" x2="40" y2="40" gradientUnits="userSpaceOnUse">
<stop stop-color="#158FD8"/>
<stop offset="0.487424" stop-color="#72CEF1"/>
<stop offset="1" stop-color="#6AE2FE"/>
</linearGradient>
<clipPath id="clip0_1404_1073">
<rect width="40" height="40" rx="10" fill="white"/>
</clipPath>
</defs>
</svg>
