<svg width="40" height="40" viewBox="0 0 40 40" fill="none" xmlns="http://www.w3.org/2000/svg">
<rect width="40" height="40" rx="10" fill="url(#paint0_linear_1404_2845)"/>
<path d="M17.2422 16.3918C17.2053 16.3907 17.168 16.3953 17.1323 16.406C16.5802 16.5389 16.0329 16.6951 15.4987 16.8887C15.0996 17.0317 14.7102 17.2078 14.3576 17.4448C14.2143 17.5415 14.0753 17.6445 13.9448 17.758C13.914 17.7852 13.88 17.8138 13.8715 17.8567C13.9131 18.1146 14.1584 18.2536 14.3702 18.3614C14.7182 18.5218 15.1104 18.6139 15.4941 18.5704C15.3799 18.4732 15.2212 18.4578 15.1004 18.3717C15.0513 18.3348 15.0502 18.2684 15.0371 18.2144C14.9192 18.2378 14.8073 18.283 14.6905 18.3102C14.7981 18.2439 14.9152 18.1949 15.0271 18.1366C15.6255 17.8795 16.2724 17.7688 16.9139 17.6808C17.3609 17.6319 17.8174 17.6164 18.2499 17.4812C18.2148 17.3839 18.1971 17.2413 18.0718 17.2261C17.8023 17.0851 17.6733 16.7946 17.518 16.5492C17.461 16.4501 17.353 16.3951 17.2422 16.3918Z" fill="white"/>
<path d="M22.7781 16.3922C22.6925 16.3909 22.607 16.4161 22.5457 16.4786C22.4592 16.569 22.409 16.6856 22.3427 16.79C22.2479 16.9553 22.1255 17.1086 21.9633 17.2115C21.9217 17.239 21.8583 17.2338 21.8335 17.2839C21.7963 17.3451 21.7726 17.4143 21.7598 17.4843C22.1928 17.6136 22.6468 17.6273 23.0924 17.6831C23.7993 17.7723 24.5142 17.9021 25.1582 18.221C25.2127 18.2507 25.2684 18.2804 25.3229 18.311C25.2056 18.2807 25.0903 18.2424 24.9741 18.2087C24.955 18.267 24.9529 18.3405 24.8958 18.3771C24.7768 18.4574 24.6212 18.4724 24.5133 18.5699C24.6966 18.5945 24.8824 18.5773 25.0634 18.5433C25.4157 18.4746 25.7748 18.3434 26.0321 18.0832L26.0352 18.0843C26.0917 18.0079 26.1226 17.9179 26.134 17.8238C25.7217 17.4414 25.2233 17.1609 24.7006 16.9604C24.1122 16.7331 23.5047 16.5589 22.8926 16.4094C22.8559 16.3988 22.817 16.3928 22.7781 16.3922Z" fill="white"/>
<path d="M20.0035 14.44C19.9787 14.4391 19.954 14.4547 19.9494 14.4888C19.8478 14.8243 19.7574 15.1712 19.5655 15.4691C19.4964 15.5789 19.3968 15.6662 19.2843 15.7294C19.0125 15.8849 18.7093 15.971 18.4124 16.0642C18.3656 16.0765 18.3276 16.1071 18.2939 16.1403C18.3282 16.1689 18.3639 16.198 18.4081 16.2112C18.7273 16.3133 19.0579 16.4025 19.3437 16.5847C19.5129 16.6894 19.612 16.8695 19.6948 17.0445H19.6974C19.8033 17.2887 19.8755 17.545 19.9532 17.7989C19.9752 17.8721 20.0628 17.8295 20.0642 17.7691C20.1293 17.5255 20.2115 17.2873 20.302 17.0525L20.2958 17.0357L20.3154 17.0299C20.3691 16.9378 20.4114 16.8386 20.4788 16.7548C20.5613 16.6407 20.6835 16.5664 20.8051 16.5009C20.8493 16.4797 20.8942 16.4586 20.939 16.4377C21.1517 16.3493 21.3717 16.2813 21.5916 16.2135C21.635 16.1943 21.7072 16.1812 21.6947 16.118C21.6547 16.0845 21.605 16.0668 21.5565 16.0516C21.2676 15.9633 20.9744 15.8758 20.7117 15.7234C20.599 15.6593 20.5019 15.5689 20.4339 15.4585C20.2478 15.1629 20.1567 14.8217 20.058 14.4903C20.0531 14.4584 20.0282 14.441 20.0035 14.44Z" fill="white"/>
<path d="M7.05931 16.6451C6.85601 16.6439 6.65267 16.6628 6.45314 16.7025C5.76026 16.842 5.1356 17.2547 4.7048 17.8121C4.4667 18.1215 4.28227 18.4721 4.16437 18.8444C4.04189 19.231 3.98651 19.6391 4.00278 20.0443C4.0122 20.2596 4.03818 20.4744 4.087 20.6843C4.12269 20.8418 4.16979 20.9965 4.22689 21.1478L4.23002 21.1492C4.31167 21.374 4.42416 21.5868 4.5532 21.7875C4.57233 21.8064 4.58177 21.8507 4.61317 21.8498L4.59891 21.8533C4.77534 22.1101 4.99059 22.3394 5.23269 22.5356L5.24097 22.5359C5.46679 22.7238 5.72686 22.8693 6.00007 22.9763C6.38662 23.1301 6.80658 23.1882 7.22082 23.167C7.89371 23.1418 8.58401 23.0094 9.16554 22.6554C9.34369 22.5633 9.50414 22.4324 9.64346 22.2874C9.64431 22.1438 9.64429 22.0003 9.64571 21.857C9.64543 21.6317 9.64946 21.4063 9.64375 21.1813C9.65231 21.034 9.62915 20.8807 9.68854 20.7409L9.68339 20.7477C9.74363 20.6348 9.83817 20.5399 9.9535 20.4841C10.0583 20.4263 10.1907 20.4255 10.2841 20.3474C10.2832 20.3317 10.2812 20.3002 10.2804 20.2845C10.2027 20.2736 10.1245 20.2779 10.0466 20.2776C9.09531 20.2782 8.14408 20.2773 7.19284 20.2782C7.13631 20.2636 7.06548 20.3165 7.10916 20.3751C7.17654 20.4403 7.27791 20.4495 7.36384 20.4775C7.62078 20.531 7.87059 20.6508 8.03303 20.863C8.08414 20.9608 8.13549 21.0634 8.13549 21.1767C8.13892 21.5121 8.13265 21.8473 8.13779 22.1827C8.12552 22.3549 8.12466 22.5336 8.05072 22.6932C7.91597 22.841 7.69585 22.7781 7.51999 22.7872C7.21681 22.7421 6.93132 22.6054 6.70293 22.4012C6.49053 22.2127 6.31924 21.9811 6.18592 21.7309C6.06715 21.5039 5.97664 21.2631 5.91041 21.0157C5.87558 20.8716 5.8476 20.726 5.82305 20.5799C5.79279 20.3191 5.77739 20.0566 5.78909 19.7943C5.80822 19.4649 5.86189 19.1378 5.95382 18.8209L5.95779 18.8207C6.06028 18.4749 6.2213 18.1466 6.4357 17.8567C6.57445 17.6868 6.72807 17.5264 6.91278 17.4063C7.21682 17.1995 7.60537 17.1126 7.96537 17.2006C8.35392 17.2901 8.67623 17.5564 8.91576 17.8664C9.07135 18.0754 9.19608 18.3059 9.29343 18.5473C9.33625 18.6599 9.37682 18.7734 9.40822 18.8901C9.42992 18.9613 9.4393 19.0426 9.49726 19.0957C9.59289 18.9167 9.57292 18.7051 9.5949 18.5092C9.60575 18.3125 9.61063 18.1154 9.61092 17.9187C9.60378 17.7205 9.61461 17.5158 9.55066 17.3253C9.19551 17.3345 8.85837 17.2052 8.55147 17.0368C8.09799 16.7828 7.57886 16.6482 7.05931 16.6451Z" fill="white"/>
<path d="M10.0431 18.6964C10.0267 18.6961 10.0104 18.6963 9.99402 18.6968C10.1202 18.8224 10.2909 18.9082 10.3768 19.0712C10.4985 19.3034 10.499 19.5742 10.4945 19.8298C10.4976 20.0466 10.4948 20.2633 10.4956 20.4801C10.4962 20.7132 10.4956 20.9459 10.4956 21.1787C10.6161 21.0603 10.7454 20.9505 10.8824 20.8516C11.0723 20.7152 11.2747 20.5973 11.4854 20.4964C11.4851 20.2833 11.4851 20.0703 11.4851 19.8575C11.488 19.7357 11.4794 19.6136 11.4891 19.4921C11.5034 19.3777 11.6164 19.2933 11.7301 19.3028C11.9673 19.3036 12.2045 19.3005 12.4418 19.3048C12.6396 19.3108 12.8252 19.3997 12.9736 19.5269C13.1546 19.6968 13.2794 19.9182 13.3579 20.1521C13.3656 20.143 13.381 20.1241 13.3887 20.1149C13.417 19.9162 13.3827 19.7131 13.3522 19.5161C13.3122 19.3282 13.2591 19.1432 13.1946 18.9625C12.5052 18.9631 11.8134 18.9702 11.1271 18.8933C10.8116 18.8504 10.4999 18.7826 10.189 18.714C10.1411 18.7024 10.0921 18.6973 10.0431 18.6964Z" fill="white"/>
<path d="M12.7115 20.3639C12.6411 20.3642 12.5696 20.3726 12.5018 20.3783C11.8146 20.4678 11.1537 20.756 10.6159 21.1932C10.4351 21.3514 10.2716 21.529 10.1305 21.7237C10.0138 21.8916 9.90729 22.0675 9.82593 22.2554C10.0243 22.1235 10.2316 22.0057 10.4437 21.897C10.4609 21.8893 10.4783 21.8816 10.496 21.8742C10.4957 21.9088 10.4957 21.9434 10.4957 21.9783C10.5094 22.1538 10.4723 22.3262 10.4137 22.4901L10.4217 22.5093L10.3981 22.5164C10.2759 22.7609 10.0563 22.9311 9.85763 23.1095C10.0095 23.1141 10.1551 23.0655 10.3027 23.0372C10.6973 22.9525 11.1015 22.9242 11.5043 22.9242C12.1252 22.9248 12.7465 22.9231 13.3674 22.9251C13.4459 22.7232 13.5047 22.5141 13.5501 22.3025C13.5787 22.1381 13.5952 21.9714 13.5941 21.8047C13.5901 21.7621 13.5958 21.7 13.5453 21.6843C13.4682 21.9082 13.344 22.1161 13.177 22.2839C13.0031 22.4521 12.7702 22.561 12.5272 22.5662C12.2517 22.5679 11.9762 22.5676 11.701 22.5665C11.6328 22.5699 11.5785 22.5253 11.5286 22.4855C11.5063 22.4329 11.4815 22.3792 11.4852 22.3208C11.4841 22.1721 11.4857 22.0237 11.4846 21.8753C11.4863 21.7489 11.4849 21.6225 11.4852 21.4964C11.5292 21.485 11.5731 21.4738 11.6173 21.4629C11.7133 21.4415 11.8098 21.4215 11.9066 21.4029C12.4045 21.3145 12.9103 21.275 13.4156 21.2725C13.4447 21.2705 13.4733 21.2656 13.5018 21.2582C13.471 21.173 13.4171 21.0969 13.3403 21.0474C13.2486 20.9934 13.1407 20.9716 13.0522 20.9127C12.9132 20.7938 12.9369 20.5879 12.9692 20.4275C12.8913 20.377 12.8022 20.3636 12.7115 20.3639Z" fill="white"/>
<path d="M17.1707 18.9617C16.8786 18.9617 16.5865 18.9629 16.2944 18.9653C16.2505 19.0517 16.3729 19.0731 16.4254 19.1052C16.6353 19.1967 16.6892 19.4512 16.6701 19.6585C16.6709 19.7889 16.6687 19.9193 16.671 20.0497C16.6707 20.4017 16.6689 20.7537 16.6704 21.1057C16.6712 21.2104 16.6707 21.3151 16.6701 21.4198C16.6264 21.3643 16.5827 21.3085 16.5391 21.253C16.3692 21.0314 16.1948 20.8129 16.0246 20.5916C15.9187 20.4569 15.8133 20.3217 15.7083 20.1867C15.6109 20.0617 15.5133 19.9373 15.4165 19.8123C15.1962 19.5287 14.9743 19.2464 14.7539 18.9627C14.4008 18.9642 14.0473 18.9585 13.6942 18.9653L13.693 19.0305C13.7798 19.1 13.9046 19.1195 13.9688 19.219C14.1076 19.3917 14.0613 19.6231 14.0705 19.827C14.0702 20.0088 14.0679 20.1904 14.0702 20.372C14.0687 20.535 14.0705 20.6983 14.0693 20.8613C14.0705 21.0203 14.069 21.1795 14.0699 21.3385C14.0687 21.5707 14.0713 21.8029 14.0685 22.0351C14.0653 22.2064 14.0884 22.382 14.0382 22.5487C14.0048 22.6134 13.97 22.6806 13.9123 22.7272C13.8524 22.779 13.773 22.7981 13.7076 22.8416C13.6751 22.8581 13.6896 22.8979 13.6907 22.9259C14.2751 22.9231 14.8598 22.9288 15.4442 22.9231C15.4636 22.8304 15.3583 22.8127 15.2983 22.7784C15.1853 22.7306 15.1176 22.6202 15.0776 22.5093C15.042 22.3157 15.0674 22.1181 15.0579 21.9228C15.0602 21.7254 15.0582 21.5281 15.0582 21.3308C15.06 21.2041 15.0574 21.0774 15.0594 20.9508C15.0585 20.8438 15.0588 20.7369 15.0585 20.6302C15.0597 20.4852 15.058 20.3402 15.0591 20.1952L15.0557 20.1369C15.0594 20.1352 15.0665 20.1315 15.0699 20.1295C15.1276 20.2147 15.1936 20.2939 15.2561 20.3754C15.3286 20.4672 15.3997 20.5602 15.4725 20.6517C15.6055 20.8227 15.7377 20.9942 15.8722 21.1641C15.9844 21.3097 16.0971 21.4549 16.2107 21.5993C16.3829 21.8155 16.5473 22.0389 16.7229 22.2522C16.8659 22.4441 17.0167 22.63 17.1614 22.8204C17.2436 22.9254 17.3341 23.0237 17.4318 23.1147C17.5834 23.2431 17.7704 23.34 17.9708 23.3534C17.9434 23.2571 17.8743 23.181 17.8312 23.0921L17.8117 23.0838L17.8215 23.0723C17.7861 22.9479 17.7341 22.8281 17.7095 22.7006C17.6898 22.5888 17.6753 22.4758 17.6676 22.3626C17.655 22.1361 17.661 21.909 17.659 21.6823C17.6602 21.4309 17.6587 21.1795 17.6584 20.9279C17.6616 20.6931 17.6602 19.7386 17.6576 19.5867C17.6505 19.4043 17.7158 19.1952 17.8917 19.1114C17.9531 19.0748 18.0584 19.06 18.047 18.9656C17.755 18.9631 17.4628 18.9618 17.1707 18.9617Z" fill="white"/>
<path d="M19.8579 18.1115C19.7766 18.112 19.6953 18.118 19.6141 18.1312C19.2147 18.1878 18.8327 18.3991 18.5984 18.732C18.513 18.8581 18.4482 18.9974 18.4102 19.1446L18.4116 19.1478C18.3408 19.4312 18.3782 19.7326 18.4744 20.0054L18.4776 20.0059C18.5444 20.1915 18.6529 20.3603 18.7868 20.5047L18.7911 20.5044C18.9612 20.6731 19.1648 20.8052 19.3629 20.9371C19.7689 21.231 20.1962 21.4947 20.5931 21.8012C20.7035 21.9036 20.7814 22.0386 20.8043 22.1884C20.8074 22.3182 20.792 22.4484 20.7444 22.5696C20.6778 22.7129 20.5622 22.8321 20.418 22.8971C20.2522 22.9806 20.0617 22.9731 19.8825 22.9519C19.7971 22.9379 19.7126 22.9194 19.6295 22.8968C19.466 22.8453 19.3121 22.7681 19.1702 22.6729C19.1211 22.6346 19.0725 22.5962 19.0249 22.557L18.9575 22.4976C18.9138 22.4527 18.8704 22.4078 18.8276 22.362C18.7383 22.2585 18.6563 22.149 18.5821 22.034C18.4628 21.8604 18.3885 21.6583 18.2597 21.4913C18.2106 21.6668 18.2121 21.8513 18.2092 22.032C18.2104 22.0872 18.2104 22.1427 18.2158 22.1978C18.2246 22.3606 18.2461 22.5227 18.282 22.6817C18.332 22.8827 18.4082 23.0844 18.5529 23.2368C18.7645 23.1084 19.0335 23.1258 19.2593 23.2059C19.6298 23.3248 20.0258 23.3517 20.4118 23.3129C20.5911 23.2954 20.7666 23.2508 20.9353 23.1876C21.164 23.0915 21.3679 22.9359 21.51 22.7312C21.6379 22.5407 21.7173 22.3185 21.745 22.0912L21.7487 22.0935C21.765 21.9685 21.7701 21.8424 21.7695 21.7166C21.7612 21.4489 21.6942 21.181 21.5531 20.9516C21.4658 20.8138 21.3562 20.6926 21.2403 20.5787C20.9533 20.3385 20.6361 20.1384 20.3301 19.9239C20.0523 19.7317 19.768 19.549 19.4962 19.3482C19.3338 19.2167 19.2179 19.0134 19.2558 18.7983C19.2838 18.6799 19.342 18.5635 19.446 18.4946C19.6267 18.3711 19.8588 18.3677 20.0686 18.3897C20.3367 18.418 20.5896 18.5538 20.7603 18.7631L20.7632 18.7629C20.8737 18.8973 20.937 19.0625 21.0384 19.2021C21.2354 19.3454 21.4435 19.4909 21.6799 19.5587C21.6836 19.4392 21.6351 19.3285 21.5954 19.2187C21.5326 19.0568 21.4683 18.8953 21.3964 18.7374C21.3073 18.5527 21.2031 18.3754 21.0909 18.2041C20.9302 18.2816 20.7495 18.2479 20.5834 18.2101C20.3455 18.158 20.1018 18.1101 19.8579 18.1115Z" fill="white"/>
<path d="M23.6754 18.961C23.0902 18.9673 22.5049 18.9556 21.92 18.9668C21.9145 19.074 22.0427 19.0803 22.1095 19.1295C22.2831 19.2367 22.3233 19.4598 22.3082 19.6488C22.3105 19.8058 22.3057 19.9628 22.3108 20.1201L22.3151 20.1381C22.3074 20.2004 22.3068 20.2636 22.3094 20.3265C22.3085 20.5682 22.3074 20.8098 22.3088 21.0517C22.3082 21.1498 22.3025 21.2482 22.3185 21.346L22.3162 21.3271C22.3191 21.3397 22.3248 21.3646 22.3277 21.3772C22.3239 21.3823 22.3165 21.3932 22.3125 21.3986C22.3028 21.5954 22.3102 21.7927 22.3082 21.9897C22.3085 22.1333 22.3082 22.2771 22.3071 22.4212C22.3011 22.5673 22.2523 22.7049 22.2003 22.8398L22.206 22.8587L22.1886 22.8616C22.0833 23.0509 21.9294 23.2036 21.7738 23.3511C22.2583 23.3632 22.6714 23.0646 23.1359 22.9743C23.3149 22.9451 23.495 22.9214 23.6771 22.9242C23.7091 22.8341 23.5992 22.811 23.5404 22.7795C23.3865 22.7123 23.3069 22.5419 23.2977 22.3812C23.2969 22.239 23.3006 22.0969 23.2966 21.9551C23.2986 21.8161 23.3 21.6768 23.2952 21.5381C23.298 21.4172 23.3962 21.3028 23.5221 21.3071C23.9235 21.3077 24.3249 21.3025 24.726 21.31C24.7577 21.3271 24.7903 21.344 24.826 21.3529C24.8816 21.4166 24.8976 21.4984 24.9147 21.5788L24.8973 21.5971C24.9007 21.6091 24.9076 21.6337 24.911 21.6457C24.8919 21.7112 24.9025 21.7806 24.9019 21.8481C24.9022 22.0217 24.8982 22.1956 24.9027 22.3694C24.8947 22.5319 24.8191 22.7063 24.6644 22.7769C24.6033 22.8121 24.4968 22.8284 24.515 22.9225C25.0994 22.9248 25.6844 22.9271 26.2688 22.9217C26.3059 22.8353 26.1954 22.815 26.1415 22.7838C25.9873 22.7206 25.9054 22.5547 25.8905 22.396C25.8905 22.2585 25.8931 22.1206 25.8882 21.9834C25.8942 21.7741 25.8917 21.5642 25.8879 21.3551C25.8948 21.1175 25.8911 20.8793 25.8879 20.642C25.8971 20.32 25.8865 19.9979 25.8905 19.676C25.8908 19.5456 25.8831 19.4074 25.9482 19.2888C25.993 19.193 26.0787 19.1238 26.1763 19.086C26.2217 19.0643 26.3085 19.032 26.2668 18.9653C25.6827 18.9605 25.098 18.9602 24.5139 18.9656C24.501 19.06 24.6087 19.0749 24.6698 19.1117C24.8188 19.181 24.8876 19.3474 24.9039 19.5024C24.8987 19.8009 24.9039 20.0997 24.9007 20.3983C24.9041 20.4724 24.8593 20.5333 24.8122 20.5856C24.7651 20.6051 24.7174 20.6279 24.6655 20.6254C24.2932 20.6259 23.9212 20.6253 23.549 20.6256C23.4522 20.6356 23.3671 20.5779 23.3146 20.501C23.2826 20.3337 23.3046 20.1624 23.298 19.9937C23.2977 19.9348 23.2974 19.8761 23.2969 19.8178C23.2977 19.7703 23.2977 19.7229 23.2983 19.6757C23.2809 19.4712 23.3197 19.2187 23.5218 19.1161C23.5817 19.0769 23.712 19.0605 23.6754 18.961Z" fill="white"/>
<path d="M26.9796 20.3649C26.9304 20.3646 26.8813 20.3671 26.8323 20.3737C26.7821 20.378 26.7383 20.4034 26.6961 20.428C26.7212 20.565 26.7449 20.7194 26.6707 20.8458C26.6416 20.901 26.5805 20.9259 26.5411 20.9708C26.4066 20.9837 26.2579 21.0657 26.1914 21.1927C26.1711 21.217 26.1568 21.2757 26.2068 21.2705C26.6119 21.2745 27.0173 21.2968 27.4195 21.3494C27.4189 21.2948 27.4192 21.2405 27.4195 21.1864C27.4195 21.0926 27.4192 20.9991 27.4195 20.9059C27.4195 20.7435 27.4189 20.5813 27.4195 20.4192C27.2746 20.3935 27.127 20.3659 26.9796 20.3649Z" fill="white"/>
<path d="M28.6914 20.9339C28.6908 21.1824 28.69 21.4309 28.6902 21.6794L28.6988 21.664C29.0971 21.8235 29.4813 22.0186 29.8399 22.2548C29.716 21.9697 29.5404 21.7089 29.3363 21.4755C29.1499 21.2636 28.9295 21.0838 28.6914 20.9339Z" fill="white"/>
<path d="M27.4796 18.961C27.2836 18.9612 27.0878 18.9634 26.8923 18.971C26.8931 18.9851 26.8951 19.0128 26.896 19.0266C27.0496 19.1083 27.2434 19.1072 27.3765 19.2321C27.5049 19.3299 27.5463 19.4969 27.5278 19.6514C27.5303 20.0797 27.5269 20.5081 27.5283 20.9365C27.5298 21.1804 27.5243 21.4244 27.5298 21.6683C27.5246 21.7675 27.528 21.8667 27.5283 21.9663C27.5269 22.1198 27.5309 22.2736 27.5238 22.4272C27.4667 22.6394 27.2574 22.7592 27.055 22.7993C26.9908 22.823 26.8777 22.8236 26.8829 22.9168C26.9537 22.9254 27.0256 22.9262 27.0973 22.9211C27.1164 22.9208 27.1549 22.9202 27.174 22.9199C27.8215 22.9302 28.4693 22.9208 29.1171 22.9248C29.159 22.9222 29.2447 22.9377 29.2264 22.8679C29.1473 22.805 29.0394 22.8027 28.9478 22.7678C28.8133 22.7275 28.696 22.6386 28.6235 22.5187L28.6012 22.5142L28.608 22.4924C28.5763 22.3695 28.5858 22.2422 28.5861 22.1167C28.5858 21.9079 28.5849 21.6991 28.5858 21.4904C28.5855 21.2179 28.5863 20.9457 28.5849 20.6734C28.5872 20.368 28.5855 20.0626 28.5852 19.7572C28.5926 19.6205 28.5601 19.4704 28.6386 19.3483C28.7265 19.1987 28.8947 19.1235 29.0577 19.0872C29.1225 19.0631 29.229 19.0632 29.2336 18.9725C28.9763 18.9499 28.7174 18.9685 28.4596 18.9625C28.1333 18.9661 27.8062 18.9606 27.4796 18.961Z" fill="white"/>
<path d="M35.9971 17.0022C35.7513 17.0291 35.5129 17.106 35.27 17.152C34.6085 17.3002 33.9462 17.4452 33.285 17.5947C33.2467 17.5944 33.1799 17.6476 33.2327 17.6808C33.3875 17.7382 33.5688 17.7528 33.6869 17.883C33.8468 18.0305 33.8659 18.2587 33.8559 18.4629C33.8517 18.6545 33.8531 18.8464 33.8562 19.038C33.8519 19.3425 33.8525 19.6474 33.8562 19.9522C33.8494 20.1392 33.8559 20.3265 33.8537 20.5138C33.5642 20.2713 33.2758 20.0271 32.9858 19.7852C32.6874 19.5321 32.3868 19.2816 32.0876 19.0294C31.7248 18.7228 31.3597 18.4188 30.9974 18.1117C30.6091 18.1681 30.2214 18.2278 29.8329 18.283C29.7721 18.3024 29.6453 18.275 29.6567 18.3725C29.7546 18.4603 29.9059 18.4363 30.0187 18.5001C30.2171 18.5867 30.3205 18.8092 30.3002 19.0191C30.2976 19.3131 30.2977 19.6073 30.2994 19.9013C30.2988 20.1504 30.2968 20.3997 30.2994 20.6488C30.2979 20.8778 30.2974 21.1069 30.2988 21.336C30.2979 21.5373 30.2979 21.7386 30.2979 21.9402C30.3065 22.1004 30.2965 22.2648 30.2237 22.4109C30.1437 22.5585 30.0199 22.682 29.8671 22.7529C29.8 22.7907 29.7193 22.8095 29.665 22.8661C29.6385 22.9356 29.7309 22.9268 29.7729 22.9285C29.9465 22.9248 30.1207 22.9342 30.2942 22.9234H30.3105C30.7678 22.9342 31.226 22.9248 31.684 22.9279C31.9335 22.9225 32.1841 22.9388 32.4331 22.9196C32.4796 22.8662 32.4025 22.8307 32.3637 22.8121C32.2158 22.7475 32.0691 22.6691 31.9675 22.5396C31.8476 22.3874 31.7919 22.1924 31.809 21.9994C31.8093 21.8441 31.8084 21.6885 31.809 21.533C31.8093 21.2579 31.8087 20.9825 31.8087 20.7071C31.809 20.4758 31.8096 20.2445 31.8087 20.0134C31.8096 19.863 31.8084 19.7129 31.809 19.5627C31.9335 19.6657 32.0551 19.7714 32.1802 19.8735C32.376 20.0397 32.5718 20.2059 32.7697 20.3697C33.1305 20.6763 33.4948 20.9785 33.8548 21.2856C33.8548 21.3054 33.8545 21.3449 33.8542 21.3646C33.8631 21.5868 33.8859 21.8115 33.953 22.0243C33.9893 22.159 34.0398 22.2899 34.1043 22.414C34.1774 22.5596 34.2671 22.6974 34.375 22.8198C34.5942 23.0795 34.8777 23.2848 35.1918 23.4144C35.2446 23.4355 35.3299 23.4578 35.3539 23.3855C35.3771 23.1004 35.3611 22.813 35.3622 22.527C35.3696 22.2084 35.3616 21.8896 35.3645 21.571C35.3619 21.2256 35.3711 20.8796 35.3588 20.5347C35.3719 20.1315 35.3633 19.7272 35.3625 19.3237C35.3687 18.8641 35.3625 18.4042 35.3653 17.9447C35.3765 17.6156 35.5966 17.3276 35.8681 17.1586C35.9166 17.114 36.0188 17.0843 35.9971 17.0022Z" fill="white"/>
<path d="M11.531 24.209C11.1396 24.2119 10.7482 24.2068 10.3571 24.2116C10.3622 24.284 10.4496 24.2782 10.4999 24.3037C10.6201 24.3374 10.7254 24.4467 10.7223 24.5768C10.7231 24.9111 10.7228 25.2454 10.7226 25.5797C10.7274 25.7112 10.6223 25.8236 10.5004 25.8573C10.4484 25.8819 10.3665 25.8779 10.3542 25.9486C10.7465 25.9577 11.139 25.9491 11.5316 25.9531C11.5793 25.9463 11.6441 25.9697 11.6755 25.9197C11.6155 25.8865 11.5499 25.8673 11.4862 25.8439C11.3797 25.8024 11.2961 25.6966 11.3004 25.5794C11.2987 25.2645 11.3012 24.9497 11.2992 24.6348C11.2946 24.5482 11.3103 24.4555 11.3751 24.3926C11.4534 24.3028 11.5813 24.3009 11.6763 24.2385C11.6398 24.1951 11.5793 24.2139 11.531 24.209Z" fill="white"/>
<path d="M13.967 24.2054C13.6683 24.2174 13.3691 24.2033 13.0705 24.2125L13.0785 24.2583C13.2007 24.3054 13.3386 24.3766 13.3526 24.5245C13.3623 24.8762 13.3546 25.2285 13.3566 25.5805C13.3614 25.7081 13.2615 25.8185 13.1439 25.8542C13.0877 25.8785 13.012 25.8797 12.9832 25.9429C13.1833 25.9638 13.3854 25.9466 13.5867 25.9528C13.6444 25.9474 13.714 25.9689 13.7611 25.9246C13.6972 25.8725 13.6101 25.8428 13.5707 25.7656C13.5276 25.6924 13.5259 25.6048 13.5264 25.5228C13.5284 25.2128 13.5247 24.9031 13.5281 24.5934C13.5935 24.7169 13.6329 24.8545 13.7074 24.9726L13.6991 24.9983C13.708 25.01 13.7254 25.0335 13.7343 25.0452C13.863 25.3524 14.0052 25.6537 14.1365 25.96C14.2199 25.9191 14.2661 25.8348 14.303 25.7535C14.4706 25.3781 14.6373 25.002 14.806 24.6268C14.8068 24.9348 14.8054 25.2428 14.8066 25.5508C14.8088 25.648 14.79 25.7547 14.7175 25.8247C14.6727 25.8682 14.5902 25.8776 14.5813 25.9497C14.9253 25.956 15.2696 25.95 15.6136 25.9531C15.6613 25.9454 15.7287 25.9717 15.7584 25.9188C15.671 25.8676 15.5628 25.8599 15.4846 25.7927C15.4221 25.7413 15.3815 25.6623 15.3841 25.5808C15.3832 25.2463 15.383 24.9117 15.3838 24.5774C15.3813 24.463 15.4492 24.3475 15.5577 24.3063C15.6034 24.2817 15.6716 24.2748 15.6802 24.2125C15.3895 24.2062 15.0986 24.2128 14.808 24.2088C14.665 24.5202 14.5291 24.8348 14.3886 25.147C14.2462 24.8342 14.1108 24.5176 13.967 24.2054Z" fill="white"/>
<path d="M17.2583 24.2093C17.2183 24.2092 17.1782 24.2107 17.1435 24.2328C17.19 24.2697 17.2454 24.2914 17.2988 24.3166C17.3964 24.3623 17.4535 24.4722 17.4512 24.5782C17.4521 24.9117 17.4515 25.2454 17.4512 25.5791C17.4566 25.7095 17.3536 25.821 17.2334 25.8559C17.1812 25.8822 17.0932 25.8762 17.085 25.9506C17.5218 25.9534 17.9585 25.9534 18.3953 25.9509C18.3908 25.8842 18.3185 25.8845 18.2714 25.8642C18.1558 25.835 18.047 25.7447 18.0319 25.6212C18.0242 25.5036 18.0311 25.3858 18.0285 25.2682C18.2215 25.2682 18.4224 25.2777 18.6043 25.2016C18.7642 25.1396 18.9209 25.0298 18.9814 24.8625C19.0345 24.7203 18.9837 24.5571 18.8792 24.4524C18.7145 24.2837 18.4719 24.2131 18.2412 24.2102C17.9269 24.2088 17.6122 24.211 17.2979 24.2093C17.2848 24.2096 17.2716 24.2094 17.2583 24.2093ZM18.0293 24.3314C18.1958 24.3409 18.3437 24.4615 18.3896 24.6214C18.4373 24.7724 18.3816 24.9443 18.264 25.0478C18.2286 25.0652 18.1963 25.0873 18.1641 25.1096C18.1201 25.1244 18.0753 25.135 18.0296 25.1416C18.0282 24.8713 18.0288 24.6014 18.0293 24.3314Z" fill="white"/>
<path d="M21.2599 24.1682C21.2854 24.2262 21.311 24.2846 21.3356 24.3435C21.2682 24.4896 21.2026 24.6363 21.1395 24.7841C21.1269 24.8119 21.1141 24.8393 21.1015 24.8671C20.9796 25.1385 20.8606 25.411 20.7381 25.6821C20.7021 25.763 20.6356 25.8322 20.5491 25.8565C20.496 25.8811 20.4143 25.8779 20.3989 25.9483C20.6116 25.9574 20.8249 25.9494 21.0375 25.9531C21.0855 25.9463 21.1506 25.97 21.182 25.9197C21.0995 25.8602 20.9459 25.8731 20.9245 25.7515C20.9302 25.6171 21.0118 25.5013 21.0618 25.3798C21.3076 25.3838 21.5534 25.3795 21.7995 25.3821C21.8417 25.4864 21.898 25.5857 21.93 25.6941C21.9511 25.7578 21.9154 25.8313 21.8501 25.8496C21.7927 25.8802 21.699 25.8722 21.683 25.9506C22.0713 25.952 22.4599 25.9568 22.8481 25.948C22.8313 25.8779 22.7493 25.8805 22.6959 25.8556C22.6 25.8296 22.5341 25.7472 22.4987 25.658C22.2786 25.1613 22.0573 24.6649 21.8366 24.1682C21.6442 24.1679 21.4521 24.1679 21.2599 24.1682ZM21.4286 24.5491C21.5266 24.7698 21.6251 24.99 21.7227 25.2111H21.1346C21.2322 24.9903 21.3302 24.7695 21.4286 24.5491Z" fill="white"/>
<path d="M25.2615 24.2095C25.0652 24.2085 24.8691 24.2551 24.6989 24.3552C24.4722 24.4844 24.2963 24.7144 24.2644 24.9774C24.2418 25.1233 24.2752 25.2697 24.3263 25.4058C24.3329 25.4152 24.3466 25.4341 24.3534 25.4435C24.5079 25.7475 24.8445 25.928 25.1773 25.9491C25.4668 25.968 25.7869 25.8994 25.9873 25.6746C26.0572 25.5897 26.1323 25.4907 26.1274 25.3749C26.0572 25.4441 26.0144 25.5373 25.9342 25.5968C25.6949 25.7981 25.3089 25.7707 25.0885 25.5539C24.7931 25.2711 24.8336 24.7198 25.1656 24.4827C25.3746 24.3346 25.6855 24.3666 25.8648 24.5482C25.949 24.624 25.9936 24.7304 26.0598 24.8204C26.0858 24.6517 26.0746 24.4781 26.0415 24.3114C25.9736 24.3171 25.9071 24.3355 25.8388 24.3372C25.7595 24.3214 25.6864 24.2843 25.6096 24.2614C25.4972 24.2278 25.3793 24.2101 25.2615 24.2095Z" fill="white"/>
<path d="M27.6751 24.2096C27.6745 24.3849 27.6759 24.5599 27.6742 24.7352C27.7085 24.7387 27.7427 24.7355 27.751 24.6946C27.7884 24.6134 27.8195 24.5222 27.8997 24.4724C28.0356 24.3729 28.2126 24.4124 28.3694 24.4052C28.3691 24.797 28.3699 25.1885 28.3691 25.5802C28.3739 25.7132 28.2663 25.8259 28.1433 25.8588C28.0925 25.8819 28.0139 25.8805 27.9997 25.9474C28.4399 25.9526 28.8818 25.962 29.3215 25.9426C29.2615 25.8488 29.1227 25.8728 29.0477 25.793C28.8807 25.6554 28.972 25.419 28.9432 25.2348C28.9429 25.2219 28.9423 25.1965 28.9418 25.1836C28.9535 24.9245 28.9432 24.6646 28.9469 24.4052C29.1159 24.4104 29.3152 24.3703 29.4494 24.5022C29.5353 24.5657 29.5242 24.7029 29.6224 24.7515C29.6558 24.5737 29.629 24.3898 29.6372 24.2096C28.9832 24.2093 28.3291 24.2099 27.6751 24.2096Z" fill="white"/>
<defs>
<linearGradient id="paint0_linear_1404_2845" x1="20" y1="0" x2="20" y2="40" gradientUnits="userSpaceOnUse">
<stop stop-color="#122246"/>
<stop offset="1" stop-color="#3A96DD"/>
</linearGradient>
</defs>
</svg>
