<svg width="41" height="40" viewBox="0 0 41 40" fill="none" xmlns="http://www.w3.org/2000/svg">
<path d="M38.2103 13.7227C37.9864 13.1797 37.7338 12.6478 37.4525 12.127C37.2943 11.832 37.1263 11.5391 36.9486 11.252C36.1849 10.0137 35.2533 8.84375 34.1537 7.74414C30.5541 4.14453 26.2064 2.34375 21.1146 2.34375C16.0228 2.34375 11.6771 4.14453 8.07751 7.74414C4.47791 11.3438 2.67712 15.6895 2.67712 20.7812C2.67712 25.873 4.47791 30.2207 8.07751 33.8203C11.6771 37.4199 16.0228 39.2188 21.1146 39.2188C26.2064 39.2188 30.5541 37.4199 34.1537 33.8203C36.1361 31.8359 37.5736 29.625 38.4642 27.1895C39.1888 25.2031 39.5521 23.0684 39.5521 20.7812C39.5521 19.0273 39.3392 17.3613 38.9115 15.7832C38.8627 15.6055 38.8119 15.4277 38.7592 15.252C38.599 14.7324 38.4154 14.2227 38.2103 13.7227Z" fill="black" fill-opacity="0.098039"/>
<path d="M33.5033 7.0957C33.4603 7.05078 33.4174 7.00781 33.3744 6.96484C32.0326 5.62305 30.5892 4.5332 29.0424 3.69336C28.7806 3.55078 28.517 3.41602 28.2357 3.28125C26.8666 2.62695 25.4037 2.1543 23.8646 1.875C23.7435 1.85352 23.6224 1.83203 23.4994 1.8125C23.4877 1.81055 23.476 1.80859 23.4662 1.80664C23.3021 1.78125 23.1381 1.75781 22.9681 1.73438C22.8099 1.71484 22.6478 1.69531 22.4838 1.67773C22.3431 1.66211 22.2025 1.64844 22.0541 1.63672C21.8802 1.62109 21.6967 1.60742 21.5111 1.59766C21.4935 1.5957 21.4779 1.5957 21.4603 1.5957C21.0892 1.57422 20.7142 1.56445 20.3353 1.56445C19.9701 1.56445 19.6088 1.57422 19.2455 1.59375C19.1791 1.59766 19.1127 1.60156 19.0463 1.60547C18.9037 1.61328 18.7611 1.62305 18.6166 1.63672C18.3783 1.65625 18.14 1.67969 17.9037 1.70898C17.8334 1.7168 17.765 1.72461 17.7006 1.73438C15.9974 1.95898 14.392 2.40625 12.8842 3.07617C12.7338 3.14258 12.5834 3.21094 12.433 3.2832C10.5775 4.16797 8.86853 5.39453 7.29822 6.96484C7.27673 6.98633 7.2572 7.00586 7.23767 7.02539C7.21228 7.05078 7.18884 7.07422 7.1654 7.09961C5.58533 8.70703 4.36267 10.4609 3.49353 12.3633C3.18689 13.0332 2.92712 13.7148 2.71033 14.4141C2.16866 16.1641 1.89783 18.0267 1.89783 20.002C1.89783 24.9062 3.56775 29.1191 6.89587 32.627C6.99158 32.7285 7.07751 32.8184 7.1654 32.9082C7.18884 32.9316 7.21228 32.9551 7.23767 32.9805L7.29822 33.041C8.87634 34.6172 10.597 35.8496 12.433 36.7227C12.5873 36.7949 12.7357 36.8633 12.8842 36.9297C13.101 37.0254 13.306 37.1113 13.5131 37.1934C13.765 37.2949 14.0052 37.3828 14.2474 37.4648C15.3646 37.8477 16.5209 38.1172 17.7006 38.2715C17.7748 38.2812 17.8392 38.2891 17.9037 38.2969C18.3529 38.3516 18.7963 38.3887 19.2455 38.4121H19.2611C19.5931 38.4297 19.9095 38.4395 20.2181 38.4395H20.3353C20.7162 38.4395 21.0912 38.4297 21.4603 38.4121C21.4779 38.4102 21.4935 38.4102 21.5111 38.4082C21.6088 38.4023 21.6967 38.3965 21.7826 38.3906C22.1849 38.3613 22.5814 38.3223 22.9681 38.2715C23.2728 38.2305 23.5717 38.1836 23.8646 38.1309C23.9388 38.1172 24.0072 38.1035 24.0756 38.0898C24.3861 38.0293 24.6928 37.9609 24.9896 37.8887C26.1185 37.6055 27.2006 37.2168 28.2357 36.7266C28.5092 36.5938 28.7767 36.457 29.0424 36.3145C30.0267 35.7793 30.9701 35.1426 31.8705 34.4062C32.3881 33.9805 32.8881 33.5273 33.3744 33.041L33.5033 32.9121C33.5287 32.8867 33.5521 32.8613 33.5775 32.8359C33.6439 32.7676 33.7103 32.6973 33.7767 32.627C34.5756 31.7832 35.2748 30.9043 35.8783 29.9883C36.5638 28.9512 37.1263 27.8613 37.5677 26.7207C37.722 26.3203 37.8627 25.9141 37.9877 25.5039C38.4447 23.9941 38.7025 22.4023 38.7611 20.7246C38.7689 20.4883 38.7728 20.2461 38.7728 20.002C38.7728 19.9766 38.7728 19.9492 38.7728 19.9238C38.7728 19.9102 38.7728 19.8984 38.7728 19.8848C38.765 18.2969 38.5795 16.7793 38.2142 15.3145C38.1713 15.1445 38.1224 14.9629 38.0717 14.7832C37.9838 14.4766 37.8861 14.166 37.7767 13.8535C37.765 13.8242 37.7533 13.7891 37.7416 13.7539C37.5756 13.2852 37.39 12.8242 37.1791 12.3633C37.0736 12.1309 36.9584 11.8945 36.8373 11.6582C36.6888 11.3691 36.5267 11.0742 36.3568 10.7832C35.6127 9.51758 34.6888 8.31445 33.5775 7.17188C33.5521 7.14648 33.5287 7.12109 33.5033 7.0957Z" fill="#68471F"/>
<path d="M30.9994 9.58203L27.4008 10.7861L20.392 3.77734L15.2885 13.6064L4.24353 20.0801L11.017 26.8535L9.75525 30.4199L17.5922 38.2568L17.5931 38.2578C17.6342 38.2637 17.6674 38.2676 17.7006 38.2715C17.7748 38.2812 17.8392 38.2891 17.9037 38.2969C18.3529 38.3516 18.7963 38.3887 19.2455 38.4121H19.2611C19.5931 38.4297 19.9095 38.4395 20.2181 38.4395C20.2572 38.4395 20.2963 38.4395 20.3353 38.4395C20.7162 38.4395 21.0912 38.4297 21.4603 38.4121C21.4779 38.4102 21.4935 38.4102 21.5111 38.4082C21.6088 38.4023 21.6967 38.3965 21.7826 38.3906C22.1849 38.3613 22.5814 38.3223 22.9681 38.2715C23.2728 38.2305 23.5717 38.1836 23.8646 38.1309C23.9388 38.1172 24.0072 38.1035 24.0756 38.0898C24.3861 38.0293 24.6928 37.9609 24.9896 37.8887C26.1185 37.6055 27.2006 37.2168 28.2357 36.7266C28.5092 36.5938 28.7767 36.457 29.0424 36.3145C30.0267 35.7793 30.9701 35.1426 31.8705 34.4062C32.3881 33.9805 32.8881 33.5273 33.3744 33.041L33.5033 32.9121C33.5287 32.8867 33.5521 32.8613 33.5775 32.8359C33.6439 32.7676 33.7103 32.6973 33.7767 32.627C34.5756 31.7832 35.2748 30.9043 35.8783 29.9883C36.5638 28.9512 37.1263 27.8613 37.5677 26.7207C37.722 26.3203 37.8627 25.9141 37.9877 25.5039C38.4447 23.9941 38.7025 22.4023 38.7611 20.7246C38.7689 20.4883 38.7728 20.2461 38.7728 20.002C38.7728 19.9766 38.7728 19.9492 38.7728 19.9238C38.7728 19.9102 38.7728 19.8984 38.7728 19.8848C38.7689 18.9551 38.7025 18.0488 38.5756 17.1582L38.5746 17.1572L30.9994 9.58203Z" fill="black" fill-opacity="0.2"/>
<path d="M4.29041 19.9277L4.17322 20.002L4.18298 20.0078H14.4154L14.4213 20.002L10.4447 16.0254L4.29041 19.9277ZM20.3978 3.78711L20.392 3.77734L20.3177 3.89453L16.4154 10.0488L20.392 14.0254L20.3978 14.0195V3.78711Z" fill="#E2BD7C"/>
<path d="M4.18298 20.0078L4.42712 20.1621L10.4447 23.9785L14.4154 20.0078H4.18298ZM20.5521 4.03125L20.3978 3.78711V14.0195L24.3685 10.0488L20.5521 4.03125Z" fill="#BEA371"/>
<path d="M36.6322 20.002L36.515 19.9277L30.3607 16.0254L26.3842 20.002L26.39 20.0078H36.6224L36.6322 20.002ZM20.3978 25.9941L20.392 25.9883L16.4154 29.9648L20.3177 36.1191L20.392 36.2363L20.3978 36.2266V25.9941Z" fill="#917643"/>
<path d="M36.3783 20.1621L36.6224 20.0078H26.39L30.3607 23.9785L36.3783 20.1621ZM24.3685 29.9648L20.3978 25.9941V36.2266L20.5521 35.9824L24.3685 29.9648Z" fill="#644725"/>
<path d="M30.9994 9.58203L30.8939 9.60352L25.3939 10.8359V15.1875H25.3998L30.9974 9.58984L30.9994 9.58203ZM15.3431 14.875V14.8691L9.74548 9.27148L9.73767 9.26953L9.75916 9.375L10.9916 14.875H15.3431Z" fill="#C2A46C"/>
<path d="M30.9467 9.80859L30.9974 9.58984L25.3998 15.1875H29.7455L30.9467 9.80859ZM9.68494 30.6191L9.68298 30.627L9.78845 30.6055L15.2885 29.373V25.0215H15.2826L9.68494 30.6191ZM30.7748 30.584L30.7826 30.5859L30.7611 30.4805L29.5287 24.9805H25.1771V24.9863L30.7748 30.584Z" fill="#8E7548"/>
<path d="M9.73572 30.4004L9.68494 30.6191L15.2826 25.0215H10.9369L9.73572 30.4004Z" fill="#C6A566"/>
<path d="M30.556 30.5332L30.7748 30.584L25.1771 24.9863V29.332L30.556 30.5332Z" fill="#644725"/>
<path d="M15.3431 14.8691V10.5234L9.96423 9.32227L9.74548 9.27148L15.3431 14.8691Z" fill="#E2BD7C"/>
<path d="M27.1302 13.1973L28.1791 12.1484C26.1459 10.1152 23.7142 9.03516 20.8881 8.91211C20.7064 8.9043 20.5209 8.90039 20.3334 8.90039C20.1478 8.90039 19.9642 8.9043 19.7826 8.91211C16.9564 9.03516 14.5248 10.1152 12.4916 12.1484C10.3256 14.3145 9.24158 16.9316 9.23962 19.9961C9.23962 23.0586 10.3236 25.6719 12.4896 27.8379L13.5404 26.7871C11.6635 24.9102 10.726 22.6465 10.726 19.9922C10.726 17.3379 11.6635 15.0742 13.5404 13.1973C15.4174 11.3203 17.681 10.3828 20.3353 10.3828C22.9896 10.3828 25.2533 11.3203 27.1302 13.1973Z" fill="#D9BB87"/>
<path d="M28.1791 12.1484L27.1302 13.1973C29.0072 15.0742 29.9447 17.3379 29.9447 19.9922C29.9447 22.6465 29.0072 24.9102 27.1302 26.7871C25.2533 28.6641 22.9896 29.6016 20.3353 29.6016C17.681 29.6016 15.4174 28.6641 13.5404 26.7871L12.4896 27.8379C14.5248 29.873 16.9564 30.9531 19.7826 31.0762C19.9642 31.084 20.1498 31.0879 20.3353 31.0898C20.5209 31.0879 20.7064 31.084 20.8881 31.0762C23.7142 30.9531 26.1459 29.873 28.181 27.8379C30.347 25.6719 31.4291 23.0566 31.4291 19.9941C31.4291 16.9297 30.3451 14.3145 28.1791 12.1484Z" fill="#BEA371"/>
<path d="M27.1302 26.7871C29.0072 24.9102 29.9447 22.6465 29.9447 19.9922C29.9447 17.3379 29.0072 15.0742 27.1302 13.1973L13.5404 26.7871C15.4174 28.6641 17.681 29.6016 20.3353 29.6016C22.9896 29.6016 25.2533 28.6641 27.1302 26.7871Z" fill="#432F18"/>
<path d="M20.3353 10.3828C17.681 10.3828 15.4174 11.3203 13.5404 13.1973C11.6635 15.0742 10.726 17.3379 10.726 19.9922C10.726 22.6465 11.6635 24.9102 13.5404 26.7871L27.1302 13.1973C25.2533 11.3203 22.9896 10.3828 20.3353 10.3828Z" fill="#50381D"/>
<path d="M18.0013 14.0823H18.0023C17.1147 14.3897 16.339 14.8763 15.6783 15.543C15.0126 16.2149 14.5424 16.9864 14.2655 17.8557C13.9703 18.7841 13.9285 19.7236 14.1413 20.6713V20.6703H14.1423C14.3205 21.4755 14.6075 22.1555 15.0014 22.7102L15.0009 22.7107L15.0019 22.7128L15.0024 22.7133C15.3954 23.2752 15.8728 23.7017 16.4326 23.9928L16.4306 23.9918L16.4321 23.9923L16.4316 23.9918C16.9569 24.2707 17.5218 24.4163 18.1234 24.4275L18.1229 24.428H18.1239L18.1244 24.4285C18.6843 24.4407 19.2258 24.3349 19.748 24.114L19.7475 24.1134L19.749 24.1129C20.2722 23.889 20.7181 23.5755 21.0856 23.1693C21.4877 22.7265 21.7574 22.2267 21.8948 21.6699L21.8943 21.6694L21.8948 21.6679C22.0455 21.0714 22.0282 20.4555 21.8429 19.8183L21.8424 19.8188V19.8178L21.8429 19.8183C21.6699 19.1994 21.3248 18.5856 20.8087 17.9799C20.6011 17.7377 20.3374 17.6043 20.0188 17.5809C19.6992 17.5565 19.4192 17.6471 19.178 17.8537C18.9357 18.0614 18.8024 18.323 18.779 18.6416C18.7546 18.9612 18.8451 19.2411 19.0508 19.4814C19.3297 19.8071 19.52 20.1339 19.6228 20.4627L19.6223 20.4632V20.4642L19.6228 20.4647C19.688 20.6886 19.6971 20.9054 19.6503 21.1152C19.6493 21.1162 19.6493 21.1162 19.6493 21.1162C19.6035 21.3004 19.5129 21.4663 19.3785 21.6109L19.378 21.6114L19.376 21.6134L19.3765 21.6129C19.2289 21.7727 19.0518 21.8969 18.8451 21.9855C18.8441 21.9845 18.8441 21.9845 18.8431 21.9855C18.6273 22.0771 18.4023 22.1209 18.1713 22.1158L18.1708 22.1163H18.1697L18.1703 22.1168C17.9361 22.1127 17.7162 22.0557 17.5127 21.9478H17.5117L17.5101 21.9473L17.5106 21.9478C17.2724 21.8175 17.0668 21.6302 16.8968 21.3869L16.8963 21.3864L16.8973 21.3884L16.8978 21.3879C16.6719 21.0541 16.5049 20.6469 16.398 20.1675H16.397V20.1665C16.2759 19.6239 16.2993 19.0874 16.4683 18.5561L16.4688 18.5566L16.4693 18.5571C16.6342 18.0359 16.9182 17.5748 17.3192 17.1717C17.7295 16.7594 18.2089 16.4571 18.7596 16.2668H18.7586H18.7576C19.3388 16.0662 19.9374 16.0113 20.5553 16.1039H20.5573C20.9685 16.167 21.3665 16.2983 21.7472 16.4978L21.7452 16.4968L21.7467 16.4973L21.7462 16.4968C22.1259 16.6953 22.47 16.9498 22.7774 17.2592C22.7784 17.2602 22.7784 17.2602 22.7794 17.2613C23.0889 17.5727 23.3433 17.9209 23.5429 18.3057L23.5424 18.3062L23.5434 18.3082L23.5439 18.3087C23.7465 18.6986 23.8819 19.1068 23.949 19.5323L23.9485 19.5328L23.949 19.5333H23.95C24.0915 20.479 23.8971 21.39 23.3668 22.2664H23.3658L23.3663 22.2659L23.3668 22.2664C22.6797 23.3709 21.562 24.3196 20.0137 25.1125C19.7297 25.2581 19.5394 25.4831 19.4416 25.7864C19.3439 26.0898 19.3673 26.384 19.5129 26.6679C19.6564 26.952 19.8814 27.1423 20.1847 27.24C20.4881 27.3377 20.7822 27.3143 21.0673 27.1698C23.0604 26.1498 24.4865 24.9131 25.3456 23.4615C26.1742 22.0893 26.4704 20.6611 26.2343 19.177H26.2333L26.2338 19.1775L26.2343 19.177C26.1294 18.5041 25.9167 17.8598 25.596 17.2419C25.595 17.2409 25.595 17.2409 25.595 17.2409C25.2866 16.6475 24.8947 16.111 24.4183 15.6306L24.4168 15.629L24.4173 15.6295C23.9399 15.1501 23.4065 14.7572 22.8191 14.4488H22.8181L22.8166 14.4482L22.8171 14.4488C22.2033 14.1281 21.565 13.9174 20.9014 13.8176H20.9003L20.8978 13.8171L20.8983 13.8166C19.9038 13.669 18.9388 13.7586 18.0023 14.0823" fill="#9FE6FF"/>
<mask id="mask0_1404_2133" style="mask-type:luminance" maskUnits="userSpaceOnUse" x="14" y="13" width="13" height="15">
<path d="M18.0013 14.0823H18.0023C17.1147 14.3897 16.339 14.8763 15.6783 15.543C15.0126 16.2149 14.5424 16.9864 14.2655 17.8557C13.9703 18.7841 13.9285 19.7236 14.1413 20.6713V20.6703H14.1423C14.3205 21.4755 14.6075 22.1555 15.0014 22.7102L15.0009 22.7107L15.0019 22.7128L15.0024 22.7133C15.3954 23.2752 15.8728 23.7017 16.4326 23.9928L16.4306 23.9918L16.4321 23.9923L16.4316 23.9918C16.9569 24.2707 17.5218 24.4163 18.1234 24.4275L18.1229 24.428H18.1239L18.1244 24.4285C18.6843 24.4407 19.2258 24.3349 19.748 24.114L19.7475 24.1134L19.749 24.1129C20.2722 23.889 20.7181 23.5755 21.0856 23.1693C21.4877 22.7265 21.7574 22.2267 21.8948 21.6699L21.8943 21.6694L21.8948 21.6679C22.0455 21.0714 22.0282 20.4555 21.8429 19.8183L21.8424 19.8188V19.8178L21.8429 19.8183C21.6699 19.1994 21.3248 18.5856 20.8087 17.9799C20.6011 17.7377 20.3374 17.6043 20.0188 17.5809C19.6992 17.5565 19.4192 17.6471 19.178 17.8537C18.9357 18.0614 18.8024 18.323 18.779 18.6416C18.7546 18.9612 18.8451 19.2411 19.0508 19.4814C19.3297 19.8071 19.52 20.1339 19.6228 20.4627L19.6223 20.4632V20.4642L19.6228 20.4647C19.688 20.6886 19.6971 20.9054 19.6503 21.1152C19.6493 21.1162 19.6493 21.1162 19.6493 21.1162C19.6035 21.3004 19.5129 21.4663 19.3785 21.6109L19.378 21.6114L19.376 21.6134L19.3765 21.6129C19.2289 21.7727 19.0518 21.8969 18.8451 21.9855C18.8441 21.9845 18.8441 21.9845 18.8431 21.9855C18.6273 22.0771 18.4023 22.1209 18.1713 22.1158L18.1708 22.1163H18.1697L18.1703 22.1168C17.9361 22.1127 17.7162 22.0557 17.5127 21.9478H17.5117L17.5101 21.9473L17.5106 21.9478C17.2724 21.8175 17.0668 21.6302 16.8968 21.3869L16.8963 21.3864L16.8973 21.3884L16.8978 21.3879C16.6719 21.0541 16.5049 20.6469 16.398 20.1675H16.397V20.1665C16.2759 19.6239 16.2993 19.0874 16.4683 18.5561L16.4688 18.5566L16.4693 18.5571C16.6342 18.0359 16.9182 17.5748 17.3192 17.1717C17.7295 16.7594 18.2089 16.4571 18.7596 16.2668H18.7586H18.7576C19.3388 16.0662 19.9374 16.0113 20.5553 16.1039H20.5573C20.9685 16.167 21.3665 16.2983 21.7472 16.4978L21.7452 16.4968L21.7467 16.4973L21.7462 16.4968C22.1259 16.6953 22.47 16.9498 22.7774 17.2592C22.7784 17.2602 22.7784 17.2602 22.7794 17.2613C23.0889 17.5727 23.3433 17.9209 23.5429 18.3057L23.5424 18.3062L23.5434 18.3082L23.5439 18.3087C23.7465 18.6986 23.8819 19.1068 23.949 19.5323L23.9485 19.5328L23.949 19.5333H23.95C24.0915 20.479 23.8971 21.39 23.3668 22.2664H23.3658L23.3663 22.2659L23.3668 22.2664C22.6797 23.3709 21.562 24.3196 20.0137 25.1125C19.7297 25.2581 19.5394 25.4831 19.4416 25.7864C19.3439 26.0898 19.3673 26.384 19.5129 26.6679C19.6564 26.952 19.8814 27.1423 20.1847 27.24C20.4881 27.3377 20.7822 27.3143 21.0673 27.1698C23.0604 26.1498 24.4865 24.9131 25.3456 23.4615C26.1742 22.0893 26.4704 20.6611 26.2343 19.177H26.2333L26.2338 19.1775L26.2343 19.177C26.1294 18.5041 25.9167 17.8598 25.596 17.2419C25.595 17.2409 25.595 17.2409 25.595 17.2409C25.2866 16.6475 24.8947 16.111 24.4183 15.6306L24.4168 15.629L24.4173 15.6295C23.9399 15.1501 23.4065 14.7572 22.8191 14.4488H22.8181L22.8166 14.4482L22.8171 14.4488C22.2033 14.1281 21.565 13.9174 20.9014 13.8176H20.9003L20.8978 13.8171L20.8983 13.8166C19.9038 13.669 18.9388 13.7586 18.0023 14.0823" fill="white"/>
</mask>
<g mask="url(#mask0_1404_2133)">
<path d="M15.9216 19.9781C15.8137 19.9781 15.7201 20.0168 15.6437 20.0931C15.5674 20.1695 15.5287 20.2631 15.5277 20.3721C15.5287 20.481 15.5674 20.5746 15.6437 20.651C15.7201 20.7273 15.8137 20.766 15.9216 20.766C16.0316 20.766 16.1252 20.7273 16.2016 20.651C16.2779 20.5746 16.3166 20.481 16.3156 20.3721C16.3166 20.2631 16.2779 20.1695 16.2016 20.0931C16.1252 20.0168 16.0316 19.9781 15.9216 19.9781ZM16.7502 18.2639C16.5283 18.2639 16.338 18.3423 16.1802 18.5001C16.0224 18.6579 15.944 18.8482 15.944 19.0701C15.944 19.292 16.0224 19.4824 16.1802 19.6402C16.338 19.7979 16.5283 19.8763 16.7502 19.8763C16.9721 19.8763 17.1625 19.7979 17.3202 19.6402C17.4781 19.4824 17.5564 19.292 17.5564 19.0701C17.5564 18.8482 17.4781 18.6579 17.3202 18.5001C17.1625 18.3423 16.9721 18.2639 16.7502 18.2639ZM18.1092 21.3472C17.9433 21.5132 17.8598 21.7127 17.8598 21.9468C17.8598 22.1809 17.9433 22.3804 18.1092 22.5464C18.2751 22.7123 18.4736 22.7947 18.7077 22.7947C18.9418 22.7947 19.1424 22.7123 19.3083 22.5464C19.4742 22.3804 19.5556 22.1809 19.5556 21.9468C19.5556 21.7127 19.4742 21.5132 19.3083 21.3472C19.1424 21.1813 18.9418 21.0989 18.7077 21.0989C18.4736 21.0989 18.2751 21.1813 18.1092 21.3472ZM19.6941 21.9855C19.6951 22.0802 19.7287 22.1606 19.7949 22.2267C19.861 22.2929 19.9414 22.3265 20.0351 22.3265C20.1308 22.3265 20.2112 22.2929 20.2774 22.2267C20.3435 22.1606 20.3771 22.0802 20.3761 21.9855C20.3771 21.8908 20.3435 21.8104 20.2774 21.7442C20.2112 21.6781 20.1308 21.6445 20.0351 21.6445C19.9414 21.6445 19.861 21.6781 19.7949 21.7442C19.7287 21.8104 19.6951 21.8908 19.6941 21.9855ZM20.8209 22.355C20.9085 22.355 20.9848 22.3235 21.0469 22.2613C21.109 22.1992 21.1395 22.1239 21.1395 22.0364C21.1395 21.9488 21.109 21.8735 21.0469 21.8114C20.9848 21.7493 20.9085 21.7178 20.8209 21.7178C20.7334 21.7178 20.6591 21.7493 20.597 21.8114C20.5349 21.8735 20.5023 21.9488 20.5023 22.0364C20.5023 22.1239 20.5349 22.1992 20.597 22.2613C20.6591 22.3235 20.7334 22.355 20.8209 22.355ZM17.0475 22.1036C17.0475 22.0303 17.021 21.9672 16.9691 21.9153C16.9172 21.8633 16.854 21.8369 16.7808 21.8369C16.7075 21.8369 16.6444 21.8633 16.5924 21.9153C16.5405 21.9672 16.5141 22.0303 16.5141 22.1036C16.5141 22.1769 16.5405 22.24 16.5924 22.2919C16.6444 22.3438 16.7075 22.3702 16.7808 22.3702C16.854 22.3702 16.9172 22.3438 16.9691 22.2919C17.021 22.24 17.0475 22.1769 17.0475 22.1036ZM15.9104 21.4267C15.8809 21.3971 15.8463 21.3829 15.8036 21.3829C15.7608 21.3829 15.7262 21.3971 15.6967 21.4267C15.6672 21.4561 15.6529 21.4908 15.6529 21.5335C15.6529 21.5763 15.6672 21.6109 15.6967 21.6404C15.7262 21.6699 15.7608 21.6842 15.8036 21.6842C15.8463 21.6842 15.8809 21.6699 15.9104 21.6404C15.94 21.6109 15.9542 21.5763 15.9542 21.5335C15.9542 21.4908 15.94 21.4561 15.9104 21.4267ZM22.1249 15.6906C22.0241 15.7914 21.9732 15.9135 21.9722 16.0571C21.9732 16.2006 22.0241 16.3227 22.1249 16.4235C22.2257 16.5243 22.3478 16.5752 22.4903 16.5752C22.6349 16.5752 22.757 16.5243 22.8578 16.4235C22.9586 16.3227 23.0095 16.2006 23.0085 16.0571C23.0095 15.9135 22.9586 15.7914 22.8578 15.6906C22.757 15.5899 22.6349 15.539 22.4903 15.539C22.3478 15.539 22.2257 15.5899 22.1249 15.6906ZM24.1404 17.8486C24.1414 17.6461 24.0701 17.473 23.9266 17.3295C23.7831 17.186 23.6101 17.1147 23.4065 17.1147C23.2049 17.1147 23.0319 17.186 22.8883 17.3295C22.7448 17.473 22.6736 17.6461 22.6725 17.8486C22.6736 18.0512 22.7448 18.2242 22.8883 18.3678C23.0319 18.5113 23.2049 18.5826 23.4065 18.5826C23.6101 18.5826 23.7831 18.5113 23.9266 18.3678C24.0701 18.2242 24.1414 18.0512 24.1404 17.8486ZM24.5465 19.5333C24.5476 19.4651 24.5231 19.4061 24.4753 19.3582C24.4274 19.3104 24.3684 19.286 24.2992 19.286C24.232 19.286 24.1729 19.3104 24.1251 19.3582C24.0773 19.4061 24.0528 19.4651 24.0518 19.5333C24.0528 19.6015 24.0773 19.6605 24.1251 19.7084C24.1729 19.7562 24.232 19.7806 24.2992 19.7806C24.3684 19.7806 24.4274 19.7562 24.4753 19.7084C24.5231 19.6605 24.5476 19.6015 24.5465 19.5333ZM19.6136 17.8334C19.3826 18.0644 19.2665 18.3433 19.2665 18.6711C19.2665 18.7607 19.2757 18.8472 19.293 18.9297C19.1424 18.9724 19.007 19.0528 18.8879 19.1719C18.7026 19.3572 18.609 19.5811 18.609 19.8438C18.609 20.1064 18.7026 20.3303 18.8879 20.5156C19.0731 20.7009 19.2961 20.7935 19.5587 20.7935C19.7317 20.7935 19.8895 20.7538 20.029 20.6734C19.9974 20.7558 19.9811 20.8434 19.9811 20.937C19.9811 21.1406 20.0534 21.3147 20.1979 21.4592C20.3425 21.6038 20.5166 21.676 20.7201 21.676C20.9237 21.676 21.0978 21.6038 21.2424 21.4592C21.3869 21.3147 21.4592 21.1406 21.4592 20.937C21.4592 20.7335 21.3869 20.5594 21.2424 20.4148C21.0978 20.2703 20.9237 20.198 20.7201 20.198C20.6102 20.198 20.5094 20.2194 20.4168 20.2611C20.4769 20.1379 20.5084 20.0026 20.5094 19.855C20.8118 19.8417 21.0713 19.7267 21.2892 19.5089C21.5202 19.2778 21.6363 18.9989 21.6363 18.6711C21.6363 18.3433 21.5202 18.0644 21.2892 17.8334C21.0581 17.6023 20.7792 17.4862 20.4514 17.4862C20.1236 17.4862 19.8447 17.6023 19.6136 17.8334ZM21.2922 20.0066C21.2922 20.0758 21.3167 20.1349 21.3655 20.1838C21.4144 20.2326 21.4734 20.257 21.5426 20.257C21.6118 20.257 21.6709 20.2326 21.7197 20.1838C21.7686 20.1349 21.7931 20.0758 21.7931 20.0066C21.7931 19.9374 21.7686 19.8784 21.7197 19.8295C21.6709 19.7806 21.6118 19.7562 21.5426 19.7562C21.4734 19.7562 21.4144 19.7806 21.3655 19.8295C21.3167 19.8784 21.2922 19.9374 21.2922 20.0066ZM19.1281 22.8161C19.1281 22.8792 19.1515 22.9332 19.1963 22.978C19.2411 23.0228 19.294 23.0451 19.3571 23.0451C19.4202 23.0451 19.4752 23.0228 19.52 22.978C19.5648 22.9332 19.5862 22.8792 19.5862 22.8161C19.5862 22.753 19.5648 22.699 19.52 22.6543C19.4752 22.6095 19.4202 22.5871 19.3571 22.5871C19.294 22.5871 19.2411 22.6095 19.1963 22.6543C19.1515 22.699 19.1281 22.753 19.1281 22.8161ZM18.6761 23.4065C18.6772 23.375 18.666 23.3475 18.6436 23.3251C18.6212 23.3027 18.5937 23.2915 18.5611 23.2915C18.5306 23.2915 18.5031 23.3027 18.4807 23.3251C18.4583 23.3475 18.4471 23.375 18.4461 23.4065C18.4471 23.4381 18.4583 23.4656 18.4807 23.4879C18.5031 23.5103 18.5306 23.5215 18.5611 23.5215C18.5937 23.5215 18.6212 23.5103 18.6436 23.4879C18.666 23.4656 18.6772 23.4381 18.6761 23.4065ZM24.8692 18.3963C24.8692 18.2843 24.8305 18.1886 24.7522 18.1103C24.6738 18.0319 24.5771 17.9922 24.4651 17.9922C24.3531 17.9922 24.2585 18.0319 24.1801 18.1103C24.1017 18.1886 24.061 18.2843 24.061 18.3963C24.061 18.5083 24.1017 18.6039 24.1801 18.6823C24.2585 18.7607 24.3531 18.8004 24.4651 18.8004C24.5771 18.8004 24.6738 18.7607 24.7522 18.6823C24.8305 18.6039 24.8692 18.5083 24.8692 18.3963ZM20.199 15.5827C20.0578 15.5827 19.9374 15.6326 19.8376 15.7324C19.7379 15.8321 19.688 15.9533 19.687 16.0947C19.688 16.2362 19.7379 16.3574 19.8376 16.4571C19.9374 16.5569 20.0585 16.6068 20.199 16.6068C20.3415 16.6068 20.4626 16.5569 20.5624 16.4571C20.6621 16.3574 20.712 16.2362 20.711 16.0947C20.712 15.9533 20.6621 15.8321 20.5624 15.7324C20.4626 15.6326 20.3415 15.5827 20.199 15.5827ZM20.8677 15.5613C20.8128 15.5613 20.767 15.5807 20.7283 15.6194C20.6896 15.6581 20.6692 15.7049 20.6692 15.7598C20.6692 15.8148 20.6896 15.8616 20.7283 15.9003C20.767 15.939 20.8128 15.9583 20.8677 15.9583C20.9227 15.9583 20.9706 15.939 21.0092 15.9003C21.0479 15.8616 21.0662 15.8148 21.0662 15.7598C21.0662 15.7049 21.0479 15.6581 21.0092 15.6194C20.9706 15.5807 20.9227 15.5613 20.8677 15.5613ZM21.5467 15.6499C21.5467 15.5909 21.5274 15.541 21.4856 15.4992C21.4439 15.4575 21.393 15.4372 21.334 15.4372C21.2749 15.4372 21.2261 15.4575 21.1843 15.4992C21.1426 15.541 21.1212 15.5909 21.1212 15.6499C21.1212 15.709 21.1426 15.7588 21.1843 15.8006C21.2261 15.8423 21.2749 15.8626 21.334 15.8626C21.393 15.8626 21.4439 15.8423 21.4856 15.8006C21.5274 15.7588 21.5467 15.709 21.5467 15.6499Z" fill="white"/>
</g>
</svg>
