<svg width="41" height="40" viewBox="0 0 41 40" fill="none" xmlns="http://www.w3.org/2000/svg">
<path fill-rule="evenodd" clip-rule="evenodd" d="M4.84482 0H19.4512H21.6622C25.392 0 26.2854 0.893356 27.8711 2.45673L37.6086 12.105C39.2837 13.7577 40.3334 14.8074 40.3334 18.6488V20.8599V35.1982L33.8119 28.7214V13.4673L28.0274 7.74986L20.3222 15.3881L4.84482 0ZM36.6706 40L27.8264 31.2228V16.3261L20.3222 23.7856L12.818 16.3261V32.4511L6.85487 26.5327V10.4076L0.333374 3.93077V19.1401V21.3512C0.333374 25.1926 1.38307 26.22 3.05811 27.895L12.7957 37.5433C14.3814 39.1066 15.2747 40 19.0045 40H21.2156H36.6706ZM9.53494 40L0.333374 30.8654V40H9.53494ZM31.1095 0L40.311 9.13456V0H31.1095Z" fill="url(#paint0_linear_1404_1229)"/>
<defs>
<linearGradient id="paint0_linear_1404_1229" x1="8.79654" y1="-2.62796" x2="32.0375" y2="42.985" gradientUnits="userSpaceOnUse">
<stop offset="0.252" stop-color="#D5AB6A"/>
<stop offset="0.5" stop-color="#F9D58E"/>
<stop offset="0.7746" stop-color="#916832"/>
<stop offset="1" stop-color="#764D23"/>
</linearGradient>
</defs>
</svg>
