<svg width="41" height="30" viewBox="0 0 41 30" fill="none" xmlns="http://www.w3.org/2000/svg">
<path d="M14.524 4.12817C17.0265 4.13205 19.4436 5.03813 21.332 6.68017L24.268 3.74417C21.5995 1.33416 18.1317 0 14.536 0C10.9403 0 7.47252 1.33416 4.80402 3.74417L7.70802 6.68017C9.59849 5.03633 12.0188 4.13013 14.524 4.12817Z" fill="white"/>
<path d="M25.148 4.60822L22.212 7.54422C23.6595 9.15405 24.5685 11.1755 24.8123 13.3266C25.0561 15.4777 24.6225 17.6513 23.572 19.5442L17.756 13.9442L15.132 7.62422V17.1362L20.892 22.6802C19.0715 24.1003 16.8289 24.8715 14.52 24.8715C12.2112 24.8715 9.96849 24.1003 8.14801 22.6802L13.908 17.1362V7.62422L11.284 13.9602L5.46801 19.5602C4.41753 17.6673 3.98395 15.4937 4.22774 13.3426C4.47154 11.1915 5.38054 9.17005 6.82801 7.56022L3.89201 4.60822C1.96546 6.67785 0.685104 9.26496 0.208108 12.052C-0.268888 14.839 0.0782301 17.7046 1.20685 20.2972C2.33548 22.8897 4.1965 25.0963 6.56147 26.6461C8.92645 28.1959 11.6925 29.0214 14.52 29.0214C17.3475 29.0214 20.1136 28.1959 22.4785 26.6461C24.8435 25.0963 26.7045 22.8897 27.8332 20.2972C28.9618 17.7046 29.3089 14.839 28.8319 12.052C28.3549 9.26496 27.0746 6.67785 25.148 4.60822Z" fill="white"/>
<path d="M38.78 8.16817H31.204C30.3658 5.96679 29.1017 3.95235 27.484 2.24017L26.164 3.59217C28.9399 6.54588 30.4852 10.4468 30.4852 14.5002C30.4852 18.5536 28.9399 22.4545 26.164 25.4082L27.516 26.7602C29.1239 25.0465 30.3773 23.0319 31.204 20.8322H38.748C38.9114 20.8364 39.074 20.8079 39.2262 20.7484C39.3785 20.6888 39.5172 20.5993 39.6343 20.4852C39.7513 20.3711 39.8444 20.2347 39.9079 20.0841C39.9714 19.9335 40.0041 19.7716 40.004 19.6082V9.39217C40.004 9.06755 39.875 8.75622 39.6455 8.52667C39.416 8.29713 39.1046 8.16817 38.78 8.16817Z" fill="#F06414"/>
<path d="M34.3081 16.9282L37.316 14.0882C37.5006 13.9262 37.6719 13.7497 37.828 13.5602C38.037 13.2877 38.1596 12.9589 38.1801 12.6162V11.9362C38.1923 11.8352 38.1923 11.7331 38.1801 11.6322C38.156 11.511 38.1185 11.3929 38.0681 11.2802L32.9801 16.0802C32.8201 16.2322 32.652 16.3842 32.5 16.5602C32.2508 16.8428 32.1141 17.2073 32.116 17.5842V18.6562H37.3081C37.5084 18.6569 37.7041 18.5954 37.8681 18.4802C38.0518 18.3513 38.1981 18.1761 38.2923 17.9724C38.3864 17.7686 38.425 17.5436 38.404 17.3202V16.9282H34.3081ZM37.5241 10.6242C37.32 10.4616 37.0649 10.3766 36.804 10.3842H33.7801C33.6817 10.3725 33.5824 10.3725 33.484 10.3842C33.2952 10.4456 33.1202 10.5436 32.9692 10.6726C32.8182 10.8017 32.6942 10.9592 32.604 11.1362C32.4045 11.4749 32.3047 11.8632 32.316 12.2562V13.0562H34.0361V12.0722H36.004L37.5241 10.6242Z" fill="white"/>
</svg>
