<svg width="41" height="40" viewBox="0 0 41 40" fill="none" xmlns="http://www.w3.org/2000/svg">
<rect x="0.333374" width="40" height="40" rx="10" fill="#0070D1"/>
<path d="M5.93997 25.7674C4.81576 26.5072 5.19263 27.9191 7.58892 28.587C10.0984 29.4142 12.7748 29.618 15.3826 29.1804C15.5326 29.1804 15.6826 29.1064 15.7563 29.1064V26.5833L13.2078 27.3997C12.2336 27.6966 11.2589 27.7696 10.2847 27.5482C9.53734 27.3257 9.68521 26.8803 10.5847 26.5093L15.7595 24.7265V21.9787L8.56366 24.4274C7.62511 24.7389 6.74029 25.1908 5.93997 25.7674ZM23.33 14.6376V21.835C26.4032 23.3188 28.8022 21.835 28.8022 17.9776C28.8022 14.0452 27.3779 12.2645 23.2553 10.8547C21.0816 10.1149 18.8326 9.44492 16.5826 9V30.4417L21.8295 32V13.9697C21.8295 13.1533 21.8295 12.5599 22.429 12.7823C23.2553 13.0053 23.33 13.8212 23.33 14.6376ZM33.0748 24.0607C30.9011 23.3209 28.5774 23.0218 26.3285 23.2443C25.129 23.3183 24.0048 23.6142 22.9553 23.9841L22.7306 24.058V26.9516L27.6027 25.1709C28.5769 24.8739 29.5516 24.801 30.5258 25.0224C31.2732 25.2448 31.1253 25.6903 30.2258 26.0612L22.73 28.8089V31.6285L33.0748 27.8441C33.8221 27.5471 34.499 27.1762 35.0985 26.5828C35.6232 25.8414 35.3985 24.8026 33.0748 24.0607Z" fill="white"/>
</svg>
