<svg width="41" height="40" viewBox="0 0 41 40" fill="none" xmlns="http://www.w3.org/2000/svg">
<rect x="0.666626" width="40" height="40" rx="10" fill="black"/>
<path d="M6.11859 8.99005C6.17531 8.44162 6.19713 8.39374 6.24513 8.33715C6.35858 8.17611 6.53311 8.07164 6.72946 8.04117C6.96945 7.9933 7.2138 7.94977 7.46251 7.96283C8.08211 7.97589 8.69299 7.96283 9.31259 7.96283C9.39113 7.95847 9.46967 7.96718 9.54385 7.99765C9.61366 8.03247 9.6922 8.08905 9.7751 8.01071C9.79692 7.98894 9.86674 7.99765 9.88855 8.02376C9.94528 8.06729 10.002 8.04553 10.0631 8.04553C10.098 8.04553 10.1329 7.99765 10.1765 8.04553C10.1896 8.05858 10.2551 8.01071 10.3031 8.01071C10.3554 8.00635 10.4122 8.00635 10.4645 8.01071H10.7394C10.7961 8.01071 10.8529 8.03247 10.9139 8.03247C10.9663 8.03247 11.023 8.02376 11.0754 8.01071H11.4419C11.4812 8.01941 11.5205 8.02812 11.5554 8.04553C11.5554 8.04553 11.5772 8.02376 11.5903 8.02376H12.6462C12.6593 8.02376 12.6811 8.04553 12.6898 8.05859C12.8469 8.002 13.0171 8.002 13.1742 8.05859C13.196 8.04553 13.2309 8.02376 13.2527 8.01506L13.3007 8.05859C13.4054 7.98894 13.5189 8.03682 13.6323 8.02376C13.7371 8.01071 13.8374 8.04553 13.9552 7.98894L14.0949 8.05859C14.2432 8.01506 14.3959 7.98024 14.5312 8.04553C14.5705 8.02812 14.6141 8.01941 14.6577 8.01071H15.0461C15.0766 8.00635 15.1115 8.01506 15.1377 8.03247C15.225 8.076 15.3253 8.08035 15.4126 8.04553C15.5173 8.01071 15.6177 7.99765 15.7006 8.03247C15.7704 8.06729 15.8053 7.96283 15.8489 8.01941C15.8926 8.076 15.9624 8.05423 16.0191 8.05423C16.0758 8.05423 16.1456 8.076 16.1805 8.01941C16.2853 8.03247 16.3987 7.98459 16.4903 8.05423C16.5471 8.10211 16.6169 7.99765 16.6736 8.05423C16.7085 8.01071 16.7522 8.01941 16.8001 8.01941H18.3186C18.3666 8.02376 18.4102 8.02812 18.4582 8.04117C18.4582 8.04117 18.4713 8.01941 18.4801 8.01941C18.6197 8.03247 18.7549 7.98459 18.8946 8.05423C18.9513 8.08905 19.0342 8.04117 19.0997 8.04117C19.2131 8.02812 19.6058 8.00635 19.7105 8.02812C19.7236 8.02812 19.7323 8.04988 19.7454 8.04988C19.8371 8.01506 20.0203 8.00635 20.125 8.00635C20.3301 8.01941 20.5265 8.00635 20.7359 8.00635C20.7839 8.00635 20.8276 8.02812 20.8755 8.02812C20.9148 8.02812 20.9541 8.01941 20.989 8.00635C21.0064 7.99765 21.0239 7.98894 21.0457 7.98459C21.085 7.99765 21.1199 8.00635 21.1592 8.00635C21.3337 8.00635 21.4908 8.01941 21.6653 8.00635C21.7439 8.00635 21.8137 8.04988 21.8966 8.01941C21.9664 7.99765 22.058 8.01941 22.1366 8.01941H23.4107C23.4543 8.01941 23.5241 8.04117 23.559 7.98459C23.6376 8.02812 23.7205 8.076 23.8252 8.14564H24.0434L24.2746 8.03247C24.3881 8.04553 24.5277 7.99765 24.6542 8.06729C24.6673 8.08035 24.7022 8.05423 24.724 8.05423C24.8419 8.00635 24.9771 8.01071 25.0906 8.06729C25.1298 8.05423 25.1648 8.04117 25.204 8.03247C25.252 8.01071 25.2957 8.08905 25.3524 8.04553C25.3873 8.01071 25.4658 8.03247 25.5356 8.03247H26.2949C26.3647 8.01941 26.4345 8.05423 26.4999 7.99765C26.5218 7.97589 26.6047 8.01941 26.6614 8.03247C26.7181 8.03247 26.7748 7.95412 26.8228 8.01071C26.8796 8.05423 26.9145 7.95412 26.9712 8.02376C26.993 8.04553 27.0759 8.03682 27.1195 8.04553C27.1763 8.05858 27.233 8.01071 27.281 8.01071C27.4948 7.99765 27.7086 7.99765 27.9224 8.01071H28.0489C28.1188 8.01071 28.1973 7.97589 28.254 8.04553C28.2671 8.05858 28.3238 8.04553 28.3587 8.02376C28.398 7.9933 28.4591 7.99765 28.4896 8.03682C28.4896 8.04117 28.494 8.04117 28.494 8.04553C28.5289 8.03247 28.5507 8.01071 28.5856 8.01071H29.3231C29.3798 8.01071 29.4278 8.06729 29.4976 8.02376C29.5412 7.98894 29.6241 8.01071 29.6939 8.02376C29.7376 8.02376 29.7725 8.04553 29.8423 8.05859C29.8554 8.05859 29.8772 8.03682 29.9121 8.02376C29.9339 8.03682 29.947 8.05859 29.9688 8.05859C30.0692 8.01506 30.187 8.01071 30.2917 8.04553C30.3834 8.08035 30.4968 8.08035 30.6233 8.08905C30.6713 8.06729 30.715 8.04553 30.763 8.01941C30.8764 8.076 31.003 8.06294 31.1295 8.04117C31.16 8.02812 31.1906 8.01941 31.2211 8.01941C31.496 8.01941 31.7622 7.99765 32.0371 8.03247C32.1636 8.04553 32.2771 8.06729 32.4036 8.06729C32.4516 8.13693 32.5083 8.04553 32.5301 8.06729C32.5869 8.11517 32.6436 8.10211 32.7047 8.10211C32.7614 8.11517 32.8312 8.05423 32.8443 8.06729C32.9141 8.12387 32.9578 8.03247 33.0188 8.06729L33.1585 8.13693L33.1934 8.10211L33.237 8.14999C33.2632 8.13258 33.2894 8.11517 33.3155 8.10211H33.3374C33.3941 8.12823 33.4508 8.15434 33.5119 8.17175C33.5904 8.19352 33.6733 8.27622 33.765 8.18481H34.2929C34.3148 8.18481 34.3279 8.21963 34.3497 8.22834C34.3759 8.21093 34.3977 8.19352 34.4195 8.17175C34.546 8.21963 34.6507 8.31104 34.7511 8.38938C34.8602 8.45903 34.9387 8.56349 34.9824 8.68536C34.9824 8.69842 34.9693 8.70713 34.9475 8.74195C34.9693 8.77241 34.9998 8.79853 35.026 8.82029C35.026 8.83335 35.0391 8.84206 35.0391 8.85511C35.026 8.95087 35.0391 9.05098 35.0827 9.14239C35.1264 9.24685 35.1307 9.36437 35.0958 9.47319C35.0609 9.56459 35.074 9.66906 35.0827 9.76917C35.0958 9.86057 35.0478 9.95198 35.1176 10.0434C35.1394 10.0651 35.1045 10.1217 35.1045 10.1914C35.1264 10.2392 35.1264 10.2392 35.1264 10.3611L35.1962 10.4308C35.1743 10.4786 35.1525 10.5222 35.1264 10.57C35.1438 10.6179 35.1525 10.6702 35.1613 10.718C35.1743 10.7746 35.1482 10.8443 35.1613 10.9008C35.1831 10.9574 35.0914 10.9792 35.1394 11.0401C35.1743 11.088 35.1525 11.1533 35.1525 11.2142V11.3622C35.2311 11.4667 35.3489 11.4754 35.4492 11.4667C35.554 11.3622 35.6805 11.3405 35.8158 11.3535C35.8332 11.3709 35.8463 11.3883 35.8594 11.4101C35.9379 11.4667 35.999 11.3622 36.0558 11.4232C36.0994 11.3883 36.1605 11.3405 36.2172 11.2969C36.2303 11.3405 36.2303 11.3753 36.239 11.4232C36.287 11.4101 36.3176 11.3535 36.3656 11.4232C36.3961 11.4101 36.4266 11.3927 36.4572 11.3753C36.479 11.4232 36.5052 11.5015 36.5357 11.5015C36.6404 11.5015 36.5706 11.5799 36.6055 11.6147C36.6623 11.6713 36.6404 11.7278 36.6186 11.7975C36.5968 11.8715 36.5968 11.9542 36.6186 12.0282C36.6404 12.0978 36.6535 12.1413 36.6186 12.211C36.5881 12.2415 36.5924 12.2937 36.623 12.3198C36.6317 12.3285 36.6404 12.3329 36.6535 12.3372C36.6404 12.4069 36.5837 12.4417 36.6317 12.52C36.6884 12.6332 36.6535 12.7725 36.6448 12.9205L36.6666 12.9422C36.6099 12.977 36.5619 13.0119 36.4921 13.0554C36.5052 13.1033 36.5139 13.1468 36.527 13.1947C36.239 13.2077 35.9423 13.2991 35.6412 13.2077C35.5016 13.2861 35.3314 13.2077 35.17 13.2513C35.1351 13.4558 35.2049 13.6648 35.1133 13.8693C35.1438 13.8955 35.1743 13.9172 35.2049 13.939C35.1831 14.0173 35.2267 14.1 35.1569 14.1566L35.2354 14.235C35.2136 14.4308 35.2922 14.6485 35.1656 14.8443C35.1787 14.8791 35.1874 14.914 35.1874 14.9488V15.2926C35.1874 15.3623 35.1744 15.4319 35.2223 15.4972C35.2573 15.5538 35.2442 15.6452 35.2005 15.7279C35.1656 15.7932 35.17 15.8715 35.2136 15.9325C35.2005 16.0021 35.1787 16.0718 35.1918 16.1283C35.2398 16.3895 35.2398 16.4156 35.1918 16.6681C35.17 16.7725 35.1918 16.8988 35.2049 16.9989V17.0555C35.1962 17.1294 35.1918 17.1991 35.1918 17.2731C35.1918 17.3427 35.17 17.4124 35.1918 17.4777C35.2136 17.5429 35.1787 17.5908 35.1918 17.6474V18.0391C35.2005 18.0957 35.2136 18.1523 35.2267 18.2133C35.2267 18.2133 35.1918 18.235 35.1918 18.2481C35.2136 18.4091 35.1482 18.5789 35.2267 18.7399C35.2049 18.8661 35.2485 19.0011 35.2049 19.1317C35.1656 19.2492 35.1743 19.3754 35.2267 19.4886C35.1613 19.6017 35.1656 19.7454 35.2398 19.8542C35.1351 19.9587 35.2267 20.037 35.2834 20.1284L35.1918 20.3112C35.2136 20.4026 35.2398 20.5419 35.2703 20.7029C35.2442 20.7117 35.2223 20.7247 35.2005 20.7378V21.1861C35.3271 21.3123 35.4972 21.173 35.6238 21.2775C35.9205 21.1861 36.2216 21.2775 36.5183 21.2906C36.5052 21.3341 36.4965 21.382 36.4834 21.4298C36.5401 21.4734 36.5968 21.5082 36.6579 21.543L36.623 21.5778C36.671 21.6692 36.6361 21.7606 36.6579 21.852C36.6797 21.9434 36.5445 22.0349 36.6579 22.1263C36.6448 22.1828 36.5794 22.2307 36.6361 22.3091C36.6579 22.3569 36.6579 22.4092 36.6361 22.4571C36.6012 22.5398 36.6012 22.6355 36.6361 22.7226C36.671 22.814 36.6361 22.8967 36.5445 22.9968C36.5095 23.036 36.4834 23.0838 36.4659 23.1361C36.4397 23.1187 36.4136 23.1056 36.3874 23.0882C36.3525 23.123 36.3088 23.1448 36.2608 23.0664C36.2477 23.11 36.2477 23.1448 36.239 23.1926H36.2216C36.1997 23.1796 36.1779 23.1709 36.1517 23.1709C36.1168 23.1578 36.1168 23.0577 36.0383 23.123C36.0252 23.1361 35.9598 23.1012 35.9249 23.0795C35.8943 23.1056 35.8681 23.1361 35.8463 23.1709H35.6718C35.602 23.1361 35.5321 23.1012 35.4536 23.0577H35.2922C35.2791 23.1404 35.2703 23.2188 35.2485 23.3232C35.2616 23.345 35.3271 23.4016 35.2354 23.4712C35.2573 23.5191 35.2834 23.567 35.314 23.6105C35.266 23.6801 35.2354 23.7585 35.314 23.8499C35.2354 23.9544 35.2922 24.0806 35.266 24.1938C35.2311 24.3069 35.3794 24.4114 35.2791 24.5246C35.4056 24.6508 35.1656 24.8118 35.3227 24.9381C35.266 25.0425 35.2529 25.1339 35.3096 25.2123C35.2965 25.2689 35.2834 25.3254 35.2747 25.382C35.2834 25.5387 35.2529 25.6954 35.1962 25.839C35.1743 25.8826 35.1482 25.9261 35.1176 25.9653C35.0958 26.0001 35.074 26.0436 35.0391 26.1046C34.9475 26.1785 34.8515 26.2482 34.7511 26.3091C34.6377 26.3657 34.5198 26.3875 34.3933 26.4354C34.3802 26.4223 34.3584 26.4136 34.3497 26.3918C34.3366 26.4049 34.3279 26.4266 34.306 26.4266C34.1577 26.4484 34.0093 26.3918 33.8566 26.4615C33.765 26.357 33.6821 26.4963 33.5817 26.4745C33.4857 26.4571 33.3897 26.4571 33.2937 26.4745C33.237 26.4745 33.1672 26.5311 33.1323 26.5093C33.0756 26.4658 33.0188 26.4745 32.9578 26.4745H32.3207C32.264 26.4397 32.2073 26.4179 32.1811 26.4049C32.0763 26.4179 31.9978 26.4266 31.9193 26.4397C31.7578 26.4528 31.5877 26.4179 31.4262 26.4745C31.3913 26.4876 31.3564 26.4615 31.3128 26.4528C31.2211 26.431 31.1295 26.4179 31.051 26.4745C30.9593 26.4266 30.8502 26.4223 30.7542 26.4615C30.6757 26.4832 30.5928 26.4963 30.5143 26.4397C30.4924 26.4528 30.4794 26.4615 30.4575 26.4745C30.3834 26.4571 30.3048 26.4441 30.2263 26.4397H28.7951C28.7515 26.4397 28.6904 26.4615 28.6467 26.4049C28.5769 26.4832 28.4853 26.4397 28.3937 26.4397C28.3064 26.4441 28.2191 26.4441 28.1275 26.4397C28.0489 26.4397 27.953 26.4179 27.8744 26.4615C27.8482 26.4484 27.8221 26.4354 27.7959 26.4266C27.7697 26.4136 27.7435 26.4092 27.7173 26.4049C27.6737 26.4179 27.6257 26.4266 27.5777 26.4266H26.993C26.9581 26.4266 26.9232 26.4484 26.9014 26.4484C26.7879 26.4354 26.6963 26.4136 26.5698 26.4005C26.3385 26.4484 26.0985 26.4441 25.8673 26.3875L25.8323 26.4223C25.7407 26.3178 25.6578 26.4571 25.5575 26.4223C25.4658 26.4005 25.3611 26.4571 25.2695 26.3875C25.1909 26.4441 25.0949 26.4092 25.0077 26.4223H24.711C24.6193 26.4223 24.5146 26.4354 24.4012 26.4005C24.4012 26.4136 24.3793 26.4354 24.3575 26.4702C24.1961 26.4571 24.0346 26.4919 23.8732 26.4354C23.8252 26.4484 23.7728 26.4615 23.7248 26.4702H22.4856C22.442 26.4702 22.394 26.4832 22.3591 26.4354C22.3416 26.4223 22.3198 26.4223 22.3024 26.4354C22.1889 26.5137 22.0842 26.4484 21.9708 26.4354C21.8791 26.4223 21.8006 26.4571 21.709 26.4702C21.565 26.4745 21.4253 26.4658 21.2857 26.4354C21.1461 26.4136 21.0108 26.4702 20.8712 26.4005C20.8014 26.4484 20.7228 26.4354 20.653 26.4354C20.605 26.4354 20.5701 26.4136 20.5047 26.4005C20.4872 26.4179 20.4698 26.431 20.4479 26.4484L20.3563 26.4005C20.3127 26.4702 20.2516 26.3875 20.1818 26.4136C20.077 26.4484 19.9636 26.4354 19.8502 26.4354C19.8065 26.4266 19.7629 26.4136 19.7236 26.4005C19.7105 26.4136 19.7018 26.4484 19.68 26.4354C19.5404 26.4223 19.4051 26.4832 19.2655 26.4005C19.2349 26.3918 19.2 26.3962 19.1738 26.4136C19.0604 26.4484 19.0473 26.4484 18.9338 26.4005C18.7986 26.4528 18.6502 26.4615 18.5106 26.4223C18.4757 26.4092 18.4408 26.4005 18.419 26.4092C18.1528 26.4658 18.1179 26.4658 17.8692 26.4092C17.8343 26.4049 17.7994 26.4049 17.7645 26.4092C17.7557 26.4397 17.7383 26.4745 17.7165 26.5006C17.6772 26.4745 17.6379 26.4441 17.603 26.4092C17.5899 26.4223 17.5725 26.4354 17.5594 26.4441C17.5376 26.4223 17.5157 26.4005 17.5027 26.3744C17.4503 26.3831 17.4023 26.3962 17.3543 26.4179C17.3412 26.431 17.3412 26.4528 17.3325 26.4745C17.2409 26.4397 17.1492 26.3831 17.0445 26.4049C16.9441 26.4223 16.8438 26.4484 16.7478 26.4832C16.7347 26.4615 16.7216 26.4397 16.7129 26.4136C16.6431 26.4266 16.5994 26.4354 16.5383 26.4484C16.5383 26.4049 16.5253 26.3701 16.5253 26.3222C16.3638 26.3222 16.2373 26.4005 16.0889 26.4832C15.9057 26.5398 15.6962 26.3788 15.4911 26.4702C15.478 26.4702 15.4693 26.4484 15.4562 26.4354C15.4431 26.4484 15.4213 26.4571 15.4082 26.4789C15.3864 26.4658 15.3515 26.4354 15.3297 26.4354C15.2511 26.4484 15.1682 26.4136 15.0984 26.4571C15.0766 26.4789 15.0068 26.4441 14.937 26.4354C14.8323 26.4789 14.2912 26.4919 14.1778 26.4223C14.0992 26.4702 14.0992 26.4702 14.0076 26.4354L13.868 26.505C13.8243 26.4963 13.7807 26.4789 13.7414 26.4571C13.6934 26.4354 13.6498 26.5137 13.5931 26.4702C13.5582 26.4354 13.4796 26.4702 13.4098 26.4702H13.2265C13.1829 26.4702 13.1218 26.4484 13.0782 26.505C13.0651 26.5181 13.0302 26.5181 13.0215 26.5181C12.9516 26.4484 12.8818 26.5529 12.7902 26.4963C12.7073 26.4484 12.5982 26.4571 12.5284 26.5181C12.4891 26.5006 12.4455 26.4876 12.4019 26.4832C12.2404 26.4832 12.0921 26.4615 11.9306 26.4832C11.8346 26.5006 11.7386 26.5137 11.6426 26.5181C11.6077 26.5181 11.5641 26.4832 11.5379 26.4963C11.4899 26.5442 11.4463 26.5181 11.3983 26.5181C11.3634 26.5181 11.3285 26.4832 11.2936 26.4832C11.2456 26.4832 11.1888 26.4615 11.1452 26.505C11.1103 26.5268 11.0667 26.5311 11.0318 26.5181C10.9969 26.505 10.9619 26.4832 10.9183 26.5181C10.8834 26.5398 10.8485 26.4397 10.8136 26.5181C10.7481 26.4919 10.6783 26.4789 10.6085 26.4745C10.5518 26.4745 10.482 26.4963 10.4122 26.4528C10.3773 26.431 10.3336 26.4266 10.2987 26.4397C10.1024 26.5093 9.906 26.4179 9.70093 26.4266C9.49148 26.4441 9.27768 26.4441 9.06824 26.4266H8.87188C8.79334 26.4266 8.71044 26.4397 8.61881 26.3918C8.55336 26.3744 8.48791 26.3744 8.42246 26.3918C8.36573 26.3918 8.31773 26.4136 8.26101 26.4136C8.1912 26.4136 8.12138 26.3788 8.06466 26.4005C7.95121 26.4441 7.8334 26.4223 7.71995 26.4354C7.64141 26.4484 7.5716 26.3875 7.47996 26.4136C7.41015 26.4266 7.31852 26.4005 7.23998 26.3918C7.16144 26.3831 7.06544 26.4266 6.9869 26.357C6.84728 26.4484 6.74692 26.2656 6.62038 26.3004C6.51566 26.2221 6.4153 26.1524 6.31058 26.0697C6.2364 26.0088 6.18404 25.9217 6.16222 25.8303C6.12732 25.7172 6.0575 25.6127 6.0575 25.4865C6.0575 25.4734 6.04441 25.4517 6.0575 25.443C6.11423 25.3733 6.04441 25.3298 6.03569 25.2601C6.04878 25.2471 6.0575 25.2253 6.07059 25.2166L6.02696 25.1687C6.04005 25.1339 6.06187 25.0991 6.07059 25.0643C6.06187 25.0382 6.04441 25.0164 6.02696 24.9946C6.04878 24.9946 6.06187 24.9816 6.09677 24.9816C6.07496 24.8902 6.06187 24.7988 6.04005 24.6812V24.6682C6.10986 24.5985 6.04005 24.4941 6.08368 24.4157C6.13168 24.3461 6.11859 24.2765 6.08368 24.1981C6.06187 24.1285 6.07059 24.0371 6.07059 23.9587C6.07059 23.9108 6.1055 23.876 6.1055 23.8325C6.1055 23.789 6.07059 23.7541 6.07059 23.7063C6.07059 23.6845 6.09241 23.6627 6.09241 23.6366C6.1055 23.6018 6.10986 23.5626 6.1055 23.5234C6.07932 23.4669 6.06623 23.4016 6.07059 23.3406V23.123C5.97896 23.123 5.87424 23.0882 5.78261 23.1448C5.76952 23.1448 5.76079 23.1317 5.73461 23.1317C5.66916 23.1274 5.60371 23.1274 5.53826 23.1317C5.42481 23.1752 5.29827 23.1448 5.18046 23.1535C5.12374 23.0838 5.04083 23.1317 4.98411 23.1187C4.9492 23.0708 4.9143 23.0273 4.89248 22.9924C4.85321 23.0098 4.81394 23.0273 4.77903 23.049C4.67431 22.8183 4.63068 22.5006 4.70922 22.3526C4.63068 22.2133 4.6874 22.0653 4.67431 21.926C4.67431 21.8695 4.66122 21.7998 4.72231 21.7563C4.6394 21.6431 4.66558 21.5169 4.7354 21.3907C4.80521 21.3689 4.87503 21.3558 4.93175 21.3341C5.00156 21.2775 5.05829 21.2296 5.10192 21.1861C5.19355 21.2557 5.27209 21.2296 5.37682 21.1992C5.45536 21.3123 5.58189 21.1426 5.69971 21.2122C5.81315 21.2688 5.93096 21.1556 6.07932 21.2122C6.0575 21.1861 6.04005 21.16 6.0226 21.1295C6.04441 21.025 6.10114 20.9119 6.0226 20.8074V20.7987C6.04005 20.7465 6.04878 20.6942 6.0575 20.6377C6.0575 20.5811 6.00078 20.5463 6.03569 20.4766C6.0575 20.4418 6.0226 20.3722 6.0226 20.3286V19.6627C6.0226 19.6191 6.00951 19.5713 6.0575 19.5364C6.01823 19.506 6.00514 19.4537 6.0226 19.4102C6.03569 19.3406 6.0226 19.2709 6.0575 19.2056C6.09241 19.1317 6.09241 19.049 6.0575 18.975C6.0226 18.9053 6.00951 18.8139 6.03569 18.7704C6.09241 18.679 6.04878 18.5745 6.1055 18.4962C6.14913 18.4178 6.08368 18.3264 6.03569 18.2437C6.1055 18.1175 6.07932 17.9826 6.07059 17.8433C6.03569 17.6474 6.02696 17.6474 6.07059 17.4864C6.07932 17.4472 6.08368 17.408 6.08368 17.3732C6.04005 17.1338 6.04005 17.1338 6.08368 16.9162V16.8944C6.09677 16.6898 6.1055 16.4809 6.13168 16.285C6.13168 16.2415 6.06187 16.2067 6.11859 16.1458C6.13168 16.1327 6.09677 16.0674 6.09677 16.0326C6.09677 15.9978 6.13168 15.9499 6.11859 15.9412C6.08368 15.8977 6.09677 15.8498 6.09677 15.8019V15.6757C6.08805 15.6321 6.07496 15.593 6.06187 15.5494C6.07932 15.5016 6.09241 15.4537 6.09677 15.4015V14.9531C6.09677 14.9096 6.1055 14.8661 6.11859 14.8269C6.1055 14.7573 6.09677 14.692 6.09677 14.6223V13.2904C5.97024 13.2774 5.85679 13.2687 5.73898 13.2687C5.72589 13.2687 5.71716 13.26 5.71716 13.2469C5.42918 13.3383 5.14119 13.26 4.84448 13.2339C4.86194 13.1947 4.87939 13.1512 4.88812 13.1076C4.83139 13.0597 4.77467 13.0293 4.71358 12.9814C4.74849 12.8204 4.67867 12.6506 4.75722 12.4896C4.66558 12.3981 4.77031 12.285 4.72231 12.1675C4.70049 12.1109 4.6874 12.0195 4.75722 11.9629C4.6874 11.9063 4.72231 11.8236 4.72231 11.7583C4.72231 11.68 4.75722 11.6103 4.77031 11.5407C4.79212 11.5407 4.81394 11.5276 4.84012 11.5276C4.84012 11.4928 4.85321 11.458 4.85321 11.4145C4.90121 11.4275 4.94484 11.4275 5.01465 11.4362C5.04956 11.4145 5.0932 11.3796 5.15428 11.3448C5.19355 11.384 5.2241 11.4275 5.259 11.471C5.29391 11.4493 5.31573 11.4493 5.35064 11.4232C5.38554 11.4362 5.42918 11.4449 5.47717 11.458C5.4859 11.4319 5.49899 11.4014 5.51208 11.3753C5.62553 11.3622 5.74334 11.3622 5.8437 11.4449C5.89169 11.4797 5.97023 11.4797 6.04005 11.5015L6.10986 11.4319C6.09677 11.3187 6.13168 11.2012 6.06623 11.088C6.05314 11.0619 6.05314 11.0314 6.06623 11.0097C6.08805 10.9531 6.14477 10.8965 6.07932 10.8399C6.12295 10.7833 6.11423 10.7267 6.11423 10.6571V10.2305C6.11423 10.1653 6.1055 10.1 6.09241 10.0347C6.09241 10.0173 6.09677 9.99985 6.1055 9.9868C6.14041 9.90845 6.12732 9.81269 6.07059 9.7474C6.08368 9.72564 6.1055 9.71258 6.11423 9.69082C6.11423 9.63423 6.03569 9.58635 6.09241 9.52107C6.12732 9.47319 6.11423 9.4166 6.09241 9.34696C6.07059 9.29038 6.1055 9.22073 6.09241 9.15109C6.07932 9.08145 6.07059 9.03792 6.1055 8.96828C6.14041 8.92476 6.11859 8.84206 6.11859 8.77241C6.11423 8.63313 6.11423 8.56349 6.11859 8.99005C6.11423 9.44707 6.11423 9.44707 6.1055 9.45578C6.11859 9.46883 6.12732 9.47754 6.12732 9.4906L6.14041 9.47754C6.14041 9.46013 6.13168 9.45142 6.11859 8.99005ZM16.054 8.22398V8.18916H15.9842C15.9624 8.17611 15.9362 8.1587 15.9144 8.14128C15.9144 8.18916 15.9275 8.21093 15.9275 8.23269C15.9711 8.23704 16.0104 8.21963 16.0409 8.18916L16.054 8.20222C16.0671 8.18916 16.0758 8.18046 16.0889 8.18046L16.0758 8.1674C16.0671 8.1674 16.0671 8.17611 16.054 8.22398ZM22.2849 24.4723C22.3678 24.5158 22.4638 24.5202 22.5467 24.4854C22.5816 24.4723 22.6253 24.4636 22.6384 24.4723C22.7169 24.542 22.8129 24.5071 22.8914 24.5071C22.9482 24.5071 23.018 24.4723 23.066 24.4941C23.1576 24.5376 23.2143 24.481 23.2841 24.481C23.3539 24.481 23.4325 24.5376 23.5154 24.5158C23.5372 24.5158 23.5503 24.4941 23.559 24.4941C23.6725 24.4723 23.7903 24.4593 23.9037 24.5071C23.9823 24.4375 24.0783 24.4723 24.1568 24.5071C24.2135 24.4941 24.2703 24.4636 24.2964 24.4854C24.3663 24.542 24.4448 24.5202 24.5277 24.5202H24.964C25.0338 24.5202 25.1124 24.4767 25.1604 24.4984C25.2389 24.5333 25.3087 24.5202 25.3786 24.5202H26.7574C26.8359 24.5202 26.9188 24.555 26.9886 24.4854C27.0148 24.4723 27.0454 24.4723 27.0672 24.4854C27.1239 24.5333 27.1719 24.542 27.2286 24.4854C27.2417 24.4723 27.2984 24.4636 27.3072 24.4723C27.377 24.5507 27.4468 24.4854 27.5123 24.4593C27.5341 24.481 27.5472 24.4941 27.5602 24.4941C27.5952 24.481 27.617 24.4723 27.6519 24.4593C27.7086 24.4462 27.7697 24.4375 27.8264 24.4375C27.8831 24.4375 27.9311 24.4506 27.9879 24.4506H30.2394C30.2917 24.4462 30.3397 24.4375 30.3877 24.4157C30.4314 24.4288 30.4663 24.4375 30.5012 24.4506C30.5579 24.4636 30.6277 24.4288 30.6975 24.4854C30.7412 24.5071 30.7935 24.5071 30.8371 24.4854C30.9419 24.4288 31.0422 24.4506 31.1469 24.4506H31.8538C31.9105 24.4506 31.9673 24.4288 32.0153 24.4288C32.0589 24.4419 32.1069 24.4506 32.1549 24.4506C32.3862 24.4506 32.613 24.4506 32.8312 24.5289C32.8661 24.542 32.901 24.542 32.9359 24.5289C32.9927 24.4593 33.0625 24.4941 33.1192 24.4941H33.3592V22.9446C33.333 22.8967 33.3025 22.8575 33.2676 22.8183C33.3025 22.8053 33.3243 22.7966 33.3592 22.7835C33.3417 22.6703 33.3286 22.5528 33.3243 22.4396C33.3243 22.3134 33.2894 22.1872 33.3592 22.074C33.2894 21.9609 33.3374 21.8433 33.3243 21.7171C33.3243 21.5909 33.2894 21.4647 33.3592 21.3602C33.3461 21.3297 33.333 21.2993 33.3243 21.2688V19.9151C33.3243 19.8672 33.3592 19.8455 33.3461 19.7758C33.3112 19.6627 33.3243 19.5364 33.3112 19.3841C33.3155 19.371 33.3243 19.3623 33.333 19.3493C33.3155 19.2971 33.3025 19.2448 33.2981 19.1882C33.3112 19.049 33.2632 18.901 33.333 18.766C33.3461 18.753 33.3199 18.7182 33.3199 18.6964C33.3068 18.6616 33.2981 18.6224 33.2981 18.5832V17.0729C33.2981 17.0163 33.3199 16.9684 33.3112 16.8988C33.2894 16.7377 33.2676 16.568 33.333 16.4156C33.3199 16.4026 33.3112 16.3808 33.2981 16.3808C33.3199 16.3242 33.3417 16.2676 33.3679 16.2067C33.3286 16.1109 33.3068 16.0108 33.2981 15.9107V14.9009C33.2981 14.8095 33.2763 14.705 33.333 14.6136C33.3548 14.5788 33.3199 14.5092 33.3112 14.4395C33.3243 14.3829 33.333 14.3264 33.3461 14.2785C33.3155 14.2393 33.2806 14.2001 33.2414 14.1653C33.333 14.0043 33.2894 13.8432 33.2894 13.6952C33.2894 13.5342 33.3243 13.3731 33.2545 13.2251C33.3461 13.1773 33.2676 13.1207 33.2676 13.0989C33.285 13.0423 33.2937 12.9858 33.3025 12.9292V12.2197C33.3025 12.1413 33.2457 12.0499 33.2676 11.9803C33.2894 11.915 33.3025 11.8454 33.3025 11.7757V11.4536C33.3025 11.397 33.3243 11.3405 33.2676 11.2839C33.2545 11.2708 33.2806 11.2142 33.2894 11.1794C33.2981 11.1446 33.3112 11.1011 33.3025 11.088C33.2457 11.0445 33.2676 10.9748 33.2676 10.9183V10.57C33.2239 10.5135 33.1759 10.4656 33.1279 10.409C33.1541 10.3916 33.1803 10.3829 33.2065 10.3742C33.2283 10.3176 33.2414 10.2697 33.2545 10.2349C33.2414 10.1783 33.2065 10.1087 33.2326 10.0738C33.2676 10.0303 33.2108 9.98244 33.2545 9.94762C33.2283 9.93892 33.1977 9.92586 33.1759 9.9128C32.9796 9.94762 32.7832 9.96068 32.6 9.89974C32.4952 9.95633 32.3338 9.94762 32.1985 9.9128C32.0851 9.87798 31.9585 9.79963 31.8538 9.89104C31.7055 9.84751 31.544 9.84316 31.3957 9.87798C31.2909 9.89974 31.1775 9.92586 31.0728 9.85622C30.968 9.9041 30.8895 9.9128 30.7979 9.87798C30.763 9.86492 30.7281 9.84316 30.7062 9.85622C30.6146 9.92586 30.5099 9.89104 30.4183 9.89104C30.3266 9.89104 30.2219 9.86928 30.1303 9.86928C30.0386 9.85622 29.947 9.9041 29.8423 9.9041C29.7288 9.89104 29.6023 9.92586 29.4976 9.86928C29.4583 9.85622 29.4191 9.85622 29.3841 9.86928C29.3274 9.89104 29.2707 9.93892 29.2096 9.88233C29.166 9.82575 29.0962 9.95198 29.0351 9.88233C28.9085 9.89539 28.7733 9.84751 28.6555 9.91715C28.6118 9.9041 28.5638 9.89539 28.5289 9.88233C28.4242 9.84751 28.3238 9.9868 28.2191 9.89539C28.1493 9.96503 28.0577 9.90845 27.9879 9.93021C27.9093 9.96503 27.8395 9.91715 27.7566 9.93021H27.2766C27.2374 9.92586 27.1981 9.9128 27.1632 9.89539C27.1108 9.9128 27.0585 9.92151 27.0017 9.93021H26.7617C26.6919 9.93021 26.6221 9.95198 26.5567 9.89539C26.4869 9.96503 26.4083 9.93021 26.3254 9.93021H24.5582C24.4666 9.93021 24.3619 9.90845 24.2703 9.96503C24.2484 9.97809 24.1917 9.94327 24.1437 9.94327C24.0739 9.94327 24.0041 9.92151 23.9605 9.94327C23.9037 9.96503 23.847 9.97809 23.799 9.94327C23.7205 9.88669 23.6507 9.93021 23.6027 9.95633C23.5328 9.94327 23.4761 9.90845 23.4543 9.93456C23.3845 9.96939 23.3409 9.99115 23.2798 9.93456C23.1663 9.94762 23.0398 9.89974 22.9351 9.98244C22.8827 9.93456 22.8042 9.92586 22.7387 9.96068C22.6994 9.98244 22.6558 9.99115 22.6122 9.98244C22.5424 9.92586 22.4638 9.94762 22.3809 9.94762H21.469C21.3642 9.94762 21.2377 9.92586 21.1461 9.96939C21.0326 10.026 20.9628 9.9128 20.8712 9.94762C20.8014 9.97809 20.7228 9.96503 20.6661 9.9128C20.6399 9.89974 20.6094 9.89974 20.5876 9.9128C20.5439 9.95633 20.4741 9.96068 20.4305 9.91715C20.4305 9.91715 20.4305 9.91715 20.4261 9.9128C20.4043 9.89974 20.3563 9.92586 20.3214 9.92586C20.2865 9.92586 20.2516 9.93892 20.2079 9.93892C20.173 9.93892 20.1381 9.91715 20.0945 9.91715H18.4975C18.4626 9.91715 18.419 9.93892 18.3841 9.93892C18.2095 9.9041 18.0393 9.88233 17.8648 9.95198C17.8474 9.96503 17.8255 9.96503 17.8081 9.95198C17.7514 9.89974 17.6728 9.88669 17.603 9.91715C17.5332 9.93892 17.4765 9.91715 17.4067 9.91715C17.3761 9.92151 17.3499 9.93457 17.3281 9.95198C17.2147 9.88233 17.0881 9.89539 16.9616 9.93021C16.9311 9.94327 16.9005 9.94762 16.87 9.95198C16.8263 9.93021 16.7783 9.88233 16.7434 9.95198C16.7085 9.89539 16.6518 9.91715 16.5951 9.91715H15.862C15.7966 9.91715 15.7268 9.92586 15.6657 9.95198C15.574 9.9868 15.526 9.90845 15.4475 9.91715C15.273 9.95198 15.0897 9.89539 14.9195 9.96503C14.8846 9.97809 14.8279 9.94327 14.7712 9.93021C14.7319 9.94762 14.6883 9.96068 14.6446 9.96503C14.4745 9.97809 14.2999 9.94327 14.1385 10.0129C14.1036 10.026 14.0687 10.026 14.0338 10.0129C13.9552 9.95633 13.8505 9.97809 13.772 9.97809H13.532C13.4491 9.97809 13.3705 9.96503 13.292 10.0129C13.2134 9.92151 13.1524 10.0347 13.0738 10.026C12.9167 10.0129 12.7597 10.0129 12.6026 10.026C12.4542 10.039 12.3059 9.94762 12.1444 10.026H12.1095C11.9699 9.95633 11.8215 9.99115 11.6732 10.0042C11.6034 10.0042 11.5466 10.0521 11.4768 10.0173C11.407 9.9955 11.3154 10.0173 11.2456 9.98244C11.1932 9.95198 11.1321 9.94327 11.0754 9.96068C10.9619 10.0173 10.8441 9.98244 10.7176 9.9955C10.6391 10.0086 10.5561 9.98244 10.4645 10.0303C10.4209 10.0651 10.3162 10.0521 10.2682 10.0173C10.2114 9.98244 10.1547 9.9955 10.0936 9.9955C10.0238 9.9955 9.954 10.0303 9.88855 10.0303L9.33877 9.9955C9.28204 9.92586 9.17732 9.9955 9.13369 9.94762C9.05515 9.85622 8.98533 9.96068 8.91552 9.96068C8.83261 9.96503 8.75407 9.96939 8.67553 9.98244C8.64062 9.96939 8.59699 9.93892 8.54899 9.9128C8.52718 9.94762 8.50536 9.96939 8.47918 10.0042C8.46609 9.96939 8.45736 9.94762 8.44427 9.9128H8.24792C8.17811 9.9128 8.10829 9.91715 8.04284 9.92586C8.07775 10.039 8.02102 10.1304 8.04284 10.2349C8.06466 10.3394 8.04284 10.4525 8.05593 10.557C8.05593 10.6615 8.03411 10.7616 8.09084 10.8573C8.05593 10.9139 8.03411 10.9705 7.99921 11.0271L8.05593 11.0837C8.04284 11.1054 8.02102 11.1315 8.02102 11.1402C8.03411 11.1794 8.04284 11.2229 8.04284 11.2665C8.05157 11.31 8.06466 11.3535 8.08647 11.3927C8.01666 11.4972 7.94685 11.5886 7.92503 11.7017C8.03848 11.9194 8.15629 12.1239 8.05157 12.3894C8.02975 12.446 8.01666 12.5374 8.07339 12.594C8.08648 12.6071 8.0603 12.6419 8.0603 12.6637C8.07339 12.7768 8.01666 12.8813 8.03848 12.9858C8.05593 13.0467 8.06902 13.1076 8.07339 13.1686V13.8345C8.06902 13.878 8.05593 13.9216 8.03848 13.9607H8.05157C8.05157 14.0217 8.05157 14.0826 8.06466 14.1436C8.05157 14.1566 8.02975 14.1653 8.02102 14.1784C8.06466 14.1914 8.09957 14.2001 8.13447 14.2132C8.09084 14.4178 8.09084 14.4178 8.13447 14.5353C8.12138 14.557 8.09957 14.5701 8.09084 14.5919V14.9923C8.09084 15.062 8.18247 15.1185 8.09084 15.1882C8.16065 15.2578 8.12575 15.3144 8.09084 15.371C8.07775 15.4015 8.07775 15.4319 8.09084 15.4624C8.14756 15.519 8.12575 15.5886 8.12575 15.6452V16.655C8.12575 16.7595 8.12575 16.8726 8.06902 16.9553C8.0123 17.0467 8.05593 17.1164 8.08211 17.173C8.06902 17.2165 8.0472 17.2426 8.0472 17.2774C8.0472 17.4167 8.03412 17.5517 8.08211 17.6909C8.10393 17.7693 8.11702 17.8737 8.0603 17.9521C8.10393 18.0348 8.08211 18.1262 8.08211 18.2176C8.08211 18.2394 8.04721 18.2742 8.0603 18.296C8.11702 18.457 8.07339 18.6267 8.08211 18.7878C8.07775 18.8313 8.06466 18.8749 8.0472 18.914C8.06466 18.9532 8.07775 18.9967 8.08211 19.0402C8.0952 19.1186 8.0952 19.2013 8.08211 19.2796C8.06902 19.358 8.10393 19.4494 8.0603 19.5321C8.01666 19.6148 8.08211 19.6801 8.08211 19.7497C8.08211 19.7628 8.08211 19.7845 8.06902 19.7845C7.99048 19.8542 8.06902 19.9108 8.08211 19.9674C8.06902 19.9891 8.03412 20.0152 8.03412 20.037C8.03412 20.1284 8.0123 20.2416 8.05593 20.3112C8.11266 20.4157 7.98612 20.4853 8.03412 20.5767C8.04721 20.5985 8.04721 20.6333 8.05593 20.6464C8.11266 20.716 8.04284 20.7595 8.04284 20.8205C8.08211 20.9685 8.08648 21.1252 8.05593 21.2775C8.02975 21.3602 8.02975 21.456 8.05593 21.5387C8.07339 21.5996 8.07339 21.6605 8.05593 21.7215C8.03412 21.7911 8.00793 21.8695 8.05593 21.926C8.11266 22.0044 8.03412 22.0392 8.03412 22.1088C8.14756 22.222 8.02102 22.3395 8.03412 22.4658C8.04721 22.592 7.99921 22.7182 8.08211 22.8314C8.02103 22.9228 8.01666 23.0447 8.06902 23.1404C8.0472 23.2536 7.99921 23.345 8.02539 23.4277C8.06029 23.5757 8.03848 23.7367 8.0472 23.8847C8.0472 23.9282 8.02539 23.9979 8.0472 24.024C8.11702 24.1154 8.06902 24.2068 8.08211 24.2982C8.08211 24.333 8.04721 24.3679 8.03412 24.4027C8.05593 24.4419 8.07339 24.4854 8.09084 24.5289C8.12575 24.542 8.16065 24.5637 8.19556 24.5855C8.33082 24.5289 8.48354 24.5289 8.61881 24.5855C8.68862 24.5507 8.81516 24.5158 8.85879 24.5507C9.02024 24.6551 9.2035 24.5289 9.35186 24.629C9.50021 24.5376 9.68347 24.6508 9.8231 24.5376C9.85801 24.5681 9.88855 24.6029 9.91473 24.6421C9.8711 24.6638 9.84492 24.6769 9.76638 24.7248H9.91473L9.97146 24.6682C9.95837 24.6551 9.94528 24.6421 9.93655 24.6247L9.99327 24.5681H10.338C10.338 24.6029 10.3511 24.6377 10.3511 24.6812H10.6041C10.674 24.5768 10.7525 24.6812 10.8441 24.6464C10.9139 24.6247 11.0056 24.6595 11.0972 24.6682C11.1234 24.6595 11.1452 24.6464 11.167 24.6334C11.215 24.6203 11.2456 24.69 11.2936 24.6334C11.3285 24.6116 11.3983 24.6464 11.4419 24.5985C11.4725 24.5855 11.503 24.5855 11.5335 24.5985C11.5772 24.6421 11.6383 24.6334 11.6819 24.6334C11.8084 24.6334 11.935 24.6551 12.0484 24.5898C12.0615 24.6029 12.0833 24.6116 12.0964 24.6334C12.1095 24.6203 12.1226 24.6073 12.1401 24.5985C12.1531 24.6116 12.175 24.6203 12.1881 24.6334C12.2273 24.616 12.271 24.6073 12.3146 24.5985C12.3844 24.5855 12.4629 24.5985 12.5197 24.5768C12.5982 24.5333 12.6462 24.6247 12.7248 24.5985C12.764 24.5855 12.8077 24.5768 12.8513 24.5768C12.8862 24.5637 12.9342 24.555 12.9429 24.5637C12.9996 24.6334 13.0825 24.5985 13.148 24.5985H15.9275C16.006 24.6029 16.0802 24.5942 16.1544 24.5637C16.2285 24.5333 16.3158 24.542 16.3856 24.5855C16.4162 24.5985 16.4467 24.5985 16.4773 24.5855C16.5689 24.5376 16.6518 24.5507 16.7522 24.5855C16.8438 24.616 16.9398 24.6116 17.027 24.5724C17.0707 24.5507 17.1667 24.5376 17.2016 24.5594C17.2583 24.6029 17.315 24.5811 17.3761 24.5942C17.4197 24.6073 17.4808 24.616 17.5245 24.629C17.5507 24.6116 17.5768 24.5942 17.6074 24.5855C17.6292 24.6073 17.6423 24.629 17.651 24.629C17.7208 24.6203 17.7863 24.5942 17.843 24.5594C17.9259 24.5158 17.9695 24.616 18.0481 24.5942C18.0961 24.5811 18.131 24.5724 18.1746 24.5594C18.2793 24.616 18.4059 24.6247 18.5193 24.5811C18.5979 24.5594 18.6808 24.5333 18.7244 24.5594C18.8509 24.616 18.9862 24.5811 19.1171 24.5942H19.4051C19.44 24.5942 19.4618 24.616 19.4749 24.616C19.5316 24.6029 19.5796 24.6029 19.6233 24.5942C19.6669 24.5855 19.7105 24.5724 19.7498 24.5594C19.7978 24.5768 19.8502 24.5855 19.8981 24.5942C20.0116 24.5942 20.1294 24.6073 20.2429 24.5942C20.3127 24.5811 20.3563 24.6377 20.4392 24.6073C20.4959 24.5724 20.5876 24.6073 20.6705 24.5637C20.7097 24.555 20.749 24.5594 20.7839 24.5768C20.8625 24.6247 20.9323 24.5898 21.0021 24.555C21.0894 24.6073 21.1941 24.616 21.2901 24.5768C21.3337 24.5637 21.4035 24.555 21.4384 24.5768C21.5301 24.6247 21.6217 24.6116 21.7133 24.5985C21.9664 24.555 21.9795 24.555 22.2064 24.5985C22.1715 24.5071 22.2151 24.4854 22.2849 24.4723ZM4.95793 11.6147L4.92302 11.5799C4.88812 11.6016 4.85321 11.6147 4.8183 11.6364L4.88812 11.7061C4.9143 11.68 4.94048 11.6495 4.95793 11.6147ZM36.4921 11.7191C36.4965 11.7104 36.5008 11.6974 36.5052 11.6843C36.4834 11.6495 36.4703 11.6277 36.4485 11.5929L36.4354 11.606C36.4135 11.6539 36.4485 11.6756 36.479 11.6974C36.4703 11.7061 36.4834 11.7061 36.4921 11.7191ZM36.4834 22.6747C36.4615 22.7182 36.3917 22.7313 36.4485 22.8096C36.4572 22.7661 36.5401 22.753 36.4834 22.6747ZM7.7854 23.2231V23.3624C7.80722 23.3624 7.8334 23.3581 7.85522 23.3493C7.8334 23.3058 7.81158 23.2666 7.7854 23.2231ZM19.3178 24.703H19.4662C19.4574 24.6812 19.4531 24.6595 19.4531 24.6334C19.4095 24.6551 19.3615 24.6769 19.3178 24.703ZM7.82031 21.839H7.79849V21.9652H7.82031V21.839ZM17.7557 26.1698H17.7208C17.7208 26.2047 17.7339 26.2395 17.7339 26.2743H17.7557V26.1698ZM32.7265 26.3178V26.283C32.6916 26.283 32.6567 26.2961 32.6218 26.2961V26.3178H32.7265ZM15.9755 8.46338V8.44162H15.8969V8.46338H15.9755ZM7.82031 21.5822H7.79849V21.6649H7.82031V21.5822ZM34.9998 18.7878V18.7747H34.9518V18.7878H34.9998ZM34.9649 19.4537V19.4668H35.0085V19.4537H34.9649ZM25.4309 9.69952V9.71258H25.4746V9.69952H25.4309ZM25.2913 8.076H25.2782V8.12387H25.2913V8.076ZM18.8815 8.15434H18.8684V8.19787H18.8815V8.15434ZM19.5273 24.703H19.5404V24.6595H19.5273V24.703ZM26.8097 25.8608V25.8477H26.7661V25.8608H26.8097ZM17.7339 26.122H17.747V26.0741H17.7339V26.122ZM18.9993 8.20222H19.0124V8.1587H18.9993V8.20222ZM26.0418 9.72564V9.71258H25.9982V9.72564H26.0418ZM35.1045 14.2611H35.1176V14.2175H35.1045V14.2611ZM25.7538 26.1916V26.1785H25.7102V26.1916H25.7538ZM7.87703 12.1196H7.89012V12.0717H7.87703V12.1196ZM25.8454 26.2047H25.8585V26.1611H25.8454V26.2047Z" fill="url(#paint0_linear_1404_1364)"/>
<path d="M11.0141 27.7847C11.0709 27.924 11.1407 28.0371 11.1887 28.1634C11.2323 28.2939 11.2847 28.4202 11.3501 28.542C11.4199 28.6552 11.4548 28.7814 11.5247 28.899C11.5945 29.0252 11.6381 29.1514 11.721 29.2646C11.8039 29.3777 11.7908 29.5388 11.9523 29.6215C11.9654 29.5518 11.9654 29.5083 11.9741 29.4474C11.9959 29.4343 12.0221 29.4343 12.0308 29.4256C12.0526 29.369 12.0657 29.3125 12.0875 29.2515C12.1923 28.9642 12.3493 28.7031 12.4191 28.3941C12.4322 28.3244 12.489 28.2678 12.5108 28.2112C12.537 28.1764 12.5588 28.1372 12.5675 28.0981C12.5544 27.9501 12.6591 27.8587 12.7508 27.7673H13.7369C13.8154 27.7716 13.8896 27.7847 13.9681 27.8021C13.9551 27.8804 13.9551 27.9631 13.9463 28.0415V29.3168C13.942 29.3952 13.942 29.4779 13.9463 29.5562C13.9594 29.6345 13.9027 29.7303 13.9812 29.8087C13.9114 29.8783 13.9332 29.9697 13.9463 30.0263C13.9681 30.1046 14.0161 30.1743 13.9463 30.257C13.9594 30.3136 13.9943 30.3832 13.9812 30.4311C13.9245 30.5704 13.9463 30.7053 13.9463 30.8446V31.1667C13.9463 31.2581 13.9245 31.3625 13.9812 31.4539C14.0031 31.4888 13.9812 31.5584 13.9812 31.615H12.6809C12.7159 31.4757 12.633 31.3277 12.7246 31.1928C12.646 31.1014 12.6897 30.9882 12.6897 30.8838C12.6897 30.8054 12.6679 30.7227 12.7246 30.6531C12.7377 30.6313 12.7115 30.5747 12.6897 30.5051C12.6897 30.492 12.7115 30.4703 12.7246 30.4354C12.7115 30.4137 12.6984 30.3963 12.6809 30.3788C12.7508 30.3005 12.7028 30.2047 12.6809 30.1046C12.6679 30.1264 12.6591 30.1525 12.646 30.1743C12.5195 30.4137 12.4061 30.6661 12.2664 30.9055C12.1879 31.0448 12.1181 31.1797 12.0483 31.319C12.0134 31.3974 11.9435 31.467 11.8868 31.5366C11.865 31.5236 11.8301 31.5236 11.8301 31.5149C11.7603 31.3756 11.6599 31.2755 11.6119 31.1144C11.5727 31.0013 11.5159 30.8968 11.4417 30.8054C11.3719 30.7009 11.3283 30.5878 11.2585 30.4746C11.2018 30.3745 11.1319 30.2787 11.0534 30.2004V30.9839C11.0534 31.0056 11.0883 31.0274 11.0883 31.0535C11.084 31.1057 11.0752 31.1536 11.0665 31.2015C11.1232 31.306 11.0796 31.4409 11.1014 31.5932H9.84911L9.75748 31.5018C9.75748 31.4888 9.77057 31.4888 9.7793 31.4801C9.76621 31.4452 9.75748 31.4061 9.75748 31.3669C9.75748 31.3321 9.80548 31.2973 9.74439 31.2537C9.75748 31.232 9.7793 31.1971 9.78803 31.1754C9.71821 31.084 9.74439 30.9795 9.74439 30.8794C9.74439 30.7793 9.70949 30.6618 9.7793 30.5704C9.7313 30.479 9.70949 30.3876 9.76621 30.3049C9.75312 30.2352 9.72258 30.1656 9.74439 30.109C9.75748 30.0524 9.81421 29.9958 9.74439 29.9349L9.82293 29.8565C9.80112 29.7521 9.77494 29.652 9.75312 29.5344C9.75312 29.5214 9.77494 29.5127 9.78803 29.4996C9.75312 29.3516 9.70949 29.2036 9.78803 29.0513C9.71821 29.0295 9.78803 28.9817 9.77494 28.9468C9.76185 28.9164 9.75748 28.8772 9.76185 28.8424C9.79675 28.7031 9.79675 28.7031 9.76185 28.5333C9.76185 28.5116 9.74876 28.4985 9.76185 28.4768C9.77494 28.3984 9.81857 28.3157 9.79675 28.2591C9.76185 28.1895 9.77494 28.1329 9.78366 28.0633C9.79675 27.9849 9.76185 27.8891 9.74876 27.8021C10.1851 27.7847 10.5996 27.7847 11.0141 27.7847Z" fill="url(#paint1_linear_1404_1364)"/>
<path d="M19.2479 30.0306C19.2348 29.9827 19.2218 29.9392 19.2043 29.8913H19.0865C19.0734 29.8696 19.0647 29.8696 19.0647 29.8565V29.7303C19.0647 29.6955 19.0778 29.6258 19.0516 29.6171C19.0079 29.5823 19.0647 29.5605 19.0516 29.5257C19.0472 29.4561 19.0559 29.3864 19.0734 29.3211C19.1214 29.2907 19.1694 29.2646 19.2218 29.2428C19.2785 29.1644 19.2218 29.0121 19.3003 28.8859C19.3003 28.8859 19.2654 28.8641 19.2654 28.838C19.213 28.6204 19.2043 28.394 19.2436 28.172C19.2567 28.1155 19.2218 28.0806 19.2218 28.0328C19.2087 27.9892 19.2916 27.9631 19.2436 27.9196C19.2305 27.9065 19.2305 27.8978 19.2087 27.863C19.261 27.8456 19.309 27.8282 19.357 27.8064C19.3439 27.7934 19.3352 27.7716 19.3221 27.7629H19.9897C20.1032 27.776 20.221 27.7281 20.3126 27.7977C20.3519 27.7803 20.3955 27.7672 20.4391 27.7629H21.3118C21.3467 27.7629 21.3816 27.7847 21.4253 27.7847H21.5387C21.5954 27.7716 21.6783 27.7411 21.7132 27.7629C21.77 27.8195 21.8267 27.7281 21.8834 27.776C21.9183 27.8108 21.9969 27.7977 22.058 27.7977C22.1627 27.8108 22.2194 27.8761 22.2892 27.937V28.2591C22.2892 28.3157 22.3241 28.3723 22.3241 28.4201C22.3241 28.468 22.2892 28.5115 22.2892 28.5681C22.2892 28.6247 22.311 28.6726 22.311 28.7292C22.311 28.7945 22.3023 28.8598 22.2892 28.925V29.1079C22.2892 29.1383 22.2979 29.1688 22.311 29.1993C22.2892 29.2558 22.2543 29.3255 22.2194 29.4169C22.1627 29.4604 22.0798 29.5214 22.0143 29.5649C22.1627 29.6171 22.2848 29.7216 22.3721 29.8522V30.8271C22.3721 30.9055 22.3852 31.0012 22.359 31.0796C22.3372 31.1492 22.3721 31.2189 22.3808 31.2842C22.2979 31.3625 22.2325 31.4322 22.1496 31.5018C22.01 31.5192 21.8703 31.5453 21.7351 31.5801C21.7002 31.5845 21.6652 31.5845 21.6303 31.5801H19.3003C19.2916 31.5801 19.2828 31.5758 19.2785 31.5671C19.2567 31.393 19.1738 31.2363 19.2654 31.0535C19.2479 31.0187 19.2348 30.9795 19.2305 30.9403V30.5399C19.2305 30.5094 19.2392 30.4789 19.2523 30.4485C19.2698 30.3962 19.2698 30.3396 19.2523 30.2874C19.2043 30.2134 19.1999 30.109 19.2479 30.0306ZM21.0064 30.9925C21.0064 30.8881 21.0195 30.8184 21.0064 30.7619C20.9846 30.7053 21.0762 30.6487 21.0195 30.5877C21.0893 30.5312 20.9977 30.4833 21.0064 30.4136C21.0238 30.2744 21.0238 30.1307 21.0064 29.9914C21.002 29.9479 20.9889 29.9044 20.9715 29.8652C20.8798 29.9436 20.7969 29.9 20.7184 29.9087C20.6049 29.8043 20.5351 29.9218 20.4522 29.9653C20.5002 30.0001 20.5133 30.0654 20.4784 30.1133C20.4697 30.122 20.4653 30.1307 20.4522 30.1394C20.5439 30.1742 20.4391 30.2439 20.474 30.2787C20.5308 30.3484 20.4522 30.3919 20.4522 30.4528C20.522 30.5225 20.509 30.5921 20.4522 30.6574C20.4653 30.6704 20.4784 30.6835 20.4871 30.7009C20.474 30.7706 20.4653 30.8402 20.4435 30.9403C20.522 30.8968 20.5919 30.9969 20.6617 30.9185C20.6835 30.936 20.7053 30.9534 20.7315 30.9664C20.7795 30.9534 20.8231 30.9185 20.858 30.9316C20.8929 30.949 20.9366 30.9708 21.0064 30.9925ZM21.0544 28.4724H20.4784C20.4566 28.6117 20.5002 28.7596 20.4435 28.8728C20.5133 28.999 20.4566 29.1383 20.4871 29.2646C20.6704 29.356 20.8537 29.3081 21.05 29.3081V29.2515C21.0631 29.208 20.9802 29.1731 21.0369 29.1253C20.9671 29.0774 21.05 29.0339 21.0369 28.999C21.0369 28.9207 21.0806 28.838 21.002 28.7684C21.0587 28.7118 21.0631 28.6247 21.0151 28.5638C21.0326 28.5377 21.0456 28.5072 21.0544 28.4724Z" fill="url(#paint2_linear_1404_1364)"/>
<path d="M18.1571 31.3843C18.0087 31.5584 17.7993 31.6367 17.5462 31.6367H15.6656C15.5128 31.6324 15.3601 31.5976 15.2161 31.5323C15.0547 31.4757 14.9631 31.3495 14.9631 31.1536C14.9761 30.7183 14.9631 30.2918 14.9631 29.8565C14.9631 29.7782 14.998 29.6824 14.9282 29.6041C14.9151 29.591 14.9631 29.5344 14.95 29.5257C14.8802 29.4822 14.9936 29.4561 14.9631 29.4125C14.9412 29.3777 14.9412 29.3429 14.9194 29.3081C14.8976 29.2646 14.9892 29.2036 14.9194 29.1601C14.9412 29.1122 14.9412 29.06 14.9194 29.0121C14.9063 28.9599 14.9063 28.9033 14.9194 28.8511C14.9325 28.7814 14.9412 28.7118 14.9543 28.6334C14.9543 28.6204 14.9325 28.6117 14.9194 28.5986L14.9631 28.5507C14.8496 28.3549 14.9631 28.1503 14.9631 27.9414C15.0765 27.9065 15.1463 27.8151 15.2729 27.7934C15.3209 27.7803 15.3732 27.7716 15.4212 27.7716H17.7556C17.8691 27.7716 17.9869 27.8151 18.1003 27.8412C18.144 27.8978 18.1701 27.9457 18.2138 28.0154C18.2356 28.1068 18.1789 28.2199 18.2487 28.3244C18.2356 28.3374 18.2225 28.3505 18.2138 28.3679C18.2269 28.4376 18.3054 28.5159 18.2269 28.5986C18.2836 28.677 18.2487 28.7597 18.2269 28.8511C18.2138 28.8859 18.2618 28.9294 18.2618 28.9773C18.2618 29.0339 18.24 29.0904 18.24 29.1601C18.2443 29.2036 18.2443 29.2428 18.24 29.2863C18.2181 29.4343 18.2181 29.5388 18.2618 29.6432C18.2443 29.6737 18.2312 29.7085 18.2269 29.7477C18.2225 29.7999 18.2225 29.8565 18.2269 29.9087V30.0916C18.2269 30.1481 18.2487 30.2308 18.192 30.2744C18.2356 30.3005 18.2487 30.3571 18.2225 30.4006C18.2181 30.4093 18.2094 30.418 18.2051 30.4224C18.2181 30.4398 18.2269 30.4615 18.24 30.4789C18.253 30.5355 18.2836 30.6052 18.2618 30.64C18.2269 30.6966 18.24 30.7532 18.24 30.8141C18.2051 30.9925 18.24 31.1884 18.1571 31.3843ZM16.2153 28.5072V28.7466C16.211 28.8249 16.211 28.9076 16.2153 28.986C16.2284 29.0382 16.2328 29.0904 16.2284 29.147C16.2066 29.2123 16.2066 29.2863 16.2284 29.3516C16.2415 29.4082 16.2153 29.4778 16.2066 29.5475V30.9011C16.3812 30.936 16.5513 30.788 16.6997 30.9142C16.7215 30.8924 16.7433 30.8794 16.7695 30.8576C16.8306 30.9098 16.9179 30.9186 16.9877 30.8794C16.9746 30.8228 16.944 30.7749 16.944 30.7183C16.9397 30.6487 16.9397 30.579 16.944 30.5138C16.944 30.4659 16.944 30.4224 16.9571 30.3745C16.9789 30.3179 16.9135 30.2831 16.9353 30.2352C16.9528 30.2004 16.9659 30.1612 16.9702 30.122C16.9571 30.0872 16.944 30.048 16.9353 30.0089V28.4289C16.8088 28.4419 16.6953 28.4637 16.5775 28.4637C16.4815 28.5203 16.355 28.5072 16.2153 28.5072Z" fill="url(#paint3_linear_1404_1364)"/>
<path d="M31.5657 29.3211C31.4959 29.4604 31.4959 29.517 31.5526 29.6432C31.5177 29.7216 31.4741 29.7912 31.5526 29.8739C31.4261 29.9436 31.2995 29.9436 31.1599 29.9436H30.152V30.9403C30.1869 30.9577 30.2218 30.9751 30.2567 30.9969H31.4959C31.5308 31.0317 31.5526 31.0665 31.6006 31.1101C31.5875 31.2363 31.6224 31.3843 31.5657 31.5323C31.5788 31.5627 31.5919 31.5889 31.6137 31.6106C31.5919 31.6237 31.5788 31.6324 31.5657 31.6324H29.048C28.9782 31.628 28.9084 31.615 28.843 31.5976V31.3669C28.8386 31.2885 28.8386 31.2058 28.843 31.1275C28.856 31.0578 28.7644 30.9882 28.8299 30.9229C28.76 30.8315 28.8648 30.7749 28.8648 30.7053C28.795 30.4528 28.9084 30.1786 28.7862 29.9131H28.6946C28.6597 29.8435 28.6379 29.7738 28.603 29.7085C28.6815 29.6041 28.6248 29.4778 28.6466 29.3429C28.699 29.3255 28.747 29.3081 28.795 29.2863C28.8386 29.2167 28.7513 29.1601 28.795 29.0817C28.8299 29.0252 28.7731 28.9338 28.8299 28.8859C28.76 28.7727 28.8168 28.6465 28.795 28.529C28.7731 28.4245 28.8299 28.3244 28.795 28.2199C28.7731 28.1068 28.8168 27.9805 28.7382 27.863C28.952 27.8021 29.1746 27.7847 29.3927 27.8151C29.4276 27.8282 29.4713 27.8021 29.5062 27.8021H30.5185C30.5578 27.8021 30.5927 27.8151 30.6232 27.8369C30.645 27.85 30.7018 27.8238 30.7628 27.8238C30.8327 27.8674 30.9112 27.8587 31.0028 27.8369C31.0159 27.8369 31.0246 27.8151 31.0377 27.8151C31.0945 27.8151 31.1512 27.7934 31.1992 27.8151C31.3257 27.8935 31.4959 27.7934 31.6224 27.9196C31.6137 27.9631 31.5962 28.0066 31.5788 28.0458C31.557 28.0806 31.6573 28.1155 31.5788 28.159C31.6486 28.2373 31.6137 28.307 31.5788 28.3897C31.5657 28.4114 31.5788 28.4593 31.5788 28.5028H30.2305C30.1738 28.5028 30.1258 28.5028 30.0909 28.5594C30.1956 28.6639 30.0691 28.764 30.0778 28.8815C30.0865 28.999 30.0778 29.1209 30.0778 29.2471C30.0996 29.2689 30.1214 29.295 30.1345 29.3037C30.3309 29.2515 30.5359 29.2515 30.7323 29.3037C30.8937 29.2428 31.0683 29.2471 31.2254 29.3168C31.2384 29.3037 31.2603 29.295 31.269 29.282C31.3824 29.2646 31.4653 29.2863 31.5657 29.3211Z" fill="url(#paint4_linear_1404_1364)"/>
<path d="M27.9486 30.9273V31.4888C27.9137 31.5105 27.87 31.5453 27.822 31.5802C27.7697 31.628 27.6911 31.6367 27.6257 31.6019C27.6039 31.5889 27.5471 31.5671 27.5341 31.5889C27.4642 31.6585 27.3857 31.6237 27.3028 31.6237H26.4868C26.4476 31.615 26.4083 31.6063 26.3734 31.5889L26.3603 31.6019H25.7713L25.6796 31.5105V30.788C25.6796 30.7183 25.7145 30.64 25.6447 30.5834C25.7233 30.5138 25.6796 30.4354 25.6796 30.3527C25.684 30.2744 25.684 30.1917 25.6796 30.1133V27.9805C25.6622 27.9588 25.6447 27.937 25.636 27.9109L25.7625 27.7847C25.7407 27.7977 25.7494 27.7847 25.7625 27.7847H26.6352C26.6832 27.7803 26.7268 27.776 26.7748 27.7629C26.8141 27.7803 26.8577 27.789 26.9014 27.7977C26.9145 27.8543 26.945 27.937 26.945 28.0023C26.9581 28.2896 26.945 28.5638 26.945 28.8511C26.9494 28.8946 26.9537 28.9381 26.9668 28.9773C26.9537 29.0165 26.945 29.06 26.945 29.1035C26.945 29.1732 26.9232 29.2515 26.9581 29.2994C27.0017 29.369 26.9101 29.4038 26.945 29.4474C26.9625 29.4822 26.9755 29.5214 26.9799 29.5605C26.9275 29.6389 26.9188 29.739 26.9581 29.8261C26.9799 29.8696 26.9363 29.9044 26.9712 29.9523C27.0061 29.9871 26.9712 30.0654 26.9843 30.1264C26.9843 30.1786 26.9712 30.2308 26.9494 30.2744C26.9275 30.3179 26.9494 30.3875 26.9494 30.4572V30.9273H27.9486Z" fill="url(#paint5_linear_1404_1364)"/>
<path d="M24.6497 27.8325V28.6595C24.6497 28.6726 24.6279 28.6813 24.6279 28.6944C24.6846 28.7292 24.6628 28.7858 24.6628 28.8424V31.171C24.6628 31.2406 24.6846 31.3103 24.6279 31.3756C24.6061 31.3973 24.6497 31.467 24.6628 31.5236C24.6454 31.5584 24.6279 31.5932 24.6061 31.628C24.5145 31.6977 24.401 31.5149 24.3181 31.615C24.2396 31.615 24.1567 31.5802 24.0999 31.6019C23.9603 31.6585 23.8338 31.615 23.7072 31.6237C23.6854 31.6237 23.6505 31.5889 23.6287 31.5802C23.6112 31.5976 23.5938 31.6106 23.572 31.6237C23.5153 31.6019 23.4673 31.5889 23.3974 31.5671C23.3669 31.4931 23.3451 31.4148 23.3407 31.3364C23.3407 31.2929 23.2622 31.2319 23.3538 31.1971V30.6443C23.3494 30.5878 23.3364 30.5268 23.3189 30.4702C23.3407 30.4267 23.3494 30.3788 23.3538 30.331V29.6781C23.3538 29.5867 23.3756 29.4952 23.3756 29.4038C23.3756 29.3124 23.3669 29.221 23.3538 29.1296V28.8336C23.3538 28.7901 23.3756 28.7292 23.3756 28.6857C23.3756 28.6378 23.3669 28.5943 23.3538 28.5464C23.3407 28.5116 23.332 28.4767 23.3189 28.4419C23.3887 28.2591 23.332 28.0763 23.3538 27.8804C23.4236 27.8108 23.5196 27.7716 23.62 27.776C23.8949 27.776 24.161 27.789 24.4359 27.776C24.5232 27.776 24.5799 27.8064 24.6497 27.8325Z" fill="url(#paint6_linear_1404_1364)"/>
<path d="M22.8478 22.8445C22.6863 22.7748 22.538 22.8009 22.3896 22.8227C22.3416 22.8357 22.2849 22.8575 22.2631 22.8445C22.1933 22.8009 22.1235 22.8227 22.058 22.8096C21.9969 22.7922 21.9358 22.7792 21.8747 22.7748C21.818 22.7748 21.7482 22.8096 21.6784 22.8314C21.6828 22.7922 21.6784 22.753 21.6653 22.7182C21.6566 22.6921 21.6435 22.666 21.6304 22.6399V22.6051C21.6871 22.5702 21.6304 22.5224 21.6435 22.5006C21.674 22.4658 21.6784 22.4135 21.6566 22.3744C21.6086 22.3047 21.6348 22.2351 21.6784 22.1785C21.6566 22.1089 21.6348 22.0523 21.6086 21.9826C21.6217 21.9696 21.6435 21.9609 21.6435 21.9478V20.777C21.6435 20.7639 21.6217 20.7421 21.6086 20.7334C21.6609 20.5854 21.6697 20.4287 21.6304 20.2764C21.626 20.2329 21.626 20.1937 21.6304 20.1502C21.6435 19.9891 21.6435 19.8281 21.6435 19.6801C21.6435 19.667 21.6217 19.6453 21.6086 19.6322C21.6217 19.5974 21.6566 19.5756 21.6566 19.5408C21.6435 19.3362 21.6915 19.1273 21.6348 18.9227C21.6217 18.8662 21.6566 18.8096 21.6566 18.7399C21.6784 18.5441 21.6217 18.3395 21.6915 18.1436C21.6348 18.0522 21.6784 17.9478 21.6566 17.8563C21.6217 17.778 21.5518 17.7084 21.5169 17.6257C21.4689 17.5473 21.434 17.4646 21.3904 17.395C21.3773 17.395 21.3642 17.3993 21.3555 17.408V16.9031C21.3555 16.8901 21.3424 16.8814 21.3424 16.8901C21.386 16.7508 21.3642 16.6246 21.3642 16.5114V16.1545L21.4471 16.0718C21.4471 16.0369 21.4602 16.0021 21.4602 15.9673C21.5388 16.0239 21.6086 15.9238 21.6784 15.9673C21.7133 15.8977 21.7351 15.8411 21.77 15.7845C21.7264 15.7279 21.6653 15.6452 21.6217 15.5799C21.6915 15.5233 21.6566 15.4406 21.6653 15.3754C21.6784 15.3057 21.6435 15.2143 21.6784 15.1795C21.7482 15.0968 21.6566 15.0315 21.6784 14.9836C21.7264 14.914 21.6348 14.8704 21.6784 14.8095L21.7482 14.7747C21.7264 14.6267 21.6784 14.4874 21.6784 14.3525C21.6653 13.8955 21.6784 13.4341 21.6784 12.9771C21.6784 12.8944 21.7002 12.803 21.6435 12.7377C21.7002 12.668 21.6653 12.5897 21.6784 12.507C21.6828 12.4199 21.6828 12.3329 21.6784 12.2415C21.6784 12.211 21.6697 12.1762 21.6566 12.1501C21.7002 12.0151 21.6958 11.8715 21.6435 11.7366C21.6653 11.68 21.6915 11.5886 21.7133 11.5059H23.0223C23.1009 11.5059 23.1968 11.5842 23.2623 11.5407C23.3321 11.4841 23.4019 11.5407 23.4586 11.5059C23.5154 11.4841 23.607 11.4928 23.6768 11.5059C23.7074 11.5102 23.7335 11.5233 23.7554 11.5407C23.7815 11.5233 23.8077 11.5146 23.8339 11.5059H24.6019C24.6368 11.5059 24.6717 11.5276 24.7066 11.5276C24.7851 11.5276 24.8593 11.5276 24.9378 11.5146C25.0164 11.5146 25.1124 11.4798 25.1909 11.5015C25.2476 11.5146 25.3044 11.5712 25.3654 11.5015C25.396 11.5363 25.4484 11.5494 25.492 11.5363C25.5749 11.5842 25.6316 11.606 25.6883 11.6408C25.6883 11.6277 25.7014 11.6277 25.7014 11.619C25.7931 11.7235 25.876 11.8236 25.9676 11.9411C25.9545 11.9629 25.9458 11.976 25.9327 11.9977C25.9458 12.0325 25.9545 12.0717 25.9545 12.1109V13.8084C25.9545 13.865 25.9065 13.9129 25.9414 13.9782C25.9763 14.0304 25.9632 14.0957 25.9196 14.1392C25.9981 14.2176 25.9414 14.3003 25.9196 14.3917C25.8978 14.4744 25.8716 14.5527 25.8498 14.6441C25.8672 14.6485 25.8891 14.6528 25.9065 14.6572C25.9065 14.6702 25.9283 14.6789 25.9196 14.692C25.9065 14.7703 25.9065 14.8661 25.8978 14.9444C25.8978 14.9575 25.8847 14.9662 25.8978 14.9662C25.9676 15.0576 25.9196 15.149 25.876 15.2535C26.0243 15.4493 25.9458 15.667 25.9676 15.8977C25.9327 15.9194 25.9109 15.9412 25.876 15.9673C25.8891 15.9804 25.9021 15.9978 25.9109 16.0152C25.8541 16.0935 25.8891 16.1893 25.876 16.2546C25.8323 16.346 25.7843 16.4156 25.7363 16.494L25.7494 16.507C25.7014 16.5767 25.6447 16.642 25.588 16.7029H25.4047C25.4178 16.7377 25.4396 16.7725 25.4614 16.8074C25.5313 16.8552 25.6098 16.8988 25.7014 16.9554C25.6927 16.9728 25.6796 16.9858 25.6665 16.9989C25.7145 17.0555 25.7494 17.1251 25.7931 17.1817C25.8498 17.2383 25.9196 17.2731 25.9676 17.321C26.0592 17.7127 26.0112 18.1132 26.0243 18.5005C26.0374 18.8879 26.0243 19.2797 26.0243 19.6714V21.173C26.02 21.247 26.0112 21.3167 26.0025 21.3907C26.0112 21.4124 26.0243 21.4298 26.0374 21.4473C26.0592 21.4908 25.9807 21.5387 26.0374 21.5952C26.0723 21.6301 26.0374 21.7084 26.0505 21.7781C26.0636 21.9173 26.0156 22.0305 25.972 22.1437C25.9283 22.2568 25.8672 22.3657 25.7974 22.4658C25.684 22.6051 25.5443 22.6616 25.4047 22.74C25.3305 22.7748 25.2476 22.7879 25.1647 22.7835C24.8637 22.7835 24.5669 22.8401 24.2702 22.8183C24.0739 22.888 23.8906 22.7835 23.6943 22.8183C23.6375 22.8314 23.5808 22.7966 23.5197 22.8532C23.5066 22.8662 23.463 22.8532 23.4281 22.8401C23.2667 22.7835 23.1052 22.8183 22.935 22.827C22.8696 22.8227 22.8565 22.8357 22.8478 22.8445ZM25.7974 20.851C25.7974 20.8684 25.8061 20.8858 25.8192 20.8988L25.8323 20.8901L25.7974 20.851C25.7887 20.8422 25.7756 20.8292 25.7756 20.8161L25.7625 20.8292C25.7625 20.851 25.7756 20.851 25.7974 20.851ZM23.2361 14.7921C23.2361 14.7747 23.2274 14.7573 23.2143 14.7486L23.2012 14.7616C23.2143 14.7747 23.223 14.7834 23.3147 14.7181C23.2928 14.7616 23.2099 14.7747 23.2361 14.8443C23.2797 14.8661 23.3147 14.9009 23.3496 14.914C23.2928 14.9923 23.3277 15.062 23.3496 15.1447C23.3714 15.2143 23.3365 15.2927 23.3277 15.3754C23.3321 15.3797 23.3365 15.3884 23.3408 15.3971C23.3539 15.593 23.3539 15.7976 23.3627 15.9717C23.4543 15.9847 23.5459 16.0152 23.6245 15.9934C23.6375 16.0282 23.6463 16.05 23.6594 16.0848C23.6986 16.0718 23.7379 16.0587 23.7728 16.0413C23.847 16.0457 23.9212 16.0587 23.991 16.0761C24.0826 16.0282 24.1393 15.9934 24.2091 15.963C24.1393 15.815 24.1655 15.667 24.1655 15.5146C24.1655 15.4798 24.1786 15.4232 24.1524 15.4015C24.1088 15.3579 24.1306 15.3101 24.1175 15.2752C24.1175 15.2404 24.1044 15.1838 24.1306 15.1621C24.2004 15.1055 24.0739 15.0837 24.1175 15.0489C24.1873 14.9923 24.1524 14.9227 24.1524 14.8661C24.1742 14.692 24.1175 14.5092 24.1873 14.3394C24.2004 14.3046 24.1742 14.2611 24.1742 14.2263C24.1393 14.087 24.1306 13.939 24.1873 13.8258C24.0957 13.5864 24.2004 13.3688 24.2004 13.1599C24.1306 13.125 24.0739 13.0902 24.0041 13.0554C23.9473 13.0685 23.8775 13.0336 23.8077 13.0902C23.7641 13.125 23.6943 13.0554 23.6245 13.0902C23.5677 13.112 23.4761 13.0902 23.3932 13.0902C23.3801 13.125 23.3583 13.1599 23.3452 13.1947C23.3321 13.2643 23.3321 13.334 23.3452 13.3993C23.3976 13.8519 23.2928 14.2872 23.2361 14.7921ZM24.1655 20.0152V19.7541C24.1699 19.667 24.1568 19.5843 24.1306 19.5016C24.1088 19.4581 24.1175 19.3885 24.1306 19.3188C24.1437 19.2622 24.1524 19.1926 24.1655 19.136C24.2004 18.9401 24.1088 18.7573 24.1655 18.5615C24.1786 18.5179 24.1437 18.4701 24.1437 18.4483C24.1873 18.2524 24.0652 18.0696 24.1786 17.8999C24.1437 17.8302 24.1219 17.7606 24.087 17.6822C24.0303 17.6997 23.9692 17.7171 23.9124 17.7388C23.8994 17.7258 23.8775 17.7171 23.8557 17.6909C23.8339 17.7214 23.8121 17.7562 23.799 17.7954C23.7292 17.7519 23.6506 17.7519 23.6375 17.6692C23.5939 17.7388 23.5241 17.704 23.4761 17.7127L23.3714 17.8172C23.3757 17.8607 23.3757 17.8999 23.3714 17.9434C23.3147 18.0217 23.3277 18.0914 23.3583 18.1828C23.3801 18.2437 23.3845 18.3134 23.3714 18.3787C23.3147 18.531 23.3147 18.6964 23.3714 18.8487C23.3801 18.8923 23.3714 18.9358 23.3496 18.975C23.3234 19.0403 23.3321 19.1143 23.3714 19.1708C23.3103 19.2405 23.3103 19.3449 23.3714 19.4102C23.2928 19.5016 23.3147 19.6148 23.3277 19.6975C23.3714 19.9717 23.3714 20.111 23.3277 20.3504C23.3147 20.4418 23.3059 20.5332 23.3496 20.6028C23.3147 20.7857 23.2797 20.9598 23.2579 21.1295L23.4979 21.3036C23.5328 21.2688 23.5677 21.247 23.6026 21.2122C23.6943 21.3036 23.799 21.247 23.8994 21.2253C23.9168 21.2514 23.9343 21.2819 23.9561 21.3036H24.1175C24.1524 21.2253 24.1961 21.1556 24.231 21.0729C24.2091 21.0512 24.1873 21.0294 24.1742 21.0033V20.1415C24.2092 20.1197 24.231 20.1067 24.279 20.0718C24.2222 20.0501 24.2004 20.0283 24.1655 20.0152ZM21.5344 16.1196C21.4908 16.1414 21.4559 16.1675 21.3948 16.2023H21.5344V16.1196ZM21.7438 18.9967H21.7787C21.7787 18.975 21.7657 18.9532 21.7657 18.9271H21.7438V18.9967ZM21.7438 15.4798H21.7657V15.4015H21.7438V15.4798ZM24.3051 13.7388H24.327V13.6604H24.3051V13.7388ZM24.4535 20.2242V20.2372H24.4971V20.2242H24.4535Z" fill="url(#paint7_linear_1404_1364)"/>
<path d="M17.0663 22.8009C17.0096 22.814 16.9398 22.7879 16.8831 22.8357C16.8264 22.8618 16.7609 22.8488 16.7216 22.8009C16.6824 22.8531 16.6125 22.8618 16.5602 22.8227C16.5035 22.7748 16.4686 22.8575 16.4206 22.8357C16.3813 22.814 16.3377 22.8009 16.294 22.8009C16.2722 22.8009 16.2504 22.8227 16.2242 22.8357C16.0977 22.7443 15.9624 22.6529 15.8315 22.5615C15.7704 22.5136 15.7311 22.444 15.7181 22.3657C15.705 22.296 15.6962 22.2264 15.6831 22.1611C15.6351 22.0174 15.609 21.8651 15.6046 21.7128V19.7062C15.6002 19.6366 15.6177 19.5626 15.6482 19.5016C15.6701 19.4668 15.6919 19.432 15.6831 19.3972C15.6701 19.3406 15.6395 19.284 15.6482 19.2361C15.657 19.1882 15.6919 19.1447 15.6831 19.0881C15.6701 18.9967 15.705 18.8923 15.6482 18.8009C15.6352 18.7878 15.6482 18.7791 15.6482 18.766C15.6482 18.6964 15.6351 18.618 15.6613 18.5702C15.7093 18.5005 15.6046 18.4788 15.6395 18.4091C15.6744 18.3525 15.6264 18.2829 15.6613 18.2133C15.6831 18.1654 15.6395 18.1001 15.6395 18.0391C15.6526 17.8912 15.6046 17.7388 15.6744 17.5908C15.6046 17.4515 15.6526 17.3036 15.6395 17.1556C15.6395 17.099 15.6177 17.0424 15.6744 16.9815C15.6875 16.9684 15.6744 16.9249 15.6613 16.8901C15.6613 16.8683 15.6395 16.8552 15.6395 16.8422C15.6177 16.7856 15.6744 16.729 15.6526 16.6724C15.6264 16.6158 15.6352 16.5505 15.6744 16.4983C15.6962 16.4635 15.6613 16.3939 15.6526 16.3242L15.6875 16.2894C15.6177 16.2415 15.6308 16.1501 15.6526 16.1066C15.6875 16.0282 15.6657 15.9586 15.6526 15.889C15.6395 15.7627 15.6395 15.6365 15.6526 15.5103C15.6657 15.3971 15.609 15.2709 15.6875 15.1534C15.6962 15.1229 15.6919 15.0881 15.6744 15.062C15.6352 14.9923 15.6308 14.9053 15.6613 14.8313C15.6831 14.7747 15.7093 14.7268 15.6613 14.6702C15.6264 14.6267 15.6962 14.557 15.6744 14.5309C15.6395 14.4874 15.6526 14.4395 15.6526 14.3916C15.6526 14.3351 15.6395 14.2524 15.6657 14.2437C15.7355 14.2088 15.609 14.1653 15.6788 14.1305C15.6919 14.0913 15.6919 14.0565 15.6919 14.0173V13.878C15.6875 13.8389 15.6701 13.804 15.6482 13.7736C15.6613 13.7605 15.6701 13.7388 15.6831 13.7257C15.6701 13.6996 15.657 13.6778 15.6351 13.6561C15.6526 13.6386 15.6701 13.6212 15.6831 13.5995C15.6831 13.5429 15.5915 13.4863 15.6701 13.4036C15.705 13.3688 15.6919 13.2904 15.705 13.2208L15.6351 13.1512C15.6482 13.038 15.6133 12.9205 15.6701 12.8073C15.6919 12.7638 15.6701 12.7028 15.657 12.6375C15.6177 12.52 15.6264 12.3938 15.6788 12.2806C15.6657 12.2502 15.6526 12.2197 15.6439 12.1892C15.6308 12.1544 15.6308 12.1109 15.657 12.0978C15.7137 12.063 15.6439 12.0412 15.657 12.0064C15.6701 11.9934 15.6788 11.9759 15.6788 11.9585C15.6613 11.8889 15.6482 11.8236 15.6439 11.754C15.6439 11.6974 15.6788 11.6408 15.7006 11.5494L15.7835 11.471C15.8795 11.4884 15.9755 11.5015 16.0715 11.5059C16.1631 11.5102 16.2504 11.532 16.3333 11.5624C16.39 11.5494 16.4249 11.4232 16.5166 11.4928C16.5296 11.5233 16.5427 11.5537 16.5515 11.5842C16.5907 11.5537 16.63 11.5189 16.6649 11.4797C16.7696 11.4797 16.8831 11.4667 16.9878 11.5276C17.0445 11.4928 17.0925 11.5842 17.1623 11.5276C17.1972 11.4928 17.2758 11.5276 17.3456 11.5276C17.3936 11.5624 17.4503 11.5973 17.5289 11.6538C17.4896 11.6713 17.446 11.6843 17.4023 11.6974C17.4372 11.915 17.4809 12.1326 17.4154 12.3633C17.4634 12.7202 17.4634 12.9379 17.4023 13.038C17.4198 13.0946 17.4329 13.1512 17.4372 13.2121V14.4047C17.4372 14.4613 17.4241 14.5092 17.4241 14.5658C17.4241 14.6223 17.4329 14.6833 17.446 14.7399C17.459 14.7964 17.4241 14.8661 17.4809 14.914C17.3892 14.9967 17.494 15.062 17.4809 15.1447C17.4765 15.223 17.4765 15.3057 17.4809 15.384C17.4809 15.4276 17.5027 15.4755 17.459 15.5103C17.446 15.5233 17.4372 15.5669 17.446 15.5799C17.5158 15.6844 17.4809 15.7845 17.4809 15.889V17.1033C17.4809 17.173 17.5027 17.2513 17.4678 17.2992C17.4241 17.3688 17.5114 17.3906 17.4896 17.4602C17.4678 17.5168 17.4896 17.5995 17.4765 17.6561C17.4678 17.7083 17.459 17.7649 17.4416 17.8172C17.4547 17.8302 17.4634 17.8389 17.4634 17.852C17.4416 17.9086 17.4285 17.9651 17.4067 18.0261C17.4285 18.1088 17.4765 18.2002 17.4765 18.3003V19.3623C17.4765 19.4537 17.4416 19.5582 17.4416 19.6496C17.4285 19.741 17.4634 19.8455 17.4285 19.9369C17.3849 20.0762 17.4067 20.1893 17.4285 20.3156C17.4416 20.3722 17.4154 20.4287 17.3936 20.4984C17.4983 20.5898 17.3587 20.6812 17.35 20.7857C17.363 20.8074 17.3718 20.8422 17.3936 20.8901C17.3805 20.9075 17.3674 20.9249 17.3587 20.9467L17.3936 20.9815C17.3805 20.9946 17.3674 21.012 17.3587 21.025C17.4372 21.0816 17.507 21.1382 17.5987 21.2079C17.7121 21.1034 17.8605 21.0729 18.0219 21.0816C18.1834 21.0903 18.1834 21.0816 18.2401 21.0599C18.275 21.0773 18.3099 21.0947 18.3448 21.1034C18.323 21.1513 18.3099 21.173 18.2881 21.2166V21.1948C18.2663 21.1948 18.2314 21.2079 18.2052 21.2079V21.2296C18.2357 21.2296 18.2619 21.2253 18.2881 21.2079C18.323 21.1861 18.3623 21.1687 18.4015 21.1643C18.4015 21.1774 18.4146 21.2079 18.4146 21.234L18.4015 21.2209C18.3884 21.234 18.3797 21.2427 18.3666 21.2427L18.3797 21.2557C18.3928 21.2427 18.4015 21.234 18.4015 21.2209C18.4495 21.234 18.4975 21.2079 18.515 21.16C18.515 21.1556 18.5193 21.1469 18.5193 21.1426C18.5193 21.0294 18.5892 20.938 18.563 20.8118C18.5586 20.7117 18.5586 20.6115 18.563 20.5114C18.563 20.4766 18.5848 20.4549 18.5979 20.407C18.563 20.3156 18.5281 20.2111 18.5848 20.111C18.5935 20.0805 18.5979 20.0501 18.5979 20.0196V19.5974C18.6066 19.5277 18.5892 19.4537 18.5543 19.3928C18.6241 19.3362 18.5193 19.2796 18.5543 19.2187C18.611 19.1752 18.659 19.1839 18.7026 19.2535C18.7244 19.1055 18.5761 19.1404 18.5543 19.049V18.7747L18.6939 18.6703C18.6764 18.6398 18.659 18.6137 18.6372 18.5919C18.6502 18.5702 18.6721 18.5484 18.6721 18.5353C18.659 18.4657 18.6284 18.4004 18.659 18.3656C18.7157 18.2959 18.6022 18.2742 18.6372 18.2045C18.659 18.161 18.6153 18.0783 18.6939 18.0435C18.6808 18.0217 18.6502 18 18.6502 17.9739C18.6633 17.791 18.5237 17.6082 18.6372 17.4254C18.659 17.3775 18.5935 17.3427 18.6241 17.2861C18.6459 17.2383 18.659 17.2034 18.611 17.1599C18.5979 17.1469 18.5892 17.1164 18.5979 17.1033C18.6459 16.9989 18.5979 16.8857 18.5979 16.7812C18.5979 16.7247 18.6197 16.6681 18.563 16.6071C18.5412 16.5854 18.563 16.5157 18.5761 16.4809C18.5761 16.4461 18.611 16.4113 18.5979 16.3895C18.5281 16.285 18.563 16.1936 18.5979 16.0892C18.611 16.0674 18.5979 16.0326 18.5979 16.0108V14.9314C18.5979 14.8791 18.5892 14.8226 18.5761 14.7703C18.611 14.5527 18.6197 14.3438 18.563 14.1392C18.5761 14.1261 18.5848 14.1044 18.611 14.0913C18.5281 13.9433 18.5543 13.7692 18.5761 13.6212C18.5892 13.495 18.6328 13.3688 18.5979 13.2556C18.5543 13.0728 18.5761 12.8987 18.563 12.7289C18.563 12.6724 18.5412 12.6158 18.5979 12.5548C18.611 12.5287 18.611 12.4983 18.5979 12.4765C18.5281 12.3503 18.5761 12.211 18.5761 12.0761C18.5761 11.9498 18.6459 11.8236 18.5761 11.6626C18.611 11.6713 18.6459 11.68 18.6808 11.6843L18.7506 11.7191C18.755 11.6974 18.7637 11.6713 18.7724 11.6495C18.7419 11.6408 18.707 11.6234 18.6808 11.6016C18.7026 11.5668 18.7244 11.532 18.7506 11.4972C18.9339 11.6103 19.152 11.4754 19.3484 11.5886C19.4051 11.5668 19.4618 11.5059 19.5229 11.5755C19.5796 11.5276 19.6495 11.5537 19.7062 11.5407C19.776 11.5189 19.8196 11.5886 19.9025 11.5537C19.968 11.5363 20.0334 11.5363 20.0989 11.5537C20.16 11.5711 20.2211 11.5886 20.2822 11.6103C20.2822 11.6321 20.2952 11.6451 20.2952 11.6669C20.3301 11.68 20.3651 11.68 20.4087 11.6887C20.3869 11.7583 20.3738 11.8236 20.3651 11.8932C20.3956 11.915 20.4305 11.9281 20.4698 11.9411C20.3781 12.0891 20.3214 12.2284 20.4567 12.3764C20.4436 12.3894 20.4305 12.4069 20.4218 12.4243C20.4349 12.446 20.4567 12.4678 20.4785 12.5026C20.4349 12.5244 20.4 12.5461 20.3738 12.5592C20.3912 12.594 20.4087 12.6288 20.4305 12.6637C20.4043 12.6767 20.3781 12.6811 20.3476 12.6854C20.3476 12.6985 20.3345 12.7072 20.3345 12.7202C20.3345 12.7986 20.3214 12.8813 20.3781 12.9509C20.4698 13.0641 20.4611 13.2034 20.4611 13.3427C20.4611 13.3862 20.4261 13.421 20.4261 13.4689C20.4261 13.5037 20.461 13.5603 20.448 13.5603C20.3912 13.6038 20.496 13.6299 20.4611 13.6735C20.448 13.6865 20.4611 13.7083 20.4611 13.73C20.448 13.7866 20.4261 13.8563 20.448 13.878C20.496 13.9346 20.4043 13.9825 20.4611 14.0478C20.496 14.0826 20.4611 14.161 20.4611 14.2175V15.0097C20.4611 15.0663 20.4392 15.1359 20.496 15.1925C20.509 15.223 20.5047 15.2578 20.4829 15.2839C20.4131 15.3536 20.4829 15.3971 20.496 15.4667C20.4829 15.4885 20.4654 15.5146 20.448 15.5364C20.4567 15.5538 20.4698 15.5669 20.4829 15.5799C20.4698 15.6931 20.4698 15.7845 20.4611 15.8672C20.4392 15.9586 20.5745 16.0369 20.4611 16.1196C20.5309 16.1893 20.5047 16.2676 20.4829 16.3373C20.4611 16.3764 20.4611 16.4243 20.4829 16.4635C20.5047 16.5027 20.5134 16.5462 20.5047 16.5897C20.448 16.6463 20.5396 16.6942 20.5047 16.7377C20.4698 16.7856 20.461 16.8422 20.4698 16.8988C20.4654 16.9597 20.4654 17.0206 20.4698 17.0816C20.5265 17.2426 20.5047 17.3906 20.5047 17.5517C20.5047 17.5952 20.5265 17.6431 20.4698 17.6779C20.4567 17.6909 20.4567 17.7345 20.4567 17.7562C20.5134 17.9086 20.5134 18.074 20.4567 18.2263C20.4523 18.2698 20.4523 18.309 20.4567 18.3525C20.4436 18.4091 20.4785 18.4788 20.4218 18.5484C20.4 18.5702 20.4087 18.6398 20.4349 18.6746C20.4698 18.7573 20.4698 18.8531 20.4349 18.9401C20.4261 18.988 20.4349 19.0359 20.4567 19.0794C20.4436 19.1229 20.4349 19.1839 20.4218 19.2274C20.4 19.284 20.4654 19.3188 20.4436 19.3885C20.4218 19.445 20.4305 19.5016 20.4218 19.5582V19.9021C20.4087 20.0283 20.4349 20.1415 20.3869 20.2677C20.3563 20.3504 20.3651 20.4418 20.4087 20.5201C20.4174 20.5288 20.4218 20.5419 20.4218 20.555C20.4218 20.6333 20.3432 20.703 20.4087 20.8074C20.4567 20.864 20.4218 20.9815 20.4218 21.0599C20.4218 21.1513 20.4436 21.2557 20.4218 21.3471C20.3738 21.5299 20.4 21.7128 20.3869 21.8956C20.3738 22.0305 20.304 22.148 20.2472 22.2612C20.2036 22.3657 20.0727 22.444 19.9724 22.5267C19.8153 22.6399 19.6233 22.6965 19.4313 22.6877C19.3615 22.6877 19.2829 22.666 19.2131 22.7226C19.2 22.7008 19.1782 22.679 19.1782 22.666C19.0386 22.5963 18.947 22.7008 18.8335 22.679C18.7288 22.666 18.6153 22.7139 18.5455 22.6573C18.467 22.6703 18.3841 22.6921 18.3274 22.6703C18.2575 22.6355 18.1746 22.6268 18.0961 22.6486C17.9347 22.7052 17.7645 22.6703 17.603 22.6834C17.5681 22.6834 17.5463 22.7052 17.5114 22.7182C17.4067 22.6747 17.3151 22.6747 17.1667 22.7182C17.1492 22.8444 17.0882 22.8793 17.0663 22.8009C17.0794 22.7966 17.0882 22.7835 17.1012 22.7748L17.0882 22.7617C17.0882 22.7792 17.0794 22.7879 17.0663 22.8009ZM15.849 13.3035C15.849 13.2861 15.8402 13.2687 15.8271 13.2556L15.814 13.2687C15.8271 13.2861 15.8533 13.2904 15.8708 13.2817C15.8446 13.3166 15.814 13.347 15.7791 13.3731C15.814 13.3644 15.849 13.3601 15.8839 13.3601C15.897 13.334 15.8882 13.3122 15.849 13.3035ZM20.064 11.7888C20.112 11.8105 20.1425 11.8236 20.2123 11.8584C20.1687 11.7801 20.1556 11.7453 20.1338 11.6974C20.1207 11.7322 20.0945 11.7627 20.064 11.7888ZM17.1972 11.6408C17.206 11.6669 17.2103 11.693 17.2103 11.7191C17.2278 11.6887 17.2452 11.6626 17.2671 11.6408H17.1972ZM17.3543 11.6843H17.3238C17.3238 11.7061 17.3369 11.7322 17.3369 11.754H17.3587V11.6843H17.3543ZM16.7565 11.7191H16.7696V11.6756H16.7565V11.7191ZM16.1282 13.3818H16.1151V13.4297H16.1282V13.3818Z" fill="url(#paint8_linear_1404_1364)"/>
<path d="M29.5325 21.2296C29.6111 21.2514 29.7158 21.1948 29.7856 21.2645C29.8161 21.2209 29.8511 21.1861 29.8903 21.1513V21.012C29.9034 20.9554 29.9121 20.8988 29.9252 20.8379C29.9034 20.8248 29.8816 20.8248 29.8554 20.8161L29.8423 20.8031C29.8249 20.703 29.8249 20.6029 29.8292 20.5027C29.8423 20.4113 29.8729 20.3286 29.8074 20.2416C29.7943 20.2111 29.7987 20.1763 29.8205 20.1502C29.8554 20.1067 29.8685 20.0588 29.8205 20.0109C29.7638 19.9543 29.8772 19.8847 29.8074 19.8281C29.8511 19.7367 29.7856 19.6322 29.8074 19.5408C29.8292 19.4364 29.7856 19.3232 29.8423 19.21C29.8511 19.1708 29.8467 19.1317 29.8292 19.0968C29.7943 19.0272 29.7856 18.9445 29.8074 18.8662C29.8511 18.6485 29.8511 18.6355 29.8074 18.4657C29.7856 18.3743 29.7725 18.2829 29.8423 18.2002C29.7376 18.0261 29.8641 17.8085 29.7507 17.6257L29.6809 17.6605C29.6242 17.5343 29.4627 17.556 29.3929 17.395C29.3929 17.3602 29.4976 17.3036 29.406 17.2339C29.4496 17.1295 29.3493 17.0163 29.4191 16.9118C29.4278 16.8944 29.4322 16.8727 29.4322 16.8552C29.4453 16.7638 29.3536 16.6811 29.4191 16.581C29.4627 16.5114 29.3973 16.3982 29.4627 16.3155C29.4627 16.1414 29.4627 16.1327 29.5194 15.9717C29.5543 15.9847 29.598 15.9847 29.6329 15.9934C29.7725 15.9804 29.9078 15.9586 30.0561 15.9499C30.078 15.9717 30.0954 15.9934 30.1129 16.0195C30.1609 15.9978 30.2089 15.9717 30.2525 15.9368C30.3659 15.9934 30.4925 15.9978 30.6103 15.9499C30.667 16.0195 30.7499 15.9847 30.8285 15.9717C30.8677 15.9586 30.9026 15.9499 30.9419 15.9499C31.0903 15.9847 31.0903 15.9847 31.2648 15.9499C31.3302 15.9456 31.3957 15.9456 31.4611 15.9499C31.4481 15.9847 31.4393 16.0195 31.4262 16.0544C31.5397 16.2024 31.6313 16.3765 31.5397 16.5941C31.5571 16.6202 31.5702 16.655 31.5746 16.6855C31.5615 16.7769 31.5179 16.8596 31.5746 16.9597C31.6182 17.0511 31.5877 17.1643 31.5877 17.2818V17.5821C31.5877 17.6518 31.6008 17.7171 31.5528 17.7867C31.5179 17.8476 31.5179 17.9216 31.5528 17.9826C31.5964 18.0522 31.5877 18.1219 31.5877 18.1872V19.0011C31.5877 19.0707 31.6008 19.1404 31.5528 19.2057C31.531 19.2405 31.5659 19.3101 31.5746 19.4015C31.5615 19.432 31.5528 19.4625 31.5528 19.4929C31.5659 19.6322 31.5397 19.7672 31.5746 19.9064C31.6182 20.0327 31.6095 20.1763 31.5528 20.2982C31.531 20.3461 31.5528 20.4113 31.5397 20.481C31.5397 20.5158 31.5179 20.5506 31.5048 20.6203C31.5353 20.6768 31.5615 20.7378 31.5746 20.8031C31.5833 20.8597 31.5746 20.9206 31.5528 20.9772C31.5222 21.0425 31.5222 21.1165 31.5528 21.1818C31.5659 21.2035 31.5659 21.2253 31.5746 21.2514C31.5964 21.3297 31.4699 21.3994 31.5746 21.4821C31.5615 21.5648 31.5964 21.6431 31.5397 21.7128C31.5964 21.7911 31.5615 21.8738 31.5266 21.9652C31.5048 22.0436 31.5048 22.148 31.483 22.2307C31.4611 22.296 31.4262 22.3613 31.3782 22.4135C31.3215 22.4701 31.2648 22.5398 31.2037 22.6094V22.6312C30.859 22.814 30.5012 22.9185 30.0998 22.827C29.9732 22.9054 29.79 22.8053 29.6416 22.8836C29.6067 22.8662 29.5718 22.8488 29.5369 22.827C29.4584 22.8401 29.3624 22.8619 29.2707 22.8836L29.1573 22.827L29.1442 22.8401C29.118 22.8793 29.07 22.888 29.0307 22.8619C29.0264 22.8575 29.022 22.8532 29.0177 22.8488C28.9697 22.8053 28.9478 22.8967 28.9042 22.8706C28.8606 22.8488 28.8126 22.8401 28.7646 22.8357C28.6948 22.888 28.5988 22.8836 28.5333 22.8227C28.4417 22.8662 28.3501 22.8923 28.2584 22.8227C28.1668 22.8662 28.0621 22.901 27.9617 22.8227C27.9399 22.8314 27.9224 22.8488 27.905 22.8662C27.3901 22.7182 27.4468 22.6834 27.2374 22.4875C27.2592 22.3483 27.089 22.3265 27.089 22.2569C27.0541 22.0262 27.0323 21.8434 26.9974 21.6388C27.1239 21.5126 26.9407 21.3384 27.0192 21.1905C27.0061 21.1339 26.9843 21.0642 27.0061 21.0164C27.0498 20.8901 27.028 20.777 27.0192 20.6507C27.0192 20.6377 26.9974 20.629 26.9974 20.629C27.0105 20.6072 27.0323 20.5854 27.0323 20.5593C27.0105 20.3417 27.0759 20.1241 26.9974 19.9064C27.0541 19.7672 26.9407 19.6322 26.9843 19.4929C27.041 19.3319 27.0192 19.1839 27.0192 19.0229C27.0323 18.8749 26.9494 18.7356 26.9712 18.6006C26.993 18.4962 26.993 18.383 27.0192 18.2786C27.0323 18.2089 26.9712 18.1523 27.0061 18.0827C27.028 18.0261 26.993 17.9434 27.0498 17.8999C27.028 17.7737 27.0716 17.6474 27.0149 17.5081C26.9756 17.4124 26.9843 17.3079 27.0367 17.2209C27.0236 17.1295 27.0149 17.0598 27.0018 16.9902C27.1065 16.8857 27.0934 16.7725 27.0803 16.6594C27.0541 16.6463 27.0279 16.6376 27.0018 16.6376C27.0192 16.5897 27.0323 16.5375 27.0367 16.4896C27.0367 16.4461 27.0585 16.3852 27.0018 16.3416C27.0803 16.3068 26.9581 16.2633 27.0236 16.2024C27.0367 16.2024 27.0454 16.198 27.0585 16.1893C27.0585 16.1806 27.0629 16.1719 27.0716 16.1675C27.0585 16.1458 27.0367 16.1327 27.0367 16.124C27.0585 15.9281 26.993 15.7453 26.993 15.5495V14.9662C26.993 14.9314 27.0149 14.9096 27.028 14.8748C26.9712 14.84 27.0061 14.7703 26.993 14.7138V14.5309C26.993 14.4874 26.9494 14.4047 26.9581 14.3917C27.0367 14.322 26.9363 14.2872 26.945 14.2306C26.9581 14.2176 26.9669 14.1958 26.9887 14.174C26.9189 14.0957 26.9669 13.9782 26.932 13.8998C26.8883 13.7954 26.8883 13.6735 26.932 13.569C26.945 13.5473 26.932 13.4994 26.932 13.4646V12.9945C26.9363 12.803 26.9494 12.6114 26.98 12.4199C26.9974 12.3329 27.0061 12.2458 27.0149 12.1544C27.0367 12.0282 27.1196 11.9368 27.1981 11.8454C27.2679 11.767 27.3465 11.6974 27.4294 11.6147C27.4861 11.606 27.5385 11.5842 27.5777 11.5451C27.6825 11.4536 27.6912 11.4624 27.8177 11.5233H27.8395C27.8657 11.4928 27.905 11.4754 27.9443 11.4798H28.6642L28.6773 11.4928L28.7122 11.5276C28.7908 11.5146 28.8518 11.4493 28.9435 11.5146C28.9784 11.5363 29.07 11.5276 29.1267 11.5015C29.2053 11.4798 29.2664 11.4798 29.3231 11.5233C29.4016 11.4798 29.4845 11.4536 29.5631 11.5015C29.6329 11.5363 29.6765 11.5494 29.7463 11.5015C29.7682 11.4798 29.8249 11.4885 29.8598 11.4885C29.9296 11.5015 30.0081 11.4536 30.0649 11.5233C30.1216 11.4798 30.2045 11.4885 30.2699 11.4885H30.4881C30.5492 11.4885 30.6059 11.5015 30.6626 11.5233C30.7063 11.5451 30.8023 11.5102 30.8372 11.5363C30.8939 11.5712 30.9637 11.5494 30.9986 11.5712C31.1252 11.6756 31.2866 11.7322 31.3433 11.902C31.3608 11.9542 31.387 11.9977 31.4219 12.0412C31.4088 12.1544 31.4437 12.2806 31.4001 12.4069L31.4219 12.4286C31.4437 12.4852 31.3433 12.507 31.4001 12.5766C31.4219 12.5984 31.3782 12.668 31.387 12.7159C31.4001 12.8421 31.3521 12.9814 31.4219 13.1033C31.435 13.1381 31.435 13.1729 31.4219 13.2078C31.4044 13.2556 31.3913 13.3079 31.387 13.3557C31.387 13.4123 31.3652 13.4689 31.4088 13.5255C31.4306 13.5473 31.387 13.6169 31.387 13.6648C31.387 13.7214 31.4001 13.7779 31.4001 13.8345C31.4001 13.8911 31.3782 13.9477 31.387 14.0086C31.4001 14.1131 31.3521 14.2132 31.3302 14.3307C31.2604 14.3177 31.1819 14.309 31.0903 14.2959C30.9855 14.3525 30.8503 14.3177 30.7237 14.3177C30.5841 14.3307 30.4358 14.3046 30.3005 14.3177C30.1609 14.3307 30.0474 14.2741 29.9078 14.2741C29.838 14.2176 29.8162 14.161 29.886 14.0913L29.8423 14.0435C29.8641 14.0304 29.886 14.0217 29.9121 14.0217C29.9121 14.0086 29.9165 13.9999 29.9252 13.9869C29.8903 13.939 29.8903 13.8955 29.8816 13.8389C29.8816 13.7475 29.9034 13.643 29.8467 13.5516C29.8336 13.5386 29.8467 13.495 29.8598 13.482C29.9165 13.4123 29.8947 13.3688 29.8467 13.334C29.8685 13.2643 29.8816 13.1903 29.8903 13.1163H29.7507C29.7158 13.0815 29.6809 13.0598 29.646 13.0249C29.6329 13.038 29.6111 13.038 29.6023 13.0467C29.5325 13.0989 29.4453 13.1207 29.3624 13.1163C29.2358 13.1033 29.1006 13.1294 28.9697 13.0815C28.8911 13.0598 28.7951 13.1033 28.7079 13.1163C28.6729 13.2643 28.7079 13.3906 28.7515 13.5168C28.7646 13.5603 28.7733 13.6082 28.7733 13.6561C28.7253 13.9085 28.7166 13.9216 28.7733 14.1479V14.2045C28.7951 14.2741 28.6817 14.3307 28.7602 14.4221C28.7951 14.47 28.7733 14.5614 28.7733 14.6398V14.8792C28.7733 14.927 28.7951 14.9836 28.7384 15.0271C28.7253 15.0402 28.7166 15.0837 28.7253 15.0968C28.7951 15.1795 28.7602 15.2796 28.7602 15.3623C28.7733 15.5233 28.7253 15.6844 28.8038 15.8324V15.8672L28.7689 16.1066C28.8475 16.1762 28.8038 16.2676 28.8038 16.359C28.8169 16.4722 28.734 16.5897 28.7602 16.7029C28.782 16.7943 28.7384 16.8857 28.7951 16.9641C28.8169 16.9989 28.8082 17.0555 28.7951 17.1033C28.7777 17.1425 28.7646 17.186 28.7602 17.2296C28.7602 17.2731 28.7951 17.3079 28.7951 17.3558C28.7951 17.4254 28.7384 17.5168 28.7602 17.5604C28.8038 17.63 28.782 17.6997 28.7951 17.7649C28.7951 17.7867 28.7733 17.8085 28.7733 17.8346C28.7733 17.8781 28.7864 17.926 28.7864 18.0087C28.7428 18.0522 28.7428 18.1262 28.7864 18.1697C28.7908 18.1741 28.7951 18.1741 28.7951 18.1784C28.7253 18.3177 28.7384 18.444 28.782 18.6006C28.7471 18.6703 28.7122 18.7617 28.7951 18.8662C28.7515 18.9184 28.7384 18.9924 28.7602 19.062C28.7951 19.1665 28.8038 19.6018 28.7733 19.7149C28.7733 19.728 28.7646 19.7367 28.7515 19.7367C28.8213 19.8063 28.7951 19.8847 28.7733 19.9543C28.7384 20.0196 28.7384 20.098 28.7733 20.1589C28.8082 20.2242 28.7951 20.2982 28.7515 20.3548C28.7951 20.4462 28.8213 20.5376 28.7515 20.629C28.7689 20.6464 28.782 20.6638 28.7951 20.6856C28.7733 20.7204 28.7384 20.7552 28.7253 20.777C28.7384 20.8466 28.7471 20.9162 28.7602 20.9728C28.7166 21.0425 28.6337 21.0773 28.6337 21.1556C28.6773 21.2035 28.6686 21.1208 28.6773 21.1339C28.7908 21.1556 28.8606 21.2253 28.974 21.1905C29.0307 21.1687 29.1136 21.2122 29.1704 21.2383C29.214 21.2035 29.2489 21.1643 29.2882 21.1252C29.31 21.1426 29.3318 21.16 29.358 21.1687C29.3754 21.1513 29.3929 21.1382 29.4147 21.1252C29.5194 21.173 29.5325 21.1905 29.5325 21.2296C29.5107 21.2296 29.5107 21.2383 29.4976 21.2514L29.5107 21.2645C29.5107 21.2557 29.5194 21.2427 29.5325 21.2296ZM30.1172 20.4026C30.0474 20.4157 30.0125 20.4157 29.9427 20.4244C29.9689 20.4636 29.9994 20.5027 30.0343 20.5376C30.0692 20.4984 30.0954 20.4549 30.1172 20.4026ZM29.5762 21.5169C29.6111 21.4473 29.7027 21.4386 29.6678 21.3428C29.646 21.4037 29.5456 21.4124 29.5762 21.5169ZM30.0125 20.7726C30.0256 20.7726 30.0256 20.7857 30.0343 20.7857C30.0518 20.7552 30.0692 20.7204 30.078 20.6812C30.0561 20.6594 30.043 20.6377 30.0343 20.6246C30.0212 20.6377 30.0125 20.6464 30.0125 20.6594V20.7726ZM31.2342 12.4069C31.2604 12.3982 31.2866 12.3938 31.3128 12.3938C31.2822 12.3764 31.2561 12.359 31.2342 12.3372V12.4069ZM31.3259 22.2394H31.3477V22.1611H31.3259V22.2394ZM31.2473 21.3472H31.2604V21.3036H31.2473V21.3472ZM30.9812 16.1675H30.9681V16.2111H30.9812V16.1675ZM31.0946 11.7975H31.0815V11.8454H31.0946V11.7975ZM27.5821 11.8236V11.8106H27.5385V11.8236H27.5821Z" fill="url(#paint9_linear_1404_1364)"/>
<path d="M11.7036 22.6529C11.7254 22.7226 11.7385 22.7574 11.7473 22.7922C11.5945 22.8488 11.4375 22.8923 11.276 22.9185C11.2411 22.8619 11.1626 22.8967 11.1015 22.8967H10.687C10.6215 22.901 10.5561 22.8923 10.4906 22.8749C10.4208 22.8619 10.3772 22.9097 10.3161 22.8967C10.2593 22.8749 10.1983 22.8619 10.1372 22.8488C10.111 22.7835 10.0892 22.7182 10.0674 22.6529C10.0455 22.6399 9.99754 22.5964 9.96264 22.5746V21.0164C9.95827 20.9467 9.95391 20.8771 9.94082 20.8118C9.94954 20.777 9.95827 20.7421 9.96264 20.7073C9.967 20.6203 9.967 20.5332 9.96264 20.4418C9.94082 20.1328 9.99754 19.8237 9.99754 19.5147C9.98882 19.4451 9.98009 19.3754 9.96264 19.3101C9.97573 19.2971 9.98882 19.284 9.99754 19.2666C9.92773 19.21 9.98445 19.1056 9.919 19.0272C9.90591 19.0098 9.90591 18.988 9.919 18.9706C9.99754 18.8226 9.96264 18.6703 9.919 18.5223C9.95391 18.4309 10.0804 18.4091 10.0455 18.3047C9.98882 18.2699 9.94082 18.235 9.88409 18.2002C9.84919 18.2133 9.81428 18.235 9.77937 18.2437C9.76628 18.222 9.75756 18.222 9.75756 18.2089C9.68774 17.8085 9.72265 17.408 9.71392 17.0163C9.71392 16.9554 9.72265 16.8901 9.74883 16.8335C9.76628 16.7725 9.7881 16.716 9.81864 16.6594C9.85355 16.6028 9.84046 16.5114 9.95827 16.4983V16.1545C9.95827 16.1414 9.93646 16.1197 9.93646 16.1327C9.94955 16.0631 9.95827 15.9978 9.95827 15.9281V14.7094C9.96264 14.6615 9.967 14.618 9.98009 14.5701C9.98009 14.5701 9.95827 14.5571 9.95827 14.5484C9.94518 14.4091 9.91028 14.2611 9.93646 14.1262C9.98009 13.8868 9.91464 13.6343 9.98009 13.3819C9.967 13.3601 9.95391 13.3383 9.94518 13.3122C9.95391 13.2948 9.967 13.2817 9.98009 13.2687C9.967 13.1773 9.95827 13.0859 9.95827 12.9945C9.95827 12.9466 9.94518 12.9031 9.98009 12.8682C9.99318 12.8552 10.0019 12.8117 9.99318 12.7986C9.91464 12.6724 9.97136 12.5244 9.95827 12.3851C9.94518 12.2806 9.99318 12.1805 9.92336 12.0761C9.91027 12.0587 9.91027 12.0369 9.92336 12.0195C10.0019 11.9063 9.94518 11.767 9.967 11.6408C10.0019 11.619 10.0455 11.5842 10.1154 11.5363C10.207 11.5494 10.3117 11.5712 10.4164 11.5842C10.5299 11.5886 10.6477 11.5886 10.7611 11.5842C10.8179 11.5842 10.9008 11.619 10.9444 11.5494C10.9706 11.5363 11.0011 11.5363 11.0229 11.5494C11.2193 11.5973 11.2193 11.606 11.4375 11.5494C11.4942 11.5363 11.5422 11.6321 11.5858 11.5625C11.6774 11.619 11.7909 11.4928 11.8869 11.5973C11.9 11.6103 11.9218 11.5973 11.9436 11.5973C11.9785 11.5973 12.0222 11.5755 12.0571 11.5755C12.1007 11.5755 12.1487 11.5973 12.1967 11.5973C12.2927 11.5973 12.3887 11.5842 12.4847 11.5625C12.6461 11.5276 12.8163 11.5842 12.9777 11.6408C12.9995 11.6278 13.0126 11.606 13.0257 11.5973C13.0825 11.6103 13.1305 11.6321 13.1872 11.6408C13.1959 11.6147 13.209 11.5886 13.2221 11.5625C13.2352 11.5625 13.2439 11.5494 13.257 11.5494C13.3486 11.5973 13.4184 11.5973 13.5319 11.5973C13.6235 11.5973 13.7282 11.5625 13.8199 11.6408C13.8417 11.6278 13.8591 11.6147 13.8766 11.5973C14.0817 11.6408 14.278 11.7017 14.4176 11.9194C14.4176 11.9063 14.4046 11.9411 14.4176 11.9629C14.5093 12.0891 14.5006 12.2371 14.5006 12.3764V12.7638C14.5049 12.816 14.5136 12.8639 14.5355 12.9118C14.4875 12.9684 14.4787 13.0511 14.5486 13.1425C14.5311 13.1816 14.518 13.2252 14.5136 13.2687V13.8171C14.5136 13.9433 14.4787 14.0696 14.5006 14.1958C14.5136 14.322 14.5355 14.4352 14.4875 14.5527C14.5573 14.6006 14.4875 14.6441 14.4875 14.6659C14.5049 14.7181 14.5136 14.7703 14.5224 14.8269V16.2459C14.5224 16.3155 14.4744 16.3591 14.5093 16.4418C14.5442 16.4983 14.4962 16.581 14.4744 16.6463C14.4613 16.6681 14.4613 16.7247 14.4875 16.7377C14.5355 16.7813 14.5224 16.8422 14.5224 16.8857V17.5952C14.5224 17.6866 14.3827 18.0522 14.326 18.1001C14.2562 18.1567 14.1864 18.2046 14.1078 18.2481C14.0729 18.235 14.038 18.222 14.0031 18.2133C13.9857 18.2524 13.9595 18.2916 13.9333 18.3264C13.8679 18.3308 13.8024 18.3308 13.737 18.3264C13.6802 18.3134 13.6322 18.3961 13.5886 18.3264C13.5712 18.3308 13.5581 18.3395 13.5406 18.3482C13.4359 18.383 13.4141 18.383 13.3224 18.3351C13.2526 18.3482 13.1872 18.3569 13.1174 18.3569H11.8433C11.8127 18.3787 11.7778 18.4004 11.7516 18.4265C11.7734 18.4614 11.7909 18.4918 11.8083 18.531C11.7953 18.5528 11.7865 18.5658 11.7734 18.5876C11.7953 18.6442 11.8171 18.7008 11.8433 18.7486C11.8302 18.827 11.7953 18.9227 11.8214 18.9793C11.8782 19.1621 11.8563 19.358 11.8345 19.5408C11.8345 19.5756 11.8563 19.6192 11.8563 19.654V19.9978C11.8563 20.0327 11.8782 20.0544 11.8913 20.0892C11.8738 20.1415 11.8607 20.1937 11.8563 20.2503V20.642C11.8563 20.7813 11.8782 20.9162 11.8214 21.0555C11.7909 21.1252 11.7996 21.2035 11.8433 21.2601C11.8651 21.2862 11.8694 21.321 11.8563 21.3515C11.7996 21.456 11.9262 21.5691 11.8214 21.6605L11.8433 21.6823V22.5833C11.7953 22.5615 11.7473 22.6051 11.7036 22.6529ZM11.5509 16.4505C11.5509 16.433 11.5422 16.4156 11.5291 16.4069L11.516 16.42C11.5291 16.4418 11.5422 16.4418 11.5509 16.4505C11.564 16.4635 11.5727 16.4766 11.5727 16.4853L11.5858 16.4722C11.5858 16.4635 11.5771 16.4505 11.5509 16.4505ZM11.8389 16.2328C11.756 16.2764 11.7342 16.3112 11.7124 16.4374C11.804 16.4374 11.8171 16.5419 11.9087 16.5767C12.0003 16.6028 12.1007 16.6159 12.1967 16.6115C12.3363 16.6115 12.4716 16.5897 12.6199 16.5767C12.6418 16.5984 12.6767 16.6202 12.6985 16.6463C12.6636 16.5419 12.6418 16.4505 12.6985 16.3373C12.7247 16.3765 12.7552 16.4113 12.7901 16.4418C12.8032 16.4635 12.825 16.4766 12.8817 16.5114C12.8599 16.3721 12.8337 16.2589 12.8119 16.1545L12.7421 16.3286C12.7203 16.1545 12.537 16.0065 12.6723 15.8367C12.6505 15.8019 12.6374 15.7802 12.6156 15.7453C12.6418 15.7279 12.6723 15.7105 12.6941 15.6887C12.681 15.6452 12.6679 15.606 12.6592 15.5625V15.1142C12.6592 15.0707 12.6243 15.0228 12.6243 14.9662C12.6112 14.914 12.6112 14.8574 12.6243 14.8052C12.6461 14.7225 12.6941 14.6572 12.6243 14.5745C12.6025 14.3568 12.6592 14.1262 12.5894 13.9085C12.6723 13.7605 12.6025 13.6082 12.6374 13.4602L12.6941 13.4036C12.6592 13.3253 12.6374 13.2426 12.6025 13.1642L12.4323 13.199C12.4192 13.1773 12.4192 13.1512 12.4105 13.1294C12.3407 13.186 12.297 13.1076 12.2272 13.1294C12.1574 13.1338 12.0876 13.1338 12.0222 13.1294H11.8389C11.804 13.2078 11.7691 13.2905 11.7473 13.3601L11.8171 13.4297C11.8171 13.4863 11.8389 13.556 11.8171 13.5995C11.7822 13.6691 11.8389 13.7127 11.8171 13.7692C11.7603 13.9303 11.7603 14.1044 11.8171 14.2611C11.8389 14.3177 11.804 14.4004 11.7953 14.4787C11.9349 14.5832 11.7036 14.7312 11.8171 14.8574V15.7758C11.8345 15.9281 11.8433 16.0805 11.8389 16.2328ZM10.1154 14.5484C10.1983 14.4918 10.1852 14.4221 10.1634 14.3307C10.1328 14.3568 10.1023 14.3786 10.0717 14.4004C10.0804 14.4526 10.0935 14.5005 10.1154 14.5484ZM10.0848 19.1795C10.1066 19.2361 10.1328 19.2927 10.2113 19.271C10.1895 19.2318 10.1677 19.1883 10.1546 19.1447C10.1284 19.1665 10.1066 19.1665 10.0848 19.1795ZM11.9654 16.8204C12.0134 16.8074 12.0483 16.8074 12.1051 16.7987C12.0614 16.7769 12.0134 16.7595 11.9654 16.7421V16.8204ZM10.0935 14.2872L10.1154 14.309C10.1372 14.309 10.1503 14.2959 10.1721 14.2959C10.1677 14.2611 10.159 14.2263 10.1503 14.1914C10.1284 14.2393 10.1066 14.2611 10.0935 14.2872ZM12.2098 16.8204C12.236 16.8117 12.2621 16.8074 12.2927 16.8074C12.2621 16.79 12.236 16.7726 12.2098 16.7508V16.8204ZM12.5763 16.7856V16.7987H12.6199V16.7856H12.5763ZM11.3938 21.8042V21.8172H11.4418V21.8042H11.3938ZM12.8163 16.0979V16.111H12.8599V16.0979H12.8163ZM9.88846 18.1262V18.1393H9.93209V18.1262H9.88846ZM10.063 18.444V18.457H10.1066V18.444H10.063ZM10.1284 18.7225H10.1154V18.7661H10.1241L10.1284 18.7225Z" fill="url(#paint10_linear_1404_1364)"/>
<path d="M8.27832 10.6397C8.33504 10.5831 8.39177 10.5265 8.50958 10.5614C8.40486 10.5962 8.33941 10.6179 8.27832 10.6397Z" fill="black"/>
<path d="M8.2785 10.631C8.26541 10.644 8.25668 10.6527 8.25668 10.6658L8.24359 10.6527C8.24359 10.6397 8.25668 10.631 8.2785 10.631Z" fill="black"/>
<defs>
<linearGradient id="paint0_linear_1404_1364" x1="20.662" y1="25.9725" x2="20.662" y2="8.51923" gradientUnits="userSpaceOnUse">
<stop stop-color="#F08519"/>
<stop offset="0.541176" stop-color="#FFF000"/>
<stop offset="1" stop-color="#F08519"/>
</linearGradient>
<linearGradient id="paint1_linear_1404_1364" x1="11.8611" y1="31.5004" x2="11.8611" y2="27.8831" gradientUnits="userSpaceOnUse">
<stop stop-color="#F08519"/>
<stop offset="0.541176" stop-color="#FFF000"/>
<stop offset="1" stop-color="#F08519"/>
</linearGradient>
<linearGradient id="paint2_linear_1404_1364" x1="20.7073" y1="31.4694" x2="20.7073" y2="27.8705" gradientUnits="userSpaceOnUse">
<stop stop-color="#F08519"/>
<stop offset="0.541176" stop-color="#FFF000"/>
<stop offset="1" stop-color="#F08519"/>
</linearGradient>
<linearGradient id="paint3_linear_1404_1364" x1="16.589" y1="31.5216" x2="16.589" y2="27.8879" gradientUnits="userSpaceOnUse">
<stop stop-color="#F08519"/>
<stop offset="0.541176" stop-color="#FFF000"/>
<stop offset="1" stop-color="#F08519"/>
</linearGradient>
<linearGradient id="paint4_linear_1404_1364" x1="30.1123" y1="31.5183" x2="30.1123" y2="27.9158" gradientUnits="userSpaceOnUse">
<stop stop-color="#F08519"/>
<stop offset="0.541176" stop-color="#FFF000"/>
<stop offset="1" stop-color="#F08519"/>
</linearGradient>
<linearGradient id="paint5_linear_1404_1364" x1="26.7919" y1="31.5171" x2="26.7919" y2="27.8794" gradientUnits="userSpaceOnUse">
<stop stop-color="#F08519"/>
<stop offset="0.541176" stop-color="#FFF000"/>
<stop offset="1" stop-color="#F08519"/>
</linearGradient>
<linearGradient id="paint6_linear_1404_1364" x1="23.988" y1="31.5291" x2="23.988" y2="27.8921" gradientUnits="userSpaceOnUse">
<stop stop-color="#F08519"/>
<stop offset="0.541176" stop-color="#FFF000"/>
<stop offset="1" stop-color="#F08519"/>
</linearGradient>
<linearGradient id="paint7_linear_1404_1364" x1="23.6972" y1="22.5201" x2="23.6972" y2="11.8347" gradientUnits="userSpaceOnUse">
<stop stop-color="#F08519"/>
<stop offset="0.541176" stop-color="#FFF000"/>
<stop offset="1" stop-color="#F08519"/>
</linearGradient>
<linearGradient id="paint8_linear_1404_1364" x1="18.0577" y1="22.5101" x2="18.0577" y2="11.8135" gradientUnits="userSpaceOnUse">
<stop stop-color="#F08519"/>
<stop offset="0.541176" stop-color="#FFF000"/>
<stop offset="1" stop-color="#F08519"/>
</linearGradient>
<linearGradient id="paint9_linear_1404_1364" x1="29.25" y1="22.5439" x2="29.25" y2="11.8192" gradientUnits="userSpaceOnUse">
<stop stop-color="#F08519"/>
<stop offset="0.541176" stop-color="#FFF000"/>
<stop offset="1" stop-color="#F08519"/>
</linearGradient>
<linearGradient id="paint10_linear_1404_1364" x1="12.1299" y1="22.5795" x2="12.1299" y2="11.8789" gradientUnits="userSpaceOnUse">
<stop stop-color="#F08519"/>
<stop offset="0.541176" stop-color="#FFF000"/>
<stop offset="1" stop-color="#F08519"/>
</linearGradient>
</defs>
</svg>
