<svg width="41" height="40" viewBox="0 0 41 40" fill="none" xmlns="http://www.w3.org/2000/svg">
<g clip-path="url(#clip0_1404_4839)">
<path d="M16.5475 35.9337C1.85878 32.1456 0.653487 31.8278 0.666732 31.7615C0.679977 31.6821 8.81241 0.013245 8.82566 0C8.82566 0 15.978 1.82781 24.7064 4.07946C33.4349 6.33112 40.6004 8.15893 40.6137 8.15893C40.6402 8.15893 40.6402 8.21191 40.6269 8.27813C40.6004 8.47681 32.4812 39.9734 32.4548 39.9999C32.4548 40.0132 25.2892 38.1854 16.5475 35.9337ZM23.7528 20.8741C24.1766 19.2053 24.5342 17.8145 24.5475 17.7748C24.5607 17.7086 24.2428 17.6159 21.4746 16.9006C19.7793 16.4635 18.3621 16.1192 18.3488 16.1324C18.3091 16.1722 16.7462 22.3046 16.7594 22.3178C16.7859 22.3443 22.9448 23.9337 22.9581 23.9205C22.9581 23.9072 23.3157 22.543 23.7528 20.8741Z" fill="#E2231A"/>
</g>
<defs>
<clipPath id="clip0_1404_4839">
<rect width="40" height="40" fill="white" transform="translate(0.666626)"/>
</clipPath>
</defs>
</svg>
