<svg width="41" height="40" viewBox="0 0 41 40" fill="none" xmlns="http://www.w3.org/2000/svg">
<g clip-path="url(#clip0_1404_2488)">
<path d="M1.48215 25.7512C3.9534 33.9912 11.5965 40 20.6409 40C31.6865 40 40.6409 31.0456 40.6409 20C40.6409 8.95437 31.6865 0 20.6409 0C10.0421 0 1.36902 8.24563 0.684021 18.6712C1.98027 20.8444 2.4834 22.1887 1.4809 25.7512H1.48215Z" fill="url(#paint0_linear_1404_2488)"/>
<path d="M19.6103 14.9906L19.6122 15.0894L14.7184 22.1988C13.9259 22.1625 13.1309 22.3019 12.3759 22.6125C12.0473 22.7461 11.7335 22.9137 11.4397 23.1125L0.692798 18.6831C0.692798 18.6831 0.444048 22.7744 1.4803 25.8231L9.0778 28.9581C9.4528 30.6631 10.6278 32.1581 12.354 32.8769C13.7121 33.4412 15.2387 33.4434 16.5984 32.883C17.9581 32.3226 19.0398 31.2455 19.6059 29.8881C19.9079 29.1651 20.0536 28.3864 20.0334 27.6031L27.029 22.6L27.2009 22.6031C31.3915 22.6031 34.7978 19.1869 34.7978 14.9906C34.7978 10.7944 31.3978 7.39065 27.2009 7.3819C23.0122 7.3819 19.604 10.7944 19.604 14.9906H19.6103ZM18.4353 29.3969C17.5265 31.5844 15.019 32.6138 12.8397 31.7056C11.8726 31.2992 11.0887 30.5513 10.6372 29.6044L13.1103 30.6294C13.4923 30.7884 13.902 30.8706 14.3158 30.8713C14.7296 30.8719 15.1395 30.791 15.5221 30.6332C15.9046 30.4754 16.2523 30.2438 16.5453 29.9515C16.8383 29.6593 17.0709 29.3122 17.2297 28.93C17.5512 28.1579 17.5531 27.2896 17.235 26.5161C16.9168 25.7425 16.3046 25.1269 15.5328 24.8044L12.9703 23.745C13.9565 23.37 15.0778 23.3575 16.1265 23.7931C17.189 24.2325 18.0015 25.06 18.4365 26.1181C18.8715 27.1763 18.869 28.3431 18.4303 29.3969M27.2078 20.0625C25.865 20.0589 24.5783 19.5232 23.6297 18.5728C22.681 17.6224 22.1477 16.3347 22.1465 14.9919C22.148 13.6493 22.6815 12.362 23.6301 11.4118C24.5787 10.4617 25.8652 9.92616 27.2078 9.92252C28.5506 9.92583 29.8374 10.4612 30.7863 11.4114C31.7352 12.3615 32.2688 13.6491 32.2703 14.9919C32.2691 16.3349 31.7357 17.6228 30.7867 18.5732C29.8378 19.5237 28.5508 20.0592 27.2078 20.0625ZM23.4153 14.9838C23.4145 13.9748 23.8143 13.0068 24.5268 12.2925C25.2394 11.5782 26.2064 11.1761 27.2153 11.1744C29.3122 11.1744 31.0178 12.8806 31.0178 14.9838C31.0183 15.9929 30.618 16.961 29.905 17.6751C29.1919 18.3892 28.2245 18.7909 27.2153 18.7919C26.2065 18.7904 25.2395 18.3885 24.5268 17.6744C23.8142 16.9604 23.4148 15.9926 23.4153 14.9838Z" fill="white"/>
</g>
<defs>
<linearGradient id="paint0_linear_1404_2488" x1="20.3541" y1="0.3125" x2="20.3541" y2="40.3125" gradientUnits="userSpaceOnUse">
<stop stop-color="#111D2E"/>
<stop offset="0.212" stop-color="#051839"/>
<stop offset="0.407" stop-color="#0A1B48"/>
<stop offset="0.581" stop-color="#132E62"/>
<stop offset="0.738" stop-color="#144B7E"/>
<stop offset="0.873" stop-color="#136497"/>
<stop offset="1" stop-color="#1387B8"/>
</linearGradient>
<clipPath id="clip0_1404_2488">
<rect width="40" height="40" fill="white" transform="translate(0.666626)"/>
</clipPath>
</defs>
</svg>
