<svg width="41" height="40" viewBox="0 0 41 40" fill="none" xmlns="http://www.w3.org/2000/svg">
<rect x="1.16663" y="0.5" width="39" height="39" rx="9.5" fill="#0C1824"/>
<path d="M9.73379 11.0229C9.8644 10.938 9.94763 11.1096 10.0181 11.1999C14.5517 17.3823 19.0907 23.5601 23.6239 29.7425C23.7171 29.8305 23.6466 30.0187 23.5209 29.9985C21.3503 30.0012 19.1793 29.9994 17.0087 29.9994C16.8348 30.0016 16.6684 29.9073 16.5616 29.7596C14.3094 26.6924 12.0585 23.6239 9.80631 20.5563C9.71071 20.4323 9.66127 20.272 9.66745 20.1108C9.66745 17.1474 9.66827 14.1835 9.66663 11.2201C9.66786 11.15 9.66539 11.0593 9.73379 11.0229Z" fill="#FF4654"/>
<path d="M31.4887 11.0083C31.5785 10.9719 31.6775 11.061 31.6643 11.1621C31.6675 13.9905 31.6639 16.8189 31.6659 19.6473C31.6719 19.8075 31.6392 19.9733 31.5422 20.0993C30.879 20.9897 30.2149 21.8796 29.5517 22.7696C29.4411 22.9238 29.2603 23.0091 29.0794 22.9992C26.9899 22.9971 24.9001 23.0005 22.8106 22.9975C22.6873 23.0181 22.617 22.8394 22.708 22.7533C25.6056 18.8631 28.5056 14.9743 31.4048 11.085C31.4268 11.0516 31.4547 11.0259 31.4887 11.0083Z" fill="#FF4654"/>
<rect x="1.16663" y="0.5" width="39" height="39" rx="9.5" stroke="#FF4654"/>
</svg>
