<svg width="40" height="40" viewBox="0 0 40 40" fill="none" xmlns="http://www.w3.org/2000/svg">
<rect width="40" height="40" rx="10" fill="#107C10"/>
<path d="M20.0085 17C20.0085 17 20.0349 17 20.0482 17.027C23.966 20.0613 30.6652 27.5832 28.6204 29.6971C26.234 31.8265 23.1717 33 20.0019 33C16.8321 33 13.7699 31.8265 11.3834 29.6971C9.3254 27.5697 16.0379 20.0512 19.9722 17.027C19.9986 17.027 20.0118 17 20.025 17" fill="white"/>
<path d="M26.9842 8.98113C24.8846 7.68565 22.4702 7 20.0078 7C17.5454 7 15.131 7.68565 13.0314 8.98113C13.0251 8.98373 13.0194 8.98756 13.0147 8.99241C13.0099 8.99726 13.0061 9.00302 13.0036 9.00936C13.0011 9.0157 12.9999 9.02249 13 9.02931C13.0001 9.03614 13.0016 9.04287 13.0044 9.0491C13.0044 9.07629 13.0449 9.07629 13.0685 9.07629C15.6539 8.50875 19.6061 10.7755 19.9673 10.9896C19.9747 10.9963 19.9843 11 19.9943 11C20.0042 11 20.0139 10.9963 20.0213 10.9896C20.3959 10.7619 24.3212 8.50875 26.92 9.07629C26.926 9.07903 26.9324 9.0805 26.939 9.0806C26.9455 9.0807 26.952 9.07943 26.958 9.07687C26.9641 9.07432 26.9695 9.07053 26.974 9.06575C26.9785 9.06097 26.9819 9.0553 26.9842 9.0491C26.9891 9.04496 26.9931 9.03976 26.9958 9.03389C26.9986 9.02802 27 9.02161 27 9.01512C27 9.00863 26.9986 9.00222 26.9958 8.99635C26.9931 8.99047 26.9891 8.98528 26.9842 8.98113Z" fill="white"/>
<path d="M10.7159 11.0711C10.697 11.0808 10.68 11.094 10.6658 11.11C8.52986 13.3007 7.23753 16.2195 7.02964 19.3222C6.82176 22.4249 7.71251 25.5 9.53587 27.9741C9.53587 28 9.57343 28 9.59847 28C9.62351 28 9.62351 27.9612 9.59847 27.9353C8.65948 24.917 13.4859 17.5832 15.9961 14.5197C15.9987 14.5135 16 14.5069 16 14.5003C16 14.4936 15.9987 14.487 15.9961 14.4808C15.9961 14.4808 15.9961 14.442 15.971 14.442C12.2182 10.5438 10.9287 10.9547 10.7159 11.0711Z" fill="white"/>
<path d="M24.025 14.4382C24.025 14.4382 24 14.4641 24 14.477C24 14.4899 24 14.5029 24 14.5158C26.4854 17.5858 31.3311 24.9129 30.3983 27.9311C30.3983 27.957 30.3983 27.9828 30.3983 27.9958C30.404 27.9984 30.4102 27.9999 30.4165 28C30.4228 28.0001 30.4291 27.9989 30.4349 27.9965C30.4407 27.9941 30.446 27.9905 30.4505 27.9859C30.455 27.9814 30.4585 27.9759 30.4609 27.9699C32.2827 25.4962 33.1748 22.4237 32.9716 19.3221C32.7684 16.2205 31.4838 13.3003 29.3559 11.103L29.3058 11.0642C29.093 10.9606 27.8033 10.5498 24.025 14.4382Z" fill="white"/>
</svg>
