<svg width="76" height="20" viewBox="0 0 76 20" fill="none" xmlns="http://www.w3.org/2000/svg">
<g clip-path="url(#clip0_1404_1907)">
<mask id="mask0_1404_1907" style="mask-type:luminance" maskUnits="userSpaceOnUse" x="0" y="0" width="20" height="20">
<path d="M20 0H0V20H20V0Z" fill="white"/>
</mask>
<g mask="url(#mask0_1404_1907)">
<path d="M20 10C20 4.47715 15.5228 0 10 0C4.47715 0 0 4.47715 0 10C0 15.5228 4.47715 20 10 20C15.5228 20 20 15.5228 20 10Z" fill="#1E7F94"/>
<path d="M7.03765 10.6123C7.03765 10.4577 7.03765 10.3032 7.03765 10.1487C7.03765 10.0648 7.04495 9.94682 7.00055 9.87462C6.95225 9.79612 6.97925 9.62872 6.9861 9.54702C7.00175 9.36097 7.03765 9.18032 7.03765 8.99277C7.03765 8.97987 7.04185 8.78237 6.99125 8.87222C6.909 9.01852 6.9005 9.23112 6.85115 9.39147C6.75855 9.69252 6.70385 9.96082 6.70385 10.2743C6.70385 10.3993 6.70385 10.5243 6.70385 10.6493C6.70385 10.6811 6.7224 10.6979 6.7224 10.6566C6.7224 10.5274 6.7274 10.3977 6.7131 10.2692C6.67295 9.90747 6.67515 9.50922 6.7698 9.15657C6.81835 8.97557 6.8656 8.77867 6.9408 8.60952C6.97805 8.52572 6.99535 8.40277 7.0191 8.31287C7.05695 8.16932 7.08415 7.91607 7.1963 7.80392C7.26585 7.73437 7.47795 7.68237 7.5754 7.68237" stroke="#F0CAAB" stroke-linecap="round"/>
<path d="M7.6125 7.12606C7.61165 7.16106 7.55685 7.37321 7.55685 7.24141C7.55685 7.15581 7.5478 7.13931 7.62175 7.09821C7.67945 7.06621 7.7544 7.04011 7.8247 7.05291C7.97375 7.08001 7.7522 7.52381 7.79795 7.58141C7.8234 7.61346 7.84565 7.51476 7.868 7.48041C7.9164 7.40606 7.9269 7.39551 7.99365 7.33826C8.09995 7.24716 8.20335 7.16116 8.30065 7.06011C8.37645 6.98141 8.45805 6.91651 8.40165 7.08486C8.34395 7.25701 8.2497 7.41756 8.1688 7.57931C8.09995 7.71701 8.09345 7.67901 8.1544 7.60816C8.24765 7.49971 8.3738 7.39946 8.48815 7.31561C8.4968 7.30926 8.6152 7.21411 8.66125 7.24141C8.7266 7.28021 8.65615 7.47786 8.6458 7.51651C8.60145 7.68221 8.5595 7.85391 8.50055 8.01511C8.48835 8.04841 8.52785 7.90626 8.5335 7.89251C8.57005 7.80326 8.61355 7.71576 8.6592 7.63086C8.66245 7.62476 8.76425 7.48606 8.76425 7.50926C8.76425 7.52546 7.97585 7.69676 8.0771 7.83171C8.201 7.99691 7.97075 8.02526 7.8247 8.05116C7.6344 8.08491 7.45235 8.07111 7.3292 7.90696C7.296 7.86271 7.2814 7.75461 7.2787 7.84926C7.27075 8.12771 7.19885 8.39781 7.1582 8.67341C7.13955 8.79971 7.12225 8.92647 7.10255 9.05252C7.0883 9.14362 7.05735 9.15631 7.1015 9.06076C7.2164 8.81236 7.4259 8.55201 7.63105 8.36846C7.66825 8.33521 7.66335 8.42616 7.664 8.43851C7.6744 8.63851 7.66815 8.83996 7.66815 9.04016C7.66815 9.10181 7.6463 9.22216 7.6805 9.10401C7.7129 8.99201 7.75935 8.87676 7.80205 8.77026C7.8962 8.53556 7.9784 8.25266 8.11935 8.03981C8.1253 8.03086 8.14665 8.02041 8.15025 8.03056C8.162 8.06356 8.15415 8.10061 8.15335 8.13566C8.15035 8.26341 8.13915 8.35341 8.11935 8.48181C8.0953 8.63761 8.05965 8.79146 8.03075 8.94641C8.0229 8.98851 7.96225 9.17671 7.99575 9.02366C8.0269 8.88121 8.06555 8.73841 8.11525 8.60131C8.14635 8.51541 8.1476 8.55911 8.11935 8.59511C7.9852 8.76606 7.76695 8.86152 7.596 8.98967C7.5579 9.01827 7.45925 9.19046 7.39925 9.16376C7.3488 9.14136 7.36105 9.04596 7.3436 9.00411C7.33765 8.98981 7.3343 9.03396 7.3333 9.04941C7.3275 9.13941 7.0124 11.4106 7 11.4999C6.9463 11.887 7.4035 11.9669 6.75 11.4999C7.8436 12.3458 7.32395 11.8547 7.3436 11.8875C7.36525 11.9235 7.3295 10.2949 7.33845 10.2661C7.4689 9.84791 7.68765 9.44627 7.7938 9.02162C7.8141 8.94052 7.82715 9.02941 7.8309 9.06696C7.8548 9.30611 7.8368 9.56351 7.79795 9.79941C7.76235 10.0155 7.6809 10.2465 7.66815 10.4639C7.6635 10.5423 7.6496 10.3928 7.6496 10.3702C7.6496 10.0623 7.8329 9.71556 7.97515 9.45431C8.055 9.30761 8.14495 9.16866 8.2502 9.03911C8.3068 8.96941 8.2986 9.12996 8.2986 9.15141C8.2986 9.54416 8.25665 9.96001 8.3079 10.3496C8.31015 10.3667 8.31715 10.5057 8.31715 10.4237C8.31715 10.2439 8.3302 10.0645 8.3398 9.88491C8.3738 9.24906 8.44895 8.60161 8.60355 7.98316C8.6062 7.97251 8.6567 7.78276 8.6777 7.83686C8.7313 7.97466 8.688 8.20121 8.688 8.34581C8.688 8.58756 8.68685 8.82931 8.688 9.07106C8.6888 9.22731 8.6796 9.41121 8.71685 9.56556C8.77625 9.81166 8.8504 10.5683 8.83635 10.3156C8.83275 10.2501 8.74915 10.2556 8.72925 10.2043C8.7205 10.1818 8.7591 10.1149 8.7663 10.0951C8.89635 9.73866 8.9797 9.36341 9.05685 8.99276C9.1762 8.41906 9.2629 7.82516 9.2629 7.23836C9.2629 7.17321 9.2967 6.99941 9.1887 6.99626C9.03765 6.99181 9.01415 7.07446 8.9641 7.22701C8.88705 7.46201 8.8241 7.70976 8.78485 7.95431C8.78095 7.97856 8.7807 8.00991 8.8096 7.98626C8.8981 7.91386 8.916 7.74976 8.96515 7.65146C8.98665 7.60841 9.0946 7.41711 9.096 7.55666C9.09695 7.65536 9.05385 7.86501 9.11865 7.95226C9.16755 8.01811 9.2495 7.88051 9.27525 7.85131C9.36385 7.75086 9.8415 7.36811 9.97575 7.33826C10.0102 7.33061 9.6992 7.66166 9.7821 7.66381C9.9831 7.66896 10.1786 7.63506 10.3827 7.64836C10.5426 7.65881 10.6984 7.71946 10.8576 7.71946C10.9251 7.71946 10.9936 7.71566 11.0605 7.72461C11.4814 7.78071 11.9035 7.86936 12.3102 7.98936C12.5756 8.06766 12.8375 8.15691 13.1014 8.23456C13.1905 8.26071 13.297 8.36842 13.3693 8.42822C13.4281 8.47692 13.5243 8.53211 13.5083 8.61981C13.4827 8.76066 13.4519 8.96756 13.495 9.10196C13.5008 9.12011 13.4879 9.05746 13.4702 9.05046C13.2285 8.95456 12.918 9.03101 12.6625 9.00821C12.5177 8.99531 12.4425 8.84791 12.3225 8.76611C12.1919 8.67706 12.0789 8.54421 11.9579 8.44366C11.6243 8.16651 11.2454 7.86936 10.802 7.81216C10.5266 7.77661 10.2509 7.76011 9.97575 7.71946C9.7906 7.69206 9.55895 7.62396 9.369 7.64631C9.33605 7.65016 9.28915 7.68401 9.2742 7.71221C9.2412 7.77461 9.2502 7.89326 9.24225 7.95846C9.21765 8.16076 9.17925 8.36091 9.1475 8.56216C9.10335 8.84166 9.05715 9.12401 8.9291 9.38011C8.91155 9.41521 8.897 9.41066 8.8879 9.45221C8.86015 9.57861 8.8549 9.70241 8.8549 9.83136C8.8549 9.94136 8.9122 10.0101 8.95895 10.1064C9.00305 10.1972 9.04695 10.2867 9.0867 10.3794C9.12435 10.4673 9.27165 10.4592 9.35145 10.468C9.403 10.4737 9.454 10.4824 9.506 10.4824C9.59275 10.4824 9.50865 10.2552 9.506 10.2414C9.4525 9.96471 9.37885 9.68976 9.33705 9.41101C9.3348 9.39606 9.33535 9.37451 9.3381 9.35951C9.34235 9.33596 9.3628 9.26266 9.3628 9.26266C9.35545 9.27736 9.33705 9.34811 9.33705 9.30696C9.33705 9.25206 9.2916 9.40866 9.25565 9.45016C9.22885 9.48111 9.2258 9.49671 9.2258 9.53671C9.2258 9.70861 9.18215 9.87776 9.13305 10.0426C9.07005 10.2542 9.04035 10.0055 9.04035 9.92612" stroke="#F0CAAB" stroke-linecap="round"/>
<path d="M9.57811 8.09033C9.57811 8.26493 9.59916 8.45513 9.57401 8.62808C9.56606 8.68258 9.54101 8.72318 9.54101 8.77643C9.54101 8.85803 9.52366 8.93633 9.52246 9.01753C9.52176 9.06873 9.50991 9.25743 9.55956 9.29153C9.78756 9.44828 9.97011 9.67583 10.189 9.85093C10.2821 9.92543 10.3381 10.023 10.4023 10.1281C10.4288 10.1714 10.4607 10.2032 10.392 10.2228C10.2958 10.2503 10.1963 10.2752 10.1004 10.2321C10.0024 10.188 10.0631 10.1532 10.1447 10.1785C10.2434 10.2092 10.3545 10.2743 10.4311 10.3454C10.4914 10.4014 10.5482 10.5021 10.5888 10.5741C10.6325 10.6519 10.7128 10.639 10.7876 10.6679C10.8989 10.7109 10.9759 10.7193 11.0946 10.7235C11.2499 10.7291 11.3046 10.7633 11.4284 10.6349C11.6304 10.4254 11.3927 10.0599 11.28 9.86638C11.1982 9.72593 11.06 9.61968 10.9359 9.51818C10.8241 9.42668 10.7487 9.30958 10.6537 9.20398C10.5093 9.04358 10.3127 8.85208 10.3394 8.61163C10.3464 8.54893 10.402 8.51463 10.4394 8.47048C10.5071 8.39038 10.5251 8.34403 10.631 8.30873C10.7131 8.28138 10.8086 8.39243 10.8721 8.43853C10.9116 8.46723 10.9977 8.51418 11.0204 8.56218C11.0628 8.65163 11.107 8.71813 11.1914 8.77643C11.3527 8.88783 11.5153 9.03598 11.6983 9.10918C11.7835 9.14328 11.8063 9.19413 11.8662 9.27403C11.8883 9.30343 11.9392 9.41533 11.997 9.35748C12.0416 9.31293 12.0925 9.21533 12.1186 9.15658C12.1427 9.10228 12.113 9.07213 12.0918 9.01753C12.0674 8.95468 12.063 8.89018 12.063 8.82383C12.063 8.78988 12.015 8.78478 11.9981 8.74758C11.9434 8.62723 12.0739 8.68423 12.1382 8.70328C12.2567 8.73843 12.3698 8.77253 12.4895 8.79913C12.6919 8.84408 12.9106 8.78658 13.1107 8.83103C13.1884 8.84833 13.2683 8.87608 13.2683 8.97113C13.2683 9.06248 13.3029 9.09453 13.3796 9.13288C13.4558 9.17098 13.4443 9.15888 13.3981 9.22563C13.364 9.27488 13.3425 9.31378 13.3425 9.37398C13.3425 9.52453 13.3071 9.67253 13.3054 9.82313C13.305 9.85753 13.3257 9.94603 13.2786 9.95913C13.2057 9.97938 13.1205 9.98258 13.0458 9.97768C12.9474 9.97118 12.8455 9.96583 12.7491 9.94468C12.722 9.93873 12.6308 9.90663 12.6049 9.93028C12.5888 9.94483 12.6002 10.0235 12.6007 10.0415C12.6043 10.1539 12.6653 10.2416 12.7326 10.3279C12.8078 10.4245 12.8467 10.4857 12.8799 10.602C12.8935 10.6495 13.0721 10.4749 13.0932 10.4629C13.1736 10.4169 13.2425 10.3526 13.3425 10.3526C13.4139 10.3526 13.4486 10.233 13.4908 10.1858C13.5172 10.1563 13.5375 10.1323 13.5835 10.1528C13.6153 10.1669 13.7172 10.1858 13.6824 10.1858C13.4495 10.1858 13.2236 10.144 12.9922 10.1312C12.8291 10.1221 12.6881 10.1965 12.5358 10.2414C12.3989 10.2818 12.2555 10.3562 12.2123 10.5072C12.2055 10.5311 12.1928 10.46 12.1928 10.4351C12.1928 10.4034 12.1748 10.3408 12.1547 10.2702C12.1378 10.2112 12.1371 10.3114 12.1371 10.3248C12.1371 10.4164 12.1063 10.4993 12.0877 10.5896C12.0228 10.9048 11.8355 11.0799 11.585 11.2572C11.4821 11.33 11.3937 11.3959 11.3109 11.49C11.228 11.5842 11.1369 11.5743 11.0204 11.5765C10.7719 11.5812 10.528 11.6322 10.2787 11.6322C10.1243 11.6322 10.0048 11.5857 9.85626 11.5539C9.74741 11.5305 9.67891 11.4445 9.57811 11.4137C9.50976 11.3929 9.45241 11.3503 9.38446 11.3272C9.31666 11.3042 9.23221 11.2908 9.16911 11.2592C9.12016 11.2347 9.13711 11.1813 9.10421 11.1531C9.08436 11.1361 9.01356 11.1339 8.98986 11.1325C8.88421 11.1265 8.77311 11.1689 8.66846 11.148C8.55691 11.1256 8.61841 11.0086 8.57471 10.9368C8.51541 10.8393 8.46136 10.775 8.38206 10.6957C8.34796 10.6616 8.29601 10.5587 8.23476 10.5762C8.19011 10.5889 8.23846 10.8775 8.24196 10.9141C8.25686 11.0705 8.32641 11.3783 8.11111 11.4282C7.96951 11.461 7.81341 11.4467 7.66811 11.4467C7.62966 11.4467 7.59121 11.4467 7.55276 11.4467C7.54426 11.4467 6.99741 11.4939 7.00001 11.49C7.03106 11.4434 7.57631 11.5248 7.59396 11.5487C7.63576 11.6054 7.65096 11.6602 7.67741 11.7249C7.72971 11.8527 7.77356 12.01 7.92361 12.0216C8.05476 12.0317 8.20466 12.1131 8.33156 12.1514C8.43756 12.1833 8.53881 12.2258 8.64271 12.2626C8.70376 12.2843 8.65731 12.281 8.62211 12.2771C8.47091 12.2601 8.32081 12.2389 8.16881 12.2297C8.12831 12.2272 7.98796 12.2015 7.95041 12.2297C7.94541 12.2334 7.96446 12.2955 7.96481 12.3038C7.96901 12.3964 8.01196 12.45 8.06166 12.5222C8.06786 12.5312 8.18356 12.4852 8.21411 12.4852C8.28866 12.4852 8.36316 12.4852 8.43771 12.4852C8.50816 12.4852 8.54416 12.4883 8.60356 12.5222C8.64396 12.5453 8.65206 12.6134 8.69731 12.6335C8.83766 12.6959 8.99411 12.6891 9.14751 12.6891C9.26866 12.6891 9.38796 12.6924 9.50806 12.7118C9.56961 12.7217 9.62721 12.7633 9.68936 12.7633C9.75361 12.7633 9.81086 12.7568 9.87481 12.7448C9.93816 12.7328 10 12.7262 10.0644 12.7262C10.1162 12.7262 9.92656 12.7522 9.90776 12.7561C9.76076 12.7869 9.63516 12.856 9.48541 12.856C9.42631 12.856 9.36726 12.856 9.30821 12.856C9.25401 12.856 9.22431 12.8673 9.17841 12.8756C9.16736 12.8776 9.11081 12.9096 9.12996 12.9096C9.20136 12.9096 9.28081 12.8874 9.34736 12.8643C9.57576 12.785 9.77981 12.7262 10.0232 12.7262C10.0692 12.7262 10.3378 12.6946 10.3549 12.7458C10.3604 12.7624 10.3471 12.7961 10.3714 12.7994C10.4805 12.8139 10.6146 12.7803 10.7196 12.754C10.9068 12.7072 11.0572 12.5213 11.2306 12.4336C11.3227 12.3871 11.3726 12.3538 11.4284 12.2771C11.4683 12.2222 11.4927 12.1654 11.5437 12.1143C11.6686 11.9895 11.7152 11.8075 11.8786 11.7156C11.9635 11.6678 12.0358 11.6162 12.1186 11.5672C12.2099 11.5133 12.2467 11.4505 12.3164 11.3808C12.4487 11.2484 12.5797 11.1154 12.712 10.9831" stroke="#F0CAAB" stroke-width="3" stroke-linecap="round"/>
<path d="M10.4868 14.1542C10.3396 14.1542 10.2346 14.1525 10.1077 14.08C10.0748 14.0612 10.1509 14.0935 10.1623 14.0985C10.2645 14.144 10.3435 14.2408 10.459 14.2664C10.4899 14.2733 10.6702 14.3944 10.6722 14.3581C10.6837 14.1511 10.6722 13.939 10.6722 13.7317C10.6722 13.6744 10.6498 13.5909 10.7196 13.5782C10.805 13.5627 10.9064 13.59 11 13.5782C11.0967 13.5662 11.159 13.3165 11.211 13.2352C11.2681 13.1461 11.3193 13.0544 11.3728 12.9633C11.4086 12.9022 11.4347 12.8086 11.484 12.7592C11.5009 12.7424 11.4544 12.8208 11.4511 12.7634C11.4482 12.7142 11.4925 12.6947 11.5067 12.6521" stroke="#F0CAAB" stroke-width="2" stroke-linecap="round"/>
<path d="M7.32585 11.7685C7.1047 11.7512 6.88355 11.7325 6.66215 11.7189C6.63395 11.7172 6.6017 11.7269 6.5776 11.7121C6.56805 11.7062 6.55725 11.6908 6.55235 11.681C6.52665 11.6296 6.51365 11.5753 6.4863 11.5236C6.43235 11.4217 6.3461 11.356 6.28515 11.2612C6.237 11.1864 6.1541 11.1642 6.10925 11.0873C6.08065 11.0383 6.00865 10.9874 5.96155 10.9639" stroke="#F0CAAB" stroke-linecap="round"/>
<path d="M7.93799 12.748C8.06309 12.8428 8.16804 12.9391 8.28389 13.0318C8.31799 13.059 8.38279 13.1128 8.42774 13.1153C8.47729 13.1181 8.57904 13.1381 8.60264 13.1853" stroke="#F0CAAB" stroke-linecap="round"/>
<path d="M14.2523 10.5441C14.29 10.3683 14.3747 10.2192 14.3747 10.0369" stroke="#F0CAAB" stroke-linecap="round"/>
<path d="M16.3177 14.5747C16.4273 14.5747 16.534 14.5752 16.643 14.5873C16.6645 14.5897 16.7368 14.5883 16.7546 14.6026C16.8201 14.655 16.9654 14.665 17.0464 14.6808C17.1084 14.6929 17.1722 14.6863 17.2349 14.6878C17.311 14.6896 17.3873 14.7124 17.4604 14.7318C17.5152 14.7463 17.5672 14.7694 17.6216 14.7855C17.6698 14.7998 17.728 14.7656 17.7724 14.7534C17.8268 14.7385 17.8906 14.7375 17.9386 14.7066C17.9592 14.6934 17.9802 14.6772 18.0014 14.6655C18.0288 14.6502 18.109 14.6294 18.1138 14.6773C18.1296 14.8354 18.0874 14.9536 17.9763 15.0647C17.883 15.158 17.8239 15.2898 17.7152 15.3663C17.6235 15.4308 17.436 15.3262 17.436 15.2092C17.436 15.1551 17.3041 15.1165 17.2649 15.0955C17.1292 15.0224 16.959 15.0765 16.8189 15.0075C16.7069 14.9523 16.542 14.9659 16.4747 14.8449C16.4739 14.8433 16.7669 14.8554 16.8259 14.8609C16.9657 14.8739 17.105 14.8879 17.2447 14.9021C17.4226 14.9202 17.6058 14.9831 17.7752 15.0396" stroke="#F0CAAB" stroke-linecap="round"/>
<path d="M5.81754 10.8512C5.93424 10.9678 6.05439 11.1227 6.19949 11.2066C6.34629 11.2914 6.49034 11.389 6.64164 11.4668C6.69084 11.4921 6.60214 11.4672 6.59104 11.4638C6.55024 11.4511 6.50684 11.4446 6.46814 11.4258C6.42314 11.404 6.38304 11.3716 6.33259 11.3716C6.29704 11.3716 6.34739 11.4521 6.36214 11.4668C6.40534 11.51 6.47369 11.553 6.52779 11.5831C6.57624 11.61 6.62818 11.6446 6.67958 11.6692C6.78048 11.7175 6.88569 11.7494 6.98259 11.8047C7.07509 11.8576 7.18814 11.8771 7.27894 11.9355C7.30899 11.9548 7.33679 11.9817 7.36809 11.9981C7.39809 12.0138 7.38554 11.9652 7.39099 11.9529C7.39869 11.9357 7.63419 11.9362 7.66089 11.9355C7.72104 11.9338 7.77539 11.9189 7.83439 11.9084C7.90764 11.8953 7.95813 11.8857 8.01508 11.8306C8.07748 11.7703 8.15293 11.7253 8.21388 11.6644C8.25728 11.621 8.32853 11.5968 8.37653 11.5608C8.41603 11.5311 8.59359 11.6713 8.65119 11.6921C8.69459 11.7078 8.74259 11.7028 8.78614 11.7186C8.81634 11.7296 8.85133 11.7548 8.88073 11.7614C8.93943 11.7744 8.98558 11.808 9.03793 11.8355C9.12483 11.881 9.22474 11.9205 9.31804 11.9505C9.42839 11.986 9.52294 11.9874 9.61624 12.0584C9.66969 12.099 9.70659 12.1083 9.77409 12.109C9.92579 12.1105 10.0617 12.1299 10.2096 12.1571C10.3184 12.1772 10.4201 12.1322 10.5222 12.0981C10.67 12.0489 10.7676 11.9209 10.906 11.8547C10.9253 11.8455 10.9467 11.8351 10.9632 11.8216C10.9648 11.8203 10.9847 11.8069 10.9813 11.8059C10.9097 11.7855 10.8258 11.7864 10.7523 11.7704C10.5507 11.7265 10.3754 11.6329 10.1897 11.5475C10.1396 11.5245 10.0845 11.5094 10.0355 11.4849C9.91278 11.4235 9.80719 11.3377 9.69094 11.2656C9.58579 11.2004 9.51179 11.1374 9.45539 11.0246C9.42539 10.9646 9.36738 10.8985 9.31743 10.8536C9.31023 10.8471 9.29088 10.8465 9.28068 10.8397C9.25063 10.8197 9.23099 10.7952 9.19334 10.7885C9.05129 10.7632 8.91863 10.7123 8.77953 10.668C8.65183 10.6274 8.60088 10.7914 8.49338 10.8379C8.45088 10.8563 8.29223 10.87 8.24698 10.8445C8.18193 10.8079 8.09538 10.8148 8.02953 10.7704C8.00703 10.7553 7.94774 10.6995 7.96689 10.7186C7.98719 10.7389 8.03164 10.7319 8.05724 10.7319C8.09679 10.7319 8.13639 10.7319 8.17594 10.7319C8.22229 10.7319 8.26403 10.7519 8.30903 10.7536C8.43698 10.7583 8.56449 10.7537 8.69519 10.7698C8.80254 10.7831 8.88734 10.8198 8.97529 10.8861C9.02799 10.9258 9.06988 10.9509 9.12828 10.9801C9.27133 11.0516 9.39128 11.1569 9.51203 11.2602C9.69048 11.4129 9.83668 11.6139 10.0716 11.6837C10.1957 11.7205 10.314 11.7701 10.4403 11.8005C10.5296 11.822 10.6524 11.8164 10.7355 11.8541C10.7666 11.8683 10.7962 11.8455 10.818 11.8258C10.8732 11.7762 10.9311 11.7629 11.0041 11.762C11.0171 11.7618 11.1237 11.7663 11.0945 11.7728C10.9794 11.7986 10.8472 11.7899 10.7307 11.7897C10.4626 11.7891 10.1947 11.7709 9.92709 11.7578C9.82784 11.7529 9.72884 11.7511 9.62949 11.7511C9.59409 11.7511 9.54703 11.7578 9.51263 11.7451C9.49353 11.7381 9.48413 11.7059 9.47648 11.6903C9.44768 11.6313 9.41129 11.5808 9.36444 11.5343C9.23414 11.4049 9.06079 11.321 8.91144 11.2174C8.85364 11.1773 8.78584 11.1562 8.72109 11.1307C8.64859 11.1021 8.57274 11.0352 8.64099 11.1499C8.69939 11.2482 8.76744 11.3402 8.82469 11.4391C8.84699 11.4776 8.58859 11.439 8.56689 11.4343C8.43794 11.4065 8.33909 11.34 8.28739 11.221C8.25074 11.1368 8.02883 11.3292 8.00843 11.3548C7.93158 11.4512 7.95554 11.5621 7.82474 11.6041C7.63499 11.6651 7.46274 11.6321 7.27114 11.5945C7.10119 11.5611 6.96539 11.5165 6.82354 11.4174C6.76604 11.3773 6.70559 11.345 6.64704 11.306C6.62089 11.2885 6.59819 11.2668 6.56814 11.2548C6.52569 11.2378 6.67509 11.2562 6.68379 11.2572C6.80699 11.2706 6.90474 11.2412 7.02474 11.2198C7.06619 11.2125 7.11379 11.2068 7.15364 11.1933C7.23179 11.1669 7.30339 11.0978 7.37714 11.059C7.45474 11.0181 7.53234 10.9751 7.61149 10.9355C7.64014 10.9212 7.68929 10.9129 7.71269 10.8921C7.76069 10.8494 7.86214 10.8728 7.92474 10.8728C7.99099 10.8728 7.92989 11.011 7.91689 11.0415C7.86534 11.1622 7.77384 11.224 7.67174 11.2957C7.62134 11.3311 7.59124 11.3874 7.53919 11.421C7.49819 11.4475 7.43834 11.4617 7.38979 11.4686C7.36569 11.4721 7.35324 11.469 7.35849 11.4415C7.36439 11.4103 7.39694 11.3924 7.41994 11.3746C7.47764 11.33 7.53704 11.2839 7.57774 11.2222C7.60969 11.1738 7.61479 11.1402 7.65789 11.1036C7.70954 11.0595 7.76599 11.0058 7.83439 10.9921" stroke="white" stroke-linecap="round"/>
<path d="M16.5035 16.2578C16.3726 16.2369 16.2511 16.2311 16.1282 16.1752C16.0815 16.154 16.0129 16.1661 15.962 16.1661C15.8751 16.1661 15.861 16.1408 15.861 16.0467C15.861 15.9236 15.832 15.8582 15.7223 15.8071C15.5816 15.7414 15.4772 15.6039 15.3378 15.5419C15.2221 15.4905 15.3508 15.8332 15.3746 15.8795C15.4362 15.9995 15.5161 16.1003 15.5765 16.2211C15.638 16.3442 15.7191 16.3903 15.8427 16.4598C15.9273 16.5074 16.0308 16.5632 16.0813 16.6515C16.1119 16.705 15.8756 16.68 15.8243 16.68C15.6839 16.68 15.5371 16.6393 15.4031 16.5974C15.336 16.5765 15.2566 16.5901 15.192 16.5607C14.9597 16.4552 14.775 16.2765 14.5495 16.1477C14.4452 16.0881 14.3495 16.0449 14.264 15.9641C14.2116 15.9147 14.1745 15.8942 14.1314 15.8356C14.0912 15.781 14.0332 15.7366 13.9846 15.6929C13.9103 15.6261 13.8778 15.5456 13.8193 15.4726C13.7687 15.4093 13.7691 15.445 13.801 15.5052C13.8236 15.5479 13.8234 15.4761 13.8234 15.4593C13.8234 15.4193 13.7964 15.3902 13.7826 15.3543C13.7352 15.2311 13.6466 15.1416 13.6072 15.0137C13.5792 14.9227 13.5528 14.8109 13.5481 14.7159C13.5447 14.6486 13.493 14.6009 13.493 14.5323C13.493 14.3979 13.497 14.2628 13.493 14.1285C13.4927 14.1179 13.46 13.8834 13.5073 13.9306C13.5491 13.9725 13.5481 14.1364 13.5481 13.949C13.5481 13.7892 13.5621 13.6527 13.6021 13.5125C13.6189 13.4538 13.6203 13.3986 13.6501 13.3391C13.7111 13.217 13.8299 13.0758 13.8591 12.9445C13.9027 12.7482 14.0359 12.6311 14.1722 12.4947C14.3059 12.361 14.36 12.2874 14.4292 12.1021C14.4916 11.935 14.5322 11.8402 14.6821 11.7584C14.952 11.6112 15.2826 11.5585 15.5857 11.5585C15.678 11.5585 15.7142 11.5506 15.7142 11.6595C15.7142 11.6853 15.6955 11.6724 15.6876 11.6666C15.6057 11.6063 15.5824 11.4756 15.5571 11.3852C15.5063 11.2037 15.5892 11.1896 15.7611 11.1353C15.9191 11.0854 16.0358 10.9213 16.1935 10.8783C16.4001 10.822 16.5792 10.7143 16.7686 10.6234C16.8595 10.5798 16.9836 10.5817 17.0827 10.5714C17.172 10.562 17.2586 10.5306 17.3479 10.5306C17.409 10.5306 17.5022 10.5315 17.557 10.502C17.622 10.467 17.6502 10.4248 17.7334 10.4204C17.8072 10.4165 17.9227 10.3577 17.9496 10.4653C18.022 10.7549 18.0156 11.0627 18.0964 11.3505C18.1299 11.4697 18.1109 11.5894 18.1291 11.7115C18.1535 11.8755 18.1556 12.0327 18.1556 12.199C18.1556 12.4537 18.1752 12.7159 18.1332 12.9679C18.107 13.1247 18.0187 13.1679 17.8884 13.2331C17.8161 13.2692 17.7472 13.3309 17.6589 13.3075C17.5799 13.2866 17.5194 13.213 17.4784 13.1474C17.3174 12.8898 17.235 12.5857 17.2153 12.2846C17.2003 12.054 17.2357 11.8096 17.0634 11.6279C16.9427 11.5007 16.8504 11.655 16.8156 11.7747C16.7076 12.1452 16.6747 12.5305 16.7013 12.9129C16.7117 13.0613 16.7355 13.1894 16.7962 13.3259C16.8115 13.3603 16.843 13.486 16.8074 13.5145C16.7883 13.5298 16.7161 13.4916 16.6932 13.4921C16.5936 13.4942 16.5078 13.557 16.4056 13.5462C16.3556 13.5408 16.3128 13.5174 16.2679 13.4972C16.2198 13.4756 16.1723 13.5302 16.1323 13.5513C15.8858 13.681 15.6197 13.6963 15.5489 14.0224C15.5223 14.1453 15.5356 14.3039 15.4215 14.3895C15.3914 14.4121 15.3492 14.3981 15.3154 14.3957C15.1868 14.3863 15.0871 14.427 14.9575 14.3753C14.7988 14.3119 14.5916 14.191 14.5903 13.9959C14.5898 13.9266 14.6237 13.8537 14.6301 13.7838C14.6338 13.7429 14.6283 13.7021 14.6352 13.6614C14.6767 13.417 14.8413 13.1933 15.0084 13.0169C15.0923 12.9284 15.1714 12.7919 15.292 12.7517" stroke="#FFDE6C" stroke-width="3" stroke-linecap="round"/>
<path d="M17.0725 16.1111C17.0725 15.8826 17.2296 15.6019 17 15.4999C16.8908 15.4513 16.6608 15.5078 16.5484 15.4573C16.4093 15.395 16.2352 15.3072 16.1262 15.2014C16.0933 15.1695 16.0803 15.1461 16.0527 15.1106C16.0332 15.0856 16.0192 15.0261 15.9987 15.0097C15.9544 14.9743 15.9426 14.8439 15.9253 14.7884C15.8935 14.6868 15.8794 14.5826 15.8794 14.4773C15.8794 14.4024 15.881 14.337 15.8967 14.2662C15.9209 14.1575 16.0046 14.1836 16.0996 14.1836C16.1911 14.1836 16.2391 14.0872 16.3301 14.0775C16.4088 14.0691 16.4895 14.0735 16.5688 14.0735C16.6233 14.0735 16.6686 14.0987 16.7238 14.0908C16.769 14.0843 16.7632 14.1088 16.8013 14.1102C16.928 14.1149 17.0558 14.1102 17.1827 14.1102C17.2894 14.1102 17.3962 14.1102 17.5029 14.1102C17.7198 14.1102 17.9309 14.0735 18.1464 14.0735C18.1847 14.0735 18.2234 14.075 18.2616 14.0735C18.3046 14.0717 18.2682 14.0006 18.3167 13.9898C18.3355 13.9857 18.4356 13.8399 18.4554 13.8093C18.5483 13.6657 18.614 13.4759 18.6879 13.3198C18.7378 13.2144 18.7325 13.1088 18.7695 13.0047C18.8154 12.8756 18.9039 12.7698 18.9551 12.6457C19.0192 12.4907 18.9461 11.9927 19.0143 12.146C19.0464 12.2184 18.9778 11.9983 18.9714 11.9818C18.9034 11.8069 18.7936 11.6495 18.7359 11.4699C18.7084 11.3845 18.724 11.2816 18.7389 11.1955C18.7759 10.9828 18.761 10.7518 18.7797 10.5367C18.7897 10.4218 18.781 10.322 18.8531 10.2298C18.9207 10.1434 19.0951 10.0717 19.2019 10.0717C19.2343 10.0717 19.2817 10.0801 19.3121 10.0676C19.3445 10.0543 19.3488 10.1251 19.3488 10.0788C19.3488 9.9914 19.3281 9.2778 19.308 9.28645C19.2309 9.31945 19.1481 9.43636 19.1183 9.51486C19.0736 9.63256 19.0538 9.63696 18.9602 9.67906C18.858 9.72506 18.774 9.8078 18.7144 9.9024C18.6489 10.0065 18.8256 10.006 18.8797 10.0166C19.0456 10.0495 19.1357 10.1035 19.2794 10.1818C19.3326 10.2109 19.526 10.2574 19.5191 10.2553C19.1683 10.1474 18.7916 10.1544 18.4309 10.1074C18.3427 10.0959 18.1142 10.101 18.1739 10.035C18.205 10.0006 18.2265 9.95335 18.2433 9.91055C18.2473 9.90025 18.2788 9.88811 18.2678 9.88811C18.1449 9.88811 18.0231 9.8864 17.9027 9.91465C17.7645 9.94705 17.5981 9.98165 17.4856 10.0717C17.4681 10.0857 17.3835 10.1431 17.3897 10.1431C17.4604 10.1431 17.5396 10.1063 17.609 10.0941C17.7218 10.0744 17.8334 10.0717 17.9475 10.0717C18.0151 10.0717 18.0644 10.0447 18.1301 10.035C18.1776 10.028 18.2357 10.0236 18.2759 9.99421C18.308 9.97081 18.3193 9.93045 18.3534 9.90645C18.4069 9.86885 18.4688 9.8514 18.3616 9.8514C18.2998 9.8514 18.0911 9.79995 18.0811 9.86975C18.0528 10.0681 17.7506 10.226 17.61 10.3328C17.4874 10.4259 17.3597 10.5225 17.2643 10.6448C17.165 10.772 17.0994 10.9283 16.9889 11.0467C16.9422 11.0967 16.9073 11.0857 16.9073 11.0263" stroke="#FFDE6C" stroke-linecap="round"/>
<path d="M3.44739 7.92266C3.59353 7.77651 3.85469 7.62516 3.9386 7.43636C3.96909 7.36776 3.99639 7.28816 4.01719 7.21531C4.03464 7.15426 4.02578 7.07181 4.04912 7.01641C4.11106 6.86931 4.21303 6.75841 4.32666 6.63571C4.40094 6.55546 4.4863 6.45616 4.4863 6.34221C4.4863 6.28686 4.52398 6.22231 4.53174 6.16411C4.54323 6.07796 4.59955 6.00391 4.6177 5.92221C4.66195 5.72306 4.81053 5.92731 4.9505 5.97746C5.05335 6.01431 5.1707 6.05871 5.23785 6.14941C5.31625 6.25526 5.42975 6.37961 5.54735 6.44166C5.6322 6.48646 5.7391 6.53011 5.8347 6.53011C5.9773 6.53011 5.92405 6.40346 5.901 6.28816C5.85155 6.04091 5.78645 5.83961 5.54735 5.74661C5.40205 5.69011 5.2375 5.67286 5.0954 5.71346C4.96468 5.75081 5.3815 5.76196 5.5031 5.70116C5.6352 5.63511 5.8405 5.53256 5.9403 5.71221C6.03025 5.87411 6.2472 5.94631 6.3382 6.11011C6.36595 6.16006 6.4344 6.39746 6.46465 6.39746C6.5119 6.39746 6.5417 6.32261 6.5973 6.31026C6.67575 6.29286 6.68525 6.30221 6.62925 6.21816C6.5815 6.14661 6.54205 6.03191 6.54205 5.94431C6.54205 5.89386 6.52135 5.82346 6.4757 5.80061" stroke="#F0CAAB" stroke-width="2" stroke-linecap="round"/>
<path d="M6.67465 5.44687C6.87885 5.44687 7.07345 5.41432 7.2715 5.40267C7.30195 5.40087 7.41615 5.23592 7.44835 5.20372C7.4948 5.15727 7.5814 5.11532 7.64725 5.11532C7.68045 5.11532 7.7136 5.11532 7.74675 5.11532C7.8097 5.11532 7.7771 5.10227 7.7578 5.12637C7.72665 5.16527 7.54645 5.18162 7.50235 5.18162C7.3748 5.18162 7.25415 5.20372 7.1278 5.20372C7.08135 5.20372 6.85555 5.20422 6.8294 5.23692C6.8107 5.26027 7.06555 5.22632 7.09955 5.22092C7.25115 5.19687 7.40495 5.18062 7.55515 5.14972C7.6064 5.13917 7.6789 5.15192 7.7185 5.12022C7.7301 5.11092 7.9224 5.11127 7.9076 5.09812C7.86545 5.06062 7.6649 5.09202 7.6129 5.09442C7.45125 5.10197 7.29565 5.17947 7.1438 5.23077C6.95935 5.29302 6.785 5.34417 6.5973 5.39287C6.45535 5.42967 6.3232 5.44687 6.1773 5.44687C6.1113 5.44687 6.0143 5.46442 5.9624 5.50092C5.594 5.76017 5.08395 5.89362 4.85104 6.30772C4.7918 6.41307 4.84532 6.62302 4.74051 6.70687C4.65393 6.77612 4.61802 6.93867 4.53543 7.02122C4.33477 7.22187 5.0102 6.70367 5.21085 6.50302C5.2285 6.48537 5.4147 6.29677 5.4147 6.40722C5.4147 6.51622 5.31965 6.58087 5.2489 6.65157C5.1487 6.75177 5.05485 6.86672 4.97384 6.98317C4.89301 7.09937 4.81327 7.22357 4.797 7.37002C4.79469 7.39082 4.7631 7.52557 4.79577 7.47562C4.86159 7.37497 4.90932 7.26777 4.98489 7.17107C5.01845 7.12807 5.3705 6.81657 5.3705 6.95247C5.3705 7.12862 5.3386 7.65642 5.3484 7.48052C5.3503 7.44647 5.4198 7.07542 5.4982 7.15387C5.56055 7.21622 5.4876 7.39212 5.61485 7.39212C5.7098 7.39212 5.9231 7.12007 5.9231 7.28282C5.9231 7.38887 5.7692 7.51197 5.74135 7.34787C5.7285 7.27207 5.7294 7.04927 5.70085 7.12072C5.69095 7.14542 5.68175 7.25317 5.63575 7.23247C5.5357 7.18742 5.446 7.08397 5.3226 7.11332C5.154 7.15347 5.13055 7.28922 5.12735 7.43142C5.12195 7.66967 4.94674 7.69787 4.74665 7.60822C4.62676 7.55452 4.47984 7.48672 4.37701 7.40317C4.3313 7.36602 4.28737 7.19197 4.28737 7.25087C4.28737 7.35212 4.3108 7.48097 4.3328 7.57997C4.34879 7.65197 4.321 7.69992 4.34263 7.76912C4.3678 7.84962 4.37579 7.96577 4.37579 8.05032C4.37579 8.14052 4.33025 8.13982 4.25421 8.15592C4.15513 8.17697 4.05948 8.21402 3.96071 8.23697C3.90707 8.24947 3.85733 8.29527 3.80106 8.29837C3.70978 8.30347 3.83569 8.23222 3.88948 8.25907C3.94752 8.28812 4.00071 8.36042 4.04913 8.40402C4.10659 8.45572 4.18011 8.49507 4.25544 8.49732C4.30021 8.49867 4.24782 8.56922 4.28737 8.54662C4.32504 8.52512 4.4642 8.33472 4.4642 8.28732C4.4642 8.20282 4.53098 8.10652 4.56981 8.03312C4.6389 7.90262 4.61504 8.02992 4.64595 8.07242C4.68952 8.13232 4.74952 8.16477 4.8277 8.14242C4.88282 8.12667 4.94508 8.09207 5.00575 8.07857C5.06105 8.06627 5.07455 8.05687 5.1249 8.02332C5.18155 7.98552 5.29515 7.96422 5.3361 7.91157C5.37655 7.85952 5.4228 7.80397 5.46995 7.75682C5.53855 7.68822 5.51925 7.60482 5.55225 7.52472C5.5702 7.48112 5.4926 7.53907 5.4712 7.54682C5.40925 7.56937 5.4601 7.60817 5.481 7.64017C5.55335 7.75077 5.4847 7.80217 5.61855 7.75067C5.7571 7.69742 5.89705 7.65742 6.03365 7.59597C6.0913 7.57002 6.14275 7.59282 6.18835 7.53577C6.24985 7.45892 6.4544 7.34787 6.5531 7.34787C6.61695 7.34787 6.6967 7.31192 6.7631 7.30247C6.8556 7.28922 6.93055 7.25372 7.02835 7.25947C7.06565 7.26167 7.0075 7.27002 6.9608 7.23737C6.9013 7.19572 6.84955 7.19317 6.7803 7.19317C6.66425 7.19317 6.5511 7.17107 6.43275 7.17107C6.24075 7.17107 6.0488 7.17107 5.8568 7.17107" stroke="#F0CAAB" stroke-linecap="round"/>
<path d="M14.0504 11.2039C13.976 11.2039 13.9251 11.2117 13.8566 11.2424C13.8123 11.2622 13.81 11.2914 13.779 11.3224C13.7346 11.3668 13.6865 11.4017 13.6551 11.4584C13.6441 11.4781 13.6438 11.4693 13.6262 11.471C13.5649 11.4771 13.4776 11.6061 13.4463 11.6503C13.3992 11.7168 13.3374 11.7819 13.2983 11.8531C13.281 11.8845 13.242 11.9268 13.2381 11.962C13.2351 11.9895 13.2196 11.9702 13.2032 11.9728C13.1296 11.9843 13.0437 12.0984 12.9992 12.1533C12.9053 12.2695 12.83 12.3945 12.7459 12.5191C12.7217 12.555 12.6944 12.602 12.6617 12.631C12.6435 12.6472 12.6386 12.7257 12.6322 12.758C12.6095 12.8737 12.5862 12.9695 12.5444 13.0793C12.4885 13.2259 12.4702 13.3873 12.4126 13.5311C12.3289 13.7403 12.2957 13.9836 12.2851 14.2074C12.283 14.2515 12.2628 14.3226 12.258 14.3777C12.246 14.5167 12.2417 14.6539 12.2417 14.7934C12.2417 14.9937 12.2431 15.1799 12.3152 15.371C12.3456 15.4517 12.3588 15.5337 12.3892 15.6135C12.4394 15.7457 12.5268 15.8642 12.5985 15.9853C12.6561 16.0825 12.7127 16.1704 12.7845 16.2579C12.8285 16.3115 12.8687 16.3683 12.9132 16.4215C12.9477 16.4627 12.996 16.4924 13.0323 16.5328C13.1141 16.6237 13.2033 16.7013 13.2923 16.7813C13.3315 16.8167 13.2045 16.754 13.1924 16.7488C13.0992 16.7088 12.999 16.6852 12.9048 16.649C12.8583 16.6311 12.7998 16.6182 12.8928 16.6466C13.0093 16.6822 13.1203 16.7385 13.2267 16.797C13.2714 16.8216 13.3194 16.8321 13.3633 16.8571C13.3768 16.8649 13.3925 16.8659 13.403 16.8764C13.4286 16.9021 13.3324 16.8594 13.2971 16.8511C13.2098 16.8307 13.1228 16.7922 13.0323 16.7922C12.9613 16.7922 12.9196 16.8222 12.8422 16.7946C12.7994 16.7793 12.7452 16.7428 12.7014 16.7657C12.6713 16.7815 12.6436 16.8125 12.6076 16.8138C12.5742 16.8151 12.537 16.8326 12.5065 16.8487C12.4919 16.8564 12.4899 16.9022 12.4638 16.9167C12.4346 16.9329 12.3976 16.9112 12.3717 16.8993C12.1844 16.8129 12.0209 16.6955 11.8434 16.5918C11.8005 16.5667 11.7459 16.5488 11.7087 16.5142C11.6642 16.4729 11.5942 16.4896 11.5366 16.4829C11.3786 16.4645 11.2378 16.4472 11.0938 16.3752C10.9469 16.3018 10.8035 16.2223 10.6509 16.1604C10.4407 16.0751 10.2446 15.9644 10.0372 15.874C9.99961 15.8576 9.87796 15.8276 9.86996 15.7741C9.85896 15.7007 9.78801 15.6283 9.75201 15.566C9.65181 15.3924 9.57986 15.1994 9.49871 15.016C9.43436 14.8706 9.37196 14.7239 9.32366 14.572C9.31111 14.5326 9.30896 14.4834 9.30681 14.4421C9.30536 14.4151 9.29431 14.3854 9.28516 14.3602C9.28181 14.3511 9.25881 14.282 9.26586 14.3217C9.31331 14.5873 9.52741 14.6643 9.72556 14.7982C9.87826 14.9015 10.0425 14.9723 10.2117 15.0437C10.341 15.0983 10.4569 15.1517 10.592 15.1833C10.6633 15.2 10.7357 15.2303 10.8098 15.2326C10.8787 15.2349 10.9529 15.1536 10.9945 15.1075C11.0997 14.9908 11.1601 14.8359 11.2466 14.7056C11.2474 14.7043 11.2703 14.6586 11.2803 14.6695C11.2814 14.6707 11.2855 14.677 11.2887 14.6755C11.3331 14.6539 11.3926 14.5851 11.4235 14.5564C11.6319 14.3625 11.8595 14.1853 11.9548 13.9102C11.9825 13.8301 11.9632 13.7403 11.9927 13.6611C11.9982 13.6462 11.9961 13.6504 11.9758 13.6611C11.8637 13.7203 11.7662 13.8105 11.6714 13.8933C11.6465 13.9151 11.5703 13.9612 11.5703 14.0034C11.5703 14.0387 11.6369 13.9942 11.6485 13.986C11.7072 13.9448 11.7421 13.8766 11.7773 13.8163C11.8467 13.6972 11.9126 13.5765 11.9686 13.4505C12.0125 13.3516 12.0559 13.2587 12.125 13.1749C12.198 13.0864 12.3591 12.7839 12.3212 12.8922C12.2698 13.039 12.1856 13.1821 12.1238 13.3242C11.9608 13.699 11.8099 14.0776 11.7099 14.4745C11.6704 14.6311 11.6317 14.7899 11.6226 14.9517C11.6168 15.056 11.6163 15.1794 11.6906 15.2627C11.7551 15.335 11.8533 15.38 11.9397 15.4192C11.9641 15.4302 12.0411 15.4492 12.0143 15.4492C11.9848 15.4492 11.9731 15.1425 11.9716 15.1249C11.9565 14.9513 11.9632 14.7825 11.9602 14.6093C11.9595 14.572 11.9346 14.5479 11.9283 14.513C11.9263 14.5022 11.9272 14.4888 11.9289 14.4782C11.9452 14.376 11.947 14.5524 11.9469 14.554C11.9416 14.9402 11.9351 15.3266 11.9481 15.7128C11.9541 15.8888 11.9505 16.0985 12.0143 16.2687C12.065 16.4039 12.2053 16.4603 12.332 16.5058C12.387 16.5255 12.443 16.543 12.5005 16.5539C12.5208 16.5578 12.6361 16.5951 12.6003 16.5521C12.5218 16.4578 12.4251 16.3774 12.3404 16.2886C12.2757 16.2207 12.2149 16.1497 12.1461 16.0858C12.1143 16.0563 12.0566 16.0223 12.0396 15.9799C12.0261 15.9461 12.0355 15.8929 12.036 15.8572C12.0375 15.7401 12.1436 15.9046 12.1695 15.936C12.1739 15.9413 12.2806 16.0699 12.2044 16.0323C12.0018 15.9322 11.8097 15.7486 11.6593 15.5828C11.5484 15.4606 11.4848 15.349 11.4951 15.1839C11.4971 15.1521 11.5118 15.1254 11.5029 15.0919C11.4838 15.0196 11.4019 15.1607 11.3964 15.1701C11.3071 15.3238 11.2885 15.4768 11.3753 15.6334C11.4951 15.8493 11.6835 16.023 11.8254 16.2236C11.8361 16.2387 11.9076 16.312 11.8452 16.2675C11.6101 16.0999 11.3549 15.9082 11.1936 15.6646C11.1521 15.6019 11.1091 15.5235 11.0775 15.4541C11.0745 15.4474 11.0731 15.429 11.0667 15.4252C11.0618 15.4223 11.0622 15.4358 11.0619 15.4414C11.0585 15.5066 11.0701 15.5749 11.0829 15.6382C11.1132 15.7874 11.155 15.9378 11.2165 16.0774C11.2254 16.0976 11.2621 16.153 11.249 16.1351C11.1207 15.9602 10.821 15.9137 10.7526 15.6935C10.7375 15.6447 10.71 15.6146 10.6828 15.5738C10.6655 15.5479 10.6611 15.4562 10.6233 15.4541C10.5491 15.4499 10.5739 15.5988 10.5739 15.6364C10.5739 15.715 10.5652 15.7315 10.4801 15.7236C10.4486 15.7207 10.3859 15.7054 10.3712 15.6857C10.321 15.6188 10.2311 15.5805 10.1708 15.5226C10.1144 15.4685 10.0717 15.4031 10.0168 15.3482C9.99006 15.3215 9.93611 15.312 9.92411 15.276" stroke="white" stroke-linecap="round"/>
<path d="M9.25455 -0.0134067C9.1865 -0.00465581 8.94395 0.0259723 8.7227 0.0522249C7.55255 0.187864 6.15695 0.651663 5.0847 1.25985C2.37852 2.80876 0.57015 5.45153 0.0978465 8.55808C-0.00852771 9.23628 -0.00427275 10.7414 0.0978465 11.4021C0.195711 12.0016 0.429735 12.9379 0.599935 13.4061C1.64241 16.2282 3.94009 18.4816 6.7654 19.4442C7.86745 19.8249 8.7993 19.9736 10.0204 19.9736C11.6926 19.9736 13.0712 19.6498 14.5308 18.906C15.82 18.2541 16.9135 17.3746 17.8155 16.272C18.441 15.5019 19.0878 14.3643 19.441 13.4061C19.6197 12.916 19.8537 11.9841 19.9431 11.3803C20.0452 10.6933 20.0452 9.23193 19.9431 8.55808C19.6793 6.84728 19.0282 5.28528 18.0283 3.9595C16.4284 1.85053 14.1095 0.467892 11.4841 0.0697269C11.0629 0.00409508 9.5269 -0.0527856 9.25455 -0.0134067ZM11.4459 0.686663C15.352 1.29485 18.4666 4.26578 19.2495 8.13368L19.3601 8.67188L19.0112 9.01753C18.6581 9.35878 18.6581 9.35878 18.5687 9.27568C18.4156 9.13128 18.0411 9.21003 18.0411 9.38943C18.0411 9.42443 17.9901 9.46383 17.9262 9.47693C17.539 9.56008 16.854 9.74823 16.488 9.87948C16.0625 10.0282 15.1179 10.4833 14.7775 10.7021L14.5988 10.8158L14.6584 10.6627C14.6924 10.5752 14.7222 10.422 14.7222 10.3126C14.7222 10.1289 14.735 10.1114 14.9264 9.98888C15.8115 9.40258 15.8497 8.62808 15.0328 7.80553L14.7222 7.49488L14.8329 7.12733C15.0924 6.28288 15.5562 5.32463 15.8838 4.96148L16.054 4.76896L15.8072 4.39704C14.935 3.07566 13.6159 2.19182 12.1352 1.92929C11.3182 1.7849 10.4757 1.81553 9.5609 2.02555C9.1014 2.13056 9.13115 2.09556 9.08435 2.56373C9.04605 2.9619 8.8248 4.02951 8.65885 4.63769C8.49715 5.20213 8.30995 5.63528 7.9483 6.25223C7.7483 6.59788 7.727 6.61538 7.59935 6.60228C7.476 6.58913 7.46745 6.58038 7.48025 6.43163C7.493 6.30913 7.4632 6.23473 7.34835 6.07723L7.20365 5.88033L7.68445 5.65278C7.9483 5.52593 8.1993 5.38153 8.2376 5.33778C8.28015 5.28963 8.31845 5.15398 8.33125 5.01838L8.34825 4.78208L8.01635 4.75145C7.7568 4.7252 7.51855 4.7427 6.96115 4.82584C6.2718 4.92647 6.24205 4.92647 6.08035 4.85209C5.9314 4.78646 5.89315 4.78646 5.69315 4.83896C5.56975 4.86959 5.37825 4.88709 5.2549 4.87397C5.11445 4.85646 4.98682 4.87397 4.88044 4.91772C4.70599 4.99648 4.34006 5.27653 4.03795 5.56968C3.68479 5.91093 3.31887 6.67228 3.31887 7.06168C3.31887 7.22798 3.221 7.39858 2.90188 7.79238C2.89336 7.80553 2.79976 7.71803 2.70189 7.60423L2.51467 7.39423L2.42532 7.71363C2.37426 7.88863 2.31469 8.11178 2.2849 8.20808C2.25937 8.30433 2.23384 8.39183 2.22533 8.40493C2.21682 8.41368 2.153 8.35683 2.08067 8.27368C1.91898 8.07678 1.90621 8.10303 1.79133 8.72873C1.33605 11.2096 1.88068 13.2398 3.3061 14.3424C4.25496 15.0775 5.41655 15.4319 7.0122 15.48C7.78235 15.5063 7.7866 15.5063 7.7866 15.6069C7.7866 15.7119 7.7653 15.7163 7.3611 15.782C6.5484 15.9045 5.58675 16.4383 4.62089 17.3046L4.38261 17.5146L3.9869 17.1865C0.353145 14.1499 -0.459556 8.89498 2.08492 4.92647C2.96144 3.56571 4.15709 2.45872 5.574 1.69739C6.63775 1.12421 7.90575 0.739168 9.1099 0.616658C9.65025 0.564153 10.897 0.599153 11.4459 0.686663ZM11.748 2.52435C11.9692 2.56373 12.3479 2.65999 12.5905 2.74312C13.0202 2.88751 13.6159 3.17629 13.6159 3.23755C13.6159 3.25505 13.5266 3.38631 13.4202 3.5307C13.0798 3.97262 12.6628 4.65082 12.4032 5.17148C12.2671 5.44713 12.1522 5.67468 12.148 5.68343C12.1437 5.68778 12.0161 5.64403 11.8629 5.58718C11.3863 5.40338 10.8459 5.28088 10.0928 5.18463C9.90555 5.16273 9.8673 5.14523 9.88855 5.08398C9.89705 5.04463 10.0035 4.73395 10.1226 4.39267C10.3183 3.81948 10.4715 3.17629 10.531 2.65999L10.5566 2.45434H10.9523C11.1693 2.45434 11.5267 2.48497 11.748 2.52435ZM15.3732 4.49768C15.4371 4.58519 15.4881 4.68145 15.4881 4.71207C15.4881 4.7427 15.3818 4.93085 15.2498 5.13213C14.9222 5.63093 14.5393 6.43163 14.3223 7.06608C14.2967 7.14043 14.2712 7.12733 14.084 6.93918L13.8755 6.72918L13.9818 6.44913C14.2414 5.73593 15.0541 4.33141 15.203 4.33579C15.2328 4.34016 15.3052 4.41017 15.3732 4.49768ZM7.93125 5.01838C8.03765 5.05773 8.0121 5.15838 7.88445 5.22838C7.8164 5.25903 7.59935 5.33778 7.39515 5.40338C7.19515 5.46463 7.0207 5.53903 7.0122 5.56968C6.98665 5.64403 6.8675 5.58278 6.7824 5.45153C6.68455 5.29838 6.7356 5.21088 6.96115 5.13213C7.23345 5.03588 7.80785 4.97023 7.93125 5.01838ZM5.98675 5.19773C6.17395 5.28963 7.06325 6.17348 7.06325 6.26538C7.06325 6.31788 6.99515 6.34848 6.79945 6.38788C6.6505 6.41413 6.4335 6.48853 6.31435 6.55413L6.09735 6.67228L5.774 6.51038C5.4123 6.33538 5.16555 6.16908 4.92299 5.93718C4.83363 5.84968 4.75704 5.77968 4.75279 5.77968C4.74854 5.77968 4.7613 5.97223 4.78258 6.21288C4.83364 6.81228 4.79959 6.99168 4.56983 7.31108C4.39963 7.55173 4.34857 7.66113 4.40388 7.66113C4.46345 7.66113 4.75279 7.48613 4.81662 7.41608C4.94426 7.26298 5.06765 6.97418 5.0932 6.75103L5.1187 6.53228L5.3485 6.68538C5.47615 6.76853 5.6421 6.86478 5.71865 6.89543C5.84205 6.94793 5.85485 6.97418 5.8378 7.08793C5.81655 7.24983 5.8591 7.25423 6.21225 7.15793C6.3399 7.12293 6.53135 7.09233 6.63775 7.09233C6.87175 7.09233 7.1696 7.25423 7.1696 7.37673C7.1696 7.45548 7.1313 7.46863 6.8675 7.49048C6.62075 7.50798 6.48455 7.55173 6.14415 7.72238C5.9144 7.83613 5.61655 7.99368 5.4889 8.07678C5.2804 8.20368 5.22935 8.21683 5.0166 8.19933C4.70599 8.16868 4.61664 8.22118 4.53154 8.49248C4.46346 8.70248 4.4592 8.70688 4.32729 8.68063C3.9486 8.60623 3.14866 8.17308 3.14866 8.04178C3.14866 7.94118 3.23802 7.70488 3.28057 7.70488C3.29759 7.70488 3.34439 7.75738 3.37843 7.82303L3.438 7.94553L3.46354 7.83613C3.5614 7.35048 3.59969 7.20173 3.70607 6.90418C4.01668 6.02033 4.65493 5.25903 5.0932 5.25463C5.18255 5.25028 5.36125 5.22398 5.4889 5.18898C5.7995 5.11023 5.8123 5.11023 5.98675 5.19773ZM10.4885 5.53468C11.1012 5.64843 11.5139 5.80593 12.4117 6.26538C13.2926 6.72043 13.3223 6.79478 12.4798 6.45348C12.2203 6.34848 11.9862 6.26098 11.965 6.26098C11.9096 6.26098 11.8118 6.54978 11.8458 6.60663C11.8586 6.62853 12.016 6.65913 12.1947 6.67663C12.5735 6.71168 13.1351 6.86043 13.6159 7.05293C13.9903 7.19733 14.0414 7.26733 13.7181 7.18418C12.8671 6.96108 12.1437 6.86918 10.4459 6.76853C8.995 6.67663 8.58225 6.63288 8.2759 6.52788L8.0206 6.44038L8.6291 6.44913L9.2418 6.46228L9.38645 6.16473C9.53115 5.86718 9.53115 5.86718 9.7141 5.86718C9.81195 5.86718 10.229 5.90658 10.6375 5.95468C11.0459 5.99848 11.3863 6.03348 11.3948 6.02473C11.4161 6.00283 10.7438 5.81908 10.3821 5.74908C10.2076 5.71843 9.7141 5.67903 9.2886 5.66153C8.6631 5.63968 8.50995 5.62218 8.50995 5.57403C8.50995 5.54343 8.5525 5.49528 8.6078 5.47338C8.74395 5.40778 10.0332 5.45588 10.4885 5.53468ZM8.127 7.00483C8.3738 7.07918 8.65035 7.15793 8.7482 7.17983C8.88865 7.21483 10.2673 7.43798 10.3736 7.44238C10.3906 7.44673 10.3268 7.48613 10.2332 7.53863C9.96515 7.67863 9.7439 7.93243 9.7439 8.09868C9.7439 8.19493 9.92685 8.13368 10.0545 7.99368C10.4161 7.59548 10.6927 7.68738 11.1905 8.36118C11.4501 8.71123 11.5055 8.75938 11.5437 8.65433C11.5905 8.52308 11.2459 7.80553 11.0629 7.64363C10.8927 7.49923 10.914 7.49923 11.6884 7.66548C12.4756 7.83178 12.833 7.93678 13.2117 8.12053C13.8032 8.40493 14.0414 8.66313 14.0414 9.02188C14.0414 9.26253 14.0159 9.28003 13.6627 9.28003C13.4585 9.28003 13.3904 9.30193 13.2627 9.40258C13.05 9.56883 12.9861 9.70008 13.0712 9.79198C13.1607 9.87948 13.301 9.84448 13.4712 9.69573C13.5946 9.58633 13.7052 9.56443 13.9988 9.58193C14.2116 9.59943 14.3691 9.76573 14.4286 10.0457C14.4712 10.2426 14.4669 10.2951 14.4031 10.4352C14.2626 10.7327 13.8159 10.9777 13.3393 11.0127C12.8883 11.0477 12.85 11.0608 12.85 11.1834C12.85 11.2709 12.8713 11.2927 12.9564 11.2927C13.1776 11.2927 13.1266 11.4153 12.7479 11.7784C11.9181 12.5791 11.2586 13.6074 10.9225 14.6268C10.9055 14.6706 10.8545 14.7056 10.8034 14.7056C10.697 14.7056 10.2927 14.4912 10.1055 14.3381L9.9779 14.233L10.0673 14.1062C10.1821 13.9486 10.2587 13.9355 10.5609 14.0318C10.8034 14.1062 10.8119 14.1062 10.8715 14.023C10.9055 13.9793 10.9353 13.9268 10.9353 13.9136C10.9353 13.9005 10.8033 13.8436 10.6417 13.7867C10.3566 13.6861 10.3481 13.6774 10.4375 13.6161C10.5736 13.5242 10.8502 13.2529 10.897 13.1611C10.931 13.1042 10.8545 13.1261 10.6076 13.2529C10.2758 13.4236 10.2715 13.4236 9.61625 13.4542C8.9184 13.4892 8.7142 13.463 8.2972 13.2967C7.99935 13.1786 7.58235 12.8767 7.38235 12.6404L7.2292 12.4522L7.51855 12.4172C7.8887 12.3779 8.28015 12.2728 8.44185 12.1766C8.56525 12.1022 8.5695 12.1022 8.9099 12.2816C9.42475 12.5572 9.6843 12.6229 10.1608 12.5923C10.4757 12.5747 10.6076 12.5441 10.8204 12.4391C11.4161 12.1503 11.8714 11.669 11.8714 11.3277C11.8714 11.1309 11.8629 11.1309 11.4884 11.2534C10.8459 11.4634 10.3778 11.3146 9.82045 10.7239C9.46305 10.3476 9.2886 10.2295 9.11415 10.2514C9.0248 10.2601 8.995 10.2908 8.9865 10.387C8.97375 10.4877 8.995 10.5183 9.11415 10.5664C9.19075 10.6014 9.3567 10.7589 9.49285 10.9296C9.84175 11.3671 10.5055 11.7303 10.9565 11.7303C11.0629 11.7303 11.148 11.7478 11.148 11.7697C11.148 11.9228 10.5098 12.2028 10.0758 12.2422C9.6971 12.2816 9.19925 12.1153 8.68865 11.7872L8.46315 11.6384L8.2844 11.7959C8.06315 11.9928 7.85465 12.0541 7.3994 12.0584C7.0675 12.0584 7.0122 12.0453 6.7441 11.9053C6.408 11.7303 6.05055 11.3934 5.91865 11.1309C5.8378 10.9646 5.80375 10.8114 5.8463 10.8114C5.85485 10.8114 6.01225 10.8858 6.19525 10.9733C6.6505 11.1965 6.9186 11.2009 7.3313 10.9865C7.6334 10.8333 7.88445 10.5883 7.8632 10.4745C7.8334 10.3258 7.7185 10.3083 7.57385 10.4352C7.3526 10.6233 7.11005 10.7327 6.84625 10.7546L6.6037 10.7808L6.5739 10.2689C6.5569 9.99323 6.5569 9.63008 6.56965 9.46818C6.6505 8.65873 6.9441 7.86238 7.2079 7.73113C7.4632 7.60863 7.6079 7.64798 8.0036 7.95868C8.21635 8.12493 8.25465 8.08993 8.14825 7.81428C8.0674 7.59113 7.7951 7.31983 7.6164 7.28048C7.5313 7.26298 7.48875 7.22798 7.48875 7.17543C7.48875 7.06168 7.5781 6.87353 7.6334 6.87353C7.65895 6.87353 7.8802 6.93478 8.127 7.00483ZM13.0372 7.49048C14.3988 7.67423 15.2753 8.21683 15.2753 8.88623C15.2753 9.17943 15.0668 9.51193 14.786 9.66073C14.6839 9.71758 14.6584 9.71758 14.6413 9.66948C14.6158 9.59068 14.4201 9.38943 14.3435 9.36318C14.2967 9.34568 14.3052 9.30628 14.3776 9.15753C14.6159 8.67623 14.3861 8.30433 13.6372 7.94553C13.2628 7.76613 12.9054 7.64798 12.3394 7.50798L11.8926 7.39858L12.2969 7.42048C12.5182 7.43358 12.85 7.46423 13.0372 7.49048ZM6.80795 7.73988C6.80795 7.76178 6.73135 7.98053 6.642 8.23433C6.4165 8.84248 6.3399 9.32818 6.3399 10.1245V10.7721L6.2463 10.7414C6.06335 10.6846 5.8463 10.5533 5.7059 10.422L5.56975 10.2908L5.53145 10.4002C5.47615 10.5489 5.4804 10.6189 5.55275 10.8683C5.7059 11.3846 5.9825 11.7959 6.39945 12.1153L6.659 12.3122L6.5016 12.286C6.25055 12.2466 6.0463 12.1241 5.75695 11.8441C5.25915 11.3671 5.0932 10.9515 5.08895 10.1858C5.08895 9.81823 5.07615 9.67383 5.0379 9.67383C4.91022 9.67383 4.95278 9.25378 5.1102 8.98253C5.15275 8.90378 5.19105 8.82938 5.19105 8.82063C5.19105 8.81188 5.08045 8.79873 4.94852 8.78998C4.72301 8.77688 4.70174 8.76813 4.68897 8.66748C4.68046 8.60623 4.70599 8.51873 4.74003 8.47058C4.79109 8.39618 4.84214 8.38308 5.10595 8.39618C5.39105 8.40493 5.43785 8.39183 5.7995 8.21683C6.0165 8.11178 6.30585 7.95428 6.44625 7.86678C6.6973 7.70928 6.80795 7.66988 6.80795 7.73988ZM3.07633 8.26493C3.59544 8.68938 4.16561 8.93003 4.64217 8.93003C4.77832 8.93003 4.89321 8.94753 4.89321 8.96503C4.89321 8.98253 4.85491 9.12253 4.80385 9.27128L4.7145 9.54258H4.46771C4.17412 9.54258 3.74862 9.41568 3.34014 9.20568C2.99549 9.02628 2.6168 8.78563 2.48489 8.65873L2.39128 8.57558L2.47638 8.23868C2.59552 7.73988 2.58701 7.75303 2.70615 7.91053C2.76147 7.98493 2.9274 8.14678 3.07633 8.26493ZM19.2155 9.57758C18.8197 9.76133 18.7814 9.61258 19.1388 9.27568L19.3814 9.04813L19.4027 9.26253L19.424 9.47693L19.2155 9.57758ZM18.5389 9.82698C18.5475 9.85323 18.407 9.89698 18.2283 9.92763C17.7007 10.0107 17.3603 10.2776 17.3603 10.6014C17.3603 10.7633 17.5178 10.9646 17.5986 10.9077C17.6241 10.8902 17.6879 10.7939 17.739 10.6933C17.9177 10.3258 18.1559 10.1157 18.4581 10.0457C18.5857 10.0195 18.5985 10.0282 18.6623 10.1814C18.7219 10.3301 18.7219 10.3476 18.6581 10.3827C18.5049 10.4745 18.2879 10.7021 18.2071 10.8596C18.1007 11.0783 18.1049 11.319 18.2241 11.5553C18.3602 11.8353 18.407 11.8222 18.4326 11.4984C18.4453 11.3496 18.4879 11.1571 18.5304 11.074C18.6112 10.9077 18.8027 10.6802 18.858 10.6802C18.9304 10.6802 18.8921 11.1134 18.8027 11.2709C18.7219 11.4109 18.7176 11.4459 18.7645 11.634C18.8155 11.8484 18.9347 12.0803 19.0708 12.2378C19.1517 12.3341 19.1517 12.3385 18.9857 12.8504C18.8921 13.1392 18.7261 13.5724 18.6155 13.813C18.424 14.2418 18.4112 14.2593 18.2624 14.2855C17.9645 14.3337 16.9646 14.3118 16.5178 14.2418C16.1519 14.1893 16.0625 14.1849 16.037 14.233C15.9689 14.3424 15.9944 14.85 16.0795 15.0119C16.1859 15.2175 16.522 15.3925 16.9475 15.4582L17.2752 15.5107V15.7382C17.2752 15.8957 17.2496 15.9963 17.1943 16.0664L17.1178 16.167L17.0879 16.0707C17.0497 15.9526 17.0369 15.9526 16.8284 16.062C16.7348 16.1101 16.6072 16.1495 16.5434 16.1495C16.4114 16.1495 16.3986 16.1845 16.4795 16.2983C16.522 16.3595 16.5816 16.3726 16.7348 16.3639C16.9177 16.3464 16.9263 16.3508 16.8582 16.4164C16.7603 16.5127 16.4029 16.6308 16.2029 16.6308C15.9093 16.6308 15.9477 16.8758 16.2455 16.9021L16.4029 16.9196L16.288 16.9721C15.9136 17.1383 15.0073 17.1165 14.5308 16.9327C13.5138 16.5433 12.7394 15.2875 12.8202 14.163C12.8968 13.1392 13.4287 12.1635 14.3223 11.424C15.1562 10.7371 16.4072 10.1726 17.7858 9.87073C18.2879 9.76133 18.5134 9.74823 18.5389 9.82698ZM19.4367 9.96698C19.424 10.1157 19.4112 10.1333 19.275 10.1595C19.1133 10.1945 19.0623 10.1551 19.0623 9.99763C19.0623 9.93198 19.1006 9.89263 19.2027 9.85758C19.4367 9.78323 19.4495 9.79198 19.4367 9.96698ZM2.11045 10.0151C2.13173 10.0326 2.17428 10.3214 2.20406 10.6583C2.23384 11.0521 2.28916 11.4109 2.3615 11.6647C2.94017 13.7517 4.79534 15.0119 7.28875 15.0119H7.7483L7.73555 15.13L7.72275 15.2525L7.12705 15.2438C4.71875 15.2175 2.92315 14.1149 2.2381 12.2378C2.07641 11.8003 1.95301 11.1484 1.92748 10.5795C1.90621 10.1595 1.91472 10.0501 1.96152 10.0195C2.03386 9.97138 2.05088 9.97138 2.11045 10.0151ZM13.6713 11.6122C13.0841 12.2422 12.7266 12.8942 12.5267 13.6905C12.2458 14.8019 12.4926 15.8607 13.1989 16.6002L13.484 16.8977L13.1479 16.8671L12.816 16.8408L12.6372 17.0071L12.4628 17.1777L11.6459 16.7621C11.1948 16.5345 10.6459 16.2808 10.4247 16.1976C10.2034 16.1145 9.9694 15.9963 9.9013 15.9351C9.59495 15.6463 9.2716 14.955 9.20775 14.4518L9.17795 14.2199L9.57795 14.4912C10.1566 14.8806 10.6119 15.0994 10.8459 15.0994L11.0416 15.095L11.1608 14.8194C11.3651 14.3556 11.8926 13.4717 12.3054 12.9029C12.7521 12.2947 13.6755 11.3102 13.8329 11.2796C13.8883 11.2709 13.952 11.2577 13.9733 11.2534C13.9946 11.2534 13.8584 11.4109 13.6713 11.6122ZM8.3142 13.9136C8.2291 14.1105 8.1653 14.2724 8.1738 14.2812C8.49715 14.4824 8.9312 14.8106 8.91415 14.8369C8.9014 14.8587 8.7482 14.9594 8.57375 15.06C8.3993 15.165 8.25465 15.2613 8.25465 15.2744C8.25465 15.2919 8.29295 15.34 8.344 15.3882C8.39505 15.4319 8.4589 15.5238 8.4929 15.5894C8.5525 15.7076 8.5525 15.7119 8.43335 15.7119C8.30995 15.7119 8.13975 15.5632 8.04615 15.3707C7.99935 15.2832 8.01635 15.2481 8.2206 15.0294L8.4461 14.7844L8.31845 14.6925C8.0674 14.5043 7.91425 14.3468 7.91425 14.2724C7.91425 14.1149 8.42485 13.4105 8.4589 13.5198C8.4674 13.5417 8.3993 13.7211 8.3142 13.9136ZM17.4539 14.5918C17.8709 14.5918 18.2113 14.605 18.2113 14.6137C18.2113 14.6443 17.6581 15.4888 17.6199 15.5107C17.5986 15.5238 17.5603 15.48 17.5305 15.41C17.4709 15.2613 17.3476 15.2044 17.0072 15.1694C16.7433 15.1388 16.4923 15.0513 16.3774 14.9419C16.3008 14.8719 16.2327 14.6006 16.271 14.5349C16.2838 14.5131 16.3859 14.5174 16.4965 14.5393C16.6114 14.5656 17.0411 14.5875 17.4539 14.5918ZM8.89715 16.1057C9.7226 16.202 10.5225 16.4908 11.6926 17.1165L12.4331 17.5103L12.6628 17.3309C12.7905 17.2346 12.9223 17.1427 12.9564 17.1296C12.9904 17.1165 13.1691 17.1908 13.3478 17.3002C13.918 17.6371 14.4754 17.9084 14.5393 17.8778C14.5903 17.8603 14.5988 17.8122 14.5775 17.6546L14.552 17.4534L14.6924 17.4796C14.7647 17.4971 14.9988 17.519 15.2072 17.5365L15.5859 17.5628L15.1818 17.8297C14.6967 18.1491 14.0457 18.4904 13.4925 18.7091C13.1053 18.8623 13.0883 18.8666 13.016 18.7879C12.9734 18.7441 12.901 18.5997 12.8542 18.4685C12.7819 18.2585 12.7691 18.2453 12.7691 18.3635C12.7649 18.4378 12.7947 18.5954 12.8287 18.7135C12.8628 18.8316 12.8926 18.9323 12.8926 18.9366C12.8926 18.9629 11.7182 19.2254 11.3395 19.2823C10.6928 19.3829 9.3737 19.3829 8.70565 19.2823C7.71 19.1335 6.68455 18.8141 5.80805 18.3766C5.35275 18.1491 4.68046 17.7378 4.68046 17.6896C4.68046 17.6503 5.3953 17.1296 5.73145 16.9196C6.4165 16.4995 7.2207 16.1932 7.8504 16.1101C8.27165 16.0576 8.4759 16.0576 8.89715 16.1057Z" fill="#333333"/>
<path d="M5.54426 5.54348C5.51021 5.63533 5.82936 5.96789 6.10591 6.13414C6.22506 6.20419 6.33146 6.26103 6.35271 6.26103C6.36971 6.26103 6.24636 6.08603 6.07616 5.87163C5.76551 5.47783 5.60811 5.38158 5.54426 5.54348Z" fill="#333333"/>
<path d="M12.9138 8.46171C12.7521 8.52296 12.6543 8.58421 12.6457 8.63671C12.6245 8.75486 12.7521 8.77236 13.0244 8.68921C13.318 8.59736 13.3989 8.52296 13.318 8.42671C13.25 8.34356 13.2244 8.34796 12.9138 8.46171Z" fill="#333333"/>
<path d="M7.53554 8.57548C7.46749 8.69803 7.47599 8.77678 7.56534 8.85553C7.67169 8.95178 7.75679 8.94743 7.85044 8.84238C7.91424 8.77238 7.92274 8.72863 7.88869 8.63238C7.83764 8.47923 7.60364 8.43988 7.53554 8.57548Z" fill="#333333"/>
<path d="M10.1056 8.65008C10.0247 8.73758 10.0375 8.92573 10.1311 8.98698C10.2332 9.05263 10.412 8.99133 10.4375 8.87758C10.4715 8.75508 10.3651 8.58008 10.2545 8.58008C10.212 8.58008 10.1439 8.61068 10.1056 8.65008Z" fill="#333333"/>
<path d="M13.233 8.83373C13.1181 8.88183 13.0372 8.94313 13.0287 8.99123C12.9989 9.13563 13.084 9.16628 13.3053 9.08313C13.5563 8.98688 13.6287 8.92563 13.5904 8.82933C13.5563 8.73748 13.4797 8.73748 13.233 8.83373Z" fill="#333333"/>
<path d="M8.20361 9.43316C8.05896 9.51626 7.89726 9.86631 7.90151 10.0807C7.91856 10.422 8.11426 10.5752 8.50146 10.5358C8.75251 10.5095 8.85036 10.4483 8.85036 10.3258C8.85036 10.2514 8.81636 10.2426 8.58231 10.2426C8.42916 10.2426 8.29296 10.2207 8.26321 10.1901C8.16106 10.0851 8.23766 9.77006 8.39936 9.63441C8.43766 9.59941 8.46741 9.52941 8.46741 9.47251C8.46741 9.35001 8.37806 9.33691 8.20361 9.43316Z" fill="#333333"/>
<path d="M2.55299 8.40065C2.49768 8.51005 2.53597 8.61065 2.64234 8.64565C2.80403 8.69815 2.91892 8.4925 2.79978 8.37C2.72319 8.29125 2.60405 8.30875 2.55299 8.40065Z" fill="#333333"/>
<path d="M14.5946 12.3429C14.5605 12.3648 14.5095 12.4479 14.484 12.5267C14.4584 12.6054 14.4074 12.6754 14.3691 12.6842C14.2882 12.7017 14.2755 12.6011 14.3393 12.4698C14.3733 12.4042 14.3691 12.3779 14.3223 12.3604C14.2244 12.321 14.084 12.426 14.0585 12.5529C14.0414 12.6492 13.9734 12.7061 13.7564 12.8198C13.4074 13.008 13.267 13.2093 13.267 13.5112C13.2713 13.8918 13.3947 14.1062 13.6542 14.1806C13.8968 14.2506 13.9138 14.2725 13.9393 14.6313L13.9691 14.9682H13.8415C13.7096 14.9682 13.5266 14.85 13.3862 14.6707C13.3394 14.6094 13.2926 14.5831 13.267 14.6094C13.216 14.6619 13.2968 15.1695 13.3819 15.3007C13.45 15.4101 13.6755 15.4932 13.9053 15.4932C14.0117 15.4932 14.0542 15.5151 14.0797 15.5982C14.1478 15.782 14.3818 15.7864 14.3478 15.6026C14.3223 15.4582 14.4074 15.4626 14.5393 15.607C14.6584 15.7383 14.7903 15.7295 14.7775 15.5895C14.769 15.5064 14.7861 15.4932 14.9052 15.4932C15.0711 15.4932 15.1945 15.3751 15.2967 15.1344C15.3945 14.885 15.3775 14.6181 15.2413 14.3512C15.1477 14.1631 15.0797 14.0975 14.8584 13.9706C14.5733 13.8087 14.5563 13.7781 14.6201 13.3843L14.6456 13.2224L14.8541 13.3318C14.969 13.3886 15.0882 13.4762 15.1137 13.5243C15.2073 13.673 15.2328 13.6205 15.2286 13.2924C15.2201 12.798 15.203 12.7673 14.9392 12.7236C14.7222 12.6842 14.7137 12.6798 14.7393 12.5704C14.7903 12.356 14.7861 12.3254 14.7222 12.3123C14.6882 12.3035 14.6286 12.3167 14.5946 12.3429ZM14.3521 13.4674C14.3223 13.7606 14.3223 13.7606 14.2329 13.7299C14.1095 13.6774 14.1648 13.218 14.2967 13.218C14.3648 13.218 14.3733 13.2486 14.3521 13.4674ZM13.901 13.533C13.8883 13.6205 13.884 13.6249 13.8542 13.5549C13.8329 13.5155 13.8329 13.428 13.8542 13.358C13.884 13.2486 13.8883 13.2443 13.901 13.3361C13.9138 13.393 13.9138 13.4805 13.901 13.533ZM14.3606 14.4519C14.3691 14.4825 14.3818 14.6138 14.3946 14.7363C14.4116 14.9551 14.4074 14.9682 14.3138 14.9682C14.2244 14.9682 14.2116 14.9463 14.2116 14.8194C14.2116 14.7407 14.1989 14.6094 14.1861 14.535C14.1606 14.4169 14.1691 14.3994 14.2499 14.3994C14.301 14.3994 14.3478 14.4256 14.3606 14.4519ZM14.7903 14.64C14.8499 14.7319 14.8541 14.7757 14.8158 14.8588C14.7307 15.0513 14.6371 14.9944 14.6371 14.7494C14.6371 14.5088 14.6839 14.4738 14.7903 14.64Z" fill="#333333"/>
<path d="M18.1475 13.7737C18.1347 13.8656 18.0922 13.9837 18.0624 14.0319C17.9943 14.1369 18.0156 14.1806 18.1305 14.1806C18.2921 14.1806 18.4198 13.695 18.2709 13.6381C18.2326 13.625 18.1985 13.6118 18.19 13.6118C18.1858 13.6118 18.1645 13.6862 18.1475 13.7737Z" fill="#333333"/>
<path d="M16.0668 15.83C15.9264 15.8912 15.7136 15.9481 15.586 15.9612C15.386 15.9831 15.3604 15.9962 15.3604 16.0881C15.3604 16.1581 15.3902 16.1931 15.4796 16.2106C15.6328 16.2456 15.9987 16.1713 16.2114 16.0619C16.3519 15.9875 16.3816 15.9525 16.3816 15.8431C16.3816 15.69 16.3902 15.69 16.0668 15.83Z" fill="#333333"/>
<path d="M14.5478 16.3508C14.4244 16.5039 14.7052 16.6658 15.1137 16.6702C15.386 16.6746 15.5307 16.6133 15.5307 16.4908C15.5307 16.3945 15.5179 16.3902 15.1605 16.3902C14.952 16.3902 14.7478 16.3639 14.6967 16.3333C14.6201 16.2939 14.5946 16.2939 14.5478 16.3508Z" fill="#333333"/>
<path d="M11.2756 15.292C11.1565 15.4451 11.3225 15.6989 11.4799 15.5983C11.6288 15.502 11.5735 15.2307 11.4033 15.2307C11.3607 15.2307 11.3054 15.2614 11.2756 15.292Z" fill="#333333"/>
<path d="M11.7948 15.8519C11.7225 15.9263 11.731 16.0444 11.8118 16.1232C11.9054 16.2238 11.9863 16.2107 12.0629 16.0882C12.1182 16.005 12.1224 15.9613 12.0841 15.8913C12.0331 15.7906 11.8756 15.7688 11.7948 15.8519Z" fill="#333333"/>
<path d="M12.297 16.342C12.1778 16.4952 12.3438 16.7489 12.5012 16.6483C12.6501 16.552 12.5948 16.2808 12.4246 16.2808C12.3821 16.2808 12.3267 16.3114 12.297 16.342Z" fill="#333333"/>
</g>
<path d="M26.702 6.12806H28.781C29.147 6.12806 29.477 6.16106 29.771 6.22706C30.065 6.29306 30.317 6.40106 30.527 6.55106C30.737 6.70106 30.899 6.89306 31.013 7.12706C31.127 7.36106 31.184 7.64306 31.184 7.97306C31.184 8.32706 31.118 8.62406 30.986 8.86406C30.854 9.10406 30.674 9.29906 30.446 9.44906C30.224 9.59306 29.963 9.69806 29.663 9.76406C29.363 9.83006 29.045 9.86306 28.709 9.86306H27.836V12.5001H26.702V6.12806ZM28.628 8.90906C28.814 8.90906 28.991 8.89706 29.159 8.87306C29.327 8.84306 29.477 8.79506 29.609 8.72906C29.741 8.65706 29.846 8.56106 29.924 8.44106C30.002 8.32106 30.041 8.16506 30.041 7.97306C30.041 7.78706 30.002 7.63706 29.924 7.52306C29.846 7.40306 29.741 7.31006 29.609 7.24406C29.483 7.17806 29.336 7.13606 29.168 7.11806C29.006 7.09406 28.838 7.08206 28.664 7.08206H27.836V8.90906H28.628ZM33.657 6.12806H34.638L37.383 12.5001H36.087L35.493 11.0421H32.73L32.154 12.5001H30.885L33.657 6.12806ZM35.097 10.0701L34.116 7.47806L33.117 10.0701H35.097ZM39.0164 9.73706L36.6224 6.12806H38.0084L39.6104 8.81006L41.2304 6.12806H42.5444L40.1504 9.73706V12.5001H39.0164V9.73706ZM43.076 6.12806H45.155C45.521 6.12806 45.851 6.16106 46.145 6.22706C46.439 6.29306 46.691 6.40106 46.901 6.55106C47.111 6.70106 47.273 6.89306 47.387 7.12706C47.501 7.36106 47.558 7.64306 47.558 7.97306C47.558 8.32706 47.492 8.62406 47.36 8.86406C47.228 9.10406 47.048 9.29906 46.82 9.44906C46.598 9.59306 46.337 9.69806 46.037 9.76406C45.737 9.83006 45.419 9.86306 45.083 9.86306H44.21V12.5001H43.076V6.12806ZM45.002 8.90906C45.188 8.90906 45.365 8.89706 45.533 8.87306C45.701 8.84306 45.851 8.79506 45.983 8.72906C46.115 8.65706 46.22 8.56106 46.298 8.44106C46.376 8.32106 46.415 8.16506 46.415 7.97306C46.415 7.78706 46.376 7.63706 46.298 7.52306C46.22 7.40306 46.115 7.31006 45.983 7.24406C45.857 7.17806 45.71 7.13606 45.542 7.11806C45.38 7.09406 45.212 7.08206 45.038 7.08206H44.21V8.90906H45.002ZM50.031 6.12806H51.012L53.757 12.5001H52.461L51.867 11.0421H49.104L48.528 12.5001H47.259L50.031 6.12806ZM51.471 10.0701L50.49 7.47806L49.491 10.0701H51.471ZM54.3875 6.12806H55.5215V11.4921H58.2305V12.5001H54.3875V6.12806ZM59.75 9.73706L57.356 6.12806H58.742L60.344 8.81006L61.964 6.12806H63.278L60.884 9.73706V12.5001H59.75V9.73706ZM68.1535 7.62206C67.9855 7.39406 67.7665 7.22906 67.4965 7.12706C67.2265 7.01906 66.9625 6.96506 66.7045 6.96506C66.3745 6.96506 66.0745 7.02506 65.8045 7.14506C65.5345 7.26506 65.3005 7.43006 65.1025 7.64006C64.9105 7.85006 64.7605 8.09606 64.6525 8.37806C64.5505 8.66006 64.4995 8.96606 64.4995 9.29606C64.4995 9.64406 64.5505 9.96206 64.6525 10.2501C64.7545 10.5381 64.8985 10.7871 65.0845 10.9971C65.2765 11.2011 65.5045 11.3601 65.7685 11.4741C66.0325 11.5881 66.3295 11.6451 66.6595 11.6451C67.0015 11.6451 67.3045 11.5791 67.5685 11.4471C67.8325 11.3091 68.0455 11.1291 68.2075 10.9071L69.1165 11.5461C68.8345 11.9001 68.4895 12.1761 68.0815 12.3741C67.6735 12.5661 67.1965 12.6621 66.6505 12.6621C66.1525 12.6621 65.6935 12.5811 65.2735 12.4191C64.8595 12.2511 64.5025 12.0201 64.2025 11.7261C63.9025 11.4261 63.6685 11.0721 63.5005 10.6641C63.3325 10.2501 63.2485 9.79406 63.2485 9.29606C63.2485 8.78606 63.3355 8.32706 63.5095 7.91906C63.6895 7.50506 63.9325 7.15406 64.2385 6.86606C64.5505 6.57806 64.9165 6.35606 65.3365 6.20006C65.7565 6.04406 66.2125 5.96606 66.7045 5.96606C66.9085 5.96606 67.1215 5.98706 67.3435 6.02906C67.5655 6.06506 67.7785 6.12506 67.9825 6.20906C68.1865 6.28706 68.3785 6.38606 68.5585 6.50606C68.7385 6.62606 68.8915 6.77006 69.0175 6.93806L68.1535 7.62206ZM69.821 6.12806H70.955V8.70206H73.934V6.12806H75.068V12.5001H73.934V9.67406H70.955V12.5001H69.821V6.12806Z" fill="white"/>
</g>
<defs>
<clipPath id="clip0_1404_1907">
<rect width="76" height="20" fill="white"/>
</clipPath>
</defs>
</svg>
