<svg width="80" height="20" viewBox="0 0 80 20" fill="none" xmlns="http://www.w3.org/2000/svg">
<g clip-path="url(#clip0_1404_1944)">
<path fill-rule="evenodd" clip-rule="evenodd" d="M9.34318 10.7059C9.17973 10.542 8.98561 10.4119 8.77188 10.323C8.55816 10.2342 8.32902 10.1883 8.09757 10.188C7.86611 10.1877 7.63685 10.233 7.4229 10.3213C7.20894 10.4096 7.01447 10.5391 6.85058 10.7026C6.6867 10.866 6.55662 11.0602 6.46776 11.2739C6.3789 11.4876 6.33301 11.7167 6.3327 11.9482C6.3324 12.1797 6.37768 12.4089 6.46598 12.6229C6.55427 12.8368 6.68384 13.0313 6.84729 13.1952L13.6695 20.0001L16.1657 17.5103L9.34318 10.7059Z" fill="#F4A800"/>
<path fill-rule="evenodd" clip-rule="evenodd" d="M16.4366 6.80438L9.6147 0L7.1188 2.48959L13.9407 9.29425C14.104 9.45896 14.2982 9.58982 14.5122 9.67934C14.7262 9.76886 14.9557 9.81526 15.1877 9.8159C15.4196 9.81654 15.6494 9.7714 15.8639 9.68306C16.0783 9.59473 16.2732 9.46493 16.4374 9.30112C16.6017 9.13731 16.7319 8.9427 16.8208 8.72845C16.9096 8.5142 16.9553 8.28452 16.9553 8.05258C16.9552 7.82063 16.9093 7.59098 16.8203 7.37679C16.7313 7.1626 16.6009 6.96808 16.4366 6.80438Z" fill="#F4A800"/>
<path fill-rule="evenodd" clip-rule="evenodd" d="M9.87005 0.365479L9.61471 0L0.516349 9.0537C0.185737 9.38431 -9.21665e-09 9.83272 0 10.3003C9.21665e-09 10.7678 0.185737 11.2162 0.516349 11.5468C0.846961 11.8775 1.29537 12.0632 1.76292 12.0632C2.23048 12.0632 2.67889 11.8775 3.0095 11.5469L9.82238 4.76712C11.2769 3.31973 10.4895 1.25534 9.87005 0.365479Z" fill="#FFBB13"/>
<path fill-rule="evenodd" clip-rule="evenodd" d="M22.7706 8.45632C22.4393 8.1263 21.9909 7.94075 21.5233 7.94019C21.0557 7.93962 20.6068 8.12409 20.2747 8.45331L13.4624 15.2328C12.0079 16.6799 12.7953 18.7445 13.415 19.6339L13.6695 19.9999L22.7679 10.9459C22.9317 10.7827 23.0617 10.5888 23.1505 10.3753C23.2394 10.1618 23.2852 9.93292 23.2855 9.70169C23.2857 9.47045 23.2404 9.24143 23.152 9.02774C23.0637 8.81405 22.9341 8.61987 22.7706 8.45632Z" fill="#FFBB13"/>
<path fill-rule="evenodd" clip-rule="evenodd" d="M38.5278 13.9726H40.5336L36.9298 4.27697H35.0772L31.4843 13.9726H33.49L34.1498 12.0337H37.8681L38.5278 13.9726ZM34.7029 10.3942L35.9955 6.5893H36.0089L37.3084 10.3942H34.7029ZM45.6711 7.1956C45.2652 7.19162 44.8633 7.27666 44.4937 7.44474C44.1242 7.61283 43.796 7.85987 43.5322 8.16848H43.5122V7.30903H41.7262V13.9726H43.5122V10.6208C43.5122 9.43478 44.1185 8.80163 45.0248 8.80163C45.8511 8.80163 46.3043 9.19478 46.3043 10.4677V13.9794H48.09V10.0211C48.09 7.96876 47.0972 7.1956 45.6711 7.1956ZM53.7624 7.30876L52.2363 11.4337H52.2174L50.5851 7.30876H48.7191L51.3846 13.5594L50.1985 16.6712H52.0243L55.6147 7.30876H53.7621H53.7624ZM56.9547 13.9726H58.8476V10.6542H60.3602C62.4925 10.6542 63.912 9.63451 63.912 7.50875C63.912 5.64958 62.8925 4.27588 60.5402 4.27588H56.9547V13.9726ZM58.8473 8.95506V5.983H60.1999C61.3194 5.983 61.9259 6.5693 61.9259 7.46876C61.9259 8.36191 61.3262 8.95478 60.1199 8.95478H58.8476L58.8473 8.95506ZM70.0394 7.30876V8.06191H70.012C69.7687 7.78123 69.4662 7.55796 69.1263 7.40817C68.7864 7.25837 68.4175 7.18578 68.0462 7.1956C66.2604 7.1956 64.9076 8.63478 64.9076 10.6605C64.9076 12.7197 66.2536 14.0852 68.0996 14.0852C68.4809 14.1011 68.8605 14.026 69.2069 13.8661C69.5534 13.7061 69.8568 13.466 70.092 13.1655H70.1254V13.9726H71.824V7.30876H70.0394ZM68.4268 12.4868C67.427 12.4868 66.7207 11.7471 66.7207 10.6677C66.7207 9.52821 67.4739 8.80163 68.4333 8.80163C69.3996 8.80163 70.1128 9.60136 70.1128 10.6677C70.1128 11.7605 69.3528 12.4868 68.4268 12.4868ZM77.872 7.30876L76.3459 11.4337H76.327L74.6947 7.30876H72.8287L75.4941 13.5594L74.3081 16.6712H76.1339L79.7243 7.30876H77.8717H77.872Z" fill="white"/>
</g>
<defs>
<clipPath id="clip0_1404_1944">
<rect width="79.7243" height="20" fill="white"/>
</clipPath>
</defs>
</svg>
