<svg width="59" height="20" viewBox="0 0 59 20" fill="none" xmlns="http://www.w3.org/2000/svg">
<g clip-path="url(#clip0_1404_1951)">
<path d="M20.7243 10C20.7243 4.47715 16.2472 0 10.7243 0C5.20146 0 0.724304 4.47715 0.724304 10C0.724304 15.5228 5.20146 20 10.7243 20C16.2472 20 20.7243 15.5228 20.7243 10Z" fill="#F65648"/>
<path d="M8.19339 8.60328C8.23294 8.56837 8.25276 8.55092 8.25585 8.53387C8.25858 8.51901 8.25444 8.50373 8.24458 8.49228C8.23326 8.47914 8.2078 8.47419 8.15685 8.46423C7.5628 8.34864 6.9478 8.28083 6.4083 8.27519C6.38239 8.27492 6.36948 8.27478 6.35944 8.26992C6.35048 8.26564 6.34321 8.25892 6.33817 8.25042C6.33244 8.24082 6.33121 8.22805 6.32871 8.20255L6.12871 6.14564C6.12621 6.12014 6.12498 6.10737 6.1288 6.09678C6.13217 6.08746 6.13826 6.07932 6.14621 6.07346C6.1553 6.06678 6.16785 6.06437 6.19298 6.05951C9.20648 5.47646 12.2059 5.44655 15.2646 6.06064C15.2896 6.06564 15.3022 6.06814 15.3112 6.07487C15.3191 6.08078 15.3251 6.08892 15.3284 6.09823C15.3322 6.10882 15.3309 6.12155 15.3283 6.14696L15.1208 8.20282C15.1183 8.22828 15.1169 8.24096 15.1113 8.25055C15.1062 8.25901 15.0989 8.26569 15.09 8.26996C15.08 8.27478 15.0671 8.27492 15.0413 8.27519C14.5017 8.28078 13.8866 8.3486 13.2924 8.46423C13.2415 8.47419 13.216 8.47914 13.2047 8.49228C13.1949 8.50373 13.1907 8.51901 13.1934 8.53387C13.1965 8.55092 13.2163 8.56837 13.2559 8.60328C14.6875 9.86528 15.6999 11.528 15.7227 13.8639C15.7229 13.892 15.7231 13.906 15.7177 13.9168C15.7129 13.9262 15.7052 13.9341 15.6958 13.9389C15.685 13.9444 15.671 13.9444 15.6431 13.9444H13.5808C13.5528 13.9444 13.5388 13.9444 13.5282 13.9391C13.5188 13.9343 13.5113 13.9269 13.5064 13.9176C13.5009 13.907 13.5007 13.8926 13.5003 13.8639C13.4735 11.9142 12.4722 10.6144 10.7683 9.50169C10.7525 9.49142 10.7447 9.48628 10.7361 9.48423C10.7286 9.48251 10.7207 9.48251 10.7132 9.48423C10.7047 9.48628 10.6968 9.49142 10.681 9.50169C8.97708 10.6144 7.97576 11.9142 7.94903 13.8639C7.94862 13.8926 7.94844 13.907 7.94289 13.9176C7.93803 13.9269 7.93053 13.9343 7.92112 13.9391C7.91048 13.9444 7.89648 13.9444 7.86844 13.9444H5.80626C5.77826 13.9444 5.76426 13.9444 5.75348 13.9389C5.74412 13.9341 5.73635 13.9262 5.73162 13.9168C5.72621 13.906 5.72635 13.892 5.72662 13.8639C5.74935 11.528 6.76185 9.86528 8.19339 8.60328Z" fill="white"/>
<path d="M33.6298 14.091H27.0079V6.45459H29.2879V11.9091H33.6298V14.091Z" fill="white"/>
<path d="M42.6529 14.091H40.1875L39.6966 12.7382H36.7402L36.2493 14.091H33.8493L37.0784 6.45459H39.4129L42.6529 14.091ZM37.3729 10.84H39.0638L38.2129 8.63641L37.3729 10.84Z" fill="white"/>
<path d="M46.4502 11.5928L48.3266 6.45459H50.7593L47.6284 14.091H45.2064L42.0864 6.45459H44.5737L46.4502 11.5928Z" fill="white"/>
<path d="M58.9848 14.091H56.5193L56.0284 12.7382H53.072L52.5811 14.091H50.1811L53.4102 6.45459H55.7448L58.9848 14.091ZM53.7048 10.84H55.3957L54.5448 8.63641L53.7048 10.84Z" fill="white"/>
</g>
<defs>
<clipPath id="clip0_1404_1951">
<rect width="58.2605" height="20" fill="white" transform="translate(0.724304)"/>
</clipPath>
</defs>
</svg>
